<svg width="839" height="467" viewBox="0 0 839 467" fill="none" xmlns="http://www.w3.org/2000/svg">
<path fill-rule="evenodd" clip-rule="evenodd" d="M16.9312 0.162785C8.19907 1.27376 1.72793 6.68331 0.318285 14.0504C0.0580073 15.4118 0.0122915 46.93 0.0008626 233.5C-0.00840993 384.747 0.0567133 451.722 0.213699 452.546C1.39498 458.735 5.59672 463.328 12.1298 465.569C14.1361 466.257 15.4381 466.526 18.0094 466.783C20.9016 467.073 818.235 467.072 820.299 466.783C823.822 466.288 827.377 465.099 830.111 463.5C831.023 462.966 832.391 461.84 833.567 460.654C835.689 458.516 836.869 456.571 837.768 453.732L838.246 452.222L838.338 245.423C838.389 128.634 838.345 33.2273 838.236 26.2249C838.022 12.4344 838.05 12.7094 836.475 9.49095C835.089 6.65809 832.408 4.04625 829.248 2.45094C827.927 1.78375 825.811 1.11203 823.102 0.499184L821.054 0.0357738L419.747 0.00321194C186.119 -0.0157644 17.8099 0.050868 16.9312 0.162785ZM821.485 3.41572C826.021 4.33995 828.728 5.7056 831.097 8.26568C832.338 9.60654 833.465 11.5184 834.019 13.2224C834.48 14.6402 834.709 23.3726 834.73 40.4101C834.748 54.8362 834.76 54.6741 833.642 55.6992C833.36 55.9582 832.855 56.2741 832.52 56.4011C832.088 56.5648 711.899 56.6314 418.846 56.6306C43.3601 56.6293 5.71619 56.5984 5.06539 56.2896C3.57143 55.5806 3.64022 56.6871 3.7213 34.6881C3.78729 16.6976 3.82783 14.7864 4.16768 13.6099C5.87037 7.71365 10.9256 4.02081 18.4407 3.18369C19.4454 3.07177 187.15 3.00665 419.963 3.028C788.56 3.06142 819.894 3.09183 821.485 3.41572ZM235.267 14.519C233.466 14.6432 231.288 15.2658 229.255 16.2377C227.58 17.0386 226.929 17.5072 225.467 18.9653C222.115 22.3093 220.68 26.4763 221.262 31.176C221.7 34.7122 222.926 37.2984 225.424 39.9538C227.059 41.6923 228.829 42.9066 230.954 43.7478C235.667 45.6133 241.493 44.8659 245.042 41.9405C245.771 41.3395 247.567 38.6483 247.552 38.1804C247.548 38.0687 247.293 37.7937 246.985 37.5693L246.426 37.1615L243.266 38.8006C238.88 41.0764 236.717 41.5157 233.562 40.7719C226.494 39.1059 222.867 31.063 226.138 24.3115C226.998 22.5365 229.142 20.3987 231.005 19.4594C232.628 18.6408 234.955 18.0353 236.453 18.0417C238.879 18.0525 242.012 19.2795 243.752 20.9003C244.726 21.8075 244.755 21.8713 244.76 23.1132C244.766 24.6884 245.313 25.9717 246.295 26.7152C246.693 27.0167 247.86 27.6502 248.887 28.1229C251.095 29.139 250.943 29.29 251.153 25.8675C251.419 21.5194 250.388 20.0905 244.635 16.832C241.264 14.9229 238.676 14.284 235.267 14.519ZM341.47 14.8999C335.604 16.1935 330.924 20.6687 329.246 26.5895C328.881 27.8762 328.767 28.8585 328.763 30.7533C328.756 33.5941 329.098 35.1567 330.268 37.6346C332.794 42.9831 336.834 45.888 343.049 46.825C344.864 47.0984 366.845 47.1394 511.718 47.1389C620.096 47.1385 678.978 47.0639 680.241 46.925C683.124 46.6082 684.998 46.1187 686.943 45.1749C691.061 43.1763 694.161 39.3817 695.376 34.8505C695.894 32.922 695.901 28.7759 695.391 26.8718C694.889 24.9994 693.297 21.859 692.126 20.433C690.361 18.2822 687.512 16.3408 684.937 15.5347C681.712 14.5246 691.921 14.5796 511.61 14.5977C372.402 14.6115 342.537 14.6646 341.47 14.8999ZM150.249 15.3495C149.566 15.5144 148.713 15.8012 148.354 15.9869C147.358 16.5023 137.289 26.6393 136.868 27.5513C136.353 28.6637 136.4 30.4014 136.976 31.6016C137.306 32.2882 139.058 34.1906 142.763 37.8854C148.433 43.5397 148.301 43.4433 150.809 43.7765L151.636 43.8864L151.488 42.7647C151.202 40.5962 150.784 40.0191 146.23 35.5192C140.1 29.4625 140.116 29.6807 145.424 24.4068C147.342 22.501 149.78 19.9855 150.841 18.8167L152.771 16.692L152.32 15.9149C152.072 15.4875 151.784 15.1179 151.68 15.0937C151.576 15.0693 150.932 15.1845 150.249 15.3495ZM183.675 15.3758C183.176 15.5065 183.161 17.1378 183.65 18.1681C183.843 18.5761 186.072 20.9255 188.603 23.389C193.588 28.2411 194.079 28.9081 193.643 30.2306C193.476 30.7369 191.903 32.4627 188.576 35.79C185.773 38.5931 183.707 40.8306 183.644 41.129C183.585 41.4117 183.498 42.1527 183.449 42.7752L183.361 43.9074H184.756H186.151L192.497 37.5169C196.346 33.6399 198.964 30.8342 199.152 30.3839C199.704 29.0629 199.326 28.5777 192.338 21.6425L185.874 15.2272L184.963 15.2522C184.462 15.266 183.882 15.3216 183.675 15.3758ZM778.134 16.3593C778.079 16.5077 778.009 21.6902 777.98 27.8762L777.926 39.1236L774.401 36.6349L770.877 34.1462L770.323 34.6997L769.77 35.2533L770.153 36.2579C771.147 38.8594 773.147 41.1407 777.672 44.8325L779.995 46.7281L781.117 45.5872C781.734 44.9599 783.5 43.2704 785.042 41.8329C787.733 39.3235 788.764 38.0191 789.547 36.1305C789.848 35.4066 789.838 35.3266 789.381 34.7536L788.896 34.1451L785.734 36.2114C783.996 37.3478 782.532 38.2099 782.482 38.1273C782.433 38.0447 782.215 37.4435 781.999 36.7912C781.649 35.7376 781.603 34.7385 781.583 27.8422C781.561 19.7496 781.507 19.1887 780.527 16.8434C780.232 16.1378 780.149 16.0898 779.224 16.0898C778.631 16.0898 778.195 16.1976 778.134 16.3593ZM289.1 17.7252C283.863 18.9931 280.491 23.6471 280.833 29.136C281.121 33.7447 283.644 37.4489 287.393 38.7676C288.475 39.1484 289.259 39.2131 293.382 39.262C297.169 39.3069 298.365 39.3938 299.312 39.6927C301.338 40.3323 302.923 41.3132 304.291 42.7767C305.55 44.1217 305.605 44.1543 306.01 43.7879C306.347 43.4825 306.428 43.12 306.428 41.9161V40.4228L305.141 39.1863C303.263 37.3827 302.673 35.9882 302.668 33.341C302.666 32.2143 302.749 30.2181 302.852 28.905C303.07 26.131 302.855 24.8637 301.84 22.9297C301.02 21.3673 298.772 19.2325 297.179 18.5032C294.797 17.4127 291.645 17.1091 289.1 17.7252ZM681.682 17.7137C684.772 18.3602 687.124 19.5266 689.034 21.3591C693.501 25.645 694.204 32.9106 690.665 38.2017C688.873 40.8821 686.315 42.7263 683.152 43.6195C681.798 44.0018 676.036 44.0152 512.688 44.0152H343.626L341.561 43.4439C338.848 42.6937 337.167 41.8212 335.55 40.3243C332.952 37.919 331.564 34.6189 331.569 30.8611C331.574 27.3229 332.689 24.4564 335.054 21.9021C337.161 19.6267 339.319 18.3615 342.224 17.6984C343.17 17.4826 377.55 17.4233 511.758 17.4056C662.122 17.386 680.273 17.4188 681.682 17.7137ZM33.5355 18.8646C31.6014 19.421 30.2492 20.1664 28.8764 21.4329C27.2983 22.8885 26.3961 24.3052 25.7492 26.3422C24.0357 31.7377 26.5056 37.6587 31.4869 40.0972C38.3773 43.4702 46.4364 39.6948 47.981 32.3706C48.5827 29.5179 48.3041 27.2873 47.0087 24.5884C45.6187 21.6917 43.078 19.6653 39.758 18.8051C38.0445 18.3611 35.191 18.3885 33.5355 18.8646ZM64.9698 18.7717C62.2752 19.4246 59.4425 21.4661 58.1347 23.698C55.4239 28.3237 56.1756 34.3536 59.9307 38.1043C62.6448 40.8153 66.417 41.8818 70.5314 41.1014C74.5725 40.3351 78.2694 36.6431 79.1225 32.5218C80.434 26.1858 76.9823 20.3487 71.0086 18.8006C69.4631 18.4001 66.5604 18.3863 64.9698 18.7717ZM96.2376 18.7717C90.1887 20.2374 86.6087 26.3432 88.097 32.6563C88.623 34.8873 89.4409 36.3164 91.2139 38.1019C92.5724 39.4699 93.1137 39.8505 94.5388 40.4392C96.571 41.2787 99.3819 41.5487 101.61 41.1183C105.848 40.2995 109.253 37.0705 110.279 32.8959C111.295 28.7627 110.148 24.3926 107.312 21.5929C105.176 19.4846 102.46 18.4467 99.1669 18.4801C98.1758 18.4903 96.8576 18.6214 96.2376 18.7717ZM294.452 21.4079C296.349 21.988 297.622 23.1164 298.675 25.1533C299.413 26.5804 299.517 29.3495 298.894 31.0019C297.319 35.1778 292.914 37.1337 289.138 35.3337C284.159 32.9612 282.923 26.9908 286.634 23.2359C288.724 21.1196 291.435 20.4858 294.452 21.4079ZM71.1335 22.8218C75.371 24.4072 76.9818 30.2442 74.2978 34.2876C72.6035 36.8404 69.1306 38.1541 66.1459 37.3715C61.1571 36.0634 58.8361 30.5851 61.3026 25.9391C63.0478 22.6519 67.1786 21.3421 71.1335 22.8218ZM100.464 22.3539C103.66 22.8725 105.878 24.8752 106.657 27.9467C107.608 31.6944 105.579 35.6839 102.045 37.0157C100.444 37.6188 97.4821 37.5309 95.9159 36.8339C94.4998 36.2036 93.1387 34.8791 92.3915 33.4044C91.8043 32.2457 91.7586 31.9827 91.7614 29.7829C91.7642 27.7274 91.8325 27.2729 92.2746 26.3775C93.3302 24.2392 95.4456 22.6827 97.7542 22.3453C98.3703 22.2551 98.923 22.1702 98.9823 22.1562C99.0416 22.1424 99.7084 22.2312 100.464 22.3539ZM40.1444 23.0237C41.696 23.7491 43.0202 25.0738 43.7443 26.6242C44.2328 27.6701 44.3134 28.1315 44.3154 29.8907C44.3173 31.6834 44.2446 32.0877 43.7342 33.1269C42.9831 34.6564 41.65 35.9929 40.1317 36.7384C39.0499 37.2697 38.6949 37.3303 36.6623 37.3303C34.5969 37.3303 34.2969 37.2771 33.247 36.7242C31.7032 35.911 30.2824 34.4466 29.5876 32.952C28.7757 31.2059 28.7683 28.5891 29.5703 26.8718C30.2532 25.4093 31.0341 24.468 32.2693 23.6182C33.8053 22.5613 34.612 22.3489 36.8779 22.4041C38.5746 22.4455 39.1357 22.5519 40.1444 23.0237ZM832.856 60.1571C833.299 60.3775 833.882 60.9112 834.15 61.3432L834.639 62.129L834.574 256.529C834.531 384.119 834.435 451.405 834.294 452.314C833.509 457.378 829.639 461.311 823.722 463.055L821.701 463.651L421.688 463.759C201.681 463.818 20.5964 463.8 19.2776 463.718C11.5434 463.239 6.25292 459.64 4.33221 453.551L3.77715 451.791L3.72259 256.789C3.67386 83.0239 3.7034 61.7182 3.9943 61.1556C4.17393 60.8084 4.53815 60.4002 4.8036 60.2486C5.34766 59.9376 247.069 59.7446 625.791 59.7526C826.298 59.7567 832.074 59.7681 832.856 60.1571Z" fill="black"/>
</svg>
