<svg width="253" height="464" viewBox="0 0 253 464" fill="none" xmlns="http://www.w3.org/2000/svg">
<path fill-rule="evenodd" clip-rule="evenodd" d="M21.5047 0.0140989C18.2993 0.372872 13.5931 1.69561 11.1513 2.92434C7.18559 4.92009 4.32859 7.7153 2.93736 10.9608C1.88768 13.4098 0.325697 20.7589 0.0855447 24.3791C-0.00398068 25.7303 -0.0270396 120.452 0.0345091 234.871C0.142387 435.521 0.160977 442.981 0.557351 445.031C1.69611 450.925 3.83306 454.979 7.70638 458.593C10.5253 461.223 13.7574 462.499 18.7156 462.938C20.28 463.076 60.4935 463.157 128.457 463.158C224.766 463.16 235.905 463.125 237.454 462.811C244.829 461.319 250.905 453.929 252.351 444.693C252.666 442.678 252.704 421.65 252.731 231.737C252.753 78.0914 252.694 20.5622 252.512 19.3382C251.983 15.7706 250.466 11.7336 248.676 9.13204C246.489 5.95299 242.506 2.77282 239.038 1.43509C235.151 -0.0637884 244.71 0.0584128 127.928 0.0163358C69.5709 -0.00447883 21.6804 -0.00559667 21.5047 0.0140989ZM235.374 4.97157C237.836 5.6251 240.255 6.39592 240.749 6.68441C242.734 7.84354 245.016 10.8236 246.284 13.9102L246.996 15.6452L247.175 25.3811C247.274 30.7359 247.291 42.2969 247.213 51.0725C247.051 69.1503 247.208 67.8171 245.208 68.1454C244.6 68.245 190.71 68.3327 125.451 68.3399C8.95215 68.3531 6.78897 68.3455 6.27017 67.9254L5.74175 67.4977L5.67506 42.019C5.63836 28.0058 5.67014 16.0161 5.74602 15.3751C5.87068 14.3182 6.06406 13.9948 7.81853 11.906C10.6701 8.51095 12.4067 6.85294 13.7458 6.24641C14.8167 5.7614 16.6983 5.27439 21.9682 4.11839C23.8109 3.71418 27.1231 3.70232 127.384 3.74216L230.898 3.78312L235.374 4.97157ZM116.753 15.0203C111.767 15.7294 106.418 18.7289 102.946 22.7634C100.92 25.1168 99.0317 28.1177 98.504 29.8218C97.0418 34.5423 97.788 41.414 100.33 46.6383C101.325 48.6826 101.731 49.2461 103.407 50.9073C107.615 55.0769 112.292 57.5362 118.076 58.6201C119.793 58.9417 123.532 58.9905 150.837 59.048C175.473 59.1 181.985 59.0543 183.28 58.8202C185.907 58.3459 191.396 56.7367 192.898 56.0006C196.557 54.2063 200.317 50.1848 202.588 45.6362C204.295 42.2155 204.849 40.1145 204.86 37.0194C204.891 27.7417 198.095 18.8572 188.486 15.6155L186.583 14.9738L152.004 14.9494C132.985 14.9357 117.123 14.9677 116.753 15.0203ZM180.988 18.6678C185.437 18.8829 187.05 19.1801 189.779 20.2878C194.235 22.0964 197.836 25.5022 200.013 29.9693C202.096 34.2435 202.158 38.0707 200.219 42.8386C198.573 46.8865 197.443 48.8791 195.92 50.4187C193.465 52.9003 190.057 54.9352 186.883 55.8146C185.29 56.2562 184.654 56.2674 161.182 56.2674C125.809 56.2674 118.525 55.8462 113.204 53.4934C108.989 51.6288 105.075 47.7649 103.188 43.6042C101.517 39.9178 101.009 36.2388 101.769 33.3175C102.655 29.9107 106.25 25.0808 109.994 22.2654C112.489 20.3896 115.999 19.0295 119.219 18.6904C121.67 18.4324 175.712 18.4127 180.988 18.6678ZM36.2923 22.3798C35.8216 22.583 32.985 25.2354 29.1862 29.0241C23.4917 34.7039 22.8635 35.4028 22.8635 36.0588C22.8635 36.7018 23.2359 37.149 26.0367 39.869C27.7822 41.5637 30.7728 44.5425 32.6826 46.4883C37.6837 51.5834 38.446 52.0628 40.1349 51.1756C40.545 50.9603 40.91 50.7712 40.9461 50.7558C40.9821 50.7401 40.8064 50.1875 40.5557 49.5275C40.1562 48.4762 39.3621 47.5897 34.1392 42.3641L28.1786 36.4004L33.968 30.211C37.1524 26.8068 39.8943 23.7605 40.0615 23.4413C40.4136 22.7697 40.2777 22.6204 38.9781 22.2497C37.9123 21.9458 37.2193 21.9794 36.2923 22.3798ZM222.735 22.3095C221.722 22.6665 221.393 23.3688 221.389 25.1884C221.385 27.2388 221.788 27.7312 223.473 27.7312C225.957 27.7312 227.461 25.8487 226.783 23.5873C226.637 23.1007 226.345 22.6119 226.134 22.5009C225.434 22.1327 223.539 22.0262 222.735 22.3095ZM63.3737 24.0635V25.4317L68.4355 30.5749L73.4973 35.7179L73.397 36.927C73.312 37.9538 73.1564 38.2965 72.3661 39.2005C71.8543 39.7858 70.2867 41.6747 68.8825 43.3981C66.5673 46.2392 65.6915 47.0805 63.4297 48.6358C62.457 49.3045 62.4391 50.2195 63.3802 51.1606C63.9745 51.7549 64.1609 51.82 64.891 51.6888C65.6034 51.5606 66.5273 50.7408 71.2846 46.0138C78.459 38.8856 79.0407 38.2014 79.0407 36.891C79.0407 36.0335 78.9064 35.739 78.1027 34.8323C76.4324 32.9478 69.354 25.8312 67.5689 24.2415C65.869 22.7276 65.8073 22.6954 64.6034 22.6954H63.3737V24.0635ZM122.182 26.519C120.718 26.8641 118.613 28.0761 117.297 29.3312C112.911 33.5145 112.829 40.5575 117.116 44.8444C119.311 47.0393 121.948 48.0939 125.146 48.0563C127.072 48.0337 129.214 47.3986 130.663 46.4207C131.175 46.0747 131.806 45.7244 132.065 45.6425C132.95 45.3616 136.089 46.5476 138.283 47.9914L138.998 48.4621L139.789 47.3849L140.58 46.3077L140.081 45.972C138.301 44.7739 136.833 42.9599 136.016 40.9489C135.576 39.8663 135.534 39.5315 135.717 38.5282C136.18 35.9812 135.005 32.0987 133.116 29.9295C131.982 28.6284 129.848 27.2591 128.122 26.726C126.569 26.2466 123.754 26.1484 122.182 26.519ZM128.355 29.976C130.022 30.7981 131.678 32.5879 132.292 34.2309C132.928 35.9308 132.92 38.354 132.272 40.0884C131.596 41.8968 129.56 43.9218 127.72 44.6141C126.601 45.0353 126.06 45.1036 124.475 45.0237C121.317 44.8645 119.073 43.4131 117.713 40.6492C117.045 39.2938 116.977 38.9675 116.978 37.136C116.98 34.9109 117.377 33.7103 118.639 32.1163C120.85 29.3252 125.126 28.3831 128.355 29.976ZM221.936 35.5546C221.463 36.0266 221.386 36.3111 221.386 37.5799C221.386 39.1264 221.772 40.2191 222.403 40.4615C222.603 40.5378 223.406 40.6004 224.19 40.6004C225.373 40.6004 225.72 40.5089 226.242 40.0599C226.803 39.5765 226.869 39.3757 226.862 38.1674C226.856 37.0649 226.758 36.7126 226.331 36.2585C225.083 34.9297 222.908 34.5814 221.936 35.5546ZM222.334 48.2184C221.614 48.5075 221.335 49.4299 221.432 51.2025C221.502 52.4829 221.602 52.8106 222.035 53.1609C222.701 53.7005 223.928 53.6938 225.079 53.1445C226.448 52.4914 226.512 52.4133 226.758 51.1195C227.021 49.7311 226.751 48.5657 226.083 48.2083C225.571 47.9344 223.024 47.9411 222.334 48.2184ZM246.529 72.4357L247.083 72.9415L247.214 258.371C247.302 381.798 247.27 444.474 247.121 445.815C246.848 448.263 246.201 450.518 245.263 452.286C243.862 454.928 240.498 457.64 237.228 458.761L235.822 459.244L127.384 459.305C6.23727 459.373 17.116 459.521 13.4633 457.75C10.404 456.266 7.9264 453.462 6.33375 449.682L5.74175 448.277L5.6849 260.761L5.62829 73.2443L6.27891 72.5939L6.92932 71.9433L126.452 71.9366L245.976 71.9301L246.529 72.4357Z" fill="black"/>
</svg>
