<svg xmlns="http://www.w3.org/2000/svg" viewBox="0 0 1100.73 614.81"><defs><style>.cls-1,.cls-10,.cls-13,.cls-17,.cls-19,.cls-26,.cls-27,.cls-3,.cls-39,.cls-7,.cls-8{isolation:isolate;}.cls-2{fill:#0e2263;}.cls-10,.cls-13,.cls-17,.cls-19,.cls-2,.cls-26,.cls-27,.cls-3,.cls-39,.cls-7,.cls-8{opacity:0.13;}.cls-3,.cls-38{fill:#fefefe;}.cls-4{fill:#015e76;}.cls-5{fill:#cc8f6e;}.cls-6{fill:#232323;}.cls-29,.cls-7{fill:#e21e22;}.cls-8{fill:#0000df;}.cls-9{fill:#024a5b;}.cls-10,.cls-25{fill:#1ab91c;}.cls-11{opacity:0.75;mix-blend-mode:multiply;}.cls-12{fill:#035669;}.cls-13,.cls-24{fill:#a10676;}.cls-14{fill:#1dbd18;}.cls-15{fill:#2d2525;}.cls-16{fill:#385f7b;}.cls-17{fill:#00acff;}.cls-18{fill:#1ba71c;}.cls-19{fill:#fff355;}.cls-20{fill:#e8faef;}.cls-21,.cls-39{fill:#fefbe5;}.cls-22,.cls-26{fill:#fce8e7;}.cls-23{fill:#e5f6fb;}.cls-27,.cls-28{fill:#f5e4e9;}.cls-30{fill:#eed908;}.cls-31{fill:#d82022;}.cls-32{fill:#ca3a1e;}.cls-33{fill:#a7725b;}.cls-34{fill:#ba8163;}.cls-35{fill:#975c44;}.cls-36{fill:#0b0907;}.cls-37{fill:#221b1a;}.cls-40{fill:#b52331;}.cls-41{fill:none;}.cls-42{fill:#ddc40e;}.cls-43{fill:#db987b;}.cls-44{fill:#1e1e1e;}.cls-45{fill:#c6896f;}.cls-46{fill:#034651;}</style></defs><g class="cls-1"><g id="Layer_1" data-name="Layer 1"><path class="cls-2" d="M156.94,477.9l13.92-5.7-.05,1.76-11.73,4.67v.05L170.53,484l-.05,1.76-13.58-6.48Z"/><path class="cls-2" d="M175.11,467.78l2.61.07-.22,7.7h.06a4.53,4.53,0,0,1,1.91-1.53,6,6,0,0,1,2.68-.56c1.93,0,5,1.16,4.86,5.42l-.21,7.34-2.61-.08.21-7.08c0-2-.76-3.7-3.22-3.77a3.71,3.71,0,0,0-3.56,2.14,2.49,2.49,0,0,0-.21,1.07L177.2,486l-2.61-.07Z"/><path class="cls-2" d="M194.51,470.55l-.1,3.55,3.74.1-.05,1.71-3.74-.11-.19,6.66c0,1.53.44,2.41,1.89,2.45a6.56,6.56,0,0,0,1.52-.11l.07,1.69a7.45,7.45,0,0,1-2.32.24,4,4,0,0,1-2.79-1,4.13,4.13,0,0,1-.92-3.24l.19-6.73-2.22-.06,0-1.71,2.22.06.09-2.95Z"/><path class="cls-2" d="M201,477.63c0-1.28,0-2.32,0-3.35l2.28.07.06,2h.09A5.1,5.1,0,0,1,208,474.2a4.25,4.25,0,0,1,4,2.59H212a5.37,5.37,0,0,1,4.84-2.33c1.9.05,4.68,1.2,4.56,5.48l-.21,7.27-2.55-.07.2-7c.07-2.37-.9-3.83-3-3.89a3.34,3.34,0,0,0-3.14,2,3.08,3.08,0,0,0-.24,1.11l-.22,7.62-2.55-.07.22-7.39c.05-2-.92-3.42-2.9-3.48a3.48,3.48,0,0,0-3.29,2.15,2.67,2.67,0,0,0-.24,1.09l-.22,7.45-2.54-.07Z"/><path class="cls-2" d="M226,469.23l2.61.08-.52,18.1-2.6-.08Z"/><path class="cls-2" d="M246.14,481.85l-13.92,5.67.05-1.75,11.82-4.67v-.05l-11.53-5.33.05-1.76,13.58,6.46Z"/><path class="cls-2" d="M325.8,472.08,325.38,487c0,1.1,0,2.35,0,3.19l-2.35-.06L323,488H323a5.49,5.49,0,0,1-5,2.28,6,6,0,0,1-5.95-6.44,6.28,6.28,0,0,1,6.61-6.45,5.05,5.05,0,0,1,4.28,2H323l.21-7.36Zm-2.91,10.71a3.44,3.44,0,0,0-.09-1,3.76,3.76,0,0,0-3.69-2.71c-2.7-.07-4.36,1.92-4.43,4.65-.08,2.5,1.29,4.6,4.1,4.68a3.84,3.84,0,0,0,3.9-2.56,3.34,3.34,0,0,0,.15-1Z"/><path class="cls-2" d="M342.77,484.4c-.13,4.57-3.86,6.45-7.33,6.35-3.88-.11-6.8-2.64-6.69-6.54.12-4.13,3.33-6.47,7.3-6.35S342.88,480.63,342.77,484.4Zm-11.38-.19a4.42,4.42,0,0,0,4.22,4.86c2.49.07,4.41-1.89,4.49-4.67.06-2.09-1.08-4.77-4.16-4.86S331.45,481.86,331.39,484.21Z"/><path class="cls-2" d="M356.11,490.6a10.92,10.92,0,0,1-4.13.6c-4.33-.13-7.07-2.73-7-6.5s3.21-6.47,7.9-6.34a10.15,10.15,0,0,1,3.59.74l-.64,1.72a6.88,6.88,0,0,0-3-.67c-3.28-.1-5.12,1.94-5.2,4.52-.08,2.85,2,4.67,4.85,4.76a8.67,8.67,0,0,0,3.22-.52Z"/><path class="cls-2" d="M371.25,488.12c0,1.28,0,2.4,0,3.37l-2.31-.06-.09-2h-.06a5.61,5.61,0,0,1-4.81,2.16c-2.25-.07-4.91-1.22-4.79-5.55l.21-7.22,2.6.08-.19,6.83c-.07,2.35.72,4,3.09,4a3.78,3.78,0,0,0,3.49-1.94,2.85,2.85,0,0,0,.27-1.14l.22-7.57,2.61.07Z"/><path class="cls-2" d="M375.74,482.61c0-1.27,0-2.32,0-3.34l2.28.06.07,2h.08a5.1,5.1,0,0,1,4.57-2.14,4.24,4.24,0,0,1,4,2.59h.06a5.28,5.28,0,0,1,1.65-1.56,5.39,5.39,0,0,1,3.19-.78c1.9.06,4.68,1.21,4.56,5.49L396,492.2l-2.54-.08.19-7c.07-2.37-.89-3.83-3-3.89a3.35,3.35,0,0,0-3.14,1.95,3.18,3.18,0,0,0-.24,1.12l-.21,7.62-2.55-.07.21-7.39c.05-2-.91-3.42-2.9-3.48a3.47,3.47,0,0,0-3.29,2.15,2.67,2.67,0,0,0-.24,1.09l-.21,7.44-2.55-.07Z"/><path class="cls-2" d="M401.81,486.6c0,3,2.19,4.35,4.79,4.42a10.84,10.84,0,0,0,4-.52l.4,1.62a13.21,13.21,0,0,1-4.79.62c-4.42-.12-7-2.7-6.88-6.42a6.39,6.39,0,0,1,6.92-6.46,5.53,5.53,0,0,1,5.76,6,6.21,6.21,0,0,1-.12,1Zm7.69-1.39a3.36,3.36,0,0,0-3.51-3.75,4,4,0,0,0-4.11,3.53Z"/><path class="cls-2" d="M415.29,483.74c0-1.27,0-2.32,0-3.34l2.31.06.09,2.05h.06a5.47,5.47,0,0,1,4.81-2.19c2,.06,5,1.17,4.91,5.4l-.21,7.37-2.61-.08.21-7.11c.05-2-.76-3.67-3.22-3.74a3.65,3.65,0,0,0-3.56,2.2,2.67,2.67,0,0,0-.21,1l-.21,7.42-2.61-.08Z"/><path class="cls-2" d="M435,477.41l-.1,3.55,3.74.1,0,1.71-3.74-.1-.19,6.65c0,1.53.44,2.41,1.89,2.45a6.56,6.56,0,0,0,1.52-.11l.07,1.69a7.45,7.45,0,0,1-2.32.24,4,4,0,0,1-2.79-1,4.13,4.13,0,0,1-.92-3.24l.2-6.73-2.23-.06.05-1.71,2.22.06.09-2.95Z"/><path class="cls-2" d="M440.49,492.14a1.65,1.65,0,0,1,1.83-1.56,1.62,1.62,0,1,1-.12,3.22A1.63,1.63,0,0,1,440.49,492.14Z"/><path class="cls-2" d="M459.92,481.67c-.09.89-.17,1.89-.22,3.39l-.2,7.16c-.08,2.83-.78,4.55-2.21,5.58a8.45,8.45,0,0,1-5.25,1.33A10.39,10.39,0,0,1,447.3,498l.7-1.69a9,9,0,0,0,4.18,1.09c2.66.08,4.65-1.06,4.74-4.17l0-1.38h-.06a5.35,5.35,0,0,1-4.62,1.93,5.88,5.88,0,0,1-5.93-6.19,6.33,6.33,0,0,1,6.64-6.37,5,5,0,0,1,4.42,2.27h.06l.17-1.85Zm-2.84,4.79a3,3,0,0,0-.11-1,3.72,3.72,0,0,0-3.58-2.47c-2.49-.08-4.32,1.68-4.4,4.54-.07,2.42,1.29,4.48,4.11,4.56a3.8,3.8,0,0,0,3.68-2.2,3.32,3.32,0,0,0,.24-1.19Z"/><path class="cls-2" d="M465.39,488.41c0,3,2.19,4.35,4.8,4.42a10.66,10.66,0,0,0,4-.52l.39,1.62a13.35,13.35,0,0,1-4.79.63c-4.41-.13-7-2.7-6.87-6.42a6.39,6.39,0,0,1,6.91-6.47,5.54,5.54,0,0,1,5.76,6,6.49,6.49,0,0,1-.12,1Zm7.69-1.39a3.37,3.37,0,0,0-3.51-3.75,4,4,0,0,0-4.1,3.54Z"/><path class="cls-2" d="M482.21,478.76l-.1,3.55,3.73.1,0,1.71-3.74-.11-.19,6.66c0,1.53.44,2.41,1.89,2.45a6.56,6.56,0,0,0,1.52-.11l.07,1.69a7.77,7.77,0,0,1-2.32.24,4,4,0,0,1-2.79-1,4.14,4.14,0,0,1-.92-3.24l.19-6.73-2.22-.06,0-1.71,2.22.06.09-3Z"/><path class="cls-2" d="M489.86,489.11c0,3,2.19,4.35,4.8,4.42a10.63,10.63,0,0,0,4-.52l.4,1.62a13.41,13.41,0,0,1-4.8.63c-4.41-.13-7-2.7-6.87-6.43a6.39,6.39,0,0,1,6.92-6.46,5.54,5.54,0,0,1,5.76,6,10.07,10.07,0,0,1-.12,1Zm7.69-1.39A3.36,3.36,0,0,0,494,484a4,4,0,0,0-4.1,3.53Z"/><path class="cls-2" d="M503.61,477.15l2.61.08-.52,18.1-2.61-.08Z"/><path class="cls-2" d="M213.19,517.6l.91-5-2.43-.07,0-1.5,2.7.08.67-3.68-2.55-.08,0-1.5,2.82.08.91-4.85,1.71,0-.88,4.85,3.09.09.9-4.85,1.75.05-.88,4.85,2.43.07,0,1.5-2.7-.08-.63,3.68,2.54.08,0,1.5-2.81-.08-.92,5-1.78,0,.92-5-3.08-.09-.92,5Zm6.08-6.34.67-3.68-3.09-.08-.66,3.68Z"/><path class="cls-2" d="M227.58,518l.31-10.63-2-.06,0-1.71,2,.06v-.59a5.32,5.32,0,0,1,1.79-4.26,5.49,5.49,0,0,1,3.53-1.05,7.15,7.15,0,0,1,2.21.42l-.41,1.73a4.29,4.29,0,0,0-1.65-.33c-2.22-.06-2.83,1.6-2.89,3.49l0,.66,3.47.1,0,1.71-3.46-.1-.31,10.63Z"/><path class="cls-2" d="M248.74,512.33c-.13,4.57-3.86,6.45-7.33,6.35-3.88-.11-6.8-2.64-6.69-6.54.12-4.13,3.33-6.46,7.3-6.35S248.85,508.56,248.74,512.33Zm-11.38-.19a4.42,4.42,0,0,0,4.22,4.86c2.49.07,4.41-1.89,4.49-4.66.06-2.1-1.08-4.78-4.16-4.87S237.43,509.79,237.36,512.14Z"/><path class="cls-2" d="M252.11,509.7c0-1.27,0-2.32,0-3.34l2.32.06.09,2.05h.06a5.46,5.46,0,0,1,4.8-2.19c2,.06,5,1.17,4.92,5.4l-.21,7.37-2.61-.08.2-7.11c.06-2-.75-3.67-3.21-3.74a3.65,3.65,0,0,0-3.56,2.2,2.67,2.67,0,0,0-.21,1l-.21,7.41-2.61-.07Z"/><path class="cls-2" d="M271.77,503.37l-.1,3.55,3.73.1,0,1.71-3.73-.11-.19,6.66c0,1.53.44,2.41,1.89,2.45a6.41,6.41,0,0,0,1.51-.11l.07,1.69a7.37,7.37,0,0,1-2.32.24,3.94,3.94,0,0,1-2.78-1,4.09,4.09,0,0,1-.92-3.24l.19-6.73-2.22-.06,0-1.71,2.22.06.09-2.95Z"/><path class="cls-2" d="M284.1,511.89l-.05,1.66-7.31-.21,0-1.66Z"/><path class="cls-2" d="M288.17,507.39l1.72,6.32c.38,1.39.73,2.68,1,4h.09c.36-1.24.87-2.55,1.38-3.86l2.52-6.23,2.19.06,2.05,6.23c.49,1.5.87,2.81,1.16,4.07h.09a31.71,31.71,0,0,1,1.21-4l2.22-6.14,2.58.08-5,12.2-2.37-.06-2-6a34.31,34.31,0,0,1-1.16-4.09h-.06a33,33,0,0,1-1.42,4l-2.48,5.8-2.37-.07-4-12.46Z"/><path class="cls-2" d="M309.91,514.59c0,3,2.19,4.35,4.8,4.42a10.63,10.63,0,0,0,4-.52l.4,1.62a13.41,13.41,0,0,1-4.8.63c-4.41-.13-7-2.7-6.87-6.42a6.4,6.4,0,0,1,6.92-6.47,5.54,5.54,0,0,1,5.76,6,10.15,10.15,0,0,1-.12,1Zm7.69-1.39a3.37,3.37,0,0,0-3.51-3.75A4,4,0,0,0,310,513Z"/><path class="cls-2" d="M326.49,505c0,.77-.66,1.36-1.69,1.33a1.45,1.45,0,0,1-1.53-1.42,1.5,1.5,0,0,1,1.67-1.36A1.44,1.44,0,0,1,326.49,505Zm-3.35,15.72.35-12.33,2.61.07-.35,12.34Z"/><path class="cls-2" d="M342.78,509c-.08.89-.17,1.88-.21,3.38l-.21,7.17c-.08,2.83-.78,4.54-2.2,5.57a8.48,8.48,0,0,1-5.26,1.33,10.52,10.52,0,0,1-4.74-1.15l.7-1.69a9.28,9.28,0,0,0,4.18,1.09c2.67.07,4.66-1.07,4.74-4.18l0-1.38h-.06a5.38,5.38,0,0,1-4.62,1.94,5.9,5.9,0,0,1-5.93-6.19,6.32,6.32,0,0,1,6.65-6.37,4.91,4.91,0,0,1,4.41,2.27h.06l.17-1.86ZM340,513.74a2.84,2.84,0,0,0-.12-1,3.71,3.71,0,0,0-3.58-2.47c-2.49-.07-4.32,1.69-4.4,4.54-.07,2.42,1.3,4.48,4.11,4.56a3.79,3.79,0,0,0,3.68-2.19,3.37,3.37,0,0,0,.24-1.19Z"/><path class="cls-2" d="M347.15,503.3l2.61.08-.22,7.7h.06a4.53,4.53,0,0,1,1.91-1.53,6,6,0,0,1,2.69-.56c1.92.06,5,1.16,4.85,5.42l-.21,7.34-2.6-.07.2-7.09c.06-2-.76-3.69-3.21-3.76a3.73,3.73,0,0,0-3.57,2.14,2.42,2.42,0,0,0-.2,1.06l-.22,7.45-2.6-.08Z"/><path class="cls-2" d="M366.56,506.08l-.11,3.54,3.74.11-.05,1.71-3.73-.11-.19,6.65c-.05,1.53.43,2.41,1.88,2.45a7.33,7.33,0,0,0,1.52-.1l.07,1.68a7.12,7.12,0,0,1-2.32.24,3.92,3.92,0,0,1-2.79-1,4.12,4.12,0,0,1-.91-3.24l.19-6.73-2.22-.07,0-1.7,2.23.06.08-3Z"/><path class="cls-2" d="M372.44,511.83a1.77,1.77,0,0,1,3.53.1,1.78,1.78,0,0,1-3.53-.1Zm-.26,9a1.77,1.77,0,0,1,3.53.1,1.78,1.78,0,0,1-3.53-.1Z"/><path class="cls-2" d="M384.24,518.27c.06-2.09,1.55-3.53,3.95-4.33l0-.08c-2.11-.92-3-2.38-3-3.81.08-2.62,2.71-4.33,6.08-4.24,3.74.11,5.55,2.18,5.49,4.24,0,1.4-.89,2.89-3.28,3.79v.07c2.38.89,3.82,2.38,3.76,4.4-.08,2.88-3,4.73-6.68,4.63C386.54,522.82,384.17,520.69,384.24,518.27Zm10.37.19c.06-2-1.54-3-4.13-3.74-2.27.5-3.52,1.74-3.57,3.32s1.3,3.2,3.76,3.27S394.56,520.17,394.61,518.46ZM387.68,510c-.05,1.66,1.38,2.59,3.58,3.17,1.68-.44,3-1.43,3-2.93,0-1.33-.84-2.73-3.18-2.79C388.94,507.35,387.72,508.54,387.68,510Z"/><path class="cls-2" d="M411.47,508.56l-7.35-.21-.86,4.23a13.82,13.82,0,0,1,1.57-.05,9.09,9.09,0,0,1,4.12,1,4.64,4.64,0,0,1,2.64,4.33c-.09,3.24-3.16,5.58-7.33,5.46a10.54,10.54,0,0,1-4.77-1.16l.7-1.69a9.67,9.67,0,0,0,4.09,1c2.46.07,4.6-1.25,4.66-3.47s-1.58-3.72-5.43-3.83a22.22,22.22,0,0,0-2.67.11l1.47-7.92,9.21.26Z"/><path class="cls-2" d="M415.82,515.06c0-1.58,0-2.86,0-4l2.34.07,0,2.12h.06a6.25,6.25,0,0,1,11.06,4.19,6.23,6.23,0,0,1-6.7,6.44,5.28,5.28,0,0,1-4.36-2.06h-.06l-.19,6.7-2.58-.07Zm2.48,3.36a3.82,3.82,0,0,0,.1.92,4,4,0,0,0,3.83,2.74c2.76.08,4.41-1.81,4.49-4.64.07-2.47-1.38-4.63-4.13-4.71a4.07,4.07,0,0,0-4,2.66,3.16,3.16,0,0,0-.21.92Z"/><path class="cls-2" d="M433.59,511.54l2,2.71c.52.7.94,1.35,1.4,2h.09c.49-.72,1-1.35,1.48-2l2.09-2.57,2.81.08-5.06,5.82,4.86,6.52-3-.08-2-2.84c-.54-.73-1-1.43-1.48-2.19h-.06c-.49.73-1,1.37-1.57,2.1L433,523.87l-2.87-.08,5.28-6.16-4.69-6.18Z"/><path class="cls-2" d="M444,527.32a32.9,32.9,0,0,0,1.95-6l2.88-.17a30.44,30.44,0,0,1-3,6.11Zm1.65-13.4a1.62,1.62,0,0,1,1.8-1.55,1.59,1.59,0,0,1,1.7,1.65,1.6,1.6,0,0,1-1.79,1.53A1.63,1.63,0,0,1,445.65,513.92Z"/><path class="cls-2" d="M158.54,530.83c0,.77-.66,1.36-1.7,1.33a1.45,1.45,0,0,1-1.53-1.42,1.49,1.49,0,0,1,1.67-1.35A1.43,1.43,0,0,1,158.54,530.83Zm-3.35,15.73.35-12.34,2.61.07-.35,12.34Z"/><path class="cls-2" d="M162.38,537.76c0-1.28,0-2.32,0-3.35l2.31.07.09,2h.06a5.44,5.44,0,0,1,4.8-2.18c2,.06,5,1.16,4.92,5.4l-.21,7.36-2.61-.07.2-7.11c.06-2-.75-3.67-3.21-3.74a3.65,3.65,0,0,0-3.56,2.19,2.75,2.75,0,0,0-.21,1l-.21,7.42-2.61-.07Z"/><path class="cls-2" d="M182,531.43l-.1,3.54,3.73.11,0,1.71-3.74-.11-.19,6.65c0,1.53.44,2.41,1.89,2.46a7,7,0,0,0,1.51-.11l.08,1.68a7.16,7.16,0,0,1-2.32.24,3.9,3.9,0,0,1-2.79-1,4.15,4.15,0,0,1-.92-3.24l.19-6.73-2.22-.07,0-1.7,2.22.06.09-3Z"/><path class="cls-2" d="M194.79,538.68c0-1.27,0-2.32,0-3.34l2.28.06.06,2h.09a5.1,5.1,0,0,1,4.57-2.14,4.22,4.22,0,0,1,4,2.59h.06a5.25,5.25,0,0,1,1.64-1.56,5.44,5.44,0,0,1,3.2-.78c1.9,0,4.68,1.21,4.56,5.49l-.21,7.26-2.55-.07.2-7c.07-2.37-.9-3.83-3-3.89a3.35,3.35,0,0,0-3.14,1.95,3.13,3.13,0,0,0-.24,1.12l-.22,7.62-2.55-.07.22-7.4c.05-2-.92-3.42-2.9-3.47a3.47,3.47,0,0,0-3.29,2.15,2.67,2.67,0,0,0-.24,1.09l-.22,7.44-2.54-.07Z"/><path class="cls-2" d="M227.19,548.61l-.16-1.56h-.09a5.7,5.7,0,0,1-4.44,1.71c-2.91-.08-4.34-1.89-4.29-3.67.09-3,3.22-4.53,8.76-4.34v-.26c0-1-.24-2.86-3.17-3a8,8,0,0,0-3.76.82l-.55-1.5a10,10,0,0,1,4.74-1c4.39.12,5.38,2.73,5.31,5.2l-.13,4.62a15.33,15.33,0,0,0,.15,3ZM227,542.3c-2.84-.13-6.08.21-6.15,2.61,0,1.45,1.06,2.17,2.4,2.21a3.57,3.57,0,0,0,3.52-2,2.1,2.1,0,0,0,.17-.71Z"/><path class="cls-2" d="M236.88,533.07c0,.77-.66,1.36-1.7,1.33a1.46,1.46,0,0,1-1.53-1.42,1.49,1.49,0,0,1,1.67-1.36A1.44,1.44,0,0,1,236.88,533.07Zm-3.35,15.72.35-12.34,2.61.08-.35,12.34Z"/><path class="cls-2" d="M240.72,540c0-1.27,0-2.32,0-3.34l2.32.06.09,2h.06a5.46,5.46,0,0,1,4.8-2.19c2,.06,5,1.17,4.92,5.4l-.21,7.37-2.61-.08.2-7.11c.06-2-.75-3.67-3.21-3.74a3.65,3.65,0,0,0-3.56,2.2,2.67,2.67,0,0,0-.21,1l-.21,7.41-2.61-.07Z"/><path class="cls-2" d="M263.07,531.93a15.3,15.3,0,0,0-4,10.32,15.63,15.63,0,0,0,3.44,10.46l-2.05-.06a15.06,15.06,0,0,1-3.58-10.46A15.35,15.35,0,0,1,261,531.87Z"/><path class="cls-2" d="M263.66,552.74a15.64,15.64,0,0,0,4-10.32A15.36,15.36,0,0,0,264.25,532l2,.06a14.84,14.84,0,0,1,3.59,10.49,15.23,15.23,0,0,1-4.18,10.29Z"/><path class="cls-2" d="M272.63,541.92c2.1.06,2.43-.92,2.45-1.82a12.86,12.86,0,0,0-.17-2.14,12.76,12.76,0,0,1-.18-2.13c.07-2.34,1.87-3.29,4.39-3.21h.62l0,1.41-.53,0c-1.75,0-2.36.75-2.4,2.13a9.41,9.41,0,0,0,.15,1.81,10.34,10.34,0,0,1,.16,1.95,2.5,2.5,0,0,1-2.22,2.69v0a2.51,2.51,0,0,1,2.06,2.84,9.76,9.76,0,0,1-.27,1.93,10.75,10.75,0,0,0-.26,1.83c0,1.43.62,2.24,2.28,2.29h.53l0,1.4-.62,0c-2.46-.07-4.27-1-4.19-3.61a12.25,12.25,0,0,1,.29-2.08,12.19,12.19,0,0,0,.3-2.06c0-.79-.24-1.9-2.35-2Z"/><path class="cls-2" d="M287.76,543.66c-2.1-.06-2.43,1-2.45,1.81a12.06,12.06,0,0,0,.18,2.07,12.48,12.48,0,0,1,.17,2.1c-.07,2.58-2,3.44-4.39,3.37l-.62,0,0-1.4.5,0c1.66,0,2.39-.73,2.43-2.15a13.05,13.05,0,0,0-.15-1.85,10,10,0,0,1-.18-1.94A2.55,2.55,0,0,1,285.5,543v-.05a2.53,2.53,0,0,1-2.05-2.81,10,10,0,0,1,.29-1.93,14.61,14.61,0,0,0,.26-1.81c0-1.37-.56-2.18-2.28-2.26h-.53l0-1.4h.59c2.52.08,4.3,1.12,4.23,3.47a12.77,12.77,0,0,1-.3,2.11,13,13,0,0,0-.3,2.13c0,.89.25,1.89,2.35,2Z"/><path class="cls-2" d="M359.66,544.92l13.93-5.7,0,1.75-11.73,4.67v.05L373.25,551l-.05,1.76-13.58-6.49Z"/><path class="cls-2" d="M379.47,548.08l0-.66a5.39,5.39,0,0,1,2-4.36c1.38-1.31,2.14-2.29,2.18-3.43,0-1.3-.89-2.2-2.76-2.28a5.91,5.91,0,0,0-3,.71l-.67-1.63a8.85,8.85,0,0,1,4.27-.9c3.41.1,4.9,2,4.84,3.89-.05,1.74-1.21,3-2.67,4.37a4.66,4.66,0,0,0-1.8,3.7v.66Zm-.75,3.55a1.62,1.62,0,0,1,1.82-1.55,1.6,1.6,0,1,1-1.82,1.55Z"/><path class="cls-2" d="M395.86,545.11c.05-1.58,0-2.86,0-4l2.34.06.06,2.12h.06a6.25,6.25,0,0,1,11.06,4.2,6.25,6.25,0,0,1-6.71,6.44,5.33,5.33,0,0,1-4.36-2.06h-.06l-.19,6.71-2.58-.07Zm2.49,3.36a4.42,4.42,0,0,0,.09.92,4,4,0,0,0,3.84,2.74c2.75.08,4.41-1.82,4.49-4.65.07-2.47-1.38-4.63-4.14-4.71a4.08,4.08,0,0,0-4,2.67,3.53,3.53,0,0,0-.2.91Z"/><path class="cls-2" d="M413,535.8l2.61.07-.22,7.7h.06a4.59,4.59,0,0,1,1.91-1.52,6.17,6.17,0,0,1,2.69-.57c1.92.06,5,1.17,4.85,5.42l-.21,7.35-2.6-.08.2-7.08c.06-2-.76-3.7-3.22-3.77a3.72,3.72,0,0,0-3.56,2.14,2.49,2.49,0,0,0-.2,1.07l-.22,7.44-2.6-.07Z"/><path class="cls-2" d="M429.17,546.06c0-1.58,0-2.86,0-4l2.34.06.06,2.12h.06a6.25,6.25,0,0,1,11.06,4.2,6.24,6.24,0,0,1-6.71,6.44,5.33,5.33,0,0,1-4.36-2.06h-.05l-.2,6.71-2.57-.07Zm2.48,3.36a4.42,4.42,0,0,0,.09.92,4,4,0,0,0,3.84,2.74c2.76.08,4.41-1.82,4.49-4.65.07-2.47-1.38-4.63-4.13-4.71a4.07,4.07,0,0,0-4,2.67,3.17,3.17,0,0,0-.21.91Z"/><path class="cls-2" d="M155.93,571.43c0,3,2.19,4.35,4.8,4.42a10.84,10.84,0,0,0,4-.52l.4,1.62a13.28,13.28,0,0,1-4.8.62c-4.41-.12-7-2.7-6.87-6.42a6.39,6.39,0,0,1,6.91-6.46,5.53,5.53,0,0,1,5.77,6,10.07,10.07,0,0,1-.12,1.05Zm7.69-1.39a3.36,3.36,0,0,0-3.51-3.75,4,4,0,0,0-4.1,3.53Z"/><path class="cls-2" d="M179.4,577.4a10.78,10.78,0,0,1-4.14.6c-4.33-.12-7.07-2.73-7-6.5s3.2-6.47,7.89-6.33a9.72,9.72,0,0,1,3.59.74l-.64,1.72a6.71,6.71,0,0,0-3-.68c-3.29-.09-5.13,1.95-5.2,4.52-.09,2.86,2,4.68,4.84,4.76a8.47,8.47,0,0,0,3.22-.52Z"/><path class="cls-2" d="M183,559.85l2.61.07-.22,7.7h.06a4.59,4.59,0,0,1,1.91-1.52,6,6,0,0,1,2.68-.56c1.93.05,5,1.16,4.86,5.42l-.21,7.34-2.61-.08.21-7.08c0-2-.76-3.7-3.22-3.77a3.71,3.71,0,0,0-3.56,2.14,2.65,2.65,0,0,0-.21,1.07L185,578l-2.61-.07Z"/><path class="cls-2" d="M212,572.52c-.13,4.56-3.87,6.45-7.33,6.35-3.88-.11-6.81-2.65-6.7-6.55.12-4.13,3.33-6.46,7.3-6.35C209.43,566.09,212.14,568.75,212,572.52Zm-11.39-.2a4.44,4.44,0,0,0,4.22,4.87c2.49.07,4.42-1.89,4.5-4.67.06-2.09-1.08-4.78-4.16-4.87S200.72,570,200.65,572.32Z"/><path class="cls-2" d="M221.1,568.75a1.77,1.77,0,0,1,3.52.1,1.77,1.77,0,0,1-3.52-.1Zm-.26,9a1.78,1.78,0,1,1,1.7,1.64A1.63,1.63,0,0,1,220.84,577.74Z"/><path class="cls-2" d="M230.55,568.07a27.58,27.58,0,0,1,2.95-6l1.67-.1a31.49,31.49,0,0,0-1.92,5.91Zm4.41.13a27.39,27.39,0,0,1,2.93-6l1.66-.11a31.59,31.59,0,0,0-1.91,5.92Z"/><path class="cls-2" d="M242.56,561.55l2.61.08-.22,7.69H245a4.53,4.53,0,0,1,1.91-1.53,6,6,0,0,1,2.69-.56c1.92,0,5,1.16,4.85,5.42l-.2,7.34-2.61-.08.2-7.08c.06-2-.75-3.7-3.21-3.77a3.71,3.71,0,0,0-3.56,2.15,2.28,2.28,0,0,0-.21,1.06l-.22,7.45-2.6-.08Z"/><path class="cls-2" d="M260.11,574.4c0,3,2.19,4.35,4.79,4.42a10.63,10.63,0,0,0,4-.52l.4,1.62a13.39,13.39,0,0,1-4.79.63c-4.42-.13-7-2.7-6.88-6.43a6.39,6.39,0,0,1,6.92-6.46,5.53,5.53,0,0,1,5.76,6,6.5,6.5,0,0,1-.12,1.05ZM267.8,573a3.37,3.37,0,0,0-3.51-3.75,4,4,0,0,0-4.11,3.53Z"/><path class="cls-2" d="M273.85,562.44l2.61.08-.52,18.1-2.6-.08Z"/><path class="cls-2" d="M280.84,562.64l2.61.08-.51,18.1-2.61-.08Z"/><path class="cls-2" d="M300.48,575c-.13,4.56-3.86,6.45-7.33,6.35-3.88-.11-6.81-2.64-6.69-6.54.11-4.13,3.32-6.47,7.29-6.35S300.59,571.27,300.48,575Zm-11.38-.2a4.42,4.42,0,0,0,4.22,4.87c2.49.07,4.41-1.89,4.49-4.67.06-2.09-1.08-4.77-4.16-4.86S289.16,572.5,289.1,574.84Z"/><path class="cls-2" d="M311.26,569.28,313,575.6c.38,1.39.73,2.68,1,4H314c.36-1.24.87-2.55,1.38-3.86l2.52-6.23,2.2.06,2,6.23c.49,1.5.87,2.81,1.16,4.07h.09a33.48,33.48,0,0,1,1.21-4l2.22-6.14,2.58.08-5,12.2-2.37-.07-2-5.95a38.52,38.52,0,0,1-1.16-4.09h-.06a30,30,0,0,1-1.42,4l-2.48,5.8-2.37-.07-4-12.46Z"/><path class="cls-2" d="M344.54,576.3c-.13,4.56-3.86,6.45-7.33,6.35-3.88-.11-6.81-2.65-6.7-6.55.12-4.13,3.33-6.46,7.3-6.35S344.64,572.53,344.54,576.3Zm-11.39-.2c-.07,2.7,1.68,4.8,4.22,4.87s4.42-1.89,4.5-4.67c.06-2.09-1.08-4.78-4.16-4.87S333.22,573.76,333.15,576.1Z"/><path class="cls-2" d="M347.89,574.17c0-1.45.05-2.7,0-3.85l2.28.07,0,2.42h.12a4.25,4.25,0,0,1,4.05-2.58,3.33,3.33,0,0,1,.74.09l-.07,2.12a4.36,4.36,0,0,0-.88-.1,3.47,3.47,0,0,0-3.58,2.78,5.2,5.2,0,0,0-.15,1l-.19,6.58-2.57-.08Z"/><path class="cls-2" d="M358,564.84l2.61.08-.52,18.1-2.61-.08Z"/><path class="cls-2" d="M377.35,565.4l-.43,14.91c0,1.1,0,2.35,0,3.19l-2.34-.07-.06-2.14h-.06a5.49,5.49,0,0,1-5,2.28,6,6,0,0,1-5.95-6.45,6.28,6.28,0,0,1,6.62-6.44,5,5,0,0,1,4.27,2h.06l.21-7.37Zm-2.92,10.71a3.37,3.37,0,0,0-.09-1,3.74,3.74,0,0,0-3.69-2.71c-2.69-.08-4.35,1.92-4.43,4.65-.07,2.49,1.29,4.6,4.11,4.68a3.85,3.85,0,0,0,3.9-2.57,3.65,3.65,0,0,0,.14-1Z"/><path class="cls-2" d="M385.09,566.26a28.25,28.25,0,0,1-2.93,6l-1.66.13a35.35,35.35,0,0,0,1.92-5.94Zm4.39.12a29.25,29.25,0,0,1-2.93,6l-1.67.13a30.86,30.86,0,0,0,1.92-5.94Z"/><path class="cls-2" d="M159.61,590.21a15.23,15.23,0,0,0-4,10.32A15.58,15.58,0,0,0,159,611l-2-.05a15.07,15.07,0,0,1-3.59-10.47,15.39,15.39,0,0,1,4.18-10.31Z"/><path class="cls-2" d="M174.76,590.23l-.43,14.92c0,1.09,0,2.34,0,3.19l-2.34-.07-.06-2.15h-.06a5.44,5.44,0,0,1-5,2.28,6,6,0,0,1-6-6.44,6.28,6.28,0,0,1,6.62-6.45,5.06,5.06,0,0,1,4.27,2h.06l.21-7.36Zm-2.92,10.71a3.44,3.44,0,0,0-.09-1,3.74,3.74,0,0,0-3.69-2.7c-2.69-.08-4.35,1.91-4.43,4.64-.07,2.5,1.29,4.61,4.11,4.69a3.84,3.84,0,0,0,3.9-2.57,3.72,3.72,0,0,0,.14-1Z"/><path class="cls-2" d="M191.73,602.55c-.13,4.57-3.87,6.45-7.33,6.35-3.88-.11-6.81-2.64-6.7-6.54.12-4.13,3.33-6.46,7.3-6.35C189.12,596.13,191.83,598.78,191.73,602.55Zm-11.39-.19a4.43,4.43,0,0,0,4.22,4.86c2.49.07,4.42-1.89,4.5-4.67.06-2.09-1.08-4.77-4.16-4.86S180.41,600,180.34,602.36Z"/><path class="cls-2" d="M205.07,608.75a10.94,10.94,0,0,1-4.14.6c-4.32-.13-7.07-2.73-7-6.5s3.21-6.47,7.89-6.33a9.78,9.78,0,0,1,3.6.74l-.64,1.71a7,7,0,0,0-3-.67c-3.29-.09-5.13,2-5.2,4.52-.08,2.86,2,4.68,4.85,4.76a8.38,8.38,0,0,0,3.21-.52Z"/><path class="cls-2" d="M220.21,606.28c0,1.27,0,2.39,0,3.36l-2.31-.06-.09-2h-.06a5.61,5.61,0,0,1-4.81,2.16c-2.25-.07-4.92-1.21-4.79-5.55l.2-7.21L211,597l-.2,6.83c-.06,2.35.72,3.95,3.09,4a3.79,3.79,0,0,0,3.5-1.94,2.81,2.81,0,0,0,.27-1.14l.21-7.57,2.61.07Z"/><path class="cls-2" d="M226.05,604c0,3,2.19,4.35,4.8,4.43a10.84,10.84,0,0,0,4-.53l.4,1.62a13.23,13.23,0,0,1-4.8.63c-4.41-.13-7-2.7-6.87-6.42a6.39,6.39,0,0,1,6.91-6.46,5.52,5.52,0,0,1,5.76,6,8.06,8.06,0,0,1-.11,1Zm7.69-1.38a3.36,3.36,0,0,0-3.51-3.75,4,4,0,0,0-4.1,3.53Z"/><path class="cls-2" d="M239.54,601.19c0-1.28,0-2.32,0-3.34l2.28.06.07,2h.08a5.12,5.12,0,0,1,4.57-2.14,4.25,4.25,0,0,1,4,2.59h.06a5.52,5.52,0,0,1,1.65-1.56,5.46,5.46,0,0,1,3.19-.77c1.9.05,4.68,1.2,4.56,5.49l-.21,7.26-2.54-.07.2-7c.06-2.37-.9-3.82-3-3.88a3.32,3.32,0,0,0-3.14,1.95,3.36,3.36,0,0,0-.24,1.11l-.21,7.63-2.55-.08.21-7.39c.05-2-.91-3.42-2.9-3.48a3.5,3.5,0,0,0-3.29,2.16,2.6,2.6,0,0,0-.24,1.09l-.21,7.44-2.55-.07Z"/><path class="cls-2" d="M264.25,601.89c0-1.27,0-2.32,0-3.34l2.31.07.09,2h.06a5.47,5.47,0,0,1,4.81-2.18c2,0,5,1.16,4.92,5.39l-.21,7.37-2.61-.07.2-7.12c.06-2-.75-3.67-3.21-3.74a3.65,3.65,0,0,0-3.56,2.2,2.75,2.75,0,0,0-.21,1L266.6,611l-2.61-.08Z"/><path class="cls-2" d="M283.91,595.57l-.1,3.54,3.73.11-.05,1.7-3.73-.1-.19,6.65c0,1.53.44,2.41,1.89,2.45a6.41,6.41,0,0,0,1.51-.11l.07,1.69a7.41,7.41,0,0,1-2.32.24,3.94,3.94,0,0,1-2.78-1,4.13,4.13,0,0,1-.92-3.25l.19-6.73-2.22-.06L279,599l2.22.07.09-3Z"/><path class="cls-2" d="M288.46,614.68a15.72,15.72,0,0,0,4-10.32,15.39,15.39,0,0,0-3.44-10.46l2,.06a14.84,14.84,0,0,1,3.59,10.49,15.14,15.14,0,0,1-4.18,10.29Z"/><path class="cls-2" d="M298,610.53a1.64,1.64,0,0,1,1.83-1.55,1.61,1.61,0,1,1-.12,3.21A1.63,1.63,0,0,1,298,610.53Z"/><path class="cls-2" d="M308,596.33c0,.77-.67,1.36-1.7,1.33a1.45,1.45,0,0,1-1.53-1.42,1.5,1.5,0,0,1,1.67-1.36A1.45,1.45,0,0,1,308,596.33Zm-3.36,15.72.35-12.34,2.61.08-.35,12.34Z"/><path class="cls-2" d="M311.86,603.25c0-1.27,0-2.32,0-3.34l2.31.06.09,2h.06a5.44,5.44,0,0,1,4.81-2.18c2,0,5,1.16,4.91,5.39l-.21,7.37-2.61-.08.21-7.11c0-2-.76-3.67-3.22-3.74a3.65,3.65,0,0,0-3.56,2.2,2.67,2.67,0,0,0-.21,1l-.21,7.42-2.61-.08Z"/><path class="cls-2" d="M328.3,603.72c0-1.27,0-2.32,0-3.34l2.31.06.09,2h.06a5.5,5.5,0,0,1,4.81-2.19c2,.06,5,1.17,4.92,5.4l-.21,7.37-2.61-.08.2-7.11c.06-2-.75-3.67-3.21-3.74a3.67,3.67,0,0,0-3.57,2.2,2.87,2.87,0,0,0-.2,1l-.21,7.41-2.61-.07Z"/><path class="cls-2" d="M346.11,607.47c0,3,2.19,4.35,4.79,4.42a10.6,10.6,0,0,0,4-.52l.4,1.62a13.39,13.39,0,0,1-4.79.63c-4.42-.13-7-2.7-6.87-6.43a6.38,6.38,0,0,1,6.91-6.46,5.53,5.53,0,0,1,5.76,6,6.5,6.5,0,0,1-.12,1Zm7.69-1.39a3.37,3.37,0,0,0-3.51-3.75,4,4,0,0,0-4.11,3.53Z"/><path class="cls-2" d="M359.58,605.12c0-1.45.05-2.7,0-3.85l2.28.07,0,2.42H362a4.26,4.26,0,0,1,4.05-2.59,3.31,3.31,0,0,1,.74.1l-.06,2.12a4.55,4.55,0,0,0-.89-.1,3.46,3.46,0,0,0-3.58,2.78,5.2,5.2,0,0,0-.15,1l-.19,6.58-2.57-.08Z"/><path class="cls-2" d="M372.18,596.78,372,604l9.66.28.2-7.19,2.61.07L384,614.32l-2.61-.08.23-8-9.66-.28-.23,8.06-2.58-.08.49-17.18Z"/><path class="cls-2" d="M392.66,599.26l-6.07-.18.05-1.88,14.79.42-.06,1.88-6.1-.17-.44,15.3-2.61-.08Z"/><path class="cls-2" d="M420.2,607.8c-.08-2.4-.17-5.29-.08-7.43H420c-.74,2-1.63,4.11-2.7,6.45l-3.77,8.24-1.95-.06-3-8.27a67.78,67.78,0,0,1-2.12-6.75h-.06c-.12,2.14-.35,5-.6,7.59l-.75,7.35-2.46-.07,1.89-17.15,3.29.1,3.17,8.41c.77,2.14,1.39,4,1.85,5.84h.09a58.7,58.7,0,0,1,2.26-5.72l3.8-8.21,3.29.09.75,17.22-2.52-.07Z"/><path class="cls-2" d="M427.47,598.36l2.58.07-.44,15.33,8.53.24-.05,1.86L427,615.54Z"/><path class="cls-3" d="M921.74,546.21c.59,2.54,1.93,3.73,4.72,3a14.3,14.3,0,0,1,4.87-.52c4.22.38,8.9-2.54,8.55-5.73-.47-4.24-2.82-7.37-7-6.72a40.55,40.55,0,0,1-6.14.06c-.11-5-1.53-6.73-5.56-6.58a29.33,29.33,0,0,0-4.36.8,25.23,25.23,0,0,0-2.7-2.77c-1.43-1.11-2.94-2.73-4.54-2.88a40.32,40.32,0,0,0-9.75.51c-3.43.53-5.68-.18-6.14-4,1.24-.84,2.57-1.59,3.72-2.53,7.3-6,16-7,25-7.07a64.59,64.59,0,0,0,7.23-.37c2.69-.33,5.32-1.05,8-1.43,6.41-.88,12.93-1.18,19.19-2.65,3.17-.75,5.61-4,8.72-5.29a89.32,89.32,0,0,1,12.83-3.7c2.38-.59,5.11-.23,7.31-1.17,5.17-2.2,9.2-6.51,15.38-7.14,2.53-.26,4.49-.61,6.87.48,2,.92,4.76,2,6.43,1.34a124.66,124.66,0,0,0,18.13-9.24c1.58-1,2.31-4.53,2.21-6.86-.21-5.24-5.25-6.77-8.85-8-3.81-1.36-8.6-1.23-12.65-.34-3.27.73-6.12,3.49-9.06,5.49-1.23.79-2.74,1.85-3.17,3.11-1.69,4.62-5.6,6-9.64,6.61a84.77,84.77,0,0,0-24.6,8c-6.82,3.39-14.16,4.66-21.68,5.17-2.79.19-5.55.53-8.36.79.48-4.76-2.48-6.83-6.35-8.31-4-1.52-7.14-.4-9.89,2.76a5.43,5.43,0,0,1-2.77,1.52c-5.16,1.08-10.31,2.28-15.53,2.92a19.12,19.12,0,0,1-8.79-.69,93.56,93.56,0,0,1-13-6.75c-.79-.45-1.09-2-1.24-3.06-.05-.34,1.14-1.25,1.74-1.22,2.33.1,5.46,1.58,6.81.53,3.1-2.31-.6-4.05-1.65-6a12.92,12.92,0,0,1-.35-1.36c2.61-3.35,5.61-7.14,8.58-11,1.67-2.16,3.17-4.44,4.92-6.55,2.65-3.23,4.93-7.06,8.27-9.36s8-3.12,12-4.87c1.68-.74,3.78-1.93,4.38-3.44,1.17-3,2.53-6.59,1.76-9.39-.89-3.24-1.31-8.27-6.92-8.11-.39,0-.74-.91-1.21-1-1.33-.37-2.71-.55-4.06-.79-.26,1.42-.54,2.82-.8,4.24-.18,1.18.17,2.87-.5,3.48-3.69,3.35-7.68,6.35-11.42,9.66a41.88,41.88,0,0,0-6,6.21c-2.94,4-10.94,3.87-13.22-.48-.56-1.07-.13-2.69,0-4.06.18-2.19,1.06-4.51.59-6.53-2-8.47-4.86-10-13.19-7.93a8,8,0,0,1-2.6-.37l3-4c-3-1.43-2.32-3.23-.92-5.33s2.57-4.46,3.84-6.7l2.48-2.49c4.3-.79,6.73.65,6.11,5l12.6-3.38c-.42-2-.88-4.28-1.33-6.52,7-.21,10.39-3.32,9-8.25-2-6.79-4.07-8.31-11.46-8.3l-4.16-23.14,3.46-2.23c5-3.25,7.22-2.73,11,2,1.4,1.73,2.57,4.56,5.92,2.88,3-1.51,3.17-3.85,2.38-6.62,0-.13-.1-.25-.14-.39-1-3,.26-4.64,3.18-5.5a7.18,7.18,0,0,0,3.42-1.88c2-2.38,3.57-5.28,5.68-7.61,2.64-2.9,2.61-4.82-1.2-6-2.54-.79-2.68-2.11-2-3.92,1.59-4.46,3.4-8.85,5.2-13.49-.79-2.27-1.95-5.22-2.95-8.22-.47-1.42-.21-3.39-1.09-4.32-3.5-3.63-4.16-7.14-1-11.31.23-.31-.85-2.3-1.66-2.63-2.14-.87-4.91-.69-6.62-2s-2.26-3.81-3.66-6.41l-5.75,2.28-7.14-11c-2.73,1.53-4.39,2.48-6.08,3.39-1.47.79-3.3,1.24-4.39,2.38-1.41,1.49-1.71,4.24-4.85,3.22-.41-.13-1.39.48-1.65,1-2.09,4-4.39,3.17-7.14.66a3.28,3.28,0,0,0-3.17-.12c-.95.69-2,2.3-1.8,3.28.36,1.91,1.58,3.64,2.38,5.48a7.73,7.73,0,0,1,1,3.24c-.23,2.67-.8,5.31-1.21,7.7-3.49.86-6.89,1.35-10,2.54-4.09,1.59-4,2.52-.62,5.11.8.6.92,2,1.34,3.08-1,.32-2,.7-3,.93a8.8,8.8,0,0,1-1.92,0c.61,2.69.4,5.85,1.88,7.44,2.71,2.89,2.54,5.45,1.27,8.61s0,5,3.43,5.29a24.46,24.46,0,0,1,2.64.51v7.71c-4.65,1.39-1.83,6.54-4.63,9.37-2.93-5.06-5.4-3.17-8.52-.17-3.88,3.74-5.18,8.45-6.75,13.22-.5,1.48-1.53,3.28-2.82,3.9-3,1.45-3.28,3.12-1.72,5.84.62,1.08,1.08,3.06.51,3.86-2,2.89-4.53,5.42-6.74,8.19-.32.4.06,1.37.11,2.07-.89,1.13-1.59,2.78-2.7,3.3a102.74,102.74,0,0,1-9.94,3.5,29.37,29.37,0,0,1-3.22.72,18.28,18.28,0,0,1,.3-3.47c1.42-4.86,2.25-9.67-.13-14.69-3.42,4.38-4.55,9.37-4.12,14.93a5,5,0,0,1-2.11,4c-.93.52-2.78-.38-4.12-.93-1.5-.63-2.83-1.67-4.33-2.3a24.27,24.27,0,0,0-4.26-1.27c-2.43-.53-5-.64-7.27-1.52-2-.75-4.55-1.94-5.23-3.61-1.31-3.17-1.49-6.82-2.1-10.27-1-5.36-2.38-10.69-2.76-16.09-.48-6.29-.84-12.77.09-18.95,1-6.49-5.17-11.9-2-18.52.29-.62-1.85-2.67-3.18-3.64-.56-.41-2.62,0-2.79.48a18.36,18.36,0,0,0-.45,4.37c-.12,1.24,0,2.71-.57,3.66a29.76,29.76,0,0,1-3.64,4c1.84,4.87,5.22,8.9,4.37,14.48-.32,2.11.26,4.35.3,6.53.07,4,.31,7.94,0,11.9-.49,6.35-2.85,12.7.79,18.87.48.79.25,2.14.14,3.21-.43,4.21-.49,8.52-1.58,12.56-.9,3.37-2.88,6.52-4.76,9.52-.34.54-3.08.42-3.87-.31-3.24-3-6.72-4.38-11.1-3,.15-1.86,1.06-4.13.31-5.55a27.43,27.43,0,0,1-3-12.07,9.86,9.86,0,0,0-9.76-9.67c-4.53,0-6.47,2.3-7.56,8.89,0,.12-.15.23-.43.63l-3.57-1.26c.25-3.5.94-7.05.54-10.47-.17-1.34-2.69-3.13-4.34-3.39-2.38-.38-4.61.8-4.45,4-2.62-2.49-5.36-4.87-7.84-7.49s-4.57-3.38-7.7-.74c-3.75,3.18-5.62,2.95-9.19-.47a81.33,81.33,0,0,1-5.49-6.48c-2.28,4.51-5.81,6.21-10.16,7.41-6,1.65-7.43-2.89-10.26-5.95-.84-.89-2.47-1.05-3.74-1.55-.07,1.59-.79,3.56-.12,4.76,2.58,4.76,1.17,8.73-3.92,10.53A6.68,6.68,0,0,0,655.9,386c-2.32,3.81-4.6,7.25-9.68,7.94-1.45.19-3.64,2.57-3.69,4-.18,4.15-2.73,6.24-5.74,7.83C634,407.21,630.92,408,628,409L617.52,402c3.45-11.78,6.88-23.57,10.39-35.58a3,3,0,0,0,1.5.31c2.85-.39,7,.08,8.26-1.59,3.84-5,6.49-10.93,9.7-16.43,8.34-14.32,5.43-30.43,7.19-45.77.5-4.3-3.61-6.8-8.33-6-1.65.27-3.34.39-5,.57,1.13-4.31,1-8.81,1.55-13.19.8-5.85,2.53-11.56,2.83-17.46.29-.91.65-1.8.88-2.73,1.3-5.35,2.49-10.69,7.77-13.93.94-.58,1.52-2.67,1.34-3.93-1.63-11.68-3-23.43-5.42-34.91-1.79-8.45-5.19-16.54-11.59-22.85-5.55-5.5-11.3-10.86-16.83-16.41-12.93-13-28.13-21.77-46.65-22.92-11.35-.72-22.82-.19-34.2.45-18.42,1-36.7,3.28-54.38,8.94-12,3.86-23.35,9-31.51,19.24-5.41,6.77-10.69,13.63-16.17,20.34a30.76,30.76,0,0,0-6.66,14.37c-2,11.11-4.41,22.08-6.34,33.17-1.69,9.79,0,19.32,3.21,28.62,6,12.6,10.76,20.27,10.93,39.76-9.31-1.21-11.33.59-11,10a59.39,59.39,0,0,0,.87,8.2c2,11.4,4.76,22.51,11.82,32.12a84.46,84.46,0,0,1,7.76,12.43c2.07,4.23,4,6,8.8,5.59,1.33-.1,2.67-.32,4.47-.54,2.64,12.26,6.18,24.06,13,34.57q-7.69,9-15.38,18.05c-1.06.86-2.14,1.68-3.18,2.59a71.66,71.66,0,0,1-31.75,17.1c-9.23,2.22-18,6.35-27,9.57l-1.29.64-4.47,1.8c-1,.35-2.08.66-3.08,1.08C366.86,476.93,344.86,488,324,501.48c-9.9,6.39-20.34,11.95-30.48,18-7.94,4.72-13.28,11.85-17.82,19.63-9.67,16.57-14.8,34.75-18.65,53.36-1.44,6.93-2.55,13.94-3.86,21.2h31.15c1.65.07,3.29.18,4.94.18l312.2.07c9.52,0,19-.14,28.47-.22l1.59.15,80.39-.08h6.35l86.68.13,5,.07,1.78-.23,6.57.39,3.29.69h72.76c11.41,0,22.82.15,34.22-.13,1.79,0,3.52-2,5.28-3.07-.87-1.07-1.76-2.1-2.61-3.18a5.37,5.37,0,0,1-1.27-1.92c-.57-3-1.82-6.26-1.26-9.1,1.19-6.08-2.69-9.69-5.42-14,3-.46,3.77-2.69,3.18-5.1a5.79,5.79,0,0,0-2.95-3.66c-3.17-1.19-4.07,1.66-5.2,3.79q-2.07-2.48-4.13-5c3.49-.68,6.9-3.67,10.6-.32.19.17,2.38-1,2.44-1.73.38-2.61,2.13-2.46,4.05-3a41.28,41.28,0,0,0,8.9-4.3c.62-.36.93-2.79.51-3.11-2.06-1.59-4.34-3.63-6.68-3.84-4.44-.39-9,.71-13.49.5-2.7-.12-5.34-1.52-8-2.38,3.45-.87,6.06-2.46,5.77-6.6Zm35.59-298.8c0-9-1.58-10.48-10-9.42-5.71.72-9.67,10.07-6,14.76,1.58,2,3.7,4.4,5.94,4.87C953.42,258.92,958.25,254.94,957.33,247.41Zm24.6,287.44c-2.7-1.47-4.83-3.34-7.14-3.64-1.53-.19-3.79,1.59-4.82,3.08-.42.62,1.18,3.52,2.48,4.22,2.47,1.34,4.45,4.52,8.15,3,.38-.16,1.82,1.38,2.27,2.38,1.86,4,9,5.33,12,2.09,2.78-3,2.88-8.14-.34-11.73-2.42-2.72-5.68-2.84-9-1.12C984.2,533.88,982.72,534.51,981.93,534.85Zm-6.47-141.56c-.79-3.87-2.07-4.79-4.91-3.21-1.93,1.08-3.46,2.86-5.19,4.29a29.73,29.73,0,0,1-2.58,1.92c-3,2-6.18,3.74-9,5.94-.79.58-1,2.66-.54,3.64.3.66,2.45,1.17,3.34.79a86.92,86.92,0,0,0,13-6.52c2.46-1.6,4-4.51,6-6.83ZM752.65,311.66c-5.38,3.38-12.58,17.08-10.89,20.38C748.49,328.78,755.16,316.59,752.65,311.66Zm224.88,73.82c3.09.67,5.49,2,6.94,1.29,1.67-.79,2.39-3.44,3.69-5.13a28.82,28.82,0,0,1,3.47-3.43c2.06-1.92,4.26-3.71,6.17-5.77a2.22,2.22,0,0,0-3.08-3.05c-1.2.79-2.61,1.92-3,3.17-1.3,4.6-5.25,6.3-8.63,8.73-1.61,1.13-3.19,2.37-5.58,4.19ZM687.65,351.41c2.08-4,1.45-14.86-1.43-16.89-1.1-.79-3.5-1.34-4.15-.74-1.12,1-2.28,3.48-1.77,4.57C682.46,342.92,685.21,347.21,687.65,351.41Zm229.71,30.9c-1.09-5.3-2.3-10.26-8.44-11.43-1-.2-2.81-.13-3.12.44-.45.79-.15,2.32.28,3.33a39.94,39.94,0,0,0,2.61,4.48c2.33,3.94,4.8,4.91,8.67,3.18Zm79.33,164.76-.79.67c-.94.16-2.08,0-2.78.52-1.58,1.1-3.89,2.38-4.06,3.83s1.85,3.18,3.13,4.59c2.49,2.73,3.59-1.11,5.41-1.25,2.57-.21,4.33-1.27,3.36-3.75-.74-1.81-2.8-3.09-4.26-4.61Zm-6,46.56c-2.43.18-4.89-.1-7,.65a16.27,16.27,0,0,0-5.45,4c-.36.33.34,2.71.74,2.75a24.39,24.39,0,0,0,6.5,0c1.12-.16,2-1.37,3.17-1.84C991.45,598,991.79,596.12,990.66,593.63Zm-38.54,0c-2.6-2.7-4-4.87-5.93-5.91-1.59-.84-4.94,3.69-4.39,6.41.25,1.27,2.38,3.24,3.29,3.07,2.08-.39,3.94-1.92,7-3.6ZM730.73,352.8c-1-.57-3.68-2.47-3.9-2.22a23.54,23.54,0,0,0-4.09,6.59c-.22.56,1.58,2.67,2.62,2.85C727.74,360.43,730.89,356.63,730.73,352.8Zm87.77,17.55c-2.32,1.34-4.63,2.25-6.26,3.85-.56.54.23,3.09,1.08,4.19.5.64,2.66.7,3.57.16C819.63,376.92,819.76,374.27,818.5,370.35Zm112.88-54.43c-1.37,2.38-2.76,3.74-2.75,5.1,0,.93,2.38,2.79,3,2.55a5.43,5.43,0,0,0,3.11-3.38c.13-.92-1.71-2.22-3.41-4.27ZM889.9,441.8c-1.47-1.35-2.64-3-3.17-2.82-1.12.38-2.76,1.89-2.62,2.69.2,1.31,1.65,2.38,2.57,3.61ZM721,328.35l-1.21-.46c-1,2.63-2,5.26-3.26,8.6,5-1.87,5.8-3.73,4.43-8.12Z"/><path class="cls-4" d="M630,613.67c-9.52.08-19,.22-28.48.22q-156.09,0-312.19-.07c-1.65,0-3.29-.11-4.94-.18-1.59-10.6-1.16-21,2.61-31.17,6.45-17.35,12.86-34.72,19.38-52,3-8,8-13.87,16.22-17.59a156,156,0,0,0,23-13.49c13.09-9,25.81-18.48,38.72-27.72,2.7-1.93,5.55-3.66,8.35-5.48l4.48-1.8,1.29-.64c9-3.26,17.75-7.35,27-9.56,12.28-3,22.6-8.87,31.86-17,1-.9,2.11-1.73,3.18-2.58a10.05,10.05,0,0,1-.18,2c-4,13.48-9.26,26.71-10,41a83.65,83.65,0,0,0,.79,15c.44,3.5,2,6.84,2.67,10.31,1.87,10.39,4.7,13.86,14.85,16s20.14,3.71,30.22,5.56c12.83,2.38,25.69,4.07,38.77,2,9.06-1.47,18.12-2.85,26.18-7.79,5-3.08,10.31-5.81,15.28-8.93,12.26-7.65,25.85-13.49,35-25.51,4.38-5.79,9.64-10.94,13.6-17,4.76-7.2,8.48-15.07,12.7-22.58,2-3.56,4.12-7.06,6.19-10.58,1.15,1,2.38,1.85,3.42,2.91,3.29,3.28,5.94,7.68,9.85,9.77,17.36,9.34,35.06,18,52.65,27,1.79,1,3.53,2.05,5.36,3,19.56,9.62,39.15,19.17,58.71,28.88,2.87,1.42,5.41,3.49,8.1,5.26-1.22,0-2.8-.4-3.59.2a10.15,10.15,0,0,0-2.91,4c-.22.52,1,2.38,1.5,2.33,1.59-.09,3.63-.32,4.67-1.34s.79-2.94,1.15-4.47l2.38.27L803,524.45c-5-.12-8.09,3.52-11.64,6.11-1.44,1.06-2.27,3-3.38,4.49l.48.14c-2.22,4.5-4.43,9-6.56,13.3l3.42.8-6.3,9.05c4.27,0,4.83,1.58,3,4.34a9.81,9.81,0,0,1-2.57-1.73c-2.51-3.42-8.64-4.4-9.18-1.31a12.81,12.81,0,0,0,2.19,8.51c1.59,2.33,4.37,1.23,6.54-.47,1.14-.89,2.58-1.4,5.07-2.7-2.06,9.41,5.4,13.38,7.84,19.72,6,.25,7.93,1.67,8.39,6.29-4-1.58-6.19-.79-7.75,3-1.74,4.21-.47,8.66,2.88,10.18,2.9,1.32,6.48-.66,8.09-4.45a39.34,39.34,0,0,1,.84,4.3c.31,3.28.47,6.56.69,9.84l-86.68-.13c1.26-4.17-1.29-5.33-4.64-5.86a10.13,10.13,0,0,1,1.49-.61c2.38-.6,2.87-2.38,2.31-4.37-.2-.73-1.82-1.82-2.13-1.64a8.63,8.63,0,0,0-3.62,3.22c-.32.68,1.24,2.24,1.94,3.4-2.27,1.46-3.66,3.17-1.73,5.87l-80.4.08-.41-1.05Zm50.32-53.35-.24-.45v.2a1.89,1.89,0,0,0,.27.2,25.08,25.08,0,0,0,.92,3.53c.79,2,2.2,3.92,2.53,6,.44,2.81-.42,5.87.23,8.6a26.77,26.77,0,0,0,4.12,9.52c2,2.7,4.47,2,6.18-1,2.18-3.84.32-7.06-1.32-10.45a55.09,55.09,0,0,1-4-9.72C687.59,561.46,686.17,560.19,680.3,560.32Zm-35.58-2.38c3-.65,4.23-2.1,2.2-5,2.52-2.92,4.49-1.29,5.84,1,1.23,2.11,1.59,4.69,2.8,6.83a69.32,69.32,0,0,0,4.87,6.86c4.49-5.74,3.77-12.62-.68-17.16-1.13-1.15-1.59-3-2.31-4.48a38.27,38.27,0,0,1,5.35-2.29c1-.25,2.17.66,3.18.52,2.38-.33,5.31-.28,6.86-1.68,1.76-1.58,2.26-4.59,3.31-7-2.16-.42-4.3-1-6.47-1.23s-4.57,0-6.86,0l-.51-1.13c3.82-.56,6.44-2.14,6.35-7.14l-19.79,3.17a54.25,54.25,0,0,1,.79-5.39c.65-2.52,1.74-4.94,2.3-7.48a7.55,7.55,0,0,0-5-9.21,7.24,7.24,0,0,0-9.23,4.11c-1.09,2.43-1.41,5.23-1.94,7.93-.4,2-.29,4.16-.93,6.07-.83,2.47-2.81,3.8-5.5,2.92-2.92-1-3.18-3-2-5.6a25.25,25.25,0,0,0,1.11-4.18c-2.31,0-4.06-.09-5.81,0-2.95.2-4.95-.31-5.37-4-.39-3.31-3.18-5-6.24-5a37.48,37.48,0,0,0-9.3,1.38,6.12,6.12,0,0,0-4.77,6.46c.08,15.14-2.31,16.66,15.31,20.69,3.07.71,6.29,1,9.22,2.08,4.93,1.81,5.77,5.4,2.73,9.69-.93,1.33-2.11,2.78-2.3,4.29-.2,1.68,0,4.32,1.11,5,1.33.88,3.81.64,5.55.09,1.44-.45,2.44-2.15,3.75-3.17,3.51-2.64,5.78-1.82,6.94,2.38.52,1.9,1.13,3.78,1.71,5.67h1.09c.89-2,1.77-4.06,2.67-6.13Zm106.6,43.87c-.49,1-1.31,1.84-1.25,2.65.12,1.51.44,4,1.24,4.26a6.19,6.19,0,0,0,4.83-1c.92-.69,1.16-2.68,1.2-4.1.14-5,0-10,0-15-11.59-2-13-1.66-14.14,3.45-.92,4,2,7.65,8.07,9.7Zm-62.75-56.56c-.26,4.22,2.28,6.78,7,7.1,2,.13,5.41-4,5.64-7,.27-3.53-2.7-7.67-5.71-7.93-3.26-.37-6.71,3.52-7,7.82ZM766.74,588c5-.09,8.15-2.86,8.07-7.3,0-3.09-1.38-5.29-4.84-5.44-3.87-.17-8.42,3.85-8.11,7.55C762.09,585.57,763.08,588.26,766.74,588Zm9.59,23.14c1.63-2.88,3.43-4.92,4-7.25.67-3-.8-5.6-3.71-7.14s-5.83-.53-6.92,2.72c-.7,2.09-1.31,5.13-.3,6.65,1.39,2.1,4.33,3.2,7,5Zm-98.85-98.6c-.12-4.56-2.22-7-5-6.92s-5.32,2.92-5.3,5.81c0,3.34,1.58,5.32,5,5.07A5.88,5.88,0,0,0,677.48,512.54ZM776,547.19c3.73.06,5.18-2.38,5.67-5.06a4.59,4.59,0,0,0-3.94-5.17,4.29,4.29,0,0,0-1,0,5.4,5.4,0,0,0-5,5.63C771.69,545,773,547.38,776,547.19Zm-19.47,21.93c.38-3.06-2-4.53-4.9-4.67s-4.42,1.78-4.34,4.76,1.46,5,4.68,5C754.84,574.21,756.61,572.78,756.54,569.12Zm-49.42,2.7-6-4.83c-1.35,1.68-3.56,3.25-3.76,5-.16,1.41,2.45,4.52,3.37,4.36,1.92-.34,3.5-2.37,6.37-4.57ZM650.7,488l4.22,4.41c1.54-1.49,3.52-2.77,4.4-4.58.33-.66-2.17-3.84-2.91-3.69C654.64,484.51,653.16,486.2,650.7,488Zm103.4,52.72,4.29,4.35c1.25-1.42,3.4-2.79,3.47-4.27s-2-2.89-3.17-4.34Zm-62.33-33,1.65.1c1.11-1.67,2.73-3.24,3.09-5.06.17-.85-2.11-2.18-3.27-3.29-1.27,1.4-3.07,2.64-3.59,4.28C689.33,504.7,691,506.33,691.77,507.68ZM673.9,603.46c.72-2.6,5.26-3.8,1.59-7.27-1.9-1.79-3.18-1-4.38.61C669.4,599.11,670.31,601.58,673.9,603.46Zm61.83-61.53-1.46.14c-.65,1.46-1.93,3-1.74,4.34s1.85,2.51,2.86,3.76c1.14-1.35,3.1-2.65,3.18-4S736.78,543.33,735.73,541.93Zm-59-56.33c-1.65-1.31-2.85-2.69-3.22-2.49a8.65,8.65,0,0,0-3.11,3c-.17.29,1.52,2.38,1.93,2.27,1.32-.37,2.45-1.42,4.4-2.68ZM563.38,546c-1.71-1.49-3.17-3.17-3.47-3a19.32,19.32,0,0,0-3.51,3.33c.88.8,1.87,2.38,2.6,2.3C560.31,548.38,561.45,547.17,563.38,546Zm102.4,53-3.4-3.69c-.9,1.13-2.21,2.17-2.51,3.44-.16.72,1.32,2.52,2.14,2.58,1,0,2.08-1.24,3.77-2.36Zm-4.64-86.27c1.35-1.77,2.73-2.8,2.62-3.64a4,4,0,0,0-2.55-2.33c-.57-.13-2.12,1.33-2.17,2.14s1,2,2.1,3.79Zm-18.53,91.36c-1.78-1.23-2.83-2.52-3.7-2.38a3.73,3.73,0,0,0-2.16,2.58c-.11.59,1.39,2.06,2.18,2.08C639.89,606.35,640.86,605.23,642.61,604.09Zm111.86-18.76-.17.24h.26Z"/><path class="cls-5" d="M654.6,303.05c-1.76,15.34,1.15,31.45-7.19,45.77-3.17,5.51-5.86,11.41-9.7,16.43-1.27,1.67-5.41,1.21-8.26,1.59a3,3,0,0,1-1.5-.31c-.07.23-.14.46-.2.69-3.44,11.77-6.81,23.34-10.19,34.89l-.54,1.26-.27.85a.79.79,0,0,1-.09.7q-.37.4-.72.84a18.27,18.27,0,0,0-1.66,2.4c-6.28,14-16.58,25-27.13,35.75-2.19,2.24-4.55,4.29-6.84,6.42l-1.67.86c-5.26,2-10.43,4.22-15.79,5.88-17.56,5.38-33.9,4.05-49.7-6.81-11.51-7.94-21.68-17.18-32-26.38a5.87,5.87,0,0,0-.08-.72l-.85-.93,0,0-4.38-5.72c-6.83-10.51-10.37-22.31-13-34.58-1.8.23-3.13.44-4.46.54-4.76.38-6.73-1.35-8.8-5.59a83.9,83.9,0,0,0-7.77-12.42c-7-9.61-9.79-20.73-11.82-32.13a59.25,59.25,0,0,1-.87-8.19c-.34-9.42,1.67-11.21,11-10,.52.42,1,1.17,1.54,1.19,6.76.28,8.73,4.69,9.33,10.45.65,6,1.47,11.9,2.22,17.88.8-9.94.8-19.84.85-29.71,0-4.52.36-9,.52-13.57.13-3.79-.37-7.73.44-11.36,1.45-6.55,3.68-12.93,5.59-19.38a32.91,32.91,0,0,0,20.52-14.76c3-4.76,5.34-9.91,8.38-14.63,1.79-2.77,4.36-5,7.23-8.26.11,2.42.17,3.53.23,4.93l7-8.07c9.24,24.78,31.33,42.37,52.45,43.14a10.57,10.57,0,0,0,2.9,1.43c6.48.94,13,1.87,19.48,2.57,3.67.41,7.46,0,11,.64,6,1.15,11.9,2.88,17.88,4.37a2.39,2.39,0,0,1,.71.28l1.3,1-.36-1.23-1.67-.87-.82-.83h.07c-1.37-5,0-8.64,4.12-9.52,3.63-.8,7.37-1.13,11.06-1.66a42.31,42.31,0,0,1,6.13,19q1.13,17.46,2.51,34.86c.3,3.69.92,7.35,1.39,11a41.08,41.08,0,0,0,2-8.3c1.76-9.21,1.41-19,7.2-27.12l.11,0c1.62-.18,3.27-.3,4.88-.56C651,296.23,655.1,298.75,654.6,303.05Z"/><path class="cls-6" d="M655.68,246.29c-1.64-11.64-3-23.39-5.42-34.9-1.8-8.45-5.19-16.55-11.59-22.85-5.59-5.51-11.28-10.86-16.83-16.42-12.94-13-28.13-21.77-46.66-22.92-2.35-.15-4.72-.24-7.09-.29h-.45c-1.07,0-2.13,0-3.2,0-7.82,0-15.65.35-23.45.78-18.42,1-36.71,3.28-54.39,8.95-12,3.85-23.35,9-31.51,19.23-5.4,6.77-10.69,13.63-16.17,20.35a30.66,30.66,0,0,0-6.65,14.36c-2,11.08-4.44,22.07-6.35,33.17-1.69,9.79,0,19.32,3.21,28.63l1.6-1.06,9.07-6.08c1.32,3.7,3.7,2.48,6.87,1.93,4.46-.78,9.24.2,13.88.43a32.91,32.91,0,0,0,20.52-14.76c3-4.74,5.34-9.91,8.38-14.63,1.79-2.77,4.36-5,7.23-8.26.11,2.42.17,3.53.23,4.93,2.42-2.81,4.59-5.3,7-8.07,9.24,24.77,31.33,42.35,52.45,43.14,13.58.82,27.17,1.35,40.7,2.64,3.4.32,6.57,3.06,9.84,4.69-1.37-5,0-8.61,4.12-9.52,3.63-.81,7.37-1.13,11.06-1.66.41-.66,1.28-1.46,1.14-2-1.28-4.53,1-4.28,4-3,3.7,1.59,7.22,3.75,11.06,4.76,2.26.59,5-.54,7.47-.89.29-.9.65-1.79.88-2.72,1.31-5.36,2.49-10.69,7.77-13.94C655.27,249.65,655.85,247.55,655.68,246.29ZM442.23,265.88a3,3,0,0,1-.08-.43,1,1,0,0,1,.3.07c.07,0,.07.16.07.25Z"/><path class="cls-7" d="M784.52,510.72c-2.69-1.77-5.23-3.85-8.1-5.27-19.53-9.7-39.12-19.25-58.71-28.88-1.83-.89-3.57-2-5.36-2.94.28-1.51,1.19-3.28.72-4.51-1.43-3.74-4.58-7.18-4.88-10.92-.49-6.1-4.83-6.85-8.73-8.73a15,15,0,0,1-2.42-1.79c.72-.88,1.28-2.12,2.21-2.55a6.64,6.64,0,0,1,4.15-.65c4.38,1.29,8.57,3.26,13,4.28,1.59.36,4.68-.79,5.23-2.1,1.59-3.8,2.17-8.06,3.46-12,.61-1.87,1.59-4,3-5.13,3.65-2.67,4.5-4.45,2.09-8.11-2.19-3.33-2.44-6.24.59-9.09l7.42,2.49c.73,2.76,1.88,1,2.69.15,1.26-1.31,2.38-2.79,3.51-4.21l.28,1.15,5.11.46c4.34-1.35,7.82,0,11.1,3,.8.73,3.52.85,3.87.31,1.88-3,3.86-6.14,4.76-9.52,1.08-4,1.14-8.35,1.58-12.56.11-1.07.34-2.38-.14-3.21-3.67-6.19-1.31-12.53-.79-18.86.3-4,.06-7.94,0-11.91,0-2.18-.62-4.41-.3-6.52.85-5.56-2.53-9.62-4.37-14.49a29.76,29.76,0,0,0,3.64-4c.61-.95.45-2.42.57-3.66a20.05,20.05,0,0,1,.45-4.37c.17-.47,2.23-.89,2.79-.48,1.33,1,3.47,3,3.17,3.64-3.11,6.63,3,12,2.06,18.52-.93,6.19-.57,12.69-.09,18.95.42,5.4,1.79,10.74,2.76,16.09.61,3.45.79,7.1,2.1,10.27.68,1.67,3.25,2.86,5.23,3.61,2.27.88,4.84,1,7.27,1.52a24.27,24.27,0,0,1,4.26,1.27c1.5.63,2.83,1.67,4.33,2.3,1.34.55,3.18,1.45,4.12.94a5,5,0,0,0,2.11-4c-.43-5.55.7-10.55,4.12-14.93,2.38,5,1.59,9.83.13,14.69a18.35,18.35,0,0,0-.3,3.47,29.37,29.37,0,0,0,3.22-.72,100.12,100.12,0,0,0,9.94-3.5c1.15-.52,1.81-2.17,2.7-3.3a37.23,37.23,0,0,0,6-.91c3-.93,4.28,0,3.85,3-.65,4.45.8,7.66,5,9.48-.13,3.3-2.09,6.8,2.67,9.11,3.27,1.59,5.45,0,8.05-.85h.86c-.23,2.57.39,5.73-.88,7.6-3.07,4.53-7.3,8.29-10.51,12.74-1.14,1.58-.84,4.29-1,6.49-.29,4.42.34,9.06-.84,13.2-1.93,6.74-2.11,8,3,13,3.66,3.59,6,3.91,9.67,1.31,4.06-2.88,5.4-7.06,3.61-11-1.4-3.07-2.56-6.27-4.14-9.24-.42-.79-2-1.22-3.08-1.32-.79-.07-1.58.68-2.42,1.07l-1.11-.6c1-5.15,2.57-10.38,6-14.43a67.28,67.28,0,0,0,7.69-11.91c2.29-4.21,6.35-7.44,9.66-11.1-1.26,2.24-2.42,4.55-3.84,6.69s-2.11,3.91.92,5.34l-3,4a8.56,8.56,0,0,0,2.6.37c8.33-2.11,11.17-.57,13.19,7.93.48,2-.41,4.34-.59,6.53-.1,1.36-.54,3,0,4.06,2.28,4.35,10.32,4.42,13.22.48a41.55,41.55,0,0,1,6-6.26c3.74-3.3,7.73-6.31,11.42-9.66.67-.61.32-2.3.5-3.48.22-1.42.5-2.82.8-4.24,1.35.26,2.73.44,4.06.79.47.13.79,1.05,1.21,1,5.61-.16,6,4.87,6.92,8.11.79,2.8-.6,6.43-1.76,9.39-.6,1.51-2.7,2.7-4.38,3.44-4,1.75-8.54,2.48-12,4.87s-5.62,6.13-8.27,9.36c-1.73,2.11-3.25,4.39-4.92,6.55-3,3.85-6,7.67-8.58,11a12.92,12.92,0,0,0,.35,1.36c1.05,1.93,4.76,3.67,1.65,6-1.35,1-4.48-.43-6.81-.53-.6,0-1.79.88-1.74,1.22.15,1.09.46,2.61,1.24,3.06a93.56,93.56,0,0,0,13,6.75,19.12,19.12,0,0,0,8.79.69c5.22-.64,10.37-1.84,15.53-2.92A5.43,5.43,0,0,0,920.5,491c2.73-3.17,5.86-4.28,9.89-2.76s6.86,3.55,6.35,8.31c-2.67,7.89-10.12,10.75-17.09,6.57-2.12-1.28-3.55-1-5.16,1.19-1.17,1.58-3.32,2.59-5.19,3.53s-4.27.88-5.56,2.15c-2.27,2.24-3.89,3-6.54.62-.8-.74-3-.73-4.09-.14-.73.4-.89,2.43-.79,3.67.26,2.43.91,4.82,1.4,7.22.47,3.78,2.72,4.49,6.15,4a40.32,40.32,0,0,1,9.75-.52c1.59.15,3.11,1.77,4.54,2.88a28.24,28.24,0,0,1,2.7,2.77c-.56,4.07-1.11,8.13-1.47,10.77l-6.79.79c-1.08-.08-2.28-.51-3.18-.19-4.12,1.45-5,.91-4.41-3.55.34-2.45-.79-3.72-2.75-3.49-4,.46-8,1.48-12,2.27l-4.46-.59c0,2.7-1.06,6.48.21,7.59,2.93,2.56,3.6,5.28,3.44,8.73,0,1-.38,2.78,0,3,3.88,2,4.52,5.82,4.76,9.4.33,4.4-.66,8.91-.2,13.29.52,5.07-2.38,5.91-6.15,6.58-2.49.44-4.91,1.26-7.22,1.88.79,2.93,2,5.39,2,7.87,0,4.09,1.15,6.35,5.64,5.91,1.82-.18,3.17.17,1.92,2.46-3.09,1.65-6,4-9.31,4.76-5.46,1.33-5.56.91-5.56,6.77h-49.6l2.3-1.14h12.82c-1.5-7.05-2.9-13.7-4.31-20.35-.65-3.09-1.29-6.19-2-9.28l-4-15.48c6.44-1,8.35-3.54,6.29-8.91-1.83-4.76-4.85-8.72-12.84-8.45q-1.74-3.69-3.51-7.38c1.89-1.48,3.74-3,5.67-4.41,3-2.25,6.08-4.56,9.28-6.58a45.36,45.36,0,0,1,6.59-3.07c.85-.36,2-.18,2.7-.7,7.22-5.51,11.9-13.11,12-21.88,0-5.45,1.37-12.07-3.44-17-.48-.5.34-2.26.54-3.43.8.9,1.59,1.82,2.38,2.72,2,2.24,4.34,1.5,4.59-.79a12.91,12.91,0,0,0-2.08-7.81c-.67-1-3.71-.55-5.68-.79-1.54.79-3,1.7-4.62,2.46-5.82,2.86-9.95,1.87-11.1-4.95-.27-1.59-.54-3.23-.94-4.81-.67-2.63-2.23-3.18-4.64-1.93a44.22,44.22,0,0,1-6,2.56c-4.49,1.48-9.65,1.9-13.4,4.44s-6.24,6.92-8.82,10.81c-1.44,2.19-1.64,5.17-2.89,7.53-2.8,5.26-5.9,10.35-8.86,15.52l-2.39-.27.06,0-.91-.87Zm134.77-73.46c-.57-3.79-2.78-5.38-5.73-3.73a28.59,28.59,0,0,0-7.21,5.93c-.8.94-.8,3.86,0,4.63,1.21,1.16,4.3,2.24,5.14,1.59C914.42,443.26,916.74,440.11,919.29,437.26ZM861.5,590.82c3.57.07,8.61-3.49,8-5.84a5.19,5.19,0,0,0-3.49-3.09c-3.52-.51-7.8,2.73-7.94,5.28S859,591.1,861.5,590.82Zm-22.16-40.11,3.62-3a45.09,45.09,0,0,0-4.08-3.86c-.16-.13-2.24,1.44-2.12,1.86C837.19,547.23,838.17,548.59,839.34,550.71Zm29.76,11.11,1.15-.79c.13-4.8-1.78-7.2-7-7.64,2.19,3.21,4,5.84,5.87,8.47Z"/><path class="cls-8" d="M730.8,412.34c-3,2.84-2.78,5.76-.59,9.08,2.38,3.66,1.59,5.44-2.08,8.11-1.5,1.09-2.45,3.27-3.06,5.13-1.28,4-1.83,8.23-3.46,12-.55,1.28-3.66,2.46-5.23,2.1-4.42-1-8.6-3-13-4.28a6.62,6.62,0,0,0-4.15.65c-.94.43-1.49,1.67-2.22,2.55a15,15,0,0,0,2.42,1.79c4,1.85,8.29,2.6,8.73,8.73.3,3.74,3.45,7.18,4.89,10.93.47,1.23-.45,3-.72,4.5-17.59-8.92-35.3-17.59-52.66-27-3.9-2.1-6.56-6.49-9.85-9.78-1.05-1.05-2.27-1.94-3.41-2.9-1-1.13-2.32-2.1-2.87-3.4-3.55-8.37-9.15-15.21-15.6-21.42,3-1.07,6.08-1.83,8.83-3.29,3-1.59,5.56-3.68,5.74-7.83.06-1.44,2.24-3.82,3.69-4,5.08-.67,7.36-4.11,9.68-7.94a6.68,6.68,0,0,1,3.17-2.65c5.09-1.78,6.5-5.74,3.92-10.52-.65-1.22,0-3.18.12-4.76,1.27.49,2.9.65,3.74,1.54,2.83,3.06,4.3,7.6,10.26,5.95,4.35-1.2,7.88-2.9,10.17-7.41a77.35,77.35,0,0,0,5.49,6.48c3.57,3.42,5.43,3.65,9.18.47,3.13-2.64,5.25-1.85,7.7.74s5.22,5,7.84,7.49c.34,5,3,8.12,8.25,9.9l3.57,1.25c.28-.39.41-.5.43-.62,1.09-6.59,3-8.88,7.56-8.9a9.88,9.88,0,0,1,9.76,9.68,27.46,27.46,0,0,0,3,12.07c.75,1.38-.16,3.65-.31,5.55l-5-.5-.29-1.11c-1.16,1.41-2.24,2.9-3.51,4.21-.79.83-2,2.61-2.69-.15l-8.94-13.74-1.69.79Zm-51.26,28.49c0,4.5,3.78,8.8,7.6,8.65,3-.11,7.09-4.63,7-7.72-.12-4.35-4.16-8.67-8.21-8.73S679.55,435.88,679.54,440.83Z"/><path class="cls-9" d="M646.46,434c-2.07,3.52-4.19,7-6.19,10.57-4.23,7.54-7.94,15.38-12.7,22.59-4,6-9.22,11.18-13.59,17-9.11,12-22.69,17.87-35,25.52-5,3.11-10.25,5.84-15.28,8.93-8,4.93-17.1,6.35-26.18,7.79-13.07,2.12-25.93.41-38.77-2-10.08-1.86-20.2-3.44-30.22-5.55s-13-5.64-14.85-16c-.63-3.48-2.22-6.82-2.67-10.32a84.49,84.49,0,0,1-.79-15c.73-14.28,6-27.46,10-41a10.74,10.74,0,0,0,.17-2c.4-.47.81-.94,1.21-1.42q7.08-8.31,14.17-16.63l4.39,5.75c-4.76,4.69-9,9.68-9.77,16.67-1.68,14.42-3.38,28.84-5,43.27-.68,6.22-.15,6.93,5.63,10,9.12,4.76,18.11,9.81,27.37,14.28s18.76,8.33,28.16,12.46c6.47,2.9,12.84,2,19.23-.37,17.84-6.51,33.78-16.44,49.33-27.14,11.44-7.86,20.68-17.35,26.24-30.39,2.7-6.35,5.64-12.47,6-19.51.13-2.83-.6-4.48-3.45-5.56-5.37-2.05-8.33-6-8-12.05.34-6.3.49-12.6.72-18.91a.79.79,0,0,0,.09-.7l.27-.85.54-1.26L628,409.16a71,71,0,0,1,13.63,17.34,45.09,45.09,0,0,1,2,4.08C644.15,431.88,645.49,432.86,646.46,434Z"/><path class="cls-10" d="M860.61,347.89V341c-1.09-.21-1.86-.43-2.64-.5-3.42-.32-4.76-2-3.43-5.3s1.43-5.72-1.27-8.6c-1.48-1.59-1.28-4.76-1.89-7.45a8.9,8.9,0,0,0,1.93,0c1-.23,2-.61,3-.92-.43-1.05-.56-2.49-1.34-3.08-3.4-2.6-3.48-3.54.62-5.11,3.17-1.2,6.54-1.68,10-2.54.39-2.38,1-5,1.2-7.7a7.68,7.68,0,0,0-1-3.25c-.79-1.83-2-3.57-2.38-5.47-.18-1,.85-2.6,1.8-3.29a3.33,3.33,0,0,1,3.18.13c2.76,2.5,5.07,3.31,7.14-.67.26-.5,1.24-1.11,1.65-1,3.17,1,3.43-1.73,4.84-3.22,1.1-1.15,2.92-1.59,4.4-2.38,1.69-.92,3.35-1.87,6.08-3.4l7.14,11,5.74-2.29c1.41,2.61,2,5.18,3.67,6.41s4.47,1.12,6.61,2c.8.33,1.9,2.31,1.66,2.62-3.17,4.15-2.53,7.68,1,11.31.89.93.63,2.9,1.1,4.32,1,3,2.12,6,2.95,8.23-1.8,4.62-3.6,9-5.2,13.48-.65,1.81-.51,3.11,2,3.92,3.81,1.21,3.84,3.13,1.21,6-2.12,2.33-3.64,5.19-5.68,7.6a7.21,7.21,0,0,1-3.43,1.88c-2.91.86-4.17,2.49-3.17,5.51,0,.13.1.25.13.39.8,2.77.6,5.11-2.38,6.62-3.34,1.68-4.52-1.16-5.91-2.88-3.83-4.73-6.06-5.25-11-2l-3.46,2.23c-2.93-.43-2.69-2.12-1.59-4.12-.55-4.61-1-9.23-1.74-13.8a5.55,5.55,0,0,0-2.1-3.65q-4.59-2.3-9.38-4.13c-2.61-1.12-4.25.13-5.22,2.38-.65,1.49-.72,3.28-1.52,4.65A18.7,18.7,0,0,1,860.61,347.89Z"/><g class="cls-11"><path d="M386.68,469.12c-2.8,1.82-5.65,3.54-8.36,5.48-12.9,9.23-25.62,18.75-38.71,27.72a152.83,152.83,0,0,1-23,13.49c-8.19,3.72-13.21,9.58-16.22,17.59-6.53,17.32-12.94,34.69-19.39,52-3.76,10.15-4.22,20.57-2.61,31.17H247.22c1.31-7.27,2.42-14.28,3.86-21.21,3.85-18.6,9-36.78,18.65-53.35,4.54-7.78,9.88-14.91,17.82-19.63,10.14-6,20.58-11.58,30.48-18,20.82-13.49,42.84-24.55,65.58-34.28C384.6,469.78,385.67,469.47,386.68,469.12Z"/></g><path class="cls-12" d="M392.68,466.12c-2.8,1.82-5.65,3.54-8.36,5.48-12.9,9.23-25.62,18.75-38.71,27.72a152.83,152.83,0,0,1-23,13.49c-8.19,3.72-13.21,9.58-16.22,17.59-6.53,17.32-12.94,34.69-19.39,52-3.76,10.15-4.22,20.57-2.61,31.17H253.22c1.31-7.27,2.42-14.28,3.86-21.21,3.85-18.6,9-36.78,18.65-53.35,4.54-7.78,9.88-14.91,17.82-19.63,10.14-6,20.58-11.58,30.48-18,20.82-13.49,42.84-24.55,65.58-34.28C390.6,466.78,391.67,466.47,392.68,466.12Z"/><path class="cls-13" d="M883.73,359.46c-1.06,2-1.3,3.7,1.59,4.12q2.08,11.6,4.16,23.15l2.5,16.55c.45,2.23.91,4.48,1.32,6.52l-12.59,3.38c.62-4.34-1.82-5.78-6.12-5a25.14,25.14,0,0,0,5.73-14.81c.15-2,1.35-3.82,1.93-5.77a9,9,0,0,0,.49-3.57,3.08,3.08,0,0,0-1.58-2c-.46-.21-1.59.36-2,.89-5.39,5.85-10.62,11.78-14.28,19-2.31,4.54-5.55,8.61-8.38,12.89h-.86c-.91-6.2-6.67-6.12-10.72-8.27-4.22-1.81-5.65-5-5-9.48.42-3-.89-3.91-3.86-3a35.68,35.68,0,0,1-6,.9c0-.69-.43-1.66-.11-2.07,2.21-2.77,4.76-5.29,6.75-8.18.56-.8.1-2.78-.52-3.86-1.59-2.72-1.33-4.39,1.72-5.85,1.29-.62,2.33-2.42,2.82-3.89,1.59-4.76,2.87-9.48,6.75-13.22,3.13-3,5.55-4.89,8.52.17,2.8-2.83,0-8,4.63-9.37a13.76,13.76,0,0,1,0,3.27c-.72,3.18-1.87,6.3-2.38,9.52s.8,4.07,3.68,2.69c3.7-1.76,7.24-3.88,11-5.41C876.48,357.32,880.28,356.71,883.73,359.46Z"/><path class="cls-14" d="M816.54,543.8l3.51,7.37,5.48,15.39c-.45,1.59-.61,4.34-1.41,4.54-4.55,1.15-1.91,8.13-7.23,8.6-.48,0-.36,3.18-1.12,4.56a32.74,32.74,0,0,0-3.91,17.51c.14,4,0,7.94,0,11.9l-1.79.23c-2.18.27-3.24-.38-3.28-2.88-.07-5.06-.5-10.11-.79-15.16-.23-4.14-5.7-12.32-8.61-12.41a4.68,4.68,0,0,1-4.5-2.53c-1.95-3.11-4.56-5.8-6.85-8.73-.33-.41-.7-1.16-.53-1.49,2-4.13-.53-6.18-3.52-8.09,1.81-2.76,1.25-4.38-3-4.34l6.3-9-3.42-.79c2.13-4.3,4.34-8.8,6.56-13.31l-.48-.13c1.11-1.52,1.93-3.44,3.38-4.49,3.54-2.6,6.64-6.23,11.64-6.11Zm-14.82,7.46c-2.14-1.63-3.68-3.46-4.36-3.17-1.46.58-2.47,2.27-3.67,3.5,1,1,2.14,2.77,3.17,2.75C798.18,554.28,799.46,552.78,801.72,551.26Z"/><path class="cls-13" d="M886.21,603.22c1.25-2.29-.1-2.64-1.92-2.46-4.49.46-5.63-1.82-5.64-5.91,0-2.48-1.21-4.94-2-7.87,2.31-.62,4.76-1.44,7.22-1.88,3.77-.68,6.67-1.51,6.15-6.58-.46-4.38.53-8.89.2-13.3-.27-3.57-.9-7.35-4.76-9.39-.43-.23-.05-2-.05-3l5,1.66c.27,1.75.22,3.63.89,5.19,1.43,3.32,3.23,6.46,4.88,9.68,1.16.39,2.38,1.24,3.46,1.09,4.63-.63,9.37-2.38,13.08,2.22l1.66.79h0l4.13,5,5,5c2.72,4.28,6.61,7.89,5.41,14-.55,2.84.7,6.07,1.27,9.1a5.37,5.37,0,0,0,1.27,1.92c.85,1.08,1.74,2.12,2.61,3.18-1.76,1.07-3.5,3-5.28,3.07-11.41.28-22.81.13-34.22.13Z"/><path class="cls-10" d="M893.66,521.42c-.49-2.38-1.14-4.76-1.41-7.22-.13-1.24,0-3.27.8-3.67,1.06-.59,3.27-.6,4.08.14,2.65,2.42,4.28,1.59,6.55-.62,1.29-1.27,3.78-1.26,5.55-2.15s4-1.93,5.2-3.53c1.59-2.18,3-2.47,5.16-1.19,7,4.18,14.42,1.32,17.09-6.57,2.78-.27,5.55-.61,8.36-.79,7.52-.51,14.86-1.78,21.68-5.17a84.71,84.71,0,0,1,24.59-8c4-.62,7.94-2,9.64-6.61.46-1.26,2-2.28,3.18-3.11,2.94-2,5.79-4.76,9.06-5.49,4-.89,8.83-1,12.65.34,3.59,1.28,8.63,2.81,8.85,8,.09,2.32-.62,5.86-2.22,6.86a124.15,124.15,0,0,1-18.13,9.24c-1.68.7-4.44-.42-6.42-1.34-2.38-1.09-4.34-.74-6.87-.48-6.18.65-10.21,5-15.38,7.14-2.2.94-4.92.58-7.31,1.17a89,89,0,0,0-12.83,3.7c-3.11,1.28-5.55,4.54-8.73,5.29-6.25,1.47-12.78,1.77-19.19,2.65-2.68.38-5.31,1.1-8,1.43a64.72,64.72,0,0,1-7.23.37c-9,.11-17.7,1-25,7.07A42.53,42.53,0,0,1,893.66,521.42Z"/><path class="cls-15" d="M429.13,274.34l10.67-7.14c1.31,3.7,3.68,2.48,6.87,1.93,4.46-.8,9.24.2,13.88.43-1.91,6.45-4.14,12.82-5.59,19.38-.8,3.63-.31,7.57-.44,11.36-.16,4.53-.48,9.05-.52,13.57-.08,9.89,0,19.76-.85,29.71-.79-6-1.58-11.91-2.22-17.88-.62-5.76-2.57-10.17-9.33-10.46-.52,0-1-.79-1.54-1.18C438.21,291.25,435.14,286.94,429.13,274.34Z"/><path class="cls-10" d="M856.45,414.82c2.83-4.29,6.07-8.35,8.39-12.89,3.66-7.23,8.89-13.16,14.28-19,.48-.53,1.58-1.1,2-.89a3.09,3.09,0,0,1,1.58,2,9,9,0,0,1-.49,3.57c-.58,2-1.78,3.82-1.93,5.78a25.19,25.19,0,0,1-5.72,14.81l-2.48,2.49c-3.29,3.67-7.38,6.91-9.66,11.11a67.76,67.76,0,0,1-7.69,11.9c-3.42,4.06-5,9.28-6,14.43l1.11.61c.8-.39,1.66-1.15,2.43-1.08,1.09.11,2.66.54,3.08,1.33,1.59,3,2.74,6.16,4.13,9.23,1.8,4,.46,8.12-3.61,11-3.66,2.59-6,2.28-9.67-1.31-5.15-5.05-5-6.28-3-13,1.18-4.14.54-8.78.84-13.19.15-2.21-.15-4.91,1-6.5,3.17-4.45,7.43-8.2,10.51-12.73C856.85,420.55,856.22,417.43,856.45,414.82Z"/><path class="cls-15" d="M622.05,268.06c.41-.66,1.29-1.46,1.15-2-1.31-4.53,1-4.28,4-3,3.7,1.59,7.22,3.72,11.06,4.76,2.25.6,5-.54,7.47-.89-.33,5.91-1.52,7.57-2.29,13.37-.57,4.39-1,13-2.09,17.3-5.79,8.14-5.44,17.91-7.2,27.11a40.6,40.6,0,0,1-2,8.3c-.47-3.67-1.09-7.34-1.39-11q-1.37-17.46-2.51-34.86A42.43,42.43,0,0,0,622.05,268.06Z"/><path class="cls-16" d="M811.86,613.7c0-4,.14-7.94,0-11.9a32.78,32.78,0,0,1,3.91-17.52c.79-1.37.64-4.51,1.12-4.55,5.32-.48,2.68-7.45,7.23-8.6.79-.2,1-3,1.41-4.55l1.07,2,4,15.48c-2.74,0-4.57,1.41-4.62,4a9.64,9.64,0,0,0,1.66,5.8c.54.68,3.18-.32,4.91-.56,1.41,6.65,2.81,13.3,4.31,20.35H824.05c.11-.25.32-.5.31-.74A21.75,21.75,0,0,0,824,608c-.11-.4-2.65-.73-2.81-.43a30.9,30.9,0,0,0-1.53,4.56,10.9,10.9,0,0,1-1.19,2Z"/><path class="cls-10" d="M912.67,572.66c-3.71-4.63-8.45-2.85-13.08-2.22-1.08.15-2.31-.7-3.46-1.09,5.21-2.73,7.76-6.9,7.57-12.92,0-1.37,1.43-2.79,2.78-5.21,1.09,4.71,3,5.91,6.18,4.07,2.67.79,5.32,2.23,8,2.38,4.48.21,9-.9,13.49-.5,2.38.21,4.63,2.28,6.68,3.83.42.33.11,2.76-.51,3.12a40.79,40.79,0,0,1-8.9,4.29c-1.92.58-3.66.42-4,3-.09.72-2.25,1.9-2.44,1.73-3.7-3.35-7.14-.36-10.6.32h0Z"/><path class="cls-17" d="M883.73,359.46c-3.45-2.75-7.25-2.14-10.83-.7-3.8,1.53-7.33,3.66-11,5.41-2.91,1.39-4.17.58-3.67-2.68s1.64-6.35,2.38-9.52a15,15,0,0,0,0-3.28v-.79c1.08-1,2.46-1.78,3.17-3,.79-1.37.87-3.17,1.52-4.65,1-2.26,2.61-3.5,5.22-2.38a100.21,100.21,0,0,1,9.37,4.14,5.49,5.49,0,0,1,2.11,3.65C882.76,350.23,883.18,354.85,883.73,359.46Z"/><path class="cls-17" d="M912.66,555.29c-3.17,1.84-5.09.64-6.18-4.07-1.35,2.42-2.82,3.84-2.78,5.21.19,6-2.38,10.19-7.57,12.92-1.65-3.22-3.45-6.35-4.88-9.68-.68-1.59-.62-3.44-.89-5.19l11.57-6.61,6.63-3.31,9.88,4.13C918.73,552.82,916.08,554.42,912.66,555.29Z"/><path class="cls-13" d="M957.33,247.41c.95,7.53-3.88,11.51-10,10.21-2.24-.47-4.39-2.86-5.94-4.87-3.64-4.69.32-14,6-14.76C955.75,236.93,957.33,238.42,957.33,247.41Z"/><path class="cls-13" d="M971.61,534.85c.75-.35,2.24-1,3.68-1.74,3.27-1.72,6.53-1.59,9,1.12,3.18,3.59,3.12,8.77.34,11.73-3.05,3.24-10.18,1.94-12-2.09-.45-1-1.89-2.52-2.27-2.38-3.7,1.51-5.68-1.66-8.15-3-1.3-.71-2.9-3.6-2.48-4.22,1-1.51,3.3-3.27,4.82-3.08C966.85,531.53,969,533.39,971.61,534.85Z"/><path class="cls-18" d="M782,562.68c3,1.9,5.56,4,3.52,8.08-.17.33.2,1.09.53,1.49,2.28,2.9,4.9,5.56,6.84,8.73a4.68,4.68,0,0,0,4.51,2.53c2.9.1,8.38,8.28,8.61,12.41.27,5.05.69,10.11.79,15.17,0,2.49,1.1,3.17,3.28,2.88l-5-.07c-.22-3.28-.38-6.56-.69-9.84a39.34,39.34,0,0,0-.84-4.3L800.35,591c-.45-4.62-2.38-6-8.39-6.29-2.44-6.35-9.9-10.31-7.84-19.72-2.49,1.3-4,1.81-5.07,2.7-2.17,1.7-5,2.8-6.54.47a12.81,12.81,0,0,1-2.19-8.51c.54-3.09,6.67-2.11,9.18,1.31A9.78,9.78,0,0,0,782,562.68Z"/><path class="cls-19" d="M926.73,536.29a40.55,40.55,0,0,0,6.14-.06c4.19-.65,6.54,2.48,7,6.72.35,3.17-4.33,6.11-8.55,5.73a14.3,14.3,0,0,0-4.87.52c-2.79.74-4.13-.45-4.72-3C920.84,541.6,924.53,539.32,926.73,536.29Z"/><path class="cls-20" d="M886.21,603.22l8.27,11.56H871.32c0-5.86.12-5.44,5.55-6.77C880.2,607.2,883.12,604.87,886.21,603.22Z"/><path class="cls-19" d="M926.73,536.29c-2.2,3-5.92,5.31-5,9.92l-3.3,2.48-9.88-4.13v-2.48l6.79-.79c.36-2.64.91-6.7,1.47-10.77a29.31,29.31,0,0,1,4.36-.79C925.2,529.56,926.62,531.29,926.73,536.29Z"/><path class="cls-19" d="M975.49,393.31c-2,2.32-3.5,5.23-5.93,6.82a87.45,87.45,0,0,1-13,6.53c-.89.39-3-.12-3.34-.8-.44-1-.21-3.06.55-3.64,2.83-2.2,6-4,9-5.93a28.28,28.28,0,0,0,2.58-1.92c1.73-1.44,3.27-3.18,5.19-4.3C973.42,388.51,974.68,389.43,975.49,393.31Z"/><path class="cls-17" d="M892,403.28l-2.5-16.55c7.38,0,9.47,1.5,11.45,8.29C902.41,400,899,403.06,892,403.28Z"/><path class="cls-21" d="M752.65,311.66c2.5,4.93-4.18,17.12-10.89,20.38C740.09,328.74,747.28,315,752.65,311.66Z"/><path class="cls-19" d="M1005.77,372.49c2.51-1.89,4.16-3.17,5.87-4.42,3.54-2.5,7.68-4.29,9-9.1.37-1.32,1.84-2.53,3.1-3.33a3,3,0,0,1,2.89.31c.56.56.79,2.38.33,2.87-2,2.17-4.3,4-6.46,6.05a32.56,32.56,0,0,0-3.64,3.6c-1.38,1.77-2.12,4.55-3.86,5.38C1011.53,374.59,1009,373.19,1005.77,372.49Z"/><path class="cls-13" d="M725.82,393.33c-5.3-1.78-7.94-4.92-8.25-9.9-.16-3.17,2.09-4.34,4.45-4,1.65.26,4.17,2,4.34,3.38C726.76,386.28,726.07,389.84,725.82,393.33Z"/><path class="cls-13" d="M687.65,351.41c-2.43-4.2-5.19-8.49-7.35-13.06-.51-1.09.65-3.54,1.77-4.57.65-.6,3,0,4.15.74C689.1,336.55,689.73,347.42,687.65,351.41Z"/><path class="cls-17" d="M917.36,382.31c-3.87,1.73-6.35.76-8.67-3.17a39.94,39.94,0,0,1-2.61-4.48c-.43-1-.73-2.52-.28-3.33.31-.57,2.09-.64,3.12-.44C915.06,372.05,916.27,377,917.36,382.31Z"/><path class="cls-22" d="M1025.84,541.82c1.52,1.59,3.68,2.93,4.42,4.83,1,2.6-.79,3.71-3.52,3.92-1.9.16-3.06,4.18-5.67,1.31-1.34-1.47-3.45-3.34-3.27-4.8s2.61-2.86,4.25-4c.74-.52,1.93-.39,2.91-.55Z"/><path class="cls-19" d="M1019.51,590.6c1.17,2.62.83,4.6-2.13,5.81-1.17.49-2.14,1.76-3.3,1.93a26,26,0,0,1-6.82,0c-.4-.05-1.14-2.53-.79-2.89,1.69-1.59,3.57-3.36,5.71-4.14S1017,590.79,1019.51,590.6Z"/><path class="cls-22" d="M952.13,593.6c-3.1,1.68-5,3.18-7,3.58-.94.17-3-1.81-3.29-3.07-.55-2.72,2.82-7.25,4.39-6.42C948.16,588.74,949.53,590.9,952.13,593.6Z"/><path class="cls-13" d="M730.73,352.8c.16,3.83-3,7.63-5.37,7.22-1.07-.18-2.84-2.29-2.62-2.85a23.54,23.54,0,0,1,4.09-6.59C727.05,350.33,729.74,352.23,730.73,352.8Z"/><path class="cls-23" d="M923.42,583.39l-5-5c1.14-2.13,2-5,5.21-3.8a5.85,5.85,0,0,1,2.94,3.67C927.19,580.7,926.46,582.93,923.42,583.39Z"/><path class="cls-21" d="M818.5,370.35c1.3,3.92,1.17,6.57-1.59,8.2-.9.54-3.06.48-3.56-.16-.86-1.1-1.64-3.65-1.09-4.19C813.83,372.6,816.12,371.69,818.5,370.35Z"/><path class="cls-24" d="M712,613.74c-1.94-2.7-.55-4.41,1.72-5.87h0c3.35.52,5.89,1.69,4.64,5.85Z"/><path class="cls-25" d="M818.43,614.09a11.09,11.09,0,0,0,1.18-2,33.29,33.29,0,0,1,1.53-4.55c.16-.31,2.7,0,2.81.42a21.8,21.8,0,0,1,.37,4.9,2.26,2.26,0,0,1-.31.75l-2.29,1.13Z"/><path class="cls-26" d="M931.34,315.92c1.7,2.05,3.54,3.35,3.37,4.27a5.43,5.43,0,0,1-3.11,3.38c-.66.24-3-1.59-3-2.55C928.58,319.66,930,318.26,931.34,315.92Z"/><path class="cls-27" d="M889.9,441.8l-3.25,3.48c-.92-1.2-2.38-2.31-2.57-3.61-.13-.8,1.5-2.31,2.62-2.69C887.22,438.79,888.39,440.44,889.9,441.8Z"/><path class="cls-28" d="M721,328.37c1.37,4.39.56,6.25-4.47,8.14l3.27-8.6Z"/><path class="cls-12" d="M630,613.67l1.2-.9.42,1.05Z"/><path class="cls-12" d="M398.44,463.68l-1.29.64Z"/><path class="cls-8" d="M816.54,543.8,803,524.44l-15.22-12.7c3-5.16,6.07-10.25,8.87-15.51,1.25-2.38,1.45-5.34,2.89-7.53,2.58-3.9,5.13-8.31,8.82-10.82s8.91-3,13.4-4.43a45.51,45.51,0,0,0,6-2.56c2.38-1.23,4-.7,4.64,1.92.4,1.59.66,3.18.93,4.81,1.14,6.82,5.26,7.82,11.11,5,1.59-.79,3.08-1.64,4.62-2.47.27,2.2.54,4.39.79,6.59-.2,1.18-1,2.94-.54,3.44,4.81,4.95,3.46,11.58,3.44,17,0,8.77-4.76,16.36-12,21.88-.68.52-1.85.34-2.7.69a46.44,46.44,0,0,0-6.59,3.07c-3.17,2-6.23,4.34-9.28,6.58C820.28,540.8,818.43,542.32,816.54,543.8Zm7-33.17c-2.44-1.11-4.76-2.22-7.08-3.17-1.39-.58-4-1.48-4.13-1.29a72.87,72.87,0,0,0-4.43,11.11c-.2.7,1.9,2.17,3.08,3.1.45.35,1.32.19,2,.19,4.73.07,9.91-5,10.55-9.94Zm14.54-6.06c-.2-5.71-3.17-8.6-7.46-8.65-2.77,0-4.89,2.65-4.76,6,.21,4.42,3.79,7.8,8.3,6.8C836,508.34,837.28,505.49,838.06,504.57Zm-6.2-21.63c-3.26,2.32-7.34,2.86-6.41,7.22.21,1,3.54,2.46,4.66,2,3.86-1.75,2.32-5.14,1.75-9.18Z"/><path class="cls-29" d="M676.18,535.69c-1,2.38-1.58,5.4-3.3,7-1.55,1.4-4.5,1.35-6.87,1.68-1,.14-2.24-.8-3.17-.52a40.15,40.15,0,0,0-5.4,2.19c.8,1.51,1.19,3.33,2.31,4.48A12.44,12.44,0,0,1,662,565.32a15,15,0,0,1-1.52,2.36l-.18-.23a72.29,72.29,0,0,1-4.7-6.63c-1.18-2.14-1.58-4.76-2.79-6.84a4.84,4.84,0,0,0-2.76-2.56l-.31,0a3.29,3.29,0,0,0-2.58,1.35l-.2.21-.41.13-1.69.51-2.08.63c.65,1.26,1.32,2.47,2,3.71-.87,2.07-1.75,4.13-2.63,6.2H641c-.58-1.89-1.19-3.77-1.72-5.67-1.15-4.2-3.42-5-6.93-2.38-1.31,1-2.32,2.68-3.75,3.17-1.74.55-4.22.8-5.56-.09-1.06-.69-1.3-3.34-1.1-5,.18-1.5,1.37-3,2.3-4.29,3-4.29,2.2-7.88-2.73-9.69-2.93-1.08-6.15-1.37-9.22-2.08C594.71,534,597.1,532.51,597,517.38a6.93,6.93,0,0,1,1.25-4.16,6.05,6.05,0,0,1,3.51-2.3,37.09,37.09,0,0,1,9.31-1.37c3,0,5.85,1.67,6.23,5,.43,3.63,2.42,4.15,5.38,4,1.75-.11,3.5,0,5.81,0a26.27,26.27,0,0,1-1.11,4.18c-1.17,2.59-.93,4.65,2,5.6,2.69.88,4.68-.45,5.51-2.92.64-1.91.52-4.06.93-6.07.53-2.67.85-5.47,1.94-7.93a7.24,7.24,0,0,1,9.23-4.1,7.53,7.53,0,0,1,5,9.2c-.56,2.54-1.65,5-2.3,7.48a51.86,51.86,0,0,0-.79,5.39l19.78-3.17c.11,5-2.51,6.57-6.34,7.14.16.38.34.79.51,1.13,2.29,0,4.59-.17,6.86.05A60.46,60.46,0,0,1,676.18,535.69Z"/><path class="cls-30" d="M757.39,588.6c-6.79-1.18-10.09-1.54-11.88-.61a3.14,3.14,0,0,0-.76.53h0l-.36.45,0,0a8.69,8.69,0,0,0-1.11,3c-.92,4.06,2,7.68,8.07,9.73-.49,1-1.31,1.85-1.25,2.66.12,1.51.44,4,1.24,4.25l.62.1a6.11,6.11,0,0,0,4.21-1.11c.92-.69,1.2-2.67,1.2-4.09C757.48,598.58,757.39,593.55,757.39,588.6Zm-1.34,12.09c-.08-.09-.22-.2-.22-.27a1.73,1.73,0,0,1,.25-.51l.26.28Z"/><path class="cls-31" d="M680.4,560.24a.19.19,0,0,0,0,.08h-.11Z"/><path class="cls-31" d="M694.32,586.83a8.66,8.66,0,0,1-.66,1c-1.64,2.14-3.75,2.43-5.52.06a26.77,26.77,0,0,1-4.12-9.52c-.65-2.73.21-5.79-.24-8.6-.32-2.08-1.74-4-2.53-6a28.91,28.91,0,0,1-.84-3.45,13.68,13.68,0,0,1,1.44,0c4.58.13,5.87,1.62,7.18,6.34a55.41,55.41,0,0,0,4,9.72C694.64,579.77,696.49,583,694.32,586.83Z"/><path class="cls-32" d="M701.24,545.29a10.1,10.1,0,0,1-4,6.47,2.73,2.73,0,0,1-1.59.54c-4.75-.29-7.29-2.86-7-7.07s3.4-7.85,6.54-7.88h.42C698.54,537.65,701.51,541.79,701.24,545.29Z"/><path class="cls-30" d="M774.81,580.7a6.88,6.88,0,0,1-1.4,4.44c-1.38,1.76-3.71,2.78-6.67,2.86-3.66.3-4.65-2.38-4.88-5.19a6.54,6.54,0,0,1,2.22-5,8.29,8.29,0,0,1,5.89-2.58C773.43,575.41,774.73,577.64,774.81,580.7Z"/><path class="cls-25" d="M800.3,591l3.18,8.73c-1.59,3.79-5.19,5.77-8.09,4.45-3.35-1.52-4.61-6-2.88-10.18C794.12,590.21,796.28,589.37,800.3,591Z"/><path class="cls-25" d="M780.3,603.88c-.54,2.3-2.34,4.34-4,7.22l-.18-.12c-2.58-1.71-5.41-2.8-6.78-4.87-1-1.52-.4-4.56.3-6.65a5.11,5.11,0,0,1,1.78-2.57,4.77,4.77,0,0,1,5.14-.15C779.42,598.22,781,600.86,780.3,603.88Z"/><path class="cls-32" d="M677.48,512.54a5.2,5.2,0,0,1-.39.9,5.88,5.88,0,0,1-4.94,3.07c-3.38.26-5-1.73-5-5.06a6.26,6.26,0,0,1,2.77-5,4.92,4.92,0,0,1,2.53-.86C675.16,505.58,677.36,508,677.48,512.54Z"/><path class="cls-30" d="M781.68,542.13c-.47,2.71-1.94,5.12-5.67,5.06a3.26,3.26,0,0,1-.7,0c-2.51-.19-3.61-2.37-3.57-4.62a5.4,5.4,0,0,1,5-5.63,4,4,0,0,1,.77,0,4.59,4.59,0,0,1,4.21,4.18A4.27,4.27,0,0,1,781.68,542.13Z"/><path class="cls-25" d="M756.54,569.12c0,3.66-1.7,5.09-4.56,5.11a5.56,5.56,0,0,1-2.16-.39c-1.69-.69-2.46-2.33-2.52-4.59-.08-3.08,1.48-4.92,4.34-4.76a6.54,6.54,0,0,1,.89.09C755,565,756.88,566.38,756.54,569.12Z"/><path class="cls-32" d="M707.12,571.82c-2.86,2.2-4.46,4.23-6.35,4.57-.92.16-3.52-2.95-3.36-4.36.19-1.79,2.38-3.36,3.76-5Z"/><path class="cls-32" d="M650.7,488c2.46-1.79,4-3.48,5.71-3.86.74-.15,3.24,3,2.91,3.69-.88,1.81-2.86,3.09-4.4,4.58Z"/><path class="cls-30" d="M785.34,511.47c-.34,1.53-.2,3.55-1.15,4.47s-3.05,1.25-4.67,1.34c-.5,0-1.72-1.82-1.5-2.33a10.08,10.08,0,0,1,2.91-4c.79-.6,2.38-.17,3.59-.2v-.09l.92.88Z"/><path class="cls-25" d="M754.1,540.71l4.56-4.26c1.16,1.45,3.27,2.95,3.17,4.34s-2.22,2.85-3.46,4.27C757.23,543.87,756.05,542.68,754.1,540.71Z"/><path class="cls-32" d="M691.77,507.68c-.79-1.35-2.44-3-2.12-4,.52-1.64,2.32-2.88,3.59-4.28,1.16,1.11,3.44,2.44,3.27,3.29-.36,1.82-2,3.39-3.09,5.06Z"/><path class="cls-32" d="M673.9,603.46c-3.59-1.88-4.5-4.38-2.79-6.66,1.19-1.59,2.48-2.38,4.38-.61C679.16,599.66,674.62,600.86,673.9,603.46Z"/><path class="cls-25" d="M735.73,541.93c1,1.4,2.91,2.86,2.84,4.2s-2,2.69-3.17,4c-1-1.25-2.67-2.38-2.86-3.76s1.09-2.88,1.73-4.34Z"/><path class="cls-30" d="M713.77,607.87h0c-.7-1.15-2.25-2.72-1.93-3.39.65-1.37,2.22-2.38,3.62-3.22.3-.18,1.92.91,2.13,1.64.56,2,.11,3.77-2.31,4.36A11.63,11.63,0,0,0,713.77,607.87Z"/><path class="cls-30" d="M676.71,485.66c-2,1.29-3.08,2.34-4.4,2.73-.41.13-2.1-2-1.93-2.26a8.49,8.49,0,0,1,3.11-3C673.86,482.94,675.06,484.31,676.71,485.66Z"/><path class="cls-32" d="M563.38,546c-1.92,1.26-3.07,2.47-4.38,2.68-.73.11-1.72-1.47-2.6-2.3a20,20,0,0,1,3.51-3.33C560.23,542.78,561.67,544.42,563.38,546Z"/><path class="cls-25" d="M665.78,599c-1.69,1.12-2.77,2.38-3.77,2.32-.79-.06-2.3-1.86-2.14-2.58.3-1.27,1.59-2.31,2.51-3.44Z"/><path class="cls-30" d="M644.75,557.92l-2-3.71,4.19-1.27C649,555.81,647.73,557.27,644.75,557.92Z"/><path class="cls-24" d="M661.14,512.69c-1.09-1.84-2.16-2.87-2.1-3.83.05-.8,1.59-2.27,2.17-2.14,1,.26,2.43,1.41,2.55,2.33S662.49,510.92,661.14,512.69Z"/><path class="cls-25" d="M642.61,604.09c-1.75,1.14-2.72,2.26-3.68,2.25-.8,0-2.29-1.48-2.18-2.08.18-1,1.29-2.45,2.16-2.57S640.83,602.86,642.61,604.09Z"/><path class="cls-31" d="M680.36,560.27a1.89,1.89,0,0,1-.27-.2v-.2l.24.45Z"/><polygon class="cls-30" points="754.44 585.33 754.53 585.61 754.27 585.57 754.44 585.33"/><path class="cls-33" d="M526.61,518.84c-9.4-4.14-18.91-8-28.15-12.47s-18.25-9.52-27.38-14.28c-5.78-3-6.34-3.74-5.63-9.95,1.59-14.44,3.29-28.86,5-43.28.79-7,5.05-12,9.77-16.66l.91.9a51.32,51.32,0,0,0-.73,6.77c.16,9.61.56,19.21.71,28.81a70.41,70.41,0,0,1-.74,7.93,94.1,94.1,0,0,0,2.38-16.19,42.49,42.49,0,0,0,0-6.18c-.46-6.82-1-13.63-1.51-20.45,10.31,9.2,20.48,18.46,32,26.38C529,461,545.34,462.36,562.91,457c5.35-1.65,10.53-3.91,15.79-5.87-2.19,2.73-4.49,5.38-6.56,8.22-10.36,14.28-20.14,28.95-32.65,41.61C534.38,506.15,530.85,512.84,526.61,518.84Z"/><path class="cls-34" d="M526.61,518.84c4.24-6,7.77-12.7,12.85-17.85,12.52-12.69,22.3-27.33,32.66-41.61,2.06-2.83,4.36-5.49,6.55-8.22h0l1.68-.86c2.28-2.14,4.65-4.18,6.83-6.42,10.55-10.77,20.85-21.73,27.13-35.75a18.38,18.38,0,0,1,2.38-3.24c-.23,6.3-.38,12.61-.71,18.91-.33,6.07,2.63,10,8,12.05,2.85,1.09,3.58,2.73,3.44,5.55-.35,7.05-3.28,13.15-6,19.51-5.55,13-14.79,22.53-26.23,30.4-15.55,10.7-31.49,20.62-49.34,27.14C539.46,520.8,533.08,521.73,526.61,518.84Z"/><path class="cls-35" d="M556.33,271.94c13.58.8,27.17,1.35,40.7,2.64,3.4.32,6.57,3.06,9.84,4.69h-.07l.87.89,0-.05V281c-6-1.48-11.85-3.22-17.87-4.36-3.6-.69-7.39-.24-11-.65-6.52-.7-13-1.62-19.49-2.57A11.85,11.85,0,0,1,556.33,271.94Z"/><path class="cls-35" d="M481.18,423.85c.51,6.81,1.05,13.63,1.51,20.44a40,40,0,0,1,0,6.19,92.08,92.08,0,0,1-2.38,16.18,70,70,0,0,0,.75-7.93c-.15-9.6-.55-19.2-.72-28.81a52.72,52.72,0,0,1,.73-6.76A3.69,3.69,0,0,1,481.18,423.85Z"/><path class="cls-35" d="M609.29,281l.36,1.25-1.3-1Z"/><path class="cls-33" d="M580.34,450.31l-1.68.86Z"/><path class="cls-36" d="M609.29,281l-.94.28a2.56,2.56,0,0,0-.71-.28v-.87Z"/><path class="cls-36" d="M607.67,280.13l-.87-.89Z"/><path class="cls-34" d="M617,403.35c-.08.27-.18.56-.27.85C616.84,403.94,616.94,403.63,617,403.35Z"/><path class="cls-37" d="M442.52,265.77l-.29.11a3.58,3.58,0,0,0-.08-.43,1,1,0,0,1,.3.07C442.51,265.56,442.49,265.68,442.52,265.77Z"/><path class="cls-19" d="M901.93,547.87l-11.57,6.61-5-1.66c.16-3.42-.51-6.14-3.43-8.73-1.27-1.11-.22-4.9-.22-7.59l4.46.59c3.67,2.57,11.4,1,8.93,9.27,1.8.55,3.06,1,4.36,1.31A13.39,13.39,0,0,0,901.93,547.87Z"/><path class="cls-17" d="M826.6,568.54l-1.07-2-5.45-15.39c8-.3,11,3.7,12.84,8.46C835,565,833,567.52,826.6,568.54Z"/><path class="cls-38" d="M901.93,547.87a14.29,14.29,0,0,1-2.44-.16c-1.3-.31-2.56-.8-4.36-1.32,2.47-8.26-5.26-6.7-8.93-9.27,4-.79,7.94-1.81,12-2.27,2-.23,3.09,1,2.75,3.49-.61,4.46.28,5,4.41,3.55.93-.32,2.13.11,3.17.19v2.48Z"/><path class="cls-39" d="M919.29,437.26c-2.55,2.86-4.87,6-7.81,8.4-.8.67-4-.41-5.14-1.59-.8-.79-.8-3.7,0-4.63a28,28,0,0,1,7.22-5.93C916.51,431.88,918.72,433.46,919.29,437.26Z"/><path class="cls-17" d="M861.5,590.82c-2.5.28-3.53-1-3.42-3.65s4.39-5.79,7.93-5.28A5.17,5.17,0,0,1,869.5,585C870.11,587.33,865.07,590.89,861.5,590.82Z"/><path class="cls-17" d="M844.88,406.54c4,2.15,9.8,2.07,10.71,8.27-2.6.84-4.76,2.44-8.05.85C842.78,413.34,844.74,409.85,844.88,406.54Z"/><path class="cls-17" d="M849.84,486.7q-.4-3.3-.79-6.6c2,.21,5-.28,5.68.8a12.9,12.9,0,0,1,2.08,7.8c-.25,2.26-2.61,3-4.59.8C851.4,488.51,850.63,487.6,849.84,486.7Z"/><path class="cls-25" d="M832.52,593.3c-1.69.24-4.36,1.24-4.9.56a9.67,9.67,0,0,1-1.67-5.8c0-2.63,1.88-4.07,4.63-4C831.23,587.11,831.88,590.21,832.52,593.3Z"/><path class="cls-38" d="M730.8,412.34l-3.21-10.5,1.69-.79,8.94,13.74Z"/><path class="cls-20" d="M839.34,550.71c-1.17-2.12-2.15-3.48-2.58-5-.12-.42,2-2,2.12-1.86a45.09,45.09,0,0,1,4.08,3.86Z"/><path class="cls-17" d="M869.1,561.86c-1.84-2.63-3.68-5.26-5.87-8.41,5.24.44,7.14,2.84,7,7.64Z"/><path class="cls-4" d="M785.4,511.51l-.91-.88Z"/><path class="cls-13" d="M679.54,440.83c0-4.95,2.43-7.93,6.4-7.83s8.09,4.41,8.21,8.73c.08,3.09-4,7.61-7,7.72C683.32,449.63,679.53,445.33,679.54,440.83Z"/><path class="cls-30" d="M801.72,551.26c-2.26,1.52-3.54,3-4.86,3.06-1,0-2.12-1.76-3.17-2.74,1.2-1.23,2.21-2.92,3.67-3.51C798,547.8,799.58,549.63,801.72,551.26Z"/><path class="cls-38" d="M912.67,572.66l1.66.79Z"/><path class="cls-13" d="M823.52,510.63c-.64,5-5.79,10-10.55,10-.69,0-1.59.16-2-.19-1.18-.93-3.29-2.38-3.08-3.1a72.46,72.46,0,0,1,4.43-11.11c.09-.19,2.74.71,4.13,1.29C818.79,508.41,821.08,509.52,823.52,510.63Z"/><path class="cls-17" d="M838.06,504.57c-.79.9-2.06,3.77-3.89,4.17-4.52,1-8.1-2.38-8.3-6.8-.16-3.37,2-6.06,4.76-6C834.86,496,837.86,498.86,838.06,504.57Z"/><path class="cls-17" d="M831.86,482.94c.57,4,2.11,7.43-1.75,9.18-1.12.5-4.45-1-4.66-2C824.52,485.8,828.6,485.26,831.86,482.94Z"/><path class="cls-4" d="M756.34,600.23l-.29.49c-.08-.09-.24-.2-.22-.26a1.92,1.92,0,0,1,.25-.52Z"/><path class="cls-40" d="M644.82,553.58l-2.08.63c.65,1.26,1.32,2.47,2,3.71-.87,2.07-1.75,4.13-2.63,6.2H641c-.58-1.89-1.19-3.77-1.72-5.67-1.15-4.2-3.42-5-6.93-2.38-1.31,1-2.32,2.68-3.75,3.17-1.74.55-4.22.8-5.56-.09-1.06-.69-1.3-3.34-1.1-5,.18-1.5,1.37-3,2.3-4.29,3-4.29,2.2-7.88-2.73-9.69-2.93-1.08-6.15-1.37-9.22-2.08C594.71,534,597.1,532.51,597,517.38a6.93,6.93,0,0,1,1.25-4.16,6.87,6.87,0,0,1-.2,2.68,33.35,33.35,0,0,0-.08,8.41c.53,3.76,2.22,7.51,5.32,9.72,2.55,1.82,5.76,2.4,8.84,2.94l6.88,1.21c3,.51,6.31,1.24,8,3.74,1.36,2,1.35,4.62.73,6.94s-1.78,4.45-2.57,6.71c-.37,1-.49,2.53.54,3a2.27,2.27,0,0,0,1.59-.16,25.2,25.2,0,0,0,4.28-2.07c1.86-1.13,4-2.56,6-1.7,2.65,1.14,2.38,5,4,7.39a2.88,2.88,0,0,0,1-3c-.19-1.12-.72-2.17-.92-3.3a2,2,0,0,1,.12-1.27C642.39,553.45,643.74,553.67,644.82,553.58Z"/><path class="cls-41" d="M646.51,553.07l.61-.34-.2.21Z"/><path class="cls-40" d="M660.28,567.32a.59.59,0,0,1,0,.13,72.29,72.29,0,0,1-4.7-6.63c-1.18-2.14-1.58-4.76-2.79-6.84-.81-1.39-1.84-2.53-3.07-2.6a3.33,3.33,0,0,1,1.13-.17,4.13,4.13,0,0,1,3.07,1.95,15,15,0,0,1,1.49,3.46,39.9,39.9,0,0,0,3.75,7.79A5.36,5.36,0,0,1,660.28,567.32Z"/><path class="cls-40" d="M649,533.51a5.88,5.88,0,0,1,.72,1.59l.61,1.8a4.46,4.46,0,0,0,.84,1.67,1.52,1.52,0,0,0,1.7.45,2.26,2.26,0,0,0,1-1.7l.39-1.74a1.09,1.09,0,0,1,.22-.54,1.79,1.79,0,0,1,.62-.34,2.19,2.19,0,0,0,1.15-1.63,6.47,6.47,0,0,0,0-2.06c0-.31-.12-.67-.41-.79a.64.64,0,0,0-.41,0,1.85,1.85,0,0,0-1.12,1.49,17.69,17.69,0,0,1-.34,1.93,1.55,1.55,0,0,1-1.41,1.16,4.4,4.4,0,0,0-.94-.16,3.37,3.37,0,0,1-.55.12c-.38,0-.63-.44-.67-.83a4.92,4.92,0,0,0-.09-1.15c-.23-.67-1-1-1.7-1.12-.51-.12-1.66,0-1.08.81C647.74,532.93,648.56,533,649,533.51Z"/><path class="cls-40" d="M608.35,524.12a8.36,8.36,0,0,1,1.07,3.2,8.49,8.49,0,0,0,1.05,2.41,3.52,3.52,0,0,0,1.1,1.17,4.47,4.47,0,0,0,2.69.31,1.58,1.58,0,0,0,.53-.12,1.08,1.08,0,0,0,.45-.45c.84-1.42-.4-3.24,0-4.85a4.63,4.63,0,0,1,2.42-2.68,7,7,0,0,0,2.81-2.38l-4.24,2.13a3.12,3.12,0,0,0-1.51,1.2,3.24,3.24,0,0,0-.28,1.31l-.12,1.92a.5.5,0,0,1-.19.44c-.13.07-.29,0-.43,0a1.25,1.25,0,0,0-1.12.2,1,1,0,0,0-.31,1.06c-1,.17-1.75-.84-2-1.8a11.47,11.47,0,0,0-.62-2.87,3.52,3.52,0,0,0-2.28-1.63,6.83,6.83,0,0,0-2.7-.16C606,522.93,607.4,522.89,608.35,524.12Z"/><path class="cls-18" d="M811.09,551.14l2,7.79c.41,1.61.92,3.35,2.3,4.29a2.15,2.15,0,0,0,1.63.42,2,2,0,0,0,1.43-1.55,4.17,4.17,0,0,0-.21-2.18c-.52-1.57-1.49-3.18-1-4.74.2-.58.59-1.07.82-1.63a6.48,6.48,0,0,0,.36-2.4,4.47,4.47,0,0,0-.28-2.09,1.53,1.53,0,0,0-1.73-.9l-.55,5.24a1,1,0,0,1-.18.59,1.12,1.12,0,0,1-.9.26c-.78,0-1.74-.15-2-.89a2.13,2.13,0,0,1-.08-.84c0-1.22-1.17-5.69-3-4.29A7.63,7.63,0,0,1,811.09,551.14Z"/><path class="cls-42" d="M751.12,604.77c-.19,1.32.51,2.57.78,3.87l0,.15-.62-.1c-.8-.24-1.12-2.74-1.24-4.25-.06-.81.76-1.69,1.25-2.66-6.1-2-9-5.67-8.07-9.73a8.69,8.69,0,0,1,1.11-3l0,0,.36-.45h0a1.58,1.58,0,0,1,.75-.58.07.07,0,0,1,0,0c.08.44-.65,1.06-.88,1.42a5.38,5.38,0,0,0-.79,1.84,7.88,7.88,0,0,0,.87,4.4,5.77,5.77,0,0,0,.77,1.45,6.12,6.12,0,0,0,2,1.48l3.81,2.17a1.47,1.47,0,0,1,.74.69,1.27,1.27,0,0,1,0,.55C751.86,603,751.25,603.8,751.12,604.77Z"/><path class="cls-42" d="M773.52,584.66c0,.16-.07.32-.11.48-1.38,1.76-3.71,2.78-6.67,2.86-3.66.3-4.65-2.38-4.88-5.19a6.54,6.54,0,0,1,2.22-5,10.58,10.58,0,0,1-.48,2.47,21.58,21.58,0,0,0-.24,2.78,6.61,6.61,0,0,0,.23,2.17,2.86,2.86,0,0,0,1.3,1.68,3.38,3.38,0,0,0,1.36.35A9.26,9.26,0,0,0,773.52,584.66Z"/><path class="cls-18" d="M776.15,611c-2.58-1.71-5.41-2.8-6.78-4.87-1-1.52-.4-4.56.3-6.65a5.11,5.11,0,0,1,1.78-2.57c.13.62-.71,2-.9,2.5a15.26,15.26,0,0,0-.93,2.87,5.19,5.19,0,0,0,.24,3,5.31,5.31,0,0,0,1.91,2.16c.8.56,1.67,1,2.52,1.47S776.06,610,776.15,611Z"/><path class="cls-42" d="M777.5,536.94a.19.19,0,0,1,0,.1c-.16.38-1.47.64-1.85.89a5,5,0,0,0-1.82,2.44,10,10,0,0,0-.54,3,3,3,0,0,0,.73,2.48,9,9,0,0,1,1,.71,1.17,1.17,0,0,1,.29.59c-2.51-.19-3.61-2.37-3.57-4.62a5.4,5.4,0,0,1,5-5.63A4,4,0,0,1,777.5,536.94Z"/><path class="cls-18" d="M752.53,564.58c-.33.54-1.58.74-2.08,1.06a4.85,4.85,0,0,0-2,4.31,8.35,8.35,0,0,0,1.34,3.89c-1.69-.69-2.46-2.33-2.52-4.59-.08-3.08,1.48-4.92,4.34-4.76A6.54,6.54,0,0,1,752.53,564.58Z"/><path class="cls-40" d="M697.19,551.76a2.73,2.73,0,0,1-1.59.54c-4.75-.29-7.29-2.86-7-7.07s3.4-7.85,6.54-7.88a.32.32,0,0,1-.08.09c-.24.23-1.13.25-1.46.37a4.48,4.48,0,0,0-1.35.76,5.5,5.5,0,0,0-1.59,3,12.45,12.45,0,0,0,1,8.32,1.11,1.11,0,0,1-.65.22c.67.33,1.35.64,2,1a6.46,6.46,0,0,0,2,.71,6.8,6.8,0,0,0,2.15-.23A1.62,1.62,0,0,1,697.19,551.76Z"/><path class="cls-43" d="M616.78,404.68a40.84,40.84,0,0,0-2.5,3.48c-6.28,14-16.58,25-27.13,35.75-2.19,2.24-4.55,4.29-6.84,6.42l-1.67.86c-5.26,2-10.43,4.22-15.79,5.88-17.56,5.38-33.9,4.05-49.7-6.81-11.51-7.94-21.68-17.18-32-26.38a5.87,5.87,0,0,0-.08-.72l-.85-.93c0-.18-.08-.37-.11-.56,3.57,2.64,11,7.86,15.65,12.62,3.91,4,8.79,6.48,12.94,10.23a59.82,59.82,0,0,0,7.79,6.15c3,1.89,6.72,3.19,9.9,4.65,2,.93,4.26,1.64,6.35,2.44,2.88,1.09,6.17,1,9.25,1,11-.09,21.12-2.75,31.3-6.94a33.59,33.59,0,0,0,9.34-5.22c4.12-3.42,7.65-8.21,11.41-12,2.45-2.47,5.27-5.37,7.5-8a48.45,48.45,0,0,0,5.3-8.41,86.45,86.45,0,0,1,4.85-7.92C612.43,409.16,615.19,404.24,616.78,404.68Z"/><path class="cls-44" d="M564.44,148.87c0,.2.09.4.13.6l-38,7c-22.38,4.14-46.07,8.9-62.77,24.37-5.83,5.38-10.52,11.85-15.18,18.27-3.51,4.83-7.05,9.72-9.21,15.28a63.08,63.08,0,0,0-3,11.8q-2.85,15.47-4.46,31.11c.46-.81.92-1.61,1.37-2.42,1.95,5.52,1.8,12-1.41,16.88a13.87,13.87,0,0,1-1.15,1.5l-1.6,1.06c-3.21-9.31-4.9-18.84-3.21-28.63,1.91-11.1,4.34-22.09,6.35-33.17a30.66,30.66,0,0,1,6.65-14.36c5.48-6.72,10.77-13.58,16.17-20.35,8.16-10.23,19.47-15.38,31.51-19.23,17.68-5.67,36-7.94,54.39-8.95C548.79,149.22,556.62,148.83,564.44,148.87Z"/><path d="M568.17,148.81l-.08.1-3.1,4a23.42,23.42,0,0,0-.42-3.44l3.07-.57Z"/><path class="cls-45" d="M654.6,303.05c-1.76,15.34,1.15,31.45-7.19,45.77-3.17,5.51-5.86,11.41-9.7,16.43-1.27,1.67-5.41,1.21-8.26,1.59a3,3,0,0,1-1.5-.31c-.07.23-.14.46-.2.69a3.66,3.66,0,0,1-.24-1c3.65-.82,7.48-1.72,10.26-4.23a20,20,0,0,0,3.43-4.42c3.29-5.26,6.4-10.87,7.13-17,1.77-2.15,1.28-5.33,2.15-8,.36-1.1.94-2.1,1.32-3.18a17.58,17.58,0,0,0,.69-5.42q.1-4.49.19-9c0-1.48.08-3,.23-4.45a39.4,39.4,0,0,0,.45-4.46,23.81,23.81,0,0,0-.38-3.37,6.72,6.72,0,0,0-.69-2.32,5.22,5.22,0,0,0-4.33-2.11,49,49,0,0,1-5,0,3,3,0,0,1-1.57-.62c1.62-.18,3.27-.3,4.88-.56C651,296.23,655.1,298.75,654.6,303.05Z"/><path class="cls-40" d="M680.4,560.24a.19.19,0,0,0,0,.08h-.11Z"/><path class="cls-40" d="M693.66,587.83c-1.64,2.14-3.75,2.43-5.52.06a26.77,26.77,0,0,1-4.12-9.52c-.65-2.73.21-5.79-.24-8.6-.32-2.08-1.74-4-2.53-6a28.91,28.91,0,0,1-.84-3.45,13.68,13.68,0,0,1,1.44,0,.47.47,0,0,1,.1.16c.15.31,0,1,0,1.33a12.55,12.55,0,0,0,.19,1.5,40.75,40.75,0,0,0,1.93,5.74,11.3,11.3,0,0,1,.65,2.34,28.69,28.69,0,0,1,0,3.71c0,4.21,1.75,8.22,3.68,12,.46.89,1.13,1.9,2.13,1.91a2.73,2.73,0,0,0,.93-.21A23,23,0,0,0,693.66,587.83Z"/><path class="cls-46" d="M646.46,434c-2.07,3.52-4.19,7-6.19,10.57-4.23,7.54-7.94,15.38-12.7,22.59-4,6-9.22,11.18-13.59,17-9.11,12-22.69,17.87-35,25.52-5,3.11-10.25,5.84-15.28,8.93-8,4.93-17.1,6.35-26.18,7.79-13.07,2.12-25.93.41-38.77-2-10.08-1.86-20.2-3.44-30.22-5.55s-13-5.64-14.85-16c-.63-3.48-2.22-6.82-2.67-10.32a84.49,84.49,0,0,1-.79-15c.73-14.28,6-27.46,10-41a10.74,10.74,0,0,0,.17-2c.4-.47.81-.94,1.21-1.42l.09,0c-1.05,7.38-3.68,14.43-5.47,21.65-.42,1.71-.8,3.43-1.18,5.15L454,465c-1,4.64-2,9.29-2.72,14-1.45,10,1.83,20.06,4.82,29.68a15.12,15.12,0,0,0,1.12,2.87c1.6,2.85,4.88,4.3,8,5.27a113.28,113.28,0,0,0,13.55,3c10.9,2,21.8,3.91,32.77,5.43,3.63.5,7.28.95,10.92,1.34s7.2-.08,10.77-.28a69.69,69.69,0,0,0,9.47-1,61.4,61.4,0,0,0,9.19-2.74,77.75,77.75,0,0,0,14.32-6.43c2.69-1.64,5.21-3.55,8-5,1.67-.89,3.42-1.62,5.1-2.51a58.75,58.75,0,0,0,8-5.49c1.58-1.23,3-2.53,4.65-3.72.95-.7,1.9-1.4,2.91-2s2.23-1.21,3.35-1.8a49.67,49.67,0,0,0,9.31-6.21c4.81-4.11,8.62-9.25,12.38-14.33l3.71-5a20.39,20.39,0,0,0,3-5,19,19,0,0,1,2.36-3.94c1.15-1.69,2.3-3.39,3.46-5.08.5-.74,1-1.49,1.47-2.25.79-1.26,1.48-2.58,2.17-3.89,1.47-2.83,3-5.65,4.43-8.48.66-1.24,1-2.57,1.66-3.8.87-1.55,2-3.22,1.62-4.95a8.54,8.54,0,0,0-1-2.23,10.57,10.57,0,0,1-1.16-3.88,45.09,45.09,0,0,1,2,4.08C644.15,431.88,645.49,432.86,646.46,434Z"/><path class="cls-41" d="M662,565.28v0a15,15,0,0,1-1.52,2.36l-.18-.23a72.29,72.29,0,0,1-4.7-6.63c-1.18-2.14-1.58-4.76-2.79-6.84a4.84,4.84,0,0,0-2.76-2.56,4.44,4.44,0,0,1,3.22.87,6.47,6.47,0,0,1,1.58,3.46c.58,2.21,1.56,4.46,3.46,5.71.71.46,1.52.77,2.2,1.28A3.66,3.66,0,0,1,662,565.28Z"/><path class="cls-40" d="M677.09,513.44a5.88,5.88,0,0,1-4.94,3.07c-3.38.26-5-1.73-5-5.06a6.26,6.26,0,0,1,2.77-5,2.46,2.46,0,0,1-.14.26c-1,1.55-2.1,3.31-1.78,5.14a3.81,3.81,0,0,0,2.85,3,6.7,6.7,0,0,0,3.42-.39C675.23,514.19,676.18,513.84,677.09,513.44Z"/></g></g></svg>