<svg xmlns="http://www.w3.org/2000/svg" viewBox="0 0 1920 1080"><defs><style>.cls-1{fill:#a97a52;}.cls-19,.cls-2,.cls-46{opacity:0.2;}.cls-3{fill:#b58b5a;}.cls-4{fill:#5d5d5d;}.cls-5{fill:#4c4c4c;}.cls-44,.cls-6{fill:#836347;}.cls-7{fill:#9b5c52;}.cls-8{fill:#8d4e48;}.cls-41,.cls-47,.cls-49,.cls-8{opacity:0.6;}.cls-9{opacity:0.1;}.cls-10{fill:#584e4b;}.cls-11{fill:#c7836c;}.cls-11,.cls-23,.cls-25,.cls-26,.cls-27,.cls-31,.cls-34{opacity:0.7;}.cls-12{fill:#ae7052;}.cls-13{fill:#835e48;}.cls-14{fill:#584b46;}.cls-15{fill:#635c4d;}.cls-16{fill:#544d45;}.cls-17,.cls-28{fill:none;}.cls-17{stroke:#231f20;stroke-miterlimit:10;stroke-width:0.25px;}.cls-18{fill:#af5852;}.cls-19{fill:#92644d;}.cls-20{fill:#936a41;}.cls-21,.cls-31{fill:#8f574b;}.cls-22{fill:#786148;}.cls-22,.cls-42,.cls-44,.cls-50{opacity:0.4;}.cls-23{fill:#6a4940;}.cls-24{fill:#7b5a3c;}.cls-25{fill:#bd735a;}.cls-26{fill:#975746;}.cls-27{fill:#a25e54;}.cls-29{fill:#b27d56;opacity:0.8;}.cls-30{fill:#f9fffd;}.cls-32{fill:#6b5040;}.cls-33{fill:#71674d;}.cls-35{fill:#231f20;}.cls-36{fill:#607f73;}.cls-37{fill:#595648;}.cls-38{fill:#454545;}.cls-39{fill:#688b7d;}.cls-40{fill:#59423b;}.cls-41{fill:#a07354;}.cls-42{fill:#a47950;}.cls-43{opacity:0.5;}.cls-45{fill:#bfa793;}.cls-46{fill:#cb9e7f;}.cls-47{fill:#816b4d;}.cls-48{fill:#b98a5d;}.cls-49,.cls-50{fill:#b69165;}</style></defs><g id="face_shape" data-name="face shape"><path class="cls-1" d="M1407.39,1084.4l-67.84-1.38-158.42-3.22-3.57-.07-5.2-77.1L1171,981.5l-4.71-69.86-1.6-23.71-2.77-41.11s2,.63,5.68,2l.58.21c23,8.46,104.76,42.55,171.31,120.08a381.82,381.82,0,0,1,26.54,34.69A372.76,372.76,0,0,1,1407.39,1084.4Z"/><path class="cls-2" d="M1182.07,954c1,4.69,1.94,9.38,2.51,14.12.64,5.32.78,10.68.92,16l.46,18a105.93,105.93,0,0,1-.34,15.22c-.32,2.73-.85,5.43-1.08,8.17a82.36,82.36,0,0,0,.44,13.5,427.63,427.63,0,0,1,1.34,43.84c-3.61-1.86-6-5.52-7.29-9.37s-1.55-8-1.9-12c-1.75-20.19-5.46-40.22-6.1-60.47-.3-9.63.1-19.29-.76-28.88-1.38-15.48-6-30.66-5.61-46.3.09-3.33.48-16.67,7.26-14.09,3.75,1.43,3.81,11.64,4.47,14.83Q1179.22,940.32,1182.07,954Z"/><path class="cls-1" d="M732.86,1084.4l-189.26-1.84c0-.25.09-.51.15-.76,6.42-32.36,66-83.61,115.7-121.55,37.2-28.37,68.94-49.28,68.94-49.28Z"/><path class="cls-1" d="M792.07,645.26s7.62,12.67,8.27,14.4,8.86,14.48,9.73,18.15,3,15.78,3.89,18.37,5.83,24.42,5.83,25.71,1.94,35.66,1.94,35.66.65,50.13,0,52.07.22,21.61-1.72,25.5-2.6,7.56-6.27,10.37-26.15,27-29.39,28.74-12.1,9.29-12.1,9.29l-2.81,3,4.76,41.92s6.69,43.86,7.13,45.16,11.67,34.14,12.53,37,14.91,41.71,17.5,44.95S822,1082.32,822,1082.32h249.29s5.83-6.91,8.21-29.6,6.48-44.3,6.48-44.3l3.24-45.59s.87-39.55,1.3-40.63,4.76-46.89,5.19-48.62,3.89-40.62,3.89-40.62,1.94-9.51-4.32-14.69-11.24-5-14-6.48-15.34-6.49-15.34-6.49-15.78-24.41-16-42.13c0,0-6.05-14.48.21-29.61,0,0-19.88-17.93-41.05-34.35s-32.85-22.48-45.38-29-6.05-9.07-33.71-18.58-30.25-9.94-43.21-16.42-32.42-13.83-33.71-13.83-41.92,1.29-43.65,0-8.35.43-11.52,5.61S792.07,645.26,792.07,645.26Z"/><path class="cls-3" d="M975.59,725.78c4.75,0,22.9,3,22.9,3s21,2.38,25.71,3.46,25.07,1.08,25.93,1.29,7.13-1.29,7.13-1.29,11.24-7.78,11.89-9.51,5.4-10.16,7.13-13.18,9.29-24.85,9.72-25.72,5.62-22.9,5.41-23.77-.42-14,0-15.12,4.53-22.47,4.53-22.47l2.11-17.21,1.7-15.31.81-12s.49-11.83-4-18.07a70.63,70.63,0,0,1-7.13-12.31l-5.92-11.19a36.7,36.7,0,0,1-2-3.24c0-.24-2.43-8.91-1.54-11.58s.65-8.67.65-9,.4-8.91.4-9.88.57-3.89,0-5.19-1.21-3.59-1.21-3.59l-.44-8,.12-2.31-3.9-6.22-3.53-6.18-3.22-8.41s-.56-3-.63-3.51a60,60,0,0,1,.39-6.56c.09-.76-3.19-2.31-3.19-2.31s-2.3-.29-2.93,5.26c-.09.86-2.54-3.47-2.54-3.47l-2.19-6.7L1055.1,444l-4-.45-3.29-1.12s-4.11-3.14-4.44-3.76-5.55-17.53-5.7-18L1034,409s-13-11.81-19-13-7.62-1.1-7.62-1.1-5.68-1.27-9.47,13.46S991.21,430,991.21,430l-10,23.47L983,441.85s4.63-14.85,4.7-16.42,1.18-11.25,1.28-12.1.62-7.72.62-7.72l-12.22,5.79-5.24,6.9-17.77,5.43-6.2,5.37-1.72,3.81s-6.18,15-6.29,16.5-3.52-16.25-3.92-17.31-4.94-4.73-4.94-4.73l-15.69-.08-2.72.64-6.94,4.1-8.58,4.42s-5.45,1.89-7.56.65-7-.17-7-.17l-6,.38-12.38,14.28-8,12.45s-4.3,2.7-6.9,20.65c0,0,7.73,11.17,7.35,13.56l-.39,2.39-1.25-.15s-2.8-8.08-5.23-9.37c0,0-1.56,12.84-.29,15.74s-2.75-1.3-2.75-1.3-9.16-11.76-8.73-18c.42-5.95,4.17-18,3.58-18.15l3.6-11.77-2.86.61L839.57,460s-9.41,5.77-12.51,34.78l-1.75,5.63-.37.78s3.17,14.21.47,23.72l2,8.42,2.92,14.36s2.28,23.05,2.11,23.85.8,7.84-7.63,6.92l-7-.92s-2.42-5.14-2.53-5.35l-.92-2s-3.76-16.82-3.07-18.42c0,0-1.42-5.28-2.55-6.92s-8-11.54-16.88.45-10,8.92-10,8.92l-10.82-4.74-2,1.34s-25.5-9.94-26.15,21.39v19.66l.15,9.08s1.15,4.32,1.58,6.26,5,23.34,26.59,33.5c0,0,12.74,2.81,13.39,2.81s4.32.43,5,0,3.46,3.24,5.83,4.1,17.07,1.08,25.93-9.29Z"/><path class="cls-4" d="M1094.08,817.32a7.36,7.36,0,0,1,1.4,1l-.19,0S1088.18,814.08,1094.08,817.32Z"/><path class="cls-4" d="M1182.81,976.65v105.68H1071.32a65.09,65.09,0,0,0,3.08-5.78c2.17-4.58,4.6-11.11,4.16-16.52-.77-9.48,13.2-93.75,11.39-124.85l6.26-65.67s3.53-37,3.6-38c0-.82.14-7.47-3-11.7a8.66,8.66,0,0,0-1.35-1.49c2.33.42,24.72,5.34,43.56,9.68,13.79,3.17,32.12,10.22,32.64,12.22,1.29,4.86,1.49,17.4,1.49,17.4s-1.07,43.84-.75,49,4.54,43.44,5.84,50.9S1182.81,976.65,1182.81,976.65Z"/><path class="cls-4" d="M822,1082.32H728.39V911c33.35-26.07,43.13-30.91,45.89-31.08,1.49-.1.93,1.17.93,1.17l-5.77,5.49,2.91,25.63,2.86,27.09,6.12,34.36,8.3,24.38,11.65,33.07,11.07,26.11,8.72,22.65Z"/><path class="cls-3" d="M821.4,639.35l6.31-2.59,10.23.7,11.95,16.3s8.12,11.35,8.51,11.87,19.3,23.85,22.52,24.82h0s22.53,17.53,35.31,19.62h0s17,5.46,22.45,5.32h0s16.38,2.83,17.6,3.74a38,38,0,0,0,4.67,2.44l8.63.3,11.57,1.4Z"/><path class="cls-4" d="M1182.8,976.66v105.66h-6.29a49.81,49.81,0,0,1-.91-7.57c-.45-6.11-1.86-12.13-2.16-18.26a88,88,0,0,1,1.48-18.66l.57-3.51q1-5.71,1.91-11.43c.56-3.31-.47-6.92-.3-10.26l.75-14.7a54.78,54.78,0,0,0,0-8,58.18,58.18,0,0,0-1.64-8.23c-2.91-12-5.16-24.07-7.42-36.17q-1.95-10.46-3.89-20.89l-2-10.41c-.6-3.24-1.2-6.48-1.57-9.75a143.89,143.89,0,0,1-.67-16.48q0-21.16-.06-42.34a33.31,33.31,0,0,0-.24-4.44,9.06,9.06,0,0,0-2.85-5.92,12.45,12.45,0,0,0-3.88-2c-4.74-1.75-9.75-2.57-14.47-4.33a.79.79,0,0,1-.46-1.09c.53.12,1.06.24,1.57.38a140.17,140.17,0,0,1,16.74,5.19c.3.11.58.22.87.35,2.45.95,4.42,1.82,5.78,2.49l.09,0a11.61,11.61,0,0,1,1.63.94l.16.12a3.17,3.17,0,0,1,.87,1.24c.82,1.86.88,5,.63,8.14a85.38,85.38,0,0,1-1.8,11.2s6.81,43.43,7.12,48.62,4.54,43.44,5.84,50.89S1182.8,976.66,1182.8,976.66Z"/><path class="cls-5" d="M821.07,1079.84c-.35.48-.54.72-.54.72H817.4s-16.36-39.85-18.14-44-13.09-33.77-16.51-47.6-8.83-43.12-8.83-43.12a39.54,39.54,0,0,0-.69-7.36c-.33-1.71-.77-3.4-1-5.12-.21-1.42-.31-2.84-.43-4.27-1-12-4.41-23.83-4.58-35.91a15.65,15.65,0,0,1,.24-3.49,13.18,13.18,0,0,1,2.06-4.55,24.05,24.05,0,0,1,4.79-5.23c1.49-.1.93,1.17.93,1.17l-5.77,5.49,2.91,25.63,2.86,27.09,6.12,34.36,8.3,24.38,11.65,33.07,11.07,26.11Z"/><path class="cls-5" d="M1104.46,831.73c-.59,11.3-9.22,100.25-9.22,104.12s-3.56,25.43-3.27,35.62-6.25,47.67-6.84,55.11-2.38,39.55-4.17,45.8-4.76,8.18-4.76,8.18-.65-1.43-1.8-4c2.17-4.58,4.6-11.11,4.16-16.52-.77-9.48,13.2-93.75,11.39-124.85l6.26-65.67s3.53-37,3.6-38c0-.82.14-7.47-3-11.7l1.24-.33S1105.05,820.42,1104.46,831.73Z"/><path class="cls-6" d="M659.45,960.25s-39.71,42.08-54,48.33-47.75,66-48.19,72l-4.47,1.76s-3.65,0-9-.52C550.17,1049.44,609.7,998.19,659.45,960.25Z"/><path class="cls-2" d="M1339.44,969.09c-15.38-8.94-30.54-18.34-44-29.91-7.24-6.23-13.94-13.07-21.2-19.28-12-10.22-25.3-18.66-38.59-27.08l-16-10.09c-4.36-2.75-8.72-5.52-13.12-8.21a275.78,275.78,0,0,0-24.79-13.73c-2.15-1-4.34-2-6.55-3-1.6-.69-5.16-1.35-6.34-2.56s-.53-3.23-.64-5c0-.41-.06-.82-.11-1.22C1191.09,857.47,1272.89,891.56,1339.44,969.09Z"/><path class="cls-2" d="M1407.39,1084.4l-67.84-1.38c-.79-.59-1.49-1.18-1.59-1.56-.52-2.13,5.93-2.37,7.92-3,7-2.41,13.28-6.71,20.51-8.55,3.84-1,8-1.29,11.2-3.68a13.75,13.75,0,0,0,4.34-6.26c2.11-5.6,1.79-11.88.24-17.66s-4.28-11.17-7-16.51q-5.91-11.64-11.84-23.28c.9.41,1.78.85,2.65,1.31A372.76,372.76,0,0,1,1407.39,1084.4Z"/></g><g id="eyes"><path class="cls-7" d="M1053.24,614c1.23.22,2.46.39,3.7.52s2.67.31,3.43,1.31a9.85,9.85,0,0,1-4-.57,19.58,19.58,0,0,0-3.15-.55,4.58,4.58,0,0,1-2.17-.53c.09.06,2.08-1.35,2.33-1.49.42-.24,1.51-1.07,2-.62A17.64,17.64,0,0,1,1053.24,614Z"/><path class="cls-7" d="M1057.93,609.76a19.21,19.21,0,0,1-2.53,2l-3.76,2.6a22.65,22.65,0,0,1,4.64.57c-1.3.62-2.82-.06-4.27-.16a19.08,19.08,0,0,1-3.12-.07c-.13,0-.28-.08-.32-.21s0-.25.13-.36l1.38-1.75a6.94,6.94,0,0,1,4.61-3.09l2.63-.79a3,3,0,0,0,1.35-.7A2.07,2.07,0,0,1,1057.93,609.76Z"/><path class="cls-8" d="M1032.17,559.21c-.16-.47,1.38-.67,1.7-2.46s1.14-2.1,0-3.4a10.24,10.24,0,0,0-3.08-2.76c-1.78-1.13-1-1.94-3.09-2.1s-7,0-7,0-2.55-1.14-4.6,0-2.53,2.56-4.15,3.22-3.25,1.73-3.57,2.41-.65,1.17-1.3,2.47-.81,3.4-1.13,4.38-.65,1.94-1.62,2.1-1.3,1.95-3.89,0-5-1.62-5.84-2.1-2.75,1.31-2.26,3a24.08,24.08,0,0,0,3,5.58c1.4,2.27,1.73,3.4,3.67,3.89s5-.33,6,0,1.13,2.59,2.43,0,.84-3.57,2.28-5.84,1.44-3.56,2.42-4.54,6-3.08,6-3.08,5.77-.28,7.1-.78a8.17,8.17,0,0,1,3.65,0Z"/><path class="cls-9" d="M921.27,446.18c-1,2.85.75,3.1-1.77,4.19s-4.16,1.94-6.13,2a55,55,0,0,0-6.58.42c-2.23.38-6.95-1.95-6.27,1.4s1.47,5.84,4.21,6.51,11.25.61,12-.17,6.37-4,8-3.38,4.77,1.9,4.77,1.9,9.06-.64,10.37-.92,6.48-1.58,8.3-.39a12.31,12.31,0,0,0,6,2.14c2.79.34,3.64-1.51,5.46.67a40.39,40.39,0,0,0,7.69,6.16c.38.05,5.47,1.11,6.84.62s1.21.15,1.84-1.19,1.47-1.65.6-4.92-2.06-7.74-2.06-7.74-2-.93-5.34-2.21-8.37-2.62-11.83-4-15-4.33-15-4.33l-9.34-1.14s-5.44,0-8.45,1.48S921.27,446.18,921.27,446.18Z"/><path class="cls-2" d="M968.4,494c1.62.49,1,.49,2.92,0s3.89-1.94,3.89-3.56,2.27-.49.81-4.86-.81-4.54-2.43-6.65-3.44-3.46-5.13-6.51-3.79-3.86-4.76-3.53-2.11.48-2.27,1.62,1.11,1.94-1.31,5.67.4,3.89-3.84,3.89,1.21-.81-6,.32-7.08.62-10.13,1.2-8.88-.06-10,.75-1.78,1-1.78,1.46-.65,3.2-.65,3.2-2.05,1.17,0,2.31-8-.64,4.76.81,12.42,1.45,14,1.62,8.49,1.64,9.76,1.3,10.82,0,10.82,0Z"/><path class="cls-10" d="M983.26,615.58s-4-1.29-5.3-.75-2.37.44-4.43,2.06-2.59,2.05-2.91,3.4-.87,1.23.54,2.64,2.26,1.73,2.8,2.59,1,3.57.76,3.68-.22.75.43.75,2.49-.11,3-.75a26.11,26.11,0,0,1,3.18-2.38l3.52-2.26Z"/><path class="cls-11" d="M758.42,563.61c3,.65,4.36.33,4.94.76s1,0,2.08,1a40.71,40.71,0,0,1,3.79,3.89c.54.76-1,2.27,1.95,2.27s3.28.76,4.82,0a17.54,17.54,0,0,0,2.3-1.3s6.27-1.72,8.64-1.29a9.65,9.65,0,0,1,3.53,1,32.61,32.61,0,0,1,2.85,2c.43.2,1.08,2.24,1.3,2.9s.64,0,0,1.73,2.91,1.51-.65,1.73.75-1.08-5.4.22-7,1.08-7.46,1.62a4.39,4.39,0,0,1-2.27,2.16c-1.51.54,5.77,1.62-2.84.86s-6.23-.86-6.23-.86a30.93,30.93,0,0,1-4.43,0c-.54-.22-.54-2.27-.54-.22s.75,3.13,0,4a7,7,0,0,1-2.7,2.16c-1.3.54-2.61,2.59-3.68.65s-.75-1.51-1.08-4.43S756,579.6,756.08,578s-.08-4,0-5.18-1-2.49,0-4.86A22.62,22.62,0,0,1,758.42,563.61Z"/><path class="cls-12" d="M753.82,609.18a18.54,18.54,0,0,1,0,3.92,7.18,7.18,0,0,0,.82,4.21c.65,1.41.86,1,2.05,2.92s.76,1.83,2.38,2.48a5.32,5.32,0,0,0,2.92.65c1.29,0,1.63,1.62,2-1.19s.1-5.62-1.41-7.24a40.78,40.78,0,0,0-6.7-5.29C755.29,609.53,753.82,609.18,753.82,609.18Z"/><path class="cls-13" d="M930.8,496.82s-11.83,2.29-12.48,2.29a25.6,25.6,0,0,1-3.67-1.14V490.9s6.91-2.16,10.37-2.37,21.87-2.38,22.63-1.09,2.65,1.09,2.65,1.09l-4.42,0-16.1,1.91L926.84,495Z"/><path class="cls-14" d="M1049.92,456.11c-.65,1.14-15.56,9.08-16.37,10.05s10.21,2.27,11.51,1.78,11.5-.64,12.47-.64,8.76,1.78,9.57,2.59,5.18,5,5.18,5l1.78,2-1.4-4.41-2.37-4.75-.92-2.67s-2.41-7-1.16-8.92h-5l-1.72,1.73-.54-1.73a13.24,13.24,0,0,1-3.74,0c-1.3-.32-6.32-.65-6.32-.65Z"/><path class="cls-15" d="M924.64,440.07s11.7-3.67,13.06-2.08l2.45,11.42,4.1-11.82s23.5,3.92,28.85,12.11,3.73,9.82,3.73,9.82-2.43,1.29-3.24,0-7.3-4.7-7.3-4.7-8.67-2.11-10.65-2.27-28.13-3.73-41,2.27c0,0-10.59-1.62-11.56-2.27a11.5,11.5,0,0,1-3.4-5.51c-.33-2,3.08-3,4.86-1.74s4.51,1.25,5.25,1.25a8.66,8.66,0,0,0,4.85-1.94C916.22,443.15,924.64,440.07,924.64,440.07Z"/><path class="cls-16" d="M1020.75,563.88v-2.43s9.88-.81,10.85,0,.81-1.29.81-1.29-1.45-8.11-9.39-8.43-11.84,3.89-11.84,3.89-3.24,7.94,0,9.72,5.51,1.3,5.51,1.3S1020.75,565.34,1020.75,563.88Z"/><path class="cls-17" d="M989.63,548.49s-9.94,18.47,7.35,25"/><path class="cls-18" d="M982.5,622.06c3.24-.86,13-4.1,13-4.1s16.86-5,17.51-5,22.25-.22,23.55,0,17.29,1.94,19.45,1.94,5,1,6.26,2.55a42.45,42.45,0,0,1,3.46,6.31s-6.26,4.76-9.94,5.41-7.2-1.52-14.83,0-7.21.64-12.39,1.51a52.29,52.29,0,0,1-15.35,0c-5-.65-15.12-2.81-17.28-2.81s-12.32-2.16-13.4-2.16h-3l-2.8-1.3Z"/><path class="cls-7" d="M976.67,624.44s5.4-8.21,7.34-8.86,3-.41,5.4-2.69,5.84-5.52,5.84-5.52l13-4.75s5.19-2.38,5.84-2.81,9.29-5.19,10.15-5.19,8.43-.86,9.73-.86,8-.65,8.64,0,5.19-.29,5.19-.29h5.83l4.54,2s2.16,6.48,1.3,9.07-.44,3.82-1.73,4.4-4.11.57-5.19,1.65l-3.7,3.73-7.19-.76-4-.45-8.1-.24h-13.62l-2.91.1S977.53,622.82,976.67,624.44Z"/><path class="cls-19" d="M1050.46,612.68a2,2,0,0,1-1.27.51c-.53.08-1.82,0-2.64,0s-3.8-.15-4.65-.26a60.15,60.15,0,0,0-6.89-.51c-1.46.12-2.19-.36-3.89,0s-1.62.55-1.62.55l8.1.24,2.92.3,4.94.57,3.77.29,4.42.5Z"/><path class="cls-2" d="M1053.65,614.79s8,0,12,9c0,0-8.13,6.15-10.61,5.49,0,0,3.81,1.54,5.43,1.54a19.59,19.59,0,0,0,6.15-.77c2.38-.75,3.46-.31,4.11-2.48s3.13-6.15,3.78-7.77a15.44,15.44,0,0,0,1.19-5.08c.22-2.38,1.19-2.49,0-5.3s-.11-7.45-4.65-10.48-5.94-3.6-7.13-5.47-4.32-5.76-5.78-8-2.32-7.46-3.1-9.4-1.43-5.67-.79-6.16,3.57-7.45,4-7.62l2.75-6.21-1-1.93s-2,10-14.75,9.39l-8.17,4.58-2.12,1.95s-1.62,1.3,0,1.79,1.78,1.13,3,1.37,2-.65,2.83.49,1.3,1.86,2.11,3-.41-2,1.38,1.62,1.94,4,3.16,5.59,1.54,4,3.32,5.1,4.11,1.7,3.4,3.08.23,1.8.23,1.8-1.58,3.44-1.79,4.09a10,10,0,0,0-.65,2.49,15.66,15.66,0,0,1-1.41,4.21c-.54,1.19-.75.44-1.13,2.11s-.16,3.62-1,3.83.87.22-2,.22h-4.16a13.32,13.32,0,0,1-3.46.5c-1.46-.07-3.93,0-3.93,0l-3.39,1.69s5.8.08,6.5.16l8.41.89,7.22.72Z"/><path class="cls-20" d="M1036.52,568.48l8.77-5.13,0,0h.07c4.15.4,8.62-.89,11.4-4a13.19,13.19,0,0,0,2.93-5.43,18.54,18.54,0,0,0,.67-3.06,17.09,17.09,0,0,0,.24-3.11,21.53,21.53,0,0,0-4-11.68,49.54,49.54,0,0,0-8.59-9.26l-2.42-2.1c-.4-.36-.8-.71-1.19-1.13a3.26,3.26,0,0,1-.56-.78,4.4,4.4,0,0,0-.36-.61,63.11,63.11,0,0,0-4-4.93c-2.79-3.22-5.62-6.41-8.38-9.67-1.37-1.63-2.75-3.27-4.06-5a22.94,22.94,0,0,1-3.28-5.54,43.86,43.86,0,0,1-3-12.42,46,46,0,0,0,3.45,12.23c1.68,3.92,4.72,7,7.48,10.22s5.69,6.34,8.5,9.56c1.4,1.62,2.81,3.2,4.09,5a5,5,0,0,1,.44.77,2.45,2.45,0,0,0,.39.5,12.74,12.74,0,0,0,1.13,1.05l2.43,2.08a47.07,47.07,0,0,1,8.74,9.46,22.42,22.42,0,0,1,4.11,12.2,16.9,16.9,0,0,1-.26,3.25,19.46,19.46,0,0,1-.75,3.17,13.83,13.83,0,0,1-3.21,5.64,12.41,12.41,0,0,1-5.51,3.39,15.2,15.2,0,0,1-6.43.53l.12,0Z"/><path class="cls-21" d="M1053.65,614.79c-.92.79-2.33,1.12-1.14,2.2a6.07,6.07,0,0,0,3.35,1.83,16.64,16.64,0,0,1,4.54,2.06c.32.32,1.29,2.26,1,3s-2.48,2-2.92,2.16-3.78,1.73-4.1,1.84-2.3.86-2.3.86l-1.38.22,5.08.22a39.85,39.85,0,0,0,9.94-5.41s-2.88-6.72-5.17-7.84Z"/><path class="cls-22" d="M995.79,418.31c5.51,1.82,3.93-.77,12.34,2.47s11.27,5.51,13.24,6.81,6.34,4.67,7.72,6.55,5,3.17,7.21,7.71,1.08,9.08,2.81,10.37l1.73,1.3s6.48,1.3,6.16-1.94,2-6.81,0-8.11a11.67,11.67,0,0,1-3.28-4.25s0-4.18,0-7.74v-7.75c0-6.84,1.5-8.13-.22-10.4a37.11,37.11,0,0,1-4.43-7.72c-.21-1-3.45-5.89-3.45-5.89s-.74-.66-2.15-2-5-6.32-6.28-5.75-12.64-1.38-12.64-1.38-.28-2.27-6.46,0-6.51,1.94-8.45,4.21-.33,3.18-3.89,4.18-9.5-.29-11.07.69-5.83,3-4,5.89,8,4.87,8.45,6.13S995.79,418.31,995.79,418.31Z"/><path class="cls-23" d="M786.08,582.2a53.55,53.55,0,0,1-4.54,4.53,36.5,36.5,0,0,1-4.53,3.08c-.82.49-1.79,1.79,0,2.27a58.6,58.6,0,0,0,5.83,1s-2.59-3.08.65-4.22a8.65,8.65,0,0,1,5.18-.48s2.27.32,2.43-.73S787.38,582.85,786.08,582.2Z"/><path class="cls-24" d="M798.72,601.48,796.29,606l1.22,1.62a1.49,1.49,0,0,1,1.21-.64,9.63,9.63,0,0,1,3.4,0c2.76.32,3.73.32,4.54,0s1.46-.49.81-2.44-2.59-3.89-3.24-4.7a14.86,14.86,0,0,0-2.22-1.94s0-.65-.86.65A21.32,21.32,0,0,1,798.72,601.48Z"/><path class="cls-25" d="M755.61,611c.33.54,6.92,10.81,9.83,12.32a13.64,13.64,0,0,0,7.19,1.62c2.32,0,3.94.87,5.67,0s4-.32,4.22-1.51,1.62-4.32-1.52-3.24-4.21,1-5.51.75-7.24-1.18-7.88-1.94-3.35-4.21-3.35-4.65-1.48-3.45-.9-3.35,4.64,1.19,5.95,1.41,4.78,1,6.07,1,7.27-.65,7.64-.65,6.19.54,7,.76,2.17-1.51,1.14-1.95-3.3-1.18-3.62-2.7-1.09-5.61-.33-8.32-.32-5-1.73-5.72-3.89-2-3.89-2-2.91,4.65-2.59,6.7-7.78,2.81-8.54,2.38-6.69-3.13-8.21-3.78-2.37-1.3-2.37-4.22-.44-6.91.43-7.24a10.77,10.77,0,0,0,1.94-1.08s-2.37-2.16-2.21-4.59-.16-7.29-.16-8.91.16-4.21-.65-5.35-1.3-4.7.16-5.35a31.43,31.43,0,0,1,4.86-1.29s15.13,5,15.24,11.18a22.51,22.51,0,0,0,4.12-.33c1.06-.32,2.52,0,2-3.72s-2.1-9.08-4.53-10.21-16.37-14.91-32.58-3.57c0,0-6.08,13.94-5.47,18s-.78,6.48,0,8.43,1.1,5.51.77,10.05,2,13.29,3.08,13.61a12,12,0,0,1,3.89,2.27C751.08,606.34,755.61,611,755.61,611Z"/><path class="cls-26" d="M791.81,642.27c.32,1.08,1.51,3.67,3,3.78s9.73,0,9.73,0a48.66,48.66,0,0,1,8.42-3c3-.54,7.12-2,8.42-3.67s2.28-1.51,2.5-3.46-1.43-4.53-2.5-4.43-3.12.33-3.88,1.95a9.56,9.56,0,0,1-2.81,4.1,20.82,20.82,0,0,1-5.83,3.68,19.73,19.73,0,0,1-5.51,1.4,29.93,29.93,0,0,1-5.51,0c-.65-.21-2.16-1.19-2.92-1.19A16.83,16.83,0,0,0,791.81,642.27Z"/><path class="cls-27" d="M783.56,574.9s-5.58,4.11-6.39,3.52-4.54,1-4.54,1,1,5.35,2.59,5.67a47.65,47.65,0,0,0,7,0s3.73-1.29,3.89-2.91h0s5.19,3.94,5,5.43-2.75,1.16-2.75,1.16,0-1.58.32-.43a9.9,9.9,0,0,0,1.19,3.45,2.7,2.7,0,0,1,.76,2.06c0,.64-.32,1.83.49,2.37s-.17.87-.82,3-2.26,3.35-1.18,5.51-1.76,3.89,2.3,2.86,3.42-4.32,4-4.94a5.15,5.15,0,0,1,1.73-1.06l1.3.45,3-4.33s4.57,2.9,6.17,7.23h0s-.77-6.69-2.17-7.23-4.75-1.73-5.51-2-2.08-.43-2-.76-1.12-3.45-1-4.21a13.65,13.65,0,0,1,1-2.48c.07-.22,0-2.92,0-2.92s-3.39-3.13-3.93-3.78-1.3-.11-2.27-2.27,1-1.41-1.23-2.81c-1.82-1.16-1.36,0-2.12-.43s-1.08-.87-1.84-1.25A7.63,7.63,0,0,0,783.56,574.9Z"/><path class="cls-28" d="M787.49,625.37c.32,2,.64,2.85,1.72,7.17s3,5.73,3.35,7.14,1.19,2.5,0,2.33a6.42,6.42,0,0,1-2.7-.82c-1-.54-.86.86-1.94-1.84s-.33-2.05-1.95-3.67-2.24-2.6-2.41-3.68a12.13,12.13,0,0,1,0-5c.47-2.37.47-3.45,1.33-4.43s1.84-1.94,1.84-1.94.76-1.08.86,0S787.49,625.37,787.49,625.37Z"/><path class="cls-21" d="M1028.74,614.26s.7,4.28,0,5.15,1.41.88,1.41.88a5.75,5.75,0,0,1,0-3c.48-1.2-.65-3-.65-3Z"/><path class="cls-21" d="M1031.07,613.87s.7,4.28,0,5.15,1.4.88,1.4.88a5.72,5.72,0,0,1,0-3c.49-1.21-.65-3-.65-3Z"/><path class="cls-21" d="M1033.39,613.48s.7,4.28,0,5.15,1.4.88,1.4.88a5.84,5.84,0,0,1,0-3c.49-1.21-.65-3-.65-3Z"/><path class="cls-21" d="M1049.4,613.48c-.1,0-18.42-1.65-19.79-1.44s-1.46.85-1.46.85l3.37.13,4,.05s3.19.17,3.83.24,3.81.46,3.92.49,3.62.27,4,.38a11.4,11.4,0,0,0,1.59.16l.73-.86Z"/><path class="cls-21" d="M1024.33,595.16c1.22,0,16.94-1.24,17.21-1.19a1,1,0,0,1,.65.6c.11.27.16,1.51,0,1.29s0-.54-.54-.54-2.75.59-2.81.57a12.37,12.37,0,0,1-1.56.46,39,39,0,0,1-5.24.49c-1.57-.06-2.38-.54-3.89-.38a11.37,11.37,0,0,0-3.82.7,13,13,0,0,1-1.8.81s-.49-.86-.27-1S1024.33,595.16,1024.33,595.16Z"/><path class="cls-21" d="M1023.5,605.86s.87,3.29,0,4.1l.39.22s.7-3.73,0-4.32Z"/><path class="cls-21" d="M1024.2,605.86s.86,3.29,0,4.1l.38.22s.71-3.73,0-4.32Z"/><path class="cls-21" d="M1024.9,605.86s.86,3.29,0,4.1l.38.22s.71-3.73,0-4.32Z"/><path class="cls-21" d="M1025.6,605.86s.86,3.29,0,4.1l.38.22s.71-3.73,0-4.32Z"/><path class="cls-21" d="M1026.3,605.86s.86,3.29,0,4.1l.38.22s.71-3.73,0-4.32Z"/><path class="cls-21" d="M1027,605.86s.86,3.29,0,4.1l.38.22s.71-3.73,0-4.32Z"/><path class="cls-21" d="M1027.7,605.86s.86,3.29,0,4.1l.38.22s.71-3.73,0-4.32Z"/><path class="cls-29" d="M840.53,638.78c2-.29,4.76-1.37,7.78-6.13s5.4-12.31,7.13-19.66,1.95-16.29,1.95-21.65-2.16-9.05,0-16.6.21-20-1.73-25.68a97.54,97.54,0,0,0-6.23-15.16c-4.14-8.64-6.95-14.26-8.9-19.66s-4.1-8-5.4-10.81a36.91,36.91,0,0,0-3.89-6.05s-4-1.2-5.4,1.73-6.52,8.65-7,11.46a99.73,99.73,0,0,0-1.17,11.88v9.31a39.92,39.92,0,0,0,1.17,7.64c.56,2.28,1.62,9.41,2.6,12.44s-.33,19.44,0,21.39-4.2-4.06-5.07-5.27a8.63,8.63,0,0,0-3.19-3c-1.56-.86-14.45,3.47-15.24,8.65,0,0,18.43,0,19.94,4.76s2.81,10.72,2.6,12.92-3.68,9.06-5,11.36a42.4,42.4,0,0,0-2.6,6.48s2.38,4,3,5.32,5.51,7.49,5.51,7.49l2.5-14s4.23,4.77,5.73,8.56,1.24,10.52,2.8,11,2.58,6.59,2.58,6.59Z"/><path class="cls-30" d="M1076.32,517.26c-1.77-2.16-5.87-9.07-9.12-10.15s-10.63-3.46-13.41-3.89-6-1.73-8.41,0-6.91,5.4-6.91,5.4-1.09,2.81,1.08,3.24,2.8-.52,4.1,2-.65,3.61,1.3,5.12,3.24,2.6,3.89,3.89-.22,2,1.94,3.68,3,3.45,4.11,2.8,2.81-.43.65-2.8-3.11-3.46-3.72-5.19a17.6,17.6,0,0,1-1-4.11c0-.64,2.13-1.34,2.13-1.34s-.87-1.33.88-2a5,5,0,0,1,3.47,0s.44,2,1.3,2,0,2.86.65,4.8,1,1.3,1.88,3.89a23.16,23.16,0,0,1,1.58,5.84c0,1.08-.87.86,0,3.24s.21,4.32,1.29,5.61,4.54,3,5.41,1.73,2.16-2.59.86-4.1a10.91,10.91,0,0,0-3.46-2.38l-1.94-1.3a26.35,26.35,0,0,1,0-4.32c.21-1.51.43-.43.21-2.37s-.86-2.58-1.51-4.64,1.08-4.44,1.08-4.44l1.73-.65,1.8.87,5.92.86Z"/><path class="cls-30" d="M950.3,528.61c-1.73-3,1.08-4.92,1.57-6.69a15.53,15.53,0,0,0,.49-7.95c-.65-4.54-.81-2-1.16-5.29s1.16-2.17,1.48-6.7,0,0-1.48.37a14,14,0,0,1-4,0,4.73,4.73,0,0,0,0,2.87c.49,1.62-1.46,2.91-2.27,3.46s-.65,2.37-1.3,2.21-1.29,1.13-1.94,2.59,0,3.41,0,4.86,1.13,1.63,1.94,2.27,1,2.27,1.3,4.06-1.46,2.75-3.24,3.24-1,1.29-4,0-.16-3.41-1.14-6,.81-3.25.81-6.17,3.57-8.43,3.73-10.53.33-1.79-.16-3.89-.81-.81-2.49-1.3-7.88-2.27-9.22-2.89-2,.38-2.55-.84-.16-4.05-.7-4.53,3.45-2.6,3.94-2.77,7.29-.47,8.53,0a9,9,0,0,0,3.82,0c.62-.07,4,1.47,4,1.47s6.64-.16,8.26,0,5.68,0,8.59,0a5.74,5.74,0,0,1,5,2.6,6,6,0,0,1,.42,2.58,10.25,10.25,0,0,1-.42,3.46l-3.24-1-6.49,1a3.55,3.55,0,0,0,.16,1.73c.33.49,0,2.59,0,4.54s-.48,1-2.23,2.43.13,1-.68,4.86.48,2.6.68,3.73.94,1.62,1.26,4.7,0,1.46-.16,2.59-1.3,1.62-2.92,4.38.33.81,1,2.75c0,0,5.45,7.19-.6,8.48s-4.54-5-4.54-5v-5.72Z"/><path class="cls-21" d="M982.76,616.5l-6.09,7.94,8.62-3.32,11.87-3.61L1013,613s.48-2.76-1.06-3.49-2.1-1.93-1.62-2.5.25-.9,1.38-2.52,1.14-1.94,1.78-2.84a3.12,3.12,0,0,0,.6-1.83l-5.84,2.81-13,4.75-6.52,6.14-2,1.28A17.08,17.08,0,0,0,982.76,616.5Z"/><path class="cls-31" d="M1011,614.79c-.65.58-.61-.19-1.28,1.71s-2.17-.7-.66,1.89.86,4.11,1.94,5,1.73,4.11,1.3,4.75-4.33,2.17-3.89,0-2.16-4.53-2.16-3.67A7,7,0,0,1,1005,627l-3-.43-1.19.87-15.88-2.91-3.14-.12s-2.7-.65-1.94-.54,7.34-2.81,7.34-2.81,6.81-1.21,7.14-1.58,8.1-2.62,8.1-2.62l5.62-1.52Z"/></g><g id="hair"><path class="cls-32" d="M823.91,636.49c0-1.07,2.88,3.28,2.47,4.42s.07,2.22-.83,3.84,1,2.6-.37,4.38a11.1,11.1,0,0,1-3.78,3.56c-1.12.49-2.26-.48-3.39,1.46a37.57,37.57,0,0,1-3.73,4.54c-.32.49-.32,2.59-1,2.92s-1.95,1.13-2.6,1.46a2.59,2.59,0,0,1-2.85,0,18.08,18.08,0,0,1-2.66-3.57s-2.75-5.35-3.08-5.83a25.8,25.8,0,0,1-1-3.67L800,647.35V646.1h4.13l3.71-1.45s4.21-1.43,4.44-1.48l5.54-1.15,3.14-2.24S823.93,637.08,823.91,636.49Z"/><path class="cls-33" d="M771.05,549.42s9.2,3.61,10.82,4.74,6.48-2.59,6.48-3.08,7.23-9.73,7.23-9.73,7.46-3.13,8.53-1c1.3,2.57,6.93,5.47,7.09,10.6a109.07,109.07,0,0,0,2.59,17.5c.81,3.08,4.05,8.1,4.05,9.08s11.35,1.46,13,0,1.46-5.84,1.62-9.56-2.75-26.91-3.89-31.28-3.73-7.94-3.08-12.32.33-5.67,1-10.7a37,37,0,0,0-.64-10.85l-.48-2.42s-3.36-16.38-9-20.92,1.73-9.29-11-9.29S790.6,468,783.16,471s-6.59-1.94-8.75,8.21,0,3.69-5.52,21-6,15.47-5.28,23.71-.92,7.4.83,10.86,3.64,4.1,4.45,7.94A35,35,0,0,0,771.05,549.42Z"/><g class="cls-34"><path class="cls-35" d="M1084,429.1a10.94,10.94,0,0,0,3.21-1.93,8,8,0,0,0,2-3.06,15.93,15.93,0,0,0,.8-3.57c.1-1.22.15-2.51.27-3.8.22-2.56.59-5.1,1.06-7.62s1-5,1.7-7.51l.76-2.84,1.1,2.76.42,1.05.22.5.1.22,0,.08h0l-.08-.09a1.06,1.06,0,0,0-.18-.14,1,1,0,0,0-.89,0,1,1,0,0,0-.48.49.66.66,0,0,0-.06.2.38.38,0,0,0,0,.1h0s0,0,0,0l0-.21-.12-.53-.26-1.1c-.36-1.48-.79-3-1.14-4.51-.73-3-1.28-6.09-1.91-9.11-.31-1.52-.62-3-1-4.51a29.62,29.62,0,0,0-1.32-4.35,6.11,6.11,0,0,0-1.08-1.83,4.76,4.76,0,0,0-1.84-1.1,7.19,7.19,0,0,0-4.46.17,6.89,6.89,0,0,1,4.61-.72,5.29,5.29,0,0,1,2.23,1,6.26,6.26,0,0,1,1.49,2,47.35,47.35,0,0,1,3,8.94l2.18,9c.36,1.49.79,2.95,1.19,4.48l.29,1.15.12.61a3.13,3.13,0,0,1,0,.36,1.16,1.16,0,0,1,0,.28v.18a2.13,2.13,0,0,1-.08.27,1.13,1.13,0,0,1-.51.51,1,1,0,0,1-.62.08,1.33,1.33,0,0,1-.33-.13,1.61,1.61,0,0,1-.21-.16,1.17,1.17,0,0,1-.16-.21l-.08-.12-.09-.17-.15-.31-.24-.57-.43-1.11,1.87-.08c-.67,2.41-1.27,4.88-1.82,7.34s-1,4.94-1.38,7.43c-.18,1.25-.3,2.49-.52,3.8a14.82,14.82,0,0,1-1.19,3.76,8.67,8.67,0,0,1-2.46,3.07,7.77,7.77,0,0,1-1.7,1C1085.25,428.75,1084.64,428.92,1084,429.1Z"/></g><g class="cls-34"><path class="cls-35" d="M1080.7,415.84a26.14,26.14,0,0,0,3.59,2,4.62,4.62,0,0,0,1.85.48,3.64,3.64,0,0,0,.5-.05,5.15,5.15,0,0,1,.56,0,6.91,6.91,0,0,1,1.11.08,19.55,19.55,0,0,1,4.06,1.35c1.29.56,2.54,1.19,3.78,1.82a8.5,8.5,0,0,1,3.41,3,9.55,9.55,0,0,1,1.33,4.34,27.64,27.64,0,0,1-.06,4.28c-.11,1.41-.13,2.66-.13,4.11a31.34,31.34,0,0,1-1.31,8.43,54.32,54.32,0,0,1-3.14,7.82,25.4,25.4,0,0,1-2.11,3.71,9.16,9.16,0,0,1-3.26,2.92,21.11,21.11,0,0,1-4,1.41c-1.34.37-2.68.71-4,1.06,1.28-.55,2.57-1.07,3.86-1.56a20.71,20.71,0,0,0,3.67-1.76c2.26-1.38,3.37-3.93,4.44-6.42,2.11-5.07,3.89-10.25,3.87-15.66,0-1.32.06-2.84.18-4.19a30.44,30.44,0,0,0,.13-4,7.82,7.82,0,0,0-.94-3.56,7.33,7.33,0,0,0-2.67-2.54c-1.18-.7-2.39-1.36-3.59-2a18.85,18.85,0,0,0-3.7-1.57,6.35,6.35,0,0,0-.95-.18l-.48,0h-.54a5.22,5.22,0,0,1-2.08-.76A19.87,19.87,0,0,1,1080.7,415.84Z"/></g><path class="cls-36" d="M1067.93,403.55s-1.32,1.68.79,3.46,1.94,2.92,3.89,3.89a15.39,15.39,0,0,0,3.72,1.29h1.14a4.24,4.24,0,0,0,1.29-3.4c0-2.43.82-2.87-1-5.24s-4.25-3.19-4.55-3.83-3.55-1.14-3.71,0A19.21,19.21,0,0,1,1067.93,403.55Z"/><path class="cls-37" d="M936,349.8c-.65.65-9.51,11-4.1,10.16s7.13-5,7.13-6.92S936,349.8,936,349.8Z"/><path class="cls-37" d="M1072,401.23c3.89,1.73,5.83,6.91,6,8.21s-.22,4.75,0,10.15-1,2.6.06,13.83,2.32,20.32,2.32,22.48a22.57,22.57,0,0,1-.83,5.05s6,10.11,7.52,11.59a13,13,0,0,0,4.06,2.33l-2.61-8.36s-2.23-5.72-2.35-6.37a173.69,173.69,0,0,1,.62-24.19c1.15-10,1.72-15.95,1.77-17s-1-12.79-1.14-13.45-3.66-12.65-3.66-12.65-3-12.12-4-14.06-3-5.19-3.46-1.73-.86,9.29-4.32,4.75-4.11-8.21-3.68-9.94-3.88-3.46-4.75-.86,0,7.78-3.67,11.23-10.16,5-7.35,11,4.54,20.75,6.92,17.07S1072,401.23,1072,401.23Z"/><path class="cls-37" d="M1005.4,369.65c2.81-6,6.49-14.47,7.78-15.11s-14.47-8.2-15.34-3.88-4.75,13.52-5,11.08-1.29-15.72,1.73-16.32,6.48.17,9.94,0,12.53,3.3,13.61,4.38,6.7,0,5.41,6.48-3.46,12.7-4.54,13.37-3,2.62-4.54,2.84S1005.4,369.65,1005.4,369.65Z"/><path class="cls-37" d="M857.82,381.13c-2.16,1.51-6.05,7.35-6.05,9.94s9.29-1.73,8-3.46S857.82,381.13,857.82,381.13Z"/><path class="cls-37" d="M810.07,367.73a5.55,5.55,0,0,0-1,.4c-4.18,2-11.33,9.71-8.74,9.11,2.81-.65,1.73-4.51,15.56-6.79s14.26-2.26,18.8,0,.86,4.85,2.38-4.88,8.42-13.39,0-9.07-14.39,11-16.59,6.7.38-12.56-2.43-8.66S810.07,367.73,810.07,367.73Z"/><path class="cls-37" d="M860.63,333.76a1.67,1.67,0,0,0-.88-.84c-1.86-1-6.41-1.36-12.09.84-7.13,2.75-18,3.72-15.88,6s4.54,3.41,11.51.81,10.86-3.89,12.32-2.75S860.63,333.76,860.63,333.76Z"/><path class="cls-37" d="M916.7,422.26a45.57,45.57,0,0,1,19.77,0s.33,6.95,2.6,10.19,1.62.65,3.56-3.24,2.92-8.75,6.16-9.72,6.48-1,10.37-2.6a56.12,56.12,0,0,0,7.46-3.89l2.27-7.77s-4.22-6.45-8.11-6.79-9.72,1.28-10,4.19-7.14,3.89-11.67,3.89-13.29-11.63-19.13-8.08-26.9,8.95-28.36,12.73-13.12,20.35-2.1,11.09,22.68-11.52,25.28-8.61S916.7,422.26,916.7,422.26Z"/><path class="cls-10" d="M1033.23,407.66s-14.91-13-24.21-12.75-7.56,6-9.72,10.15-7.78,24.2-7.78,24.2-9.29,24.42-10.8,24.85,7.13-26.14,6.91-28.52,3-22,1.51-20.53-13,5.84-14.26,8.86a15.24,15.24,0,0,1-2.81,4.54l-15.85,4.11s-7.48,5-8.35,7.13-3.45,7.56-5,10.8a57.39,57.39,0,0,0-2.81,9.08s-3.45-17.07-4.32-18.37-4.54-3.67-4.54-3.67-15.77-1.73-19.88,1.29-14,7.78-14,7.78-4.32,1.3-7.56.65-13,.22-13,.22-4.38,4.66-8.91,10.28-7.29,10.24-11.18,16.08-4.33,8.64-5.19,13.39-2.81,7.78,0,10.59,5,8.86,5.4,10.59-1.08,5.19-2.59,0-4.27-7.13-4.27-7.13-.7,5.05-.92,9.87,2.07,6.86.56,6.86-12.23-13.27-11.36-21.27a80.37,80.37,0,0,1,3.76-17.7c2-6.8,3.37-11.25,3.37-11.25s-8.21-.22-12.75,12.53S828,487.61,827.3,493a24.63,24.63,0,0,1-2.88,9.2,27.84,27.84,0,0,1-3.82,5.28c-4.11,4.53-7.56,9.72-7.13,4.75s2.09-10.16,0-13.4-4.28-6.91-6.44-2.37-3.24,6.91-5.84,5.83-7.78,1.51-3.45-4.11S807,487,809.36,484.37s-3-6.05-8.64-6.05-21.18-1.52-21.82,3.88,2.16,15.13,1.08,18.59-2.16,8.21-3.24,12.31-2.6,3-3.25,11.24.44,12.32,0,15.34,1.52,6.27-.21,8a19.06,19.06,0,0,1-2.29,1.9c-1.11.8-2,1.34-2,1.34s-24-10.59-26.15,21.39L735,560.64a106.37,106.37,0,0,0-6.91-8.21V445.69s11.45-33.93,15.12-35.87-.65-5,5.19-8.65,16.2-14.91,17.72-17.28,6.91-3,6.91-3l3.46,1.95s-2.81-14.05,1.51-17.72,4.76-8,6.7-9.51,7.35-2.81,10.8-3.67,16.86-2.38,18.37-3.24a29.79,29.79,0,0,0,5.84-5.62c.43-.87,3.67-5,5.61-5.19s3-2.38,8-5.62a38.59,38.59,0,0,0,8-6.91,60.92,60.92,0,0,1,11-1.08c5.84,0,11,.86,11.67,0s33.5-21.83,59.43-24.2S954,326,956.22,326.63a23.45,23.45,0,0,0,8.07,1.08c3-.22,5.62.21,8-1.52s13.4-5.83,14.26-6.05,2,2.81,2,4.32-.65,4.54,4.32,4.11,15.34-.22,16.42-.22,15.77,2.16,17.93,3.89,6.7,3.68,7.78,7.13-1.08,9.08-1.72,10.16-3.46,2.38-1.3,3.46,6.91,4.1,7.78,1.73,5.62-3,7.56-2,8.21,4.75,11.24,5.19,6.91,6.48,7.13,7.34,3.67,3,6.26,4.76,7.78,5,8.86,6.91-.21,2.16,1.52,10.37,5,14.91,6,23.56-1.3,20.09-1.52,24.2-1.51,11.88-1.51,14.48.22,10.15,1.51,13.18,4.54,10.8,4.54,10.8.65,4.32-4.32-.86-9.72-16.21-9.72-16.21,1.94,2.59-1.52.87-5.83-1.52-7.13-4.11-3.89-3.89-5.4-1.08-.65,10.8-2.59,3.24-4.11-11-6.48-11.45-2.17,0-3.89-.43-6.7-2.38-7.78-6.49-6.92-22.25-7.13-24S1033.23,407.66,1033.23,407.66Z"/><g class="cls-34"><path class="cls-35" d="M863,439.69c-2.09,4.38-4.32,8.68-6.31,13.05a54.65,54.65,0,0,0-2.6,6.62,12.74,12.74,0,0,0-.36,1.64,3.07,3.07,0,0,0,0,1.32c.06.13.08.15.12.17s-.21,0-.12,0a1.87,1.87,0,0,0,.34-.39,7,7,0,0,0,.39-.67,28.79,28.79,0,0,0,1.3-3.24l1.22-3.41a26.3,26.3,0,0,1,3.25-6.74c2.73-3.87,5.15-8.09,7.55-12.26l.6.51C866.66,437.42,864.86,438.55,863,439.69Zm0,0c1.6-1.36,3.25-2.73,4.94-4.07l1.3-1-.69,1.54a91.8,91.8,0,0,1-6.83,12.92,15.4,15.4,0,0,0-1.59,3c-.46,1.08-.87,2.2-1.27,3.33a57,57,0,0,1-2.62,6.9,6,6,0,0,1-.54.89,3.2,3.2,0,0,1-.9.91,1.57,1.57,0,0,1-.39.19,1.3,1.3,0,0,1-.49.1,1.7,1.7,0,0,1-.95-.22,2.18,2.18,0,0,1-1-1.2,4.68,4.68,0,0,1-.09-2.27,13.6,13.6,0,0,1,.48-1.88,42.8,42.8,0,0,1,3-6.75A134.15,134.15,0,0,1,863,439.69Z"/></g><g class="cls-34"><path class="cls-35" d="M891.58,316.58c-3,1.27-5.78,2.65-8.33,4-1.28.64-2.52,1.3-3.76,1.87s-2.48,1.17-3.76,1.69l.45-.35c-.56.83-1.13,1.69-1.61,2.51l-.16.28,0,.06h0a1.09,1.09,0,0,0,0-.54,1,1,0,0,0-.6-.68l-.1,0a.79.79,0,0,0-.31,0,.38.38,0,0,0-.13,0h0a4.34,4.34,0,0,0,.55-.25l1.32-.71c1.77-1,3.57-1.94,5.44-2.82A13.57,13.57,0,0,1,882,321a4.51,4.51,0,0,1,.87-.25l.35-.05a1.36,1.36,0,0,0,.28-.08,22.06,22.06,0,0,0,2.68-1.19Zm0,0a50.49,50.49,0,0,1-4.84,3.76,17.18,17.18,0,0,1-2.73,1.6,1.94,1.94,0,0,1-.43.16l-.4.1a3.83,3.83,0,0,0-.58.23c-.42.19-.85.44-1.29.67-1.75.94-3.47,2-5.25,3l-1.35.75a6.69,6.69,0,0,1-.83.39l-.11,0-.22,0a1.43,1.43,0,0,1-.36,0l-.11,0a.92.92,0,0,1-.27-.16,1,1,0,0,1-.35-.55,1.09,1.09,0,0,1,0-.58l0,0,.07-.18.06-.11.21-.38c.57-.91,1.14-1.74,1.73-2.59l.16-.24.28-.11c1.43-.58,2.89-1.11,4.35-1.63s2.92-1,4.34-1.45C886.56,318.36,889.19,317.52,891.58,316.58Z"/></g><path class="cls-38" d="M776.57,382.64s-.11,7.67,0,15.13,10.48,9.72,5,21.07-12.31,23.48-18.15,30.86-8.43,7.48-6.16,13.75,7.78,7.57,3.57,17.3-4.54,9.72-7.46,0-1-12-4.86-13.29-14.26-4.12-15.88-4-4.43,0-4.43,0V443.8L740.92,413l4-5.25.37-3s14.45-13.55,16-15.19,4.94-5.76,4.94-5.76S773.87,377.57,776.57,382.64Z"/><g class="cls-34"><path class="cls-35" d="M943.82,334.46c-1.81-1.39-3.51-2.94-5.18-4.45a11.83,11.83,0,0,0-2.7-1.84c-1-.51-2-1-3-1.53-2-1-4.08-2-6.09-3.13s-3.93-2.36-5.88-3.2a9.25,9.25,0,0,0-3-.8,14.82,14.82,0,0,0-3.17.16,44.75,44.75,0,0,0-6.45,1.52,13.56,13.56,0,0,0-2.93,1.4,25.54,25.54,0,0,1-3.06,1.63,38.63,38.63,0,0,1-6.54,2.11,67.36,67.36,0,0,0,6.09-3,26.52,26.52,0,0,0,2.79-1.86,14.46,14.46,0,0,1,3.09-1.76,37.52,37.52,0,0,1,6.71-1.93,15.5,15.5,0,0,1,3.62-.24,11.23,11.23,0,0,1,3.6.92,65.45,65.45,0,0,1,6,3.39c1.92,1.18,3.91,2.24,5.87,3.41,1,.57,2,1.13,3,1.77a12.78,12.78,0,0,1,2.72,2.26Z"/></g><g class="cls-34"><path class="cls-35" d="M1026.8,372.5a40.79,40.79,0,0,1,.87-12.31c.39-2,.91-4,1.31-6a20.76,20.76,0,0,0,.62-5.78,6.68,6.68,0,0,0-2.25-4.73,10.64,10.64,0,0,0-1.09-.9l-1.25-.91c-.83-.61-1.65-1.25-2.44-1.91s-1.59-1.32-2.35-2a14.46,14.46,0,0,0-2.37-1.77,22,22,0,0,0-5.75-1.76,17.37,17.37,0,0,1,6.18.88,33.58,33.58,0,0,1,5.23,3.39l2.51,1.72,1.27.83a13.48,13.48,0,0,1,1.32,1,8.61,8.61,0,0,1,2.11,2.69,9,9,0,0,1,.88,3.3,21.65,21.65,0,0,1-.78,6.35c-.52,2-1.08,4-1.64,5.93A69.65,69.65,0,0,0,1026.8,372.5Z"/></g><g class="cls-34"><path class="cls-35" d="M979.69,345.19c-.8,3.2-1.16,6.63.36,9.54a8.54,8.54,0,0,1,.81,2.5,4.4,4.4,0,0,1-.09,1.41l-.16.69-.28.61-.28.62a6.26,6.26,0,0,1-.34.55c-.24.36-.46.74-.71,1.09-.54.66-1,1.36-1.6,2l-1.7,1.87-1.77,1.78c-1.16,1.19-2.34,2.31-3.44,3.52a35.74,35.74,0,0,0-3.1,3.7,8.66,8.66,0,0,0-.64,1,8.25,8.25,0,0,0-.55,1c-.17.33-.3.69-.45,1.07-.09.21-.15.4-.26.64a3.39,3.39,0,0,1-.44.72,4.5,4.5,0,0,1-1.22,1,12.48,12.48,0,0,1-1.21.61c-.79.36-1.57.67-2.35,1-1.56.59-3.12,1.17-4.69,1.72-3.13,1.09-6.26,2.2-9.45,3.16s-6.41,1.83-9.66,2.54c-1.62.34-3.24.68-4.84,1.08s-3.19.86-4.79,1.31a81.17,81.17,0,0,1,9.39-3.34c3.17-.93,6.3-2,9.41-3.07s6.2-2.27,9.29-3.46l4.63-1.76c.76-.3,1.51-.61,2.23-.94.38-.16.67-.35,1-.52a2.93,2.93,0,0,0,.68-.55,20.71,20.71,0,0,0,.94-2.06,10.26,10.26,0,0,1,.65-1.17,9.27,9.27,0,0,1,.73-1.08,32.76,32.76,0,0,1,3.32-3.88c1.16-1.21,2.42-2.34,3.61-3.48l1.79-1.69,1.72-1.74c2.17-2.35,4.63-5,2.9-8.06-.14-.39-.25-.81-.37-1.22s-.18-.84-.27-1.26-.06-.86-.09-1.28.05-.85.06-1.28l.06-.63.12-.62.25-1.23Z"/></g><g class="cls-34"><path class="cls-35" d="M869.49,337.1a3.82,3.82,0,0,1-1.24-1.16l-1-1.33a31.35,31.35,0,0,0-2.14-2.55,16,16,0,0,0-2.42-2.17c-.42-.34-.89-.59-1.33-.89a11.58,11.58,0,0,0-1.43-.67,12.76,12.76,0,0,0-3-.79,14.25,14.25,0,0,0-3.13,0,20.41,20.41,0,0,0-6.13,1.83,38.77,38.77,0,0,0-5.72,3.2c-1.87,1.17-3.63,2.52-5.39,3.88-3.5,2.74-6.84,5.72-10.23,8.69a77.74,77.74,0,0,1,9.23-9.89,46,46,0,0,1,11.29-7.71,22.13,22.13,0,0,1,6.75-1.88,16.52,16.52,0,0,1,3.58.1,12.37,12.37,0,0,1,3.41,1.1,14.46,14.46,0,0,1,5.3,4.52,30.4,30.4,0,0,1,1.85,2.87l.82,1.47A3.74,3.74,0,0,0,869.49,337.1Z"/></g><g class="cls-34"><path class="cls-35" d="M815.26,358.85c-3.11,1.21-6.51,1.5-9.72,1.92s-6.39,1-8.93,2.68a11.15,11.15,0,0,0-.93.65l-.86.73c-.53.57-1,1.09-1.57,1.76a39.73,39.73,0,0,1-3.49,3.62c-1.23,1.14-2.57,2.12-3.75,3.19a12.51,12.51,0,0,0-2.85,3.88,10.52,10.52,0,0,1,2.13-4.55c1.09-1.31,2.28-2.44,3.37-3.63s2.14-2.42,3.12-3.71c.46-.62,1.09-1.31,1.68-1.95a13.88,13.88,0,0,1,2.07-1.67,15.65,15.65,0,0,1,4.84-2,29,29,0,0,1,5-.57C808.74,359.08,812,359.25,815.26,358.85Z"/></g><path class="cls-38" d="M834.92,395c-6,6.05-13,15.13-17.72,14.69s-3,.87,4.75.44c0,0,12.53-5.19,13-4.76s3.88-.68,0,4.85-3,7.25-9.27,10.71-14.94,7.35-18.39,8.21-8.87-3-5.52,0,9.84,5.32,11.13,4.82,3.89,1.66,9.94-1.79,16-9.87,16-9.87,5.19-9.74,5.62-6.42,4.76,8.94,0,10.24-4.32,4.32-.86,3,2.16-3.45,6.48-5.18,1.64.86,5.79-5.19a23.84,23.84,0,0,0,4.06-12.53V395s-2.07-4.86-5.53-3.08-6.48,3.08-6.48,3.08v-5.62l-4.32,2.54h-2.38Z"/><g class="cls-34"><path class="cls-35" d="M992.51,369.65a26.54,26.54,0,0,0-1.74,3.56c-.24.59-.39,1.22-.68,1.91A8.6,8.6,0,0,1,989,377a43.5,43.5,0,0,1-5.92,5.56c-2.08,1.66-3.95,3.4-6.11,5.14a7.34,7.34,0,0,1-1.92,1.08,10.46,10.46,0,0,1-2.07.43,34.21,34.21,0,0,1-4,.17c1.28-.42,2.59-.74,3.84-1.13a10.21,10.21,0,0,0,1.76-.68,6.51,6.51,0,0,0,1.43-1.07l2.81-2.8c1-.92,2-1.82,3-2.68l3.09-2.5a36.43,36.43,0,0,0,2.93-2.55,8.07,8.07,0,0,0,1.15-1.41c.32-.5.6-1.14,1-1.74A15,15,0,0,1,992.51,369.65Z"/></g><g class="cls-34"><path class="cls-35" d="M794.72,436c.2.44.46.85.66,1.3s.35.92.5,1.4a13.18,13.18,0,0,1,.48,2.94,18,18,0,0,1-.75,5.92,23,23,0,0,1-1,2.82L794,451.7l-.68,1.32c-.91,1.76-1.93,3.4-2.94,5.07a77,77,0,0,1-7,9.41,43.93,43.93,0,0,1-4.14,4.16,18.2,18.2,0,0,1-4.9,3.21,23.68,23.68,0,0,0,4.21-3.91c1.28-1.42,2.46-2.93,3.62-4.45,2.29-3.06,4.44-6.24,6.48-9.49,1-1.61,2-3.26,3-4.9a33.89,33.89,0,0,0,2.43-5.09A16.4,16.4,0,0,0,794.72,436Z"/></g><g class="cls-34"><path class="cls-35" d="M767.07,492.63c.39,2,1.59,3.69,2.12,5.8a12,12,0,0,1-.31,6.36,36.92,36.92,0,0,1-2.34,5.81c-.9,1.86-1.94,3.64-2.75,5.43a10.21,10.21,0,0,0-1.2,5.42,13.17,13.17,0,0,0,.5,2.81l.93,2.91a21.27,21.27,0,0,1,.88,6.23c0,1-.11,2.07-.16,3.08a5.09,5.09,0,0,0,.5,2.92,5,5,0,0,1-1.06-2.91c-.11-1-.14-2-.26-3a24.24,24.24,0,0,0-1.38-5.78l-.56-1.39-.56-1.48a15.16,15.16,0,0,1-.72-3.18,12,12,0,0,1,1.27-6.42c.92-1.91,1.95-3.66,2.89-5.45a45,45,0,0,0,2.54-5.42c.17-.47.31-.93.46-1.4s.24-.95.3-1.42a8.76,8.76,0,0,0,.07-2.89C768,496.69,767,494.72,767.07,492.63Z"/></g><g class="cls-34"><path class="cls-35" d="M1041.06,399.72c1.36,4.24,2.08,8.64,3.13,12.9.51,2.13,1.09,4.28,1.51,6.5.22,1.11.32,2.24.59,3.16a17.2,17.2,0,0,0,1.22,2.89c1,2,2,3.93,3,5.86a60.16,60.16,0,0,0,3.28,5.64,11.24,11.24,0,0,0,4.59,4.2,21.54,21.54,0,0,1,3,1.63,3.34,3.34,0,0,1,1.12,1.35,3.68,3.68,0,0,1,.2,1.67,3.61,3.61,0,0,0-.47-1.54,3.06,3.06,0,0,0-1.15-1,22.85,22.85,0,0,0-3-1.18,10.23,10.23,0,0,1-3.06-1.69,14.92,14.92,0,0,1-2.4-2.5,75.82,75.82,0,0,1-6.84-11.54,19.84,19.84,0,0,1-1.3-3.25,30.84,30.84,0,0,1-.57-3.37c-.3-2.14-.83-4.28-1.18-6.5C1041.89,408.53,1041.61,404.12,1041.06,399.72Z"/></g><g class="cls-34"><path class="cls-35" d="M988.77,397.77c-.24,2.33-.81,4.6-1.21,6.88s-.85,4.56-1.17,6.84a56.29,56.29,0,0,0-.55,6.82c0,2.28.07,4.59.26,6.87A56.37,56.37,0,0,0,987,432a22.67,22.67,0,0,0,2.1,6.33,67.16,67.16,0,0,0,4,5.58c.69.93,1.4,1.86,2.08,2.81a13.15,13.15,0,0,1,1.79,3,7,7,0,0,0-1-1.39c-.38-.43-.78-.86-1.18-1.28l-2.4-2.52a50.4,50.4,0,0,1-4.59-5.4,21.91,21.91,0,0,1-2.62-6.75,52.37,52.37,0,0,1-1-7c-.15-2.36-.24-4.7-.16-7.07a44.45,44.45,0,0,1,.91-7c.46-2.31,1.07-4.58,1.75-6.81S988.1,400,988.77,397.77Z"/></g><g class="cls-34"><path class="cls-35" d="M839.24,363.41a10.6,10.6,0,0,1-2.92,1.91,14.89,14.89,0,0,0-2.78,1.91,22.27,22.27,0,0,0-4.23,5.22,61.69,61.69,0,0,0-3.14,6.05c-1,2.08-1.89,4.18-2.76,6.31s-1.74,4.26-2.8,6.41a12.48,12.48,0,0,1-2.12,3.08,4.63,4.63,0,0,1-.8.65,3.42,3.42,0,0,1-.93.48c-.16.06-.32.13-.49.18l-.51.08c-.37.06-.63.09-.89.11a37.91,37.91,0,0,0-6.58,1.64c-2.19.7-4.36,1.49-6.55,2.28a64.82,64.82,0,0,1,6.2-3.2,31.17,31.17,0,0,1,6.71-2.26c.32-.05.62-.11.82-.16l.35-.08.31-.14a2.2,2.2,0,0,0,.59-.34,3.25,3.25,0,0,0,.52-.47,10.68,10.68,0,0,0,1.67-2.69c.94-2,1.77-4.2,2.65-6.35A70.66,70.66,0,0,1,828,371.59a21.07,21.07,0,0,1,4.92-5.14,14.5,14.5,0,0,1,3.15-1.63A12.28,12.28,0,0,0,839.24,363.41Z"/></g><path class="cls-10" d="M902.77,357.19c-1.14-.42-7,2.81-3.89,2.82s.16,2.11.32,3.4-1.05,4.22,1.18,3.41,3-3.05,3.68-4.77,3.57-4,3.57-4-.81-5.85-1.14-4.55-3.64,3.09-3.68,2.92S902.77,357.19,902.77,357.19Z"/><path class="cls-39" d="M922.37,351.74c0,2.92-2.43,4.38,0,4.7s3.08,1.14,3.08-.64.33-1,0-2.47a2.7,2.7,0,0,0-2-1.78Z"/><path class="cls-10" d="M984.88,349.8a10.62,10.62,0,0,1-2.22,3.68c-.48.37-.16,2.5,0,3.71s-.47,3,1,1-.76-2.44,1.24-3.33a3.43,3.43,0,0,0,2.16-3.35c0-.78-2.16-2.4-2.16-2.4Z"/><path class="cls-38" d="M927.83,422.26s6.26.43,6.8,1.47S938.42,435,939.07,436s1.08,5.9,1.08,5.9,1.51-3.17,2.59-5.9,2-6.63,3.46-8.36,2.81-4.39,4.1-5.33,3.46-3.1,4.76-3.1,4.75-.86,5-1.51a29.29,29.29,0,0,0,0-4.32,53.29,53.29,0,0,1-7.35,2.51,46.2,46.2,0,0,1-8.7,1.81c-2.54.22-7.51-.65-9.35-.65s-12.31,4.39-13.34,4.46-1.78,1.23,0,2.27S927.83,422.26,927.83,422.26Z"/><path class="cls-38" d="M1042.35,354.23c-.21,1.62,2.17,2.13-1.29,3s-5.62-.3-6.27-.28-1.94.4-1.94,3.23-2.26,5.82-2.21,6.82-3.51,2.23,0,3.88,2.86,2.51,6.31,4.24-.43,3.68,4.11,3,6.7-3.46,9.51-1.95,3.67-.21,5,4.54.86,7.78,2.16,7.78,3.45-4.11,3.45-4.11.44-1.29,2.81,3,1.52,2.16,4.76,8,4.07,1.3,4.52,8.86,1.1,8.54,4.23,7.94,3.78-4.7,4.43-3.4.86,6,1.94,9.08,4.32-10.37.87-15.24-2-7.13-3.89-10.75-3.68-7.72-4.11-10.75,4.11-2.37-1.51-5.83-5.84-4.09-7.68-5-3.12-1.57-4-3.38-2.59-6.82-2.59-6.82a20.07,20.07,0,0,0-3.26-1.05c-1.28-.21-3,.81-3.87-.24s-2.16-4.25-3.24-4-3.46-.78-3.46-.78a2.64,2.64,0,0,1-2.38-.79C1043.54,352.21,1042.35,354.23,1042.35,354.23Z"/><path class="cls-38" d="M951.55,323.55s-6.94-22.53-28.1-21.4c0,0-1.18-1-4.69,0a75.41,75.41,0,0,1-7.73,1.83c-1.78.32-3.73.64-5.19,2.27s-3.07,3.4-4.37,4.7-6.48,5.34-1.62,3.24,7-4.06,7.78-2.76-2.27,5.19,0,4.21,4.37-3.23,6-3a14.39,14.39,0,0,1,6.22,2c2.7,1.62,8,2.6,9.34,3.08s2.92-1.94,4.05-1.94,3.08,1.41,2.92,2.73-2.22,2-1.52,2.29.39,0,4.44,3.57,4.53,3.08,5.51,4.7,1.94,2.1,1.78,4.37-2.92,3.73-3.24,5-1.46.22-.49,3.59,2.76,11.26,2.6,9.5-3.25-10.93,1.78-9.5,5.36,7.43,6.57,2.08-2-10,2.45-8.26,4.27,2.91,6.7,2.42,5.51-3.56,7.29-4.7,7.62-7.26,7.62-7.26-.33,1.59-5.35,2.73-10.37,2.75-12.48,2.1-2.86-1.62-3.78-1.94S951.55,323.55,951.55,323.55Z"/><path class="cls-38" d="M847.88,375.8s3.46.88,3.89,0,5-4,5-4,7.13-3.42,7.78-4.85-.81-1.76,2.59-6.14,5-7,7.29-9,2.44-3.95,4.54-4.28,4.86-2.08,7.13-2.34,7.94-3.11,8.59-3.14,5.35-1.49,5.35-1.49l4-1.78-1.25-1.68s-19.26,0-28.21,10.23-9.43,7.57-9.43,7.57-1.62,1.08-1.79,2.29a14.69,14.69,0,0,1-1.62,3.63s-2.1,2.59-2.59,3.4-3.34,5.43-3.34,5.43a5.15,5.15,0,0,0-2.89,2.16,14,14,0,0,1-3.49,3.27Z"/><path class="cls-38" d="M802.72,474.87c2.16-.61,3.89-1.25,6.27,1.12s4.53,3.89,3.67,6.48-3,3.14-4.87,5.57-5.07,5-5.07,5.67-3.46,3.24-3,3.89,2,2.77,2,2.77l3.36-4.93s1.51-2.81,2.8-2.81,3-1.08,3.89,0a38.58,38.58,0,0,1,2.6,4.75l1.08,4.76a5.23,5.23,0,0,0,0,2.81c.43,1.51-.43,2.59,0,3.67l.43,1.08s-.22-.21,1.94-3.24,1.09-2.59,3-4.32,1.51-5.4,2.59-7.78,1.3-8.21,1.95-10.37.86-5.84,1.73-7.57a67.83,67.83,0,0,0,3.15-7.56c1-2.81.32-4.54,2.15-6.91s.75-1.73,2.91-3.89,2.59-6.7,2.59-6.7-1.08-8-2.16-5.62-6,3.89-5.49,7.13-1.64,4.64-5.1,2.54-7.78-5.64-9.94-5.71-6.48,2.74-8.43,1.66-3.45-7.35-3,0,.65,6.48,1.51,10.59,4.32,1.94.87,4.1-5.2,2.16-4.44,3.46S802.72,474.87,802.72,474.87Z"/><g class="cls-34"><path class="cls-35" d="M904.93,337.1c-6.16.82-12.44,1.23-18,3.66a41.6,41.6,0,0,0-7.92,4.49,82.14,82.14,0,0,0-7.16,5.74,57.92,57.92,0,0,0-6.31,6.61,65.36,65.36,0,0,0-5.19,7.58,21.1,21.1,0,0,1-2.85,3.86,6.14,6.14,0,0,1-.94.82c-.33.27-.65.48-1,.7l-1.9,1.32c-2.57,1.74-5.06,3.6-7.6,5.4,2.26-2.15,4.63-4.16,7-6.18a35.84,35.84,0,0,0,3.46-3,21.49,21.49,0,0,0,2.46-3.75,50.69,50.69,0,0,1,11.5-14.88,76.27,76.27,0,0,1,7.44-5.82,39.08,39.08,0,0,1,8.41-4.38,34.72,34.72,0,0,1,9.24-2C898.71,337.14,901.81,337.1,904.93,337.1Z"/></g><path class="cls-38" d="M873.43,390.64s0,.54,3.41,1.24,7.34-1.46,9.94-2.54,4.53-3.49,6.69-3.69,5.41-2.36,8.21-3,6.3-.43,8.12-4.32,2.91-6.53,3.77-8.67,2.59-6.67,2.81-7.53,0-7.89,0-7.89l.09-2.42s-11.46,21.37-13.66,22.1S874.81,391.15,873.43,390.64Z"/><g class="cls-34"><path class="cls-35" d="M918.76,349.8a5,5,0,0,0-1.58,1.39,13.08,13.08,0,0,0-1.18,1.75c-.71,1.22-1.29,2.52-1.88,3.81-1.19,2.59-2.32,5.22-3.67,7.78a39.57,39.57,0,0,1-2.18,3.77c-.8,1.24-1.69,2.4-2.55,3.52a46.69,46.69,0,0,1-5.8,6.55,15.79,15.79,0,0,1-3.87,2.39c-.68.3-1.38.56-2.07.8s-1.31.48-2,.73c-2.64,1-5.26,2.15-7.9,3.22-5.27,2.19-10.55,4.38-15.92,6.37,5-2.7,10.11-5.36,15.28-7.8,2.58-1.24,5.18-2.42,7.84-3.55.66-.28,1.34-.54,2-.79s1.29-.48,1.91-.77a13.44,13.44,0,0,0,3.37-2.13,47.81,47.81,0,0,0,5.61-6.19c.91-1.12,1.8-2.19,2.59-3.33s1.54-2.33,2.27-3.55c1.43-2.43,2.74-5,4.15-7.46a42.42,42.42,0,0,1,2.31-3.66A7.65,7.65,0,0,1,918.76,349.8Z"/></g><path class="cls-38" d="M733.4,505.17s2.91,1.94,2.73,3.67.18,5.27,0,7.17.18,3.2,0,5.58-.57,5.18,0,6.91-.41,3.46,0,5.83-.21,2.13.21,5.07a44.33,44.33,0,0,0,1.94,7c.43,1.51.21,2.59,1.08,4.32a24,24,0,0,0,3,4.1s1.3,3.89,0,3.46L738.2,557s-1.34-4.31-2.52-7.53a65.07,65.07,0,0,1-2.11-8s-.74-8.45-.71-10,.71-7.13.71-9.29-.43-6.05,0-7.34-.18-5-.09-5.19S733.4,505.17,733.4,505.17Z"/><g class="cls-34"><path class="cls-35" d="M739.41,554.86a9,9,0,0,0-1.15-1.24c-.41-.4-.8-.81-1.18-1.25a15.79,15.79,0,0,1-1.94-2.88A24.06,24.06,0,0,1,733,542.9a33.09,33.09,0,0,1-.48-3.42l-.32-3.39c-.1-1.13-.18-2.26-.24-3.4a20.23,20.23,0,0,1,0-3.56,59.63,59.63,0,0,0,.57-6.66c.12-2.25.14-4.5.22-6.76.14-4.51.24-9,.6-13.57.47,4.51.8,9,1,13.56.11,2.27.12,4.54.12,6.82a58,58,0,0,1-.48,6.85,18.16,18.16,0,0,0-.08,3.23l.17,3.36c.12,2.27.2,4.51.46,6.7a26.77,26.77,0,0,0,1.52,6.43,16.66,16.66,0,0,0,1.49,2.95C738.09,553,738.9,553.83,739.41,554.86Z"/></g><path class="cls-38" d="M767.77,549c.48.33-18.73-7.94-24.76,15.72l-1,3.73s-1.3-.16-1-3.56a28.94,28.94,0,0,1,1.4-6.54c.47-1.68,1.19-5.78,2.16-7.89s1.46-4.7,3.89-5.18a63.84,63.84,0,0,1,8.11-1.46c2.59-.16,9.56-1.46,10.37-1s2.1,3.08,2.75,3.72.56-1.29,1.34-.64-2.16,3.24-2.16,3.24Z"/><path class="cls-38" d="M907.63,391c.76-.29-1.6,1.22,2.17.84s4,.27,6.67-1.24,3.15-3.08,8.12-4.13,10.16-4.51,11.88-4.95a17.36,17.36,0,0,0,7.35-4.28c2.38-2.41,3,.12,6.7-5.47s4.11-4,4.32-6.41-1.3-2.69,0-5.26a19.39,19.39,0,0,0,1.44-6.66V349.8s-1.38,3.68-1.52,4.43-4.24,9.18-4.24,9.18.86-1-1.3,2-9.05,5.69-9.05,5.69-3.06,3.41-5.54,4.35-3.32,2.43-6.35,4.06a72.34,72.34,0,0,0-8.44,6.15s-3.68,2-5.41,2.83S907.63,391,907.63,391Z"/><g class="cls-34"><path class="cls-35" d="M904.93,391.88c5.38-1.66,9.58-5.37,14.37-8.28,2.35-1.51,4.81-2.88,7.24-4.24l3.64-2a17.88,17.88,0,0,0,3.29-2.25c2.16-1.77,4.39-3.49,6.63-5.14s4.5-3.25,6.66-5a26.92,26.92,0,0,0,3-2.74,12.78,12.78,0,0,0,2.17-3.35,42.61,42.61,0,0,1,4.36-7.17,52.64,52.64,0,0,0-3.46,7.57,13.77,13.77,0,0,1-2.07,3.79,24.25,24.25,0,0,1-3,3.09c-4.24,3.75-8.82,6.86-13,10.45a19.63,19.63,0,0,1-3.61,2.42c-1.24.67-2.46,1.32-3.7,2-2.48,1.27-4.91,2.57-7.33,3.92s-4.8,2.78-7.27,4.11A26.6,26.6,0,0,1,904.93,391.88Z"/></g><path class="cls-10" d="M1068.72,453.09a19.65,19.65,0,0,0,0,9.51c1.29,5.18,1.94,6.48,6.48,14.26s7.45,11,9.07,14.58,1.38,5.51,2,1.62,5.23-6.8,0-10.69-6.8-3.89-7.31-9.73-1.59-16.31-1.59-16.31l-2.81-6.63Z"/><path class="cls-40" d="M801,646.1s1.3,4.33,2.43,6.92,3.69,5.83,4.44,8.1,2.37,3.57,2.69,6-.65,5.51,0,7.29,1.14,8.43,1.14,8.43-3.89-12.16-5.35-14.1-2.92-6.16-4.05-8.59a66.28,66.28,0,0,0-4.39-7.78,31.47,31.47,0,0,1-2.26-3.57c-.32-.64-1.46-2.7-1.46-2.7S799.53,647.44,801,646.1Z"/></g><g id="sading"><path class="cls-41" d="M1038.47,508.62l7.36-5.69s2.49-1.41,4.1-.45c0,0,12.71,2.26,15.1,3.91l3.11,1.18.74-1.14s4.37-4.4,4.37-5.48a15,15,0,0,1,0-4.65,21,21,0,0,0,0-7.45c-.43-2.16-1.77-6.22-1.77-6.22a12.24,12.24,0,0,0-1.79-2.75c-1.08-1.19-5.08-3-5.08-3l-4.21-1.08s-5.51-1.6-8.11-.91-5.07,1.45-7.13,2-1.5.43-3.5,1.62a8.12,8.12,0,0,0-3.46,3.13c-1.14,1.62-.71,1.3-1.9,3.78a46.07,46.07,0,0,0-1.94,4.76,22.46,22.46,0,0,0-1.3,3.78c-.32,1.51.44,3.35,0,4.64a9.89,9.89,0,0,0-.65,3.78,7.41,7.41,0,0,0,1.1,4.33c.74,1,1.19,2.06,1.71,1.94a6.35,6.35,0,0,1,1.52,0Z"/><path class="cls-2" d="M1043.71,460.09c-.92-.95-3.52-4.63-8.49-1.6s-9.07,5.83-9.94,7.67-3,6.08-3,8.71.43,8.25,0,8.9,0,5,0,6.7,3.66,10.17,4.32,11,6.88,8.19,6.88,8.19l2.46,2.79s-.05-7.76-1.34-10.12a7,7,0,0,1-.51-4.93,18.25,18.25,0,0,0,2.88-3c.43-.9,1.08.18,2.38-4.15s1.3-6.67,3.24-8.63,3.35-3,5.24-3.47,13.28-1.29,13.28-1.29l5,3.45s1.08-.4,3.68,1.31a42.23,42.23,0,0,0,6.52,3.27,3.57,3.57,0,0,0,2.11,0s-2.74-4.47-3.07-5.12a33,33,0,0,0-1.75-3.42c-.39-.43-3.43-2.52-3.43-2.52s-3.07-4.27-5.73-5a52.58,52.58,0,0,0-7.19-1.55c-.86,0-7.82.22-7.82.22l-4.38.42-6.86-.39-4.65-1.39,7.51-4.54Z"/><path class="cls-42" d="M922.21,770.19c.33-2.92,2.92-10.37,4.54-11.67s11-8.75,13.29-8.75,6.85.32,12.64,0,18.8,5.19,20.42,5.83,1.45,1.29,5.1,4.37,6.8,7,7.69,10.22,3.62,8.1,1.25,14.91,2.17,8.75-6.91,13.94-10.37,6.36-17.83,4.8-9.07-1.89-15.23-5.13-12-6.16-15.56-8.43-5.83-.64-9.4-4.86-5.51-1.24-6.16-6.78S922.21,770.19,922.21,770.19Z"/><path class="cls-2" d="M842.8,643.13c3.57,5.84,16.86,25,21.72,30.15s15.23,17.5,23.34,22.68,28.19,14.27,32.73,15.89,21.39,3.56,27.88,5.83,8.75-.32,9.72,4.21,2.27,10.38,0,12.65-3.16,1.62-2.55,6.8S963.38,749,967.91,753s12.21,7.82,15.35,10.41,2,7.13,3.53,10-2.45,5.51-3.53,5.19-21.5-11.67-24.42-13.29-22.69-13.62-25-15.56-19.12-20.42-20.74-21.39-11.67-6.16-12.64-6.16-9.4,1.3-11.67.32-7.46-4.21-7.46-4.21l-10-1-5.19-1s-2.27-7.77-5.19-11S846,684.3,842.8,681.05s-10.36-12.64-10.36-12.64l-6.17-4.53s-1.62-6.16,0-6.16,4.86-2,4.86-3.24-5.58-9.73-5.58-9.73.07-4.21,2.34-5.83-6.8-7.6-6.48-16.93,2.59-16.13,3.89-14.84-.65-3.22,5.83,13.14S835,634.06,835,634.06Z"/><path class="cls-2" d="M1032.71,636.56c2.49,1.52,3,1.19,4.76,2.6a21.68,21.68,0,0,0,4,3c1.52.76,2.81.87,5.3,2s4.43,1.18,5.94,3a26.18,26.18,0,0,1,4.21,7.78,18.65,18.65,0,0,0,1.89,5.08c1.25,2.59.36,5.83,1.45,9.72s3.69,11,3.47,14,0,8-1.51,10.37-2,2.81-7.57,5.62-6.05,3.67-12.1,6.05-7.78,3.24-13.83,4.53-8.21,1.3-11.88,3a30.33,30.33,0,0,0-7.78,5.19c-1.94,1.72-4.54,1.94-6.91,2.81S992,724,989.6,724.4s-9.29-1.08-9.29-1.08c-7.34-.43-22.19-2.94-22.19-2.94a17.56,17.56,0,0,0-4.82,6c-1.73,3.68-2.16,2.17-2.16,8.22s-5.19,6.69,2,11.88,5.52,1.64,11.73,6.87,9.87,7,10.95,8.26,9.3,12.53,9.3,13.61,3.24,8,4.53,9.51,1.73,2.81,4.54,6,3,6.48,8.21,8.21,5.84-.43,13.18,2.16,12.1,2.59,19,6,11,4.54,16,9.08,11.88,14.69,12.32,17.28,1.08,11,2.16,15.13,3.45,16.64,4.1,16.42,3-.22,3.68-9.72,0-13.4,1.72-19.67,3.46-11.45,4.54-11.45,16.21,3.46,17.72,4.32a6.73,6.73,0,0,0,3,.87s2.59-6.49-1.73-9.94-19-7.78-19-7.78-16.42-7.57-17.93-11-5.84-14.48-6.05-16.86-2.6-15.77-3-16.85-3.89-20.53-3.89-23.77-.43-8,1.3-8.43,5-.43,5.83-.86,5.19-3.46,5.19-3.46,6-6.27,7.35-7.13,6.26-6.05,7.77-9.08a70.43,70.43,0,0,0,4.54-12.31c.65-3,1.3-7.57,3.89-12.1s4.54-11.24,5.4-14.91.87-10.81,1.3-14.26,1.08-5.84,1.51-10.16a88.17,88.17,0,0,1,1.52-11.67c1.08-5.18,2.16-11.67,2.37-14s.65-4.45-.43-5c0,0-2.81-4.13-4.86-4.63s-4.43-1.36-5.4-2.44-2.38-1.63-3.35-2.49-3.78-2.92-4.65-3a7.52,7.52,0,0,0-1.7,0l.45,2.12.66,1.82s-.06,2.54-.38,2.81-.16,1.19-.16,1.94a18.11,18.11,0,0,1-.22,1.89,23.08,23.08,0,0,1-1.57,3.57,9,9,0,0,0-.7,1.73s-2.43,4.54-2.59,5.72-5.3,2-5.3,2-4.26.7-4.64.6l-2.49-.67-2.83-1-2.41,0-4.26-.65-4.11-.06-3.89.65-4.81.7s-5.29.44-5.51.38-2.91.81-3.4.6l-4,.16c-.22,0-1.68-.27-.16,1s2.86,1.94,3,2.75.06.92,1.14,1.13a9.44,9.44,0,0,0,2.54.38A17.43,17.43,0,0,0,1032.71,636.56Z"/><g class="cls-43"><path d="M877.48,860.62c1.65,4.71,3.54,9.33,5.38,14l5.47,13.92,10.89,27.88,10.88,27.87c1.83,4.63,3.67,9.27,5.57,13.88.94,2.31,1.9,4.61,2.91,6.88.52,1.13,1,2.27,1.6,3.38.28.55.56,1.1.87,1.64a4.28,4.28,0,0,0,1.16,1.43,4.14,4.14,0,0,1-1.28-1.35c-.36-.51-.69-1-1-1.58-.63-1.08-1.22-2.18-1.8-3.29-1.16-2.22-2.26-4.46-3.34-6.72q-3.18-6.78-6.12-13.68c-3.94-9.17-7.66-18.44-11.29-27.74s-7.13-18.65-10.48-28.05q-2.53-7-4.94-14.14l-2.33-7.12C878.85,865.42,878.05,863.06,877.48,860.62Z"/></g><path class="cls-6" d="M815.47,689.27c1.73,3,2.36,12.53,5.93,23.33s5.3,19,8.33,29.39a250.23,250.23,0,0,0,9.07,27.23c4.76,12.1,5.19,14.26,8.65,27.22s13.83,30.69,9.07,29.82-8.21-.86-13.83-9.07-2.66-15.13-6.08-10.37-5.15,13.89-5.15,19.47a183.29,183.29,0,0,0,1.73,25.9c1.73,14.26,3.82,10.81,3.42,21.18s-1.26,5.18-4.72,16-3.69,44.08-10.49,21.17-3.34-21.6-5.93-31.11-8.21-12.1-10.37-10.81-11.24,6.06-16.43,9.94-15.55,4.76-15.55,4.76,25.06-17.72,29.38-22.69,14.7-16.21,16-18.8,2.91-38,2.91-38V728.59s-3.84-24.2-6-27.66S815.47,689.27,815.47,689.27Z"/><path class="cls-44" d="M946,966.28c.43-12.53-1.29-20.74,0-32.84s-.62-21.46,2.72-27.59-.56-20,11.54-29.89,19-10.37,21.61-20.31,5-14.26,5.29-19,2.92-12.53,7.24-13.39,10.81-2.6,10.81-2.6l3.69,11.51s-2-.27-3.69,4.92-2.16,6.91-3.89,13,.43,9.94-5.62,17.29-3.89,10.37-12.53,12.1-10.37.43-15.56,3-11.31,5.62-11.31,5.62-3.82,8.21-3.82,10.81Z"/><path class="cls-44" d="M917.89,763.17c4.75,2.84-3,11.66,13,18.58s19.88,10.37,27.65,10.37,19.45-3.46,21.18-4.75,7.35-5.76,9.29-3,4.11,5.62,2.38,11.24,2.59,9.94-8.64,12.1-20.5,2.16-34,2.16-36.43-2.5-38.16-6-3.47-12.15-6.27-17.34-8.85-13.83-8.85-19,3.67-11.33,4.43-14.52,7.24-10.55,9-10.55h15.55S913.57,760.57,917.89,763.17Z"/><path class="cls-45" d="M1018.48,499.11c-.91.37-3.24,1.89-2,6.43s1.46,6.48,4.22,11.18,7.29,9.89,8.75,10.7,10.68,3.73,11.42,3.24,1.21-3.24,0-5.35-4.62-5.18-5.91-6.48-8.59-10.05-8.59-10.05-3.57-5.83-4.05-7.13S1019.41,498.74,1018.48,499.11Z"/><path class="cls-46" d="M904.27,509.7c-.53,1.84-6.37,11.45-6.69,16.86s0,11-2.59,16.15-9.08,9.27-10.38,11.41-2.91,2.89-2.26,9.49-.65,12,3.56,14.81,4.54-2.38,10.37,3.78,6.9,9.07,8,13.77-.83,14,5.48,18.29,7.17,10.48,16.14,5.25,8.2-4.25,12.47-11.87-.27-10.21,6.54-11.67,6.87-1,11.38-2.5-6.63-1.64,12.22-3.86,19.06.69,18.64-5.14,9.19-5.53-2.26-9.73-9.51-6.48-18.59-3.89-8.1,4.86-13.61,1.46-9.4.36-9.72-6.71,2.59-10-1.62-13.89-7.13-10.06-10.7-12.31-3.77-1.18-4.8-8.68-1.89-9.78,0-11.4,3.3-6.81,0-7.78-5.25-.43-7.52-1.84-5.8-3-8.57-3S904.27,509.7,904.27,509.7Z"/><path class="cls-47" d="M1083.62,611.33c1.2,1,8.22,8.57,8.87,8.57s2.59-1.15,2.59-2.63,1.73-3.85,1.73-7.09-1.3-5.19,0-8.64,3.49-12.32,3.15-15.35.55-12.1,0-12.74-1.21-5.5-1.64-6.75a29.29,29.29,0,0,0-1.94-4.71,31.4,31.4,0,0,1-2.38-4.75,81.18,81.18,0,0,0-3.67-8.75c-1.95-4-1.95-5.46-3.46-7s-2-2.83-3.25-3.91-2.37-2.81-3.23-3.46-2.38-5.51-2.38-3.4.43,5.78,0,7.94-2.38-1.3,0,6.48,1.73,7.78,3.89,12.53,3,7.25,4.32,9,3.24,3.72,3.46,6.75,2.32,3,1.7,7.13-.41,4.53-1.27,7.78-.42,1.5-1.61,5.61a38.08,38.08,0,0,0-1.42,7.13l-1.08,2.6A76.39,76.39,0,0,0,1083.62,611.33Z"/><path class="cls-48" d="M1002.6,663.51c8.64-2.33,12.08-2.33,15.55-4.06s9.31,1.29,9.2-6.05,4.2-16.7-6.6-11.38-10.38,2.83-16.86,4.08-20.31-2.48-21.61-4.08-4.65-7.65-13.78-5.7-18.43,7.57-24.8,8-7.33-1.73-17.86.43-7,4.32-16.09,5-22.11.19-22.11.19-6,2.62,0,5.22,11.8,4.32,22.11,6,16.78,2.5,24.56,2.33,1.11-4.39,14.39,1,17.65,6.21,28.86,7.51,13.15-.86,17.8-3A21.63,21.63,0,0,0,1002.6,663.51Z"/><path class="cls-49" d="M792.56,1003.23c.82-5.28-11-16.2-4.53-20.74s6.48,0,20.09,0,24.63,5.69,33.71-2,4.54.08,13-14.19,6.49-18.15,10.38-24,17.5-29.82,19.44-20.74,9.08,27.87,15.24,34.35,8,10.37,16.16,15.56,10.09,6.48,16.57,5.19,19.45-2,26.58-15.28,7.13-11.3,7.13-18.43,7.53-24.15,10.9-23.42,6.81,4.62,9.95,16.29,1.84,10.37,8.32,18.8,18.16,13.61,24.64,16.85,13.61-.65,21.39,2.59,17.5-16.2,11.67,5.19-5.84,23.34-15.56,30.47-14.91,18.8-18.15,27.87-14,23.34-10.57,26.58,4.09,15.56,4.09,15.56H825S791.27,1011.66,792.56,1003.23Z"/><path class="cls-50" d="M889.8,872.5c-2.59-6.91-12.32-21.6-12.32-21.6s-6.69-9.51-9.29-16.43-8.64-20.74-9.85-24.63S838.8,755,837.94,749.76s-16.54-37.16-14-42.34-3.26-25.07-5.11-28.53,24.33,17.29,26.06,19.88S863,722.11,863,722.11s23.33,15.56,21.94,27.65,0,16.43,0,16.43,22.14,45.81,24.8,48.4,12,13,12.46,16.43c0,0,1.73,9.5,0,16s-.3,11.67-6.2,19.88S906.65,876,902.33,876,889.8,872.5,889.8,872.5Z"/></g></svg>