<svg width="307" height="93" viewBox="0 0 307 93" fill="none" xmlns="http://www.w3.org/2000/svg">
<g clip-path="url(#clip0_1308_19)">
<rect width="307" height="93" rx="24" fill="#F8FFEA"/>
<g clip-path="url(#clip1_1308_19)">
<path d="M141.284 45.989L123.095 84.6573C114.305 103.344 92.0315 111.367 73.345 102.577C54.6586 93.7871 46.6357 71.5133 55.4255 52.8268L73.6144 14.1585L141.284 45.989Z" fill="#E64A19"/>
<path d="M206.68 82.6531L190.765 116.488C181.975 135.174 159.701 143.197 141.015 134.407C122.328 125.618 114.305 103.344 123.095 84.6574L139.01 50.8226L206.68 82.6531Z" fill="#7C4DFF"/>
<path d="M258.434 148.318C249.645 167.005 227.371 175.028 208.684 166.238C189.998 157.448 181.975 135.174 190.765 116.488L206.68 82.6532L240.515 98.5684C259.201 107.358 267.224 129.632 258.434 148.318Z" fill="#66BB6A"/>
<path d="M154.926 16.9879L139.01 50.8227L71.3408 18.9922L87.2561 -14.8426C96.0458 -33.5291 118.32 -41.5519 137.006 -32.7621C155.693 -23.9724 163.715 -1.69857 154.926 16.9879Z" fill="#FF7043"/>
<path d="M222.595 48.8185C231.385 30.132 223.362 7.85818 204.676 -0.931574C185.989 -9.72132 163.715 -1.69847 154.926 16.988C146.136 35.6744 154.159 57.9483 172.845 66.738C191.532 75.5278 213.805 67.5049 222.595 48.8185Z" fill="#29B6F6"/>
</g>
</g>
<defs>
<clipPath id="clip0_1308_19">
<rect width="307" height="93" rx="24" fill="white"/>
</clipPath>
<clipPath id="clip1_1308_19">
<rect width="256.396" height="256.396" fill="white" transform="translate(0 133.01) rotate(-64.8086)"/>
</clipPath>
</defs>
</svg>
