<svg width="29" height="36" viewBox="0 0 29 36" fill="none" xmlns="http://www.w3.org/2000/svg">
<path d="M7.25391 7.99707V22.0107H14.2607C15.221 22.0107 16.1243 21.8317 16.9707 21.4736C17.8171 21.0993 18.5576 20.5947 19.1924 19.96C19.8271 19.3252 20.3236 18.5846 20.6816 17.7383C21.056 16.8757 21.2432 15.9642 21.2432 15.0039C21.2432 14.0436 21.056 13.1403 20.6816 12.2939C20.3236 11.4313 19.8271 10.6826 19.1924 10.0479C18.5576 9.41309 17.8171 8.91667 16.9707 8.55859C16.1243 8.18424 15.221 7.99707 14.2607 7.99707H7.25391ZM7.25391 36H0.24707V0.990234H14.2607C15.5465 0.990234 16.7835 1.16113 17.9717 1.50293C19.1598 1.82845 20.2666 2.30046 21.292 2.91895C22.3337 3.52116 23.2777 4.25358 24.124 5.11621C24.9867 5.96257 25.7191 6.90658 26.3213 7.94824C26.9398 8.98991 27.4118 10.1048 27.7373 11.293C28.0791 12.4811 28.25 13.7181 28.25 15.0039C28.25 16.2083 28.0954 17.3802 27.7861 18.5195C27.4932 19.6589 27.0618 20.7412 26.4922 21.7666C25.9388 22.792 25.2552 23.736 24.4414 24.5986C23.6276 25.4613 22.7161 26.21 21.707 26.8447L25.5889 36H18.1426L15.0908 28.9443L7.25391 28.9932V36Z" fill="#EEEA9E"/>
</svg>
