<svg xmlns="http://www.w3.org/2000/svg" width="1100.73" height="614.81" viewBox="0 0 1100.73 614.81"><g style="isolation:isolate"><g id="Layer_1" data-name="Layer 1"><path d="M108.93,467l14.9-6.1-.06,1.88-12.55,5v0l12.24,5.7,0,1.88-14.52-6.94Z" style="fill:#0e2263;opacity:0.13"/><path d="M128.37,456.18l2.79.08-.24,8.24H131a4.86,4.86,0,0,1,2-1.63,6.43,6.43,0,0,1,2.88-.6c2.06.05,5.32,1.24,5.19,5.79l-.22,7.86-2.79-.08.22-7.58c.06-2.13-.81-4-3.44-4a4,4,0,0,0-3.81,2.29,2.63,2.63,0,0,0-.23,1.14l-.22,8-2.79-.08Z" style="fill:#0e2263;opacity:0.13"/><path d="M149.13,459.15l-.11,3.79,4,.11-.05,1.83-4-.11-.2,7.12c-.05,1.63.46,2.58,2,2.62a6.71,6.71,0,0,0,1.62-.12l.07,1.81a7.73,7.73,0,0,1-2.48.25,4.19,4.19,0,0,1-3-1.09,4.41,4.41,0,0,1-1-3.47l.2-7.2-2.37-.07,0-1.83,2.38.07.09-3.16Z" style="fill:#0e2263;opacity:0.13"/><path d="M156.05,466.72c0-1.37,0-2.49,0-3.58l2.44.07.07,2.13h.09a5.45,5.45,0,0,1,4.89-2.29,4.55,4.55,0,0,1,4.27,2.77h.06a5.81,5.81,0,0,1,5.18-2.51c2,.06,5,1.29,4.88,5.88l-.22,7.77-2.73-.08.21-7.47c.08-2.54-1-4.1-3.21-4.16a3.38,3.38,0,0,0-3.61,3.28l-.24,8.16-2.72-.08.22-7.91c.06-2.1-1-3.66-3.1-3.72a3.72,3.72,0,0,0-3.52,2.3,2.86,2.86,0,0,0-.26,1.17l-.22,8-2.73-.07Z" style="fill:#0e2263;opacity:0.13"/><path d="M182.77,457.73l2.79.08L185,477.18l-2.79-.08Z" style="fill:#0e2263;opacity:0.13"/><path d="M204.38,471.24l-14.9,6.07.05-1.88,12.65-5v-.06l-12.34-5.7,0-1.88,14.53,6.91Z" style="fill:#0e2263;opacity:0.13"/><path d="M289.61,460.78l-.46,16c0,1.17,0,2.51,0,3.41l-2.5-.07-.06-2.29h-.06a5.89,5.89,0,0,1-5.31,2.45,6.41,6.41,0,0,1-6.37-6.9,6.73,6.73,0,0,1,7.08-6.9,5.4,5.4,0,0,1,4.57,2.15h.07l.22-7.89Zm-3.12,11.46a3.47,3.47,0,0,0-.1-1,4,4,0,0,0-3.94-2.9c-2.89-.08-4.66,2.05-4.75,5-.07,2.67,1.39,4.93,4.4,5a3.88,3.88,0,0,0,4.33-3.78Z" style="fill:#0e2263;opacity:0.13"/><path d="M307.76,474c-.14,4.88-4.13,6.89-7.84,6.79-4.15-.12-7.28-2.83-7.16-7,.13-4.42,3.56-6.92,7.81-6.8C305,467.09,307.88,469.93,307.76,474Zm-12.17-.21c-.09,2.89,1.78,5.12,4.51,5.2s4.72-2,4.81-5c.06-2.24-1.16-5.11-4.45-5.21S295.66,471.25,295.59,473.76Z" style="fill:#0e2263;opacity:0.13"/><path d="M322,480.6a11.62,11.62,0,0,1-4.43.64c-4.63-.14-7.56-2.92-7.45-7s3.44-6.92,8.45-6.77a10.46,10.46,0,0,1,3.85.79l-.69,1.83a7.4,7.4,0,0,0-3.22-.71c-3.52-.1-5.48,2.08-5.56,4.83-.09,3.06,2.14,5,5.19,5.09a8.85,8.85,0,0,0,3.44-.56Z" style="fill:#0e2263;opacity:0.13"/><path d="M338.24,478c0,1.36,0,2.56,0,3.6l-2.47-.07-.1-2.16h-.06a6,6,0,0,1-5.15,2.31c-2.41-.07-5.26-1.3-5.13-5.93l.22-7.72,2.79.08-.2,7.31c-.08,2.51.76,4.22,3.3,4.3a4.06,4.06,0,0,0,3.74-2.08,3,3,0,0,0,.29-1.22l.23-8.1,2.79.08Z" style="fill:#0e2263;opacity:0.13"/><path d="M343,472.05c0-1.36,0-2.48,0-3.58l2.44.07.07,2.14h.09a5.48,5.48,0,0,1,4.89-2.29,4.53,4.53,0,0,1,4.27,2.77h.06a5.81,5.81,0,0,1,5.18-2.5c2,.06,5,1.29,4.88,5.87l-.22,7.78-2.73-.08.22-7.48c.07-2.53-1-4.09-3.22-4.15a3.56,3.56,0,0,0-3.36,2.08,3.6,3.6,0,0,0-.25,1.2L355.1,482l-2.73-.07.22-7.92c.06-2.1-1-3.65-3.09-3.71a3.73,3.73,0,0,0-3.53,2.3,2.81,2.81,0,0,0-.25,1.16l-.23,8-2.73-.08Z" style="fill:#0e2263;opacity:0.13"/><path d="M370.93,476.32c0,3.24,2.34,4.65,5.13,4.73a11.74,11.74,0,0,0,4.27-.56l.43,1.73a14.33,14.33,0,0,1-5.13.67c-4.72-.13-7.47-2.89-7.36-6.87a6.84,6.84,0,0,1,7.41-6.91c5,.14,6.23,4,6.16,6.4a8.28,8.28,0,0,1-.13,1.11Zm8.23-1.49a3.6,3.6,0,0,0-3.76-4A4.28,4.28,0,0,0,371,474.6Z" style="fill:#0e2263;opacity:0.13"/><path d="M385.36,473.26c0-1.36,0-2.48,0-3.58l2.47.07.09,2.19H388a5.85,5.85,0,0,1,5.14-2.34c2.13.06,5.39,1.25,5.26,5.78l-.22,7.88-2.79-.08.22-7.61c.06-2.13-.81-3.93-3.44-4a3.93,3.93,0,0,0-3.82,2.35,3,3,0,0,0-.22,1.11l-.22,7.94-2.79-.08Z" style="fill:#0e2263;opacity:0.13"/><path d="M406.4,466.49l-.11,3.79,4,.11-.06,1.83-4-.11-.2,7.12c-.05,1.63.46,2.58,2,2.62a6.75,6.75,0,0,0,1.62-.12l.07,1.81a7.73,7.73,0,0,1-2.48.25,4.18,4.18,0,0,1-3-1.09c-.78-.73-1-1.91-1-3.47l.2-7.2-2.38-.07.06-1.83,2.37.07.09-3.16Z" style="fill:#0e2263;opacity:0.13"/><path d="M412.33,482.25a1.75,1.75,0,0,1,1.95-1.67,1.73,1.73,0,1,1-1.95,1.67Z" style="fill:#0e2263;opacity:0.13"/><path d="M433.11,471.05c-.09.95-.18,2-.23,3.62l-.22,7.67c-.08,3-.83,4.86-2.36,6a9,9,0,0,1-5.62,1.42,11.19,11.19,0,0,1-5.07-1.23l.74-1.81a9.76,9.76,0,0,0,4.48,1.16c2.85.09,5-1.14,5.07-4.46l.05-1.48h-.07a5.73,5.73,0,0,1-4.94,2.07,6.31,6.31,0,0,1-6.35-6.62,6.77,6.77,0,0,1,7.11-6.82,5.27,5.27,0,0,1,4.72,2.43h.07l.18-2Zm-3,5.12a2.92,2.92,0,0,0-.13-1.09,4,4,0,0,0-3.83-2.65c-2.66-.08-4.62,1.81-4.7,4.86-.08,2.59,1.38,4.79,4.39,4.88a4.06,4.06,0,0,0,3.94-2.35,3.56,3.56,0,0,0,.26-1.27Z" style="fill:#0e2263;opacity:0.13"/><path d="M439,478.26c0,3.24,2.34,4.65,5.13,4.73a11.52,11.52,0,0,0,4.27-.56l.42,1.73a14.26,14.26,0,0,1-5.13.67c-4.72-.13-7.46-2.89-7.35-6.87a6.83,6.83,0,0,1,7.4-6.91c5,.14,6.23,4,6.16,6.4a8.65,8.65,0,0,1-.12,1.11Zm8.22-1.49a3.59,3.59,0,0,0-3.75-4,4.28,4.28,0,0,0-4.39,3.78Z" style="fill:#0e2263;opacity:0.13"/><path d="M457,467.93l-.11,3.79,4,.12-.05,1.82-4-.11-.2,7.12c-.05,1.64.47,2.58,2,2.62a7.4,7.4,0,0,0,1.62-.11l.08,1.8a7.76,7.76,0,0,1-2.48.26,4.22,4.22,0,0,1-3-1.1c-.77-.73-1-1.91-1-3.47l.21-7.2-2.38-.06.05-1.83,2.38.07.09-3.17Z" style="fill:#0e2263;opacity:0.13"/><path d="M465.15,479c0,3.25,2.34,4.66,5.13,4.74a11.74,11.74,0,0,0,4.27-.56l.43,1.73a14.33,14.33,0,0,1-5.13.67c-4.72-.13-7.47-2.89-7.35-6.87a6.84,6.84,0,0,1,7.4-6.92,5.93,5.93,0,0,1,6.16,6.41,8.28,8.28,0,0,1-.13,1.11Zm8.23-1.48a3.6,3.6,0,0,0-3.76-4,4.28,4.28,0,0,0-4.39,3.78Z" style="fill:#0e2263;opacity:0.13"/><path d="M479.86,466.21l2.79.08-.55,19.37-2.79-.08Z" style="fill:#0e2263;opacity:0.13"/><path d="M169.11,509.48l1-5.32-2.6-.07,0-1.61,2.89.08.71-3.94-2.72-.08,0-1.6,3,.08,1-5.19,1.84.06-.95,5.18,3.3.1,1-5.19,1.87.06-.95,5.18,2.6.08,0,1.61-2.89-.09-.68,3.94,2.73.08-.05,1.61-3-.09-1,5.33-1.9-.06,1-5.32-3.3-.09-1,5.32Zm6.51-6.77.71-3.94-3.29-.09-.72,3.93Z" style="fill:#0e2263;opacity:0.13"/><path d="M184.52,509.92l.32-11.37-2.15-.06.05-1.83,2.15.06,0-.63a5.68,5.68,0,0,1,1.91-4.55,5.88,5.88,0,0,1,3.78-1.13,7.58,7.58,0,0,1,2.36.45l-.43,1.85a4.65,4.65,0,0,0-1.77-.35c-2.38-.07-3,1.71-3.09,3.73l0,.71,3.71.11-.05,1.82-3.71-.1L187.28,510Z" style="fill:#0e2263;opacity:0.13"/><path d="M207.16,503.85c-.14,4.89-4.14,6.9-7.85,6.8-4.15-.12-7.28-2.83-7.16-7,.13-4.41,3.56-6.91,7.81-6.79C204.37,497,207.27,499.82,207.16,503.85ZM195,503.64c-.09,2.9,1.79,5.13,4.51,5.21s4.72-2,4.81-5c.06-2.23-1.16-5.11-4.45-5.2S195.05,501.13,195,503.64Z" style="fill:#0e2263;opacity:0.13"/><path d="M210.76,501c0-1.37,0-2.49,0-3.58l2.48.07.09,2.19h.06a5.87,5.87,0,0,1,5.15-2.34c2.12.06,5.39,1.25,5.26,5.77l-.23,7.89-2.79-.08.22-7.61c.06-2.13-.81-3.93-3.44-4a3.9,3.9,0,0,0-3.81,2.34,3.14,3.14,0,0,0-.22,1.12l-.23,7.93-2.79-.07Z" style="fill:#0e2263;opacity:0.13"/><path d="M231.8,494.27l-.11,3.79,4,.11-.05,1.83-4-.12-.21,7.12c0,1.64.47,2.58,2,2.63a7.27,7.27,0,0,0,1.62-.12l.08,1.8a7.76,7.76,0,0,1-2.48.26,4.26,4.26,0,0,1-3-1.09,4.47,4.47,0,0,1-1-3.47l.21-7.2-2.38-.07.05-1.83L229,498l.09-3.17Z" style="fill:#0e2263;opacity:0.13"/><path d="M245,503.38l-.05,1.77-7.83-.22,0-1.78Z" style="fill:#0e2263;opacity:0.13"/><path d="M249.35,498.56l1.83,6.77c.41,1.48.78,2.86,1,4.23h.09c.39-1.33.94-2.74,1.48-4.14l2.7-6.67,2.35.07L261,505.5c.52,1.6.93,3,1.24,4.35h.09a35.13,35.13,0,0,1,1.3-4.25L266,499l2.76.08-5.32,13.06-2.54-.08-2.16-6.36a37.3,37.3,0,0,1-1.24-4.38h-.07a33.74,33.74,0,0,1-1.52,4.32l-2.65,6.21-2.53-.08-4.26-13.33Z" style="fill:#0e2263;opacity:0.13"/><path d="M272.61,506.27c0,3.25,2.34,4.65,5.13,4.73a11.52,11.52,0,0,0,4.27-.56l.42,1.73a14,14,0,0,1-5.12.67c-4.73-.13-7.47-2.88-7.36-6.87a6.83,6.83,0,0,1,7.4-6.91c5,.14,6.23,4,6.16,6.4a7.46,7.46,0,0,1-.12,1.12Zm8.23-1.49a3.61,3.61,0,0,0-3.76-4,4.28,4.28,0,0,0-4.39,3.78Z" style="fill:#0e2263;opacity:0.13"/><path d="M290.35,496c0,.82-.71,1.45-1.82,1.42a1.56,1.56,0,0,1-1.64-1.52,1.6,1.6,0,0,1,1.79-1.45A1.55,1.55,0,0,1,290.35,496Zm-3.59,16.82.38-13.2,2.79.08-.38,13.2Z" style="fill:#0e2263;opacity:0.13"/><path d="M307.78,500.23c-.09.95-.19,2-.23,3.62l-.22,7.67c-.09,3-.84,4.86-2.36,6a9.07,9.07,0,0,1-5.63,1.43,11.35,11.35,0,0,1-5.07-1.24l.75-1.81a9.74,9.74,0,0,0,4.47,1.17c2.85.08,5-1.14,5.08-4.47l0-1.48h-.06a5.72,5.72,0,0,1-4.95,2.07,6.31,6.31,0,0,1-6.35-6.62,6.78,6.78,0,0,1,7.12-6.81,5.27,5.27,0,0,1,4.72,2.42h.06l.19-2Zm-3,5.13a3.21,3.21,0,0,0-.12-1.1,4,4,0,0,0-3.83-2.65c-2.67-.07-4.62,1.81-4.71,4.86-.07,2.59,1.39,4.79,4.4,4.88a4.08,4.08,0,0,0,3.94-2.35,3.54,3.54,0,0,0,.25-1.27Z" style="fill:#0e2263;opacity:0.13"/><path d="M312.45,494.19l2.79.08-.23,8.24h.06a4.89,4.89,0,0,1,2.05-1.63,6.36,6.36,0,0,1,2.87-.6c2.06.05,5.33,1.24,5.2,5.8l-.23,7.85-2.79-.08.22-7.58c.06-2.13-.81-4-3.44-4a4,4,0,0,0-3.81,2.29,2.5,2.5,0,0,0-.22,1.14l-.23,8-2.79-.08Z" style="fill:#0e2263;opacity:0.13"/><path d="M333.21,497.16l-.1,3.79,4,.11-.05,1.83-4-.11-.2,7.12c-.05,1.63.47,2.58,2,2.62a6.71,6.71,0,0,0,1.62-.12l.08,1.81a7.81,7.81,0,0,1-2.48.25,4.22,4.22,0,0,1-3-1.09c-.77-.73-1-1.91-1-3.47l.21-7.2-2.38-.07.05-1.82,2.38.06.09-3.16Z" style="fill:#0e2263;opacity:0.13"/><path d="M339.51,503.32a1.75,1.75,0,0,1,1.95-1.67,1.73,1.73,0,0,1,1.82,1.77,1.9,1.9,0,0,1-3.77-.1Zm-.27,9.63a1.75,1.75,0,0,1,1.95-1.67,1.71,1.71,0,1,1-1.95,1.67Z" style="fill:#0e2263;opacity:0.13"/><path d="M352.13,510.2c.07-2.23,1.66-3.77,4.23-4.63l0-.08c-2.26-1-3.2-2.55-3.15-4.08.08-2.81,2.89-4.64,6.5-4.53,4,.11,5.93,2.32,5.87,4.53,0,1.5-.94,3.09-3.51,4v.08c2.54.95,4.08,2.55,4,4.7-.09,3.09-3.22,5.07-7.15,5C354.6,515.08,352.06,512.79,352.13,510.2Zm11.1.21c.06-2.16-1.65-3.24-4.42-4-2.43.53-3.77,1.85-3.81,3.55s1.39,3.42,4,3.5S363.18,512.24,363.23,510.41Zm-7.42-9.08c-.05,1.77,1.48,2.77,3.84,3.38,1.79-.47,3.19-1.52,3.23-3.13,0-1.42-.9-2.92-3.4-3C357.16,498.52,355.86,499.8,355.81,501.33Z" style="fill:#0e2263;opacity:0.13"/><path d="M381.27,499.81l-7.86-.22-.92,4.53a13.19,13.19,0,0,1,1.68-.06,9.94,9.94,0,0,1,4.41,1.08,5,5,0,0,1,2.82,4.64c-.1,3.47-3.38,6-7.85,5.84a11.5,11.5,0,0,1-5.1-1.24l.75-1.81a10.36,10.36,0,0,0,4.38,1.11c2.63.08,4.92-1.33,5-3.71s-1.7-4-5.82-4.09a23.45,23.45,0,0,0-2.86.11l1.58-8.48,9.86.28Z" style="fill:#0e2263;opacity:0.13"/><path d="M385.93,506.77c0-1.69,0-3.06,0-4.31l2.51.07.06,2.27h.06a6.69,6.69,0,0,1,11.84,4.49,6.69,6.69,0,0,1-7.18,6.89,5.69,5.69,0,0,1-4.67-2.21h-.06l-.2,7.17-2.76-.08Zm2.65,3.6a5,5,0,0,0,.1,1,4.23,4.23,0,0,0,4.11,2.93c2.95.09,4.72-1.94,4.8-5,.08-2.65-1.47-5-4.42-5a4.34,4.34,0,0,0-4.3,2.85,3.25,3.25,0,0,0-.22,1Z" style="fill:#0e2263;opacity:0.13"/><path d="M404.94,503l2.11,2.9c.55.75,1,1.45,1.49,2.2h.1c.53-.78,1.05-1.44,1.58-2.14l2.24-2.75,3,.09-5.41,6.23,5.19,7-3.17-.09-2.17-3c-.58-.78-1.06-1.53-1.58-2.34h-.06c-.53.78-1.09,1.47-1.68,2.24l-2.31,2.91-3.07-.08,5.64-6.59-5-6.61Z" style="fill:#0e2263;opacity:0.13"/><path d="M416.07,519.89a34.08,34.08,0,0,0,2.09-6.47l3.09-.18a32,32,0,0,1-3.24,6.54Zm1.78-14.34a1.73,1.73,0,0,1,1.92-1.66,1.7,1.7,0,0,1,1.82,1.77,1.88,1.88,0,0,1-3.74-.11Z" style="fill:#0e2263;opacity:0.13"/><path d="M110.64,523.65c0,.82-.7,1.45-1.81,1.42a1.54,1.54,0,0,1-1.64-1.52A1.58,1.58,0,0,1,109,522.1,1.54,1.54,0,0,1,110.64,523.65Zm-3.59,16.82.38-13.2,2.79.08-.38,13.2Z" style="fill:#0e2263;opacity:0.13"/><path d="M114.75,531.05c0-1.36,0-2.48,0-3.57l2.48.07.09,2.18h.07a5.81,5.81,0,0,1,5.14-2.34c2.12.06,5.39,1.25,5.26,5.77l-.22,7.89-2.8-.08.22-7.61c.06-2.13-.81-3.93-3.44-4a3.92,3.92,0,0,0-3.81,2.35,3.14,3.14,0,0,0-.22,1.12l-.23,7.93-2.79-.08Z" style="fill:#0e2263;opacity:0.13"/><path d="M135.79,524.28l-.11,3.8,4,.11,0,1.83-4-.12-.21,7.12c0,1.64.47,2.58,2,2.63a7.27,7.27,0,0,0,1.62-.12l.08,1.8a7.68,7.68,0,0,1-2.48.26,4.22,4.22,0,0,1-3-1.1,4.43,4.43,0,0,1-1-3.46l.21-7.2-2.38-.07,0-1.83L133,528l.09-3.17Z" style="fill:#0e2263;opacity:0.13"/><path d="M149.43,532c0-1.36,0-2.48,0-3.57l2.44.07.06,2.13h.1a5.45,5.45,0,0,1,4.89-2.29,4.54,4.54,0,0,1,4.26,2.77h.07a5.67,5.67,0,0,1,1.76-1.67,5.87,5.87,0,0,1,3.42-.83c2,.06,5,1.29,4.88,5.87l-.23,7.78-2.72-.08.21-7.47c.07-2.54-1-4.1-3.21-4.16a3.56,3.56,0,0,0-3.36,2.09,3.26,3.26,0,0,0-.26,1.19l-.23,8.16-2.73-.08L159,534c.06-2.1-1-3.66-3.1-3.72a3.74,3.74,0,0,0-3.53,2.3,3,3,0,0,0-.25,1.17l-.23,8-2.72-.08Z" style="fill:#0e2263;opacity:0.13"/><path d="M184.09,542.67l-.17-1.67h-.1a6.07,6.07,0,0,1-4.75,1.83c-3.1-.09-4.63-2-4.58-3.93.09-3.19,3.44-4.84,9.37-4.65V534c0-1.09-.26-3.06-3.4-3.15a8.61,8.61,0,0,0-4,.87l-.59-1.6a10.59,10.59,0,0,1,5.08-1c4.69.13,5.75,2.92,5.68,5.56l-.14,4.94a15.8,15.8,0,0,0,.16,3.17Zm-.22-6.75c-3-.14-6.51.22-6.58,2.79,0,1.55,1.14,2.32,2.56,2.37a3.84,3.84,0,0,0,3.78-2.11,2.28,2.28,0,0,0,.18-.76Z" style="fill:#0e2263;opacity:0.13"/><path d="M194.47,526c0,.82-.71,1.45-1.82,1.42a1.56,1.56,0,0,1-1.64-1.52,1.59,1.59,0,0,1,1.79-1.45A1.55,1.55,0,0,1,194.47,526Zm-3.59,16.82.37-13.2,2.79.08-.37,13.2Z" style="fill:#0e2263;opacity:0.13"/><path d="M198.57,533.45c0-1.37,0-2.49,0-3.58l2.47.07.09,2.19h.07a5.83,5.83,0,0,1,5.14-2.34c2.13.06,5.39,1.25,5.26,5.77l-.22,7.89-2.79-.08.21-7.61c.07-2.13-.8-3.93-3.43-4a3.92,3.92,0,0,0-3.82,2.34,3.14,3.14,0,0,0-.22,1.12l-.22,7.93-2.79-.07Z" style="fill:#0e2263;opacity:0.13"/><path d="M222.49,524.82a16.36,16.36,0,0,0-4.32,11,16.72,16.72,0,0,0,3.68,11.19l-2.19-.06a16.11,16.11,0,0,1-3.83-11.19,16.42,16.42,0,0,1,4.47-11Z" style="fill:#0e2263;opacity:0.13"/><path d="M223.12,547.09A16.8,16.8,0,0,0,227.43,536a16.39,16.39,0,0,0-3.68-11.18l2.16.06a15.91,15.91,0,0,1,3.84,11.22,16.26,16.26,0,0,1-4.47,11Z" style="fill:#0e2263;opacity:0.13"/><path d="M232.71,535.51c2.26.07,2.6-1,2.63-1.94a13.73,13.73,0,0,0-.19-2.3A14.59,14.59,0,0,1,235,529c.07-2.51,2-3.52,4.7-3.44h.67l-.05,1.5h-.57c-1.87-.06-2.53.8-2.57,2.27a10.09,10.09,0,0,0,.17,1.95,10.79,10.79,0,0,1,.16,2.07,2.68,2.68,0,0,1-2.37,2.89v0a2.68,2.68,0,0,1,2.2,3,10.44,10.44,0,0,1-.28,2.07,10.3,10.3,0,0,0-.28,2c0,1.53.66,2.4,2.44,2.45h.57l0,1.5H239c-2.63-.08-4.57-1.12-4.49-3.87a13,13,0,0,1,.32-2.23,12.94,12.94,0,0,0,.31-2.2c0-.85-.25-2-2.51-2.1Z" style="fill:#0e2263;opacity:0.13"/><path d="M248.91,537.37c-2.25-.07-2.6,1.1-2.63,1.94a13.86,13.86,0,0,0,.19,2.22,13.11,13.11,0,0,1,.19,2.24c-.08,2.76-2.1,3.68-4.7,3.61l-.67,0,0-1.5.54,0c1.78,0,2.56-.78,2.61-2.31a13.56,13.56,0,0,0-.17-2,10.58,10.58,0,0,1-.19-2.08,2.72,2.72,0,0,1,2.36-2.9v-.06a2.71,2.71,0,0,1-2.2-3,10.65,10.65,0,0,1,.31-2.07,14.72,14.72,0,0,0,.28-1.93c0-1.47-.6-2.33-2.44-2.41l-.57,0,0-1.5.64,0c2.69.07,4.59,1.19,4.52,3.7a13.37,13.37,0,0,1-.32,2.26,14.86,14.86,0,0,0-.31,2.28c0,1,.26,2,2.51,2.1Z" style="fill:#0e2263;opacity:0.13"/><path d="M325.84,538.72l14.9-6.1-.06,1.88-12.55,5v.06l12.25,5.7-.06,1.88-14.52-6.94Z" style="fill:#0e2263;opacity:0.13"/><path d="M347,542.1l0-.71a5.75,5.75,0,0,1,2.1-4.66c1.47-1.4,2.29-2.45,2.33-3.67,0-1.39-.95-2.35-2.95-2.43a6.2,6.2,0,0,0-3.23.75l-.71-1.74a9.29,9.29,0,0,1,4.57-1c3.64.1,5.24,2.09,5.18,4.16,0,1.85-1.3,3.16-2.86,4.67a5,5,0,0,0-1.93,4l0,.71Zm-.8,3.8a1.74,1.74,0,0,1,1.95-1.66,1.71,1.71,0,1,1-1.95,1.66Z" style="fill:#0e2263;opacity:0.13"/><path d="M364.57,538.92c.05-1.69,0-3.06,0-4.31l2.51.07.06,2.27h.06A6.69,6.69,0,0,1,379,541.43a6.69,6.69,0,0,1-7.18,6.9,5.69,5.69,0,0,1-4.67-2.21h-.06l-.21,7.17-2.75-.08Zm2.66,3.6a5,5,0,0,0,.1,1,4.25,4.25,0,0,0,4.11,2.93c2.94.09,4.72-1.94,4.8-5,.08-2.64-1.47-5-4.42-5a4.37,4.37,0,0,0-4.31,2.86,3.5,3.5,0,0,0-.21,1Z" style="fill:#0e2263;opacity:0.13"/><path d="M382.91,529l2.79.08-.23,8.24h.06a4.83,4.83,0,0,1,2.05-1.63,6.36,6.36,0,0,1,2.87-.61c2.06.06,5.33,1.25,5.2,5.8l-.23,7.86-2.79-.08.22-7.58c.06-2.13-.81-4-3.44-4a4,4,0,0,0-3.81,2.29,2.47,2.47,0,0,0-.22,1.14l-.23,8-2.79-.08Z" style="fill:#0e2263;opacity:0.13"/><path d="M400.21,539.94c.05-1.69,0-3.06,0-4.32l2.51.07.06,2.27h.06a6.7,6.7,0,0,1,11.84,4.49,6.67,6.67,0,0,1-7.18,6.89,5.65,5.65,0,0,1-4.66-2.2h-.07l-.2,7.18-2.76-.08Zm2.66,3.59a5.06,5.06,0,0,0,.09,1,4.25,4.25,0,0,0,4.11,2.93c2.95.08,4.72-1.94,4.81-5,.07-2.64-1.48-5-4.43-5a4.37,4.37,0,0,0-4.3,2.85,3.58,3.58,0,0,0-.22,1Z" style="fill:#0e2263;opacity:0.13"/><path d="M107.85,567.08c0,3.25,2.34,4.66,5.13,4.74a11.74,11.74,0,0,0,4.27-.56l.43,1.73a14.33,14.33,0,0,1-5.13.67c-4.73-.13-7.47-2.89-7.36-6.87a6.85,6.85,0,0,1,7.4-6.92,5.93,5.93,0,0,1,6.17,6.4,8.27,8.27,0,0,1-.13,1.12Zm8.23-1.48a3.6,3.6,0,0,0-3.76-4,4.28,4.28,0,0,0-4.39,3.78Z" style="fill:#0e2263;opacity:0.13"/><path d="M133,573.48a12,12,0,0,1-4.43.64c-4.63-.14-7.57-2.92-7.45-7s3.43-6.92,8.44-6.77a10.46,10.46,0,0,1,3.85.79l-.69,1.83a7.47,7.47,0,0,0-3.21-.72c-3.52-.1-5.49,2.09-5.57,4.84-.08,3.06,2.15,5,5.19,5.09a8.85,8.85,0,0,0,3.44-.56Z" style="fill:#0e2263;opacity:0.13"/><path d="M136.76,554.69l2.79.08-.24,8.24h.07a4.86,4.86,0,0,1,2-1.63,6.43,6.43,0,0,1,2.88-.6c2.06.06,5.32,1.24,5.19,5.8l-.22,7.85-2.79-.08.22-7.58c.06-2.13-.81-3.95-3.44-4a4,4,0,0,0-3.81,2.3,2.57,2.57,0,0,0-.23,1.14l-.22,8-2.79-.08Z" style="fill:#0e2263;opacity:0.13"/><path d="M167.88,568.25c-.14,4.88-4.13,6.9-7.84,6.79-4.15-.12-7.28-2.83-7.16-7,.12-4.42,3.56-6.91,7.81-6.79C165.09,561.37,168,564.21,167.88,568.25ZM155.7,568c-.08,2.89,1.79,5.13,4.52,5.21s4.72-2,4.8-5c.07-2.24-1.15-5.11-4.45-5.2S155.77,565.53,155.7,568Z" style="fill:#0e2263;opacity:0.13"/><path d="M177.58,564.21A1.9,1.9,0,1,1,179.4,566,1.74,1.74,0,0,1,177.58,564.21Zm-.28,9.63a1.89,1.89,0,0,1,3.77.11,1.9,1.9,0,0,1-3.77-.11Z" style="fill:#0e2263;opacity:0.13"/><path d="M187.69,563.49a29.39,29.39,0,0,1,3.16-6.41l1.78-.11a34,34,0,0,0-2,6.33Zm4.72.14a29.22,29.22,0,0,1,3.13-6.41l1.78-.11a34.43,34.43,0,0,0-2,6.32Z" style="fill:#0e2263;opacity:0.13"/><path d="M200.54,556.51l2.79.08-.23,8.24h.06a4.89,4.89,0,0,1,2.05-1.63,6.36,6.36,0,0,1,2.87-.6c2.06.06,5.33,1.24,5.2,5.8l-.23,7.85-2.79-.08.22-7.58c.06-2.13-.81-4-3.44-4a4,4,0,0,0-3.81,2.3A2.44,2.44,0,0,0,203,568l-.23,8-2.79-.08Z" style="fill:#0e2263;opacity:0.13"/><path d="M219.32,570.26c0,3.25,2.34,4.66,5.13,4.74a11.74,11.74,0,0,0,4.27-.56l.42,1.73a14.26,14.26,0,0,1-5.13.67c-4.72-.13-7.46-2.89-7.35-6.87a6.85,6.85,0,0,1,7.4-6.92c5,.15,6.23,4,6.16,6.41a8.65,8.65,0,0,1-.12,1.11Zm8.22-1.48a3.59,3.59,0,0,0-3.75-4,4.28,4.28,0,0,0-4.39,3.78Z" style="fill:#0e2263;opacity:0.13"/><path d="M234,557.47l2.79.08-.55,19.37-2.79-.08Z" style="fill:#0e2263;opacity:0.13"/><path d="M241.5,557.68l2.79.08-.55,19.37-2.79-.08Z" style="fill:#0e2263;opacity:0.13"/><path d="M262.51,571c-.14,4.88-4.13,6.9-7.84,6.79-4.15-.12-7.28-2.83-7.16-7,.13-4.42,3.56-6.91,7.81-6.79C259.73,564.07,262.63,566.91,262.51,571Zm-12.18-.21c-.08,2.89,1.79,5.13,4.52,5.21s4.72-2,4.81-5c.06-2.24-1.16-5.11-4.46-5.2S250.4,568.23,250.33,570.74Z" style="fill:#0e2263;opacity:0.13"/><path d="M274.05,564.78l1.83,6.77c.41,1.49.78,2.86,1,4.23h.1c.39-1.33.93-2.74,1.48-4.14l2.7-6.66,2.35.06,2.19,6.67c.52,1.6.92,3,1.24,4.35h.09a33.42,33.42,0,0,1,1.3-4.25l2.37-6.56,2.76.08-5.32,13.06-2.54-.08L283.46,572a37.3,37.3,0,0,1-1.24-4.38h-.07a33.74,33.74,0,0,1-1.52,4.32L278,578.11l-2.54-.08-4.25-13.33Z" style="fill:#0e2263;opacity:0.13"/><path d="M309.65,572.29c-.14,4.89-4.13,6.9-7.84,6.8-4.15-.12-7.28-2.83-7.16-7,.13-4.42,3.56-6.92,7.81-6.8C306.87,565.42,309.77,568.26,309.65,572.29Zm-12.17-.21c-.09,2.9,1.78,5.13,4.51,5.21s4.72-2,4.81-5c.06-2.24-1.16-5.12-4.45-5.21S297.55,569.57,297.48,572.08Z" style="fill:#0e2263;opacity:0.13"/><path d="M313.24,570c0-1.55.05-2.89,0-4.12l2.44.07,0,2.59h.13a4.52,4.52,0,0,1,4.33-2.77,3.62,3.62,0,0,1,.79.1l-.06,2.27a4.35,4.35,0,0,0-.95-.11,3.71,3.71,0,0,0-3.83,3,6,6,0,0,0-.16,1.12l-.2,7-2.76-.07Z" style="fill:#0e2263;opacity:0.13"/><path d="M324,560l2.79.08-.56,19.36-2.79-.08Z" style="fill:#0e2263;opacity:0.13"/><path d="M344.76,560.63l-.45,16c0,1.17,0,2.51,0,3.41l-2.51-.07-.06-2.3h-.06a5.85,5.85,0,0,1-5.31,2.44,6.39,6.39,0,0,1-6.37-6.89,6.72,6.72,0,0,1,7.08-6.9,5.39,5.39,0,0,1,4.57,2.15h.07l.22-7.88Zm-3.12,11.46a3.47,3.47,0,0,0-.1-1,4,4,0,0,0-3.94-2.9c-2.89-.08-4.66,2.05-4.75,5-.07,2.67,1.39,4.92,4.4,5a4.11,4.11,0,0,0,4.17-2.75,3.7,3.7,0,0,0,.16-1Z" style="fill:#0e2263;opacity:0.13"/><path d="M353.05,561.55a30.54,30.54,0,0,1-3.14,6.38l-1.78.14a36.48,36.48,0,0,0,2.06-6.36Zm4.69.13a30.56,30.56,0,0,1-3.13,6.38l-1.78.14a35,35,0,0,0,2.05-6.35Z" style="fill:#0e2263;opacity:0.13"/><path d="M111.78,587.18a16.33,16.33,0,0,0-4.31,11,16.68,16.68,0,0,0,3.68,11.19l-2.19-.06a16.18,16.18,0,0,1-3.84-11.2,16.52,16.52,0,0,1,4.47-11Z" style="fill:#0e2263;opacity:0.13"/><path d="M128,587.2l-.46,16c0,1.17,0,2.51,0,3.41l-2.51-.07-.06-2.29h-.06a5.9,5.9,0,0,1-5.31,2.44,6.42,6.42,0,0,1-6.37-6.9,6.74,6.74,0,0,1,7.09-6.9,5.42,5.42,0,0,1,4.57,2.15H125l.23-7.89Zm-3.12,11.46a4.33,4.33,0,0,0-.1-1,4,4,0,0,0-4-2.9c-2.88-.08-4.66,2-4.74,5-.08,2.67,1.38,4.93,4.39,5a4.09,4.09,0,0,0,4.17-2.74,3.49,3.49,0,0,0,.16-1Z" style="fill:#0e2263;opacity:0.13"/><path d="M146.15,600.39c-.14,4.88-4.13,6.9-7.84,6.79-4.16-.12-7.28-2.83-7.16-7,.12-4.42,3.56-6.92,7.81-6.8C143.36,593.51,146.26,596.35,146.15,600.39ZM134,600.18c-.08,2.89,1.79,5.13,4.52,5.2s4.72-2,4.8-5c.07-2.24-1.15-5.11-4.45-5.21S134,597.67,134,600.18Z" style="fill:#0e2263;opacity:0.13"/><path d="M160.43,607a11.62,11.62,0,0,1-4.43.64c-4.63-.13-7.57-2.92-7.45-7s3.43-6.92,8.44-6.77a10.46,10.46,0,0,1,3.85.79l-.68,1.84a7.27,7.27,0,0,0-3.22-.72c-3.52-.1-5.49,2.08-5.56,4.83-.09,3.06,2.14,5,5.18,5.09a9,9,0,0,0,3.44-.55Z" style="fill:#0e2263;opacity:0.13"/><path d="M176.62,604.37c0,1.36,0,2.56,0,3.6l-2.48-.07-.09-2.16H174a6,6,0,0,1-5.14,2.31c-2.41-.07-5.26-1.29-5.13-5.93l.22-7.72,2.79.08-.21,7.31c-.07,2.51.77,4.22,3.31,4.3a4.06,4.06,0,0,0,3.74-2.08,3.17,3.17,0,0,0,.28-1.22l.24-8.1,2.79.08Z" style="fill:#0e2263;opacity:0.13"/><path d="M182.88,602c0,3.25,2.34,4.65,5.13,4.73a11.31,11.31,0,0,0,4.27-.56l.42,1.74a14.26,14.26,0,0,1-5.13.67c-4.72-.14-7.46-2.89-7.35-6.87a6.84,6.84,0,0,1,7.4-6.92,5.92,5.92,0,0,1,6.16,6.4,9.08,9.08,0,0,1-.12,1.12Zm8.22-1.48a3.59,3.59,0,0,0-3.75-4,4.27,4.27,0,0,0-4.39,3.77Z" style="fill:#0e2263;opacity:0.13"/><path d="M197.3,598.93c0-1.37,0-2.49,0-3.58l2.44.07.07,2.13h.09a5.45,5.45,0,0,1,4.89-2.29A4.55,4.55,0,0,1,209,598h.06a6,6,0,0,1,1.76-1.67,5.87,5.87,0,0,1,3.42-.83c2,.06,5,1.29,4.88,5.88l-.22,7.77-2.73-.08.21-7.47c.08-2.54-1-4.1-3.21-4.16a3.57,3.57,0,0,0-3.36,2.09,3.48,3.48,0,0,0-.25,1.19l-.24,8.16-2.72-.08.22-7.91c.06-2.1-1-3.66-3.1-3.72a3.72,3.72,0,0,0-3.52,2.3,3,3,0,0,0-.26,1.17l-.22,8-2.73-.07Z" style="fill:#0e2263;opacity:0.13"/><path d="M223.75,599.68c0-1.36,0-2.48,0-3.58l2.47.07.1,2.19h.06A5.87,5.87,0,0,1,231.5,596c2.12.07,5.39,1.25,5.26,5.78l-.23,7.88-2.79-.08L234,602c.06-2.13-.81-3.92-3.44-4a3.92,3.92,0,0,0-3.81,2.35,2.89,2.89,0,0,0-.22,1.11l-.23,7.94-2.79-.08Z" style="fill:#0e2263;opacity:0.13"/><path d="M244.78,592.91l-.1,3.79,4,.12,0,1.82-4-.11-.2,7.12c0,1.64.47,2.58,2,2.62a6.71,6.71,0,0,0,1.62-.12l.08,1.81a8.06,8.06,0,0,1-2.48.26,4.27,4.27,0,0,1-3-1.1c-.77-.73-1-1.91-1-3.47l.21-7.2-2.38-.07,0-1.82,2.38.06.09-3.16Z" style="fill:#0e2263;opacity:0.13"/><path d="M249.66,613.36a16.77,16.77,0,0,0,4.31-11,16.4,16.4,0,0,0-3.68-11.19l2.16.06a15.9,15.9,0,0,1,3.83,11.22,16.14,16.14,0,0,1-4.47,11Z" style="fill:#0e2263;opacity:0.13"/><path d="M259.81,608.93a1.75,1.75,0,0,1,1.95-1.67,1.73,1.73,0,1,1-1.95,1.67Z" style="fill:#0e2263;opacity:0.13"/><path d="M270.59,593.73c0,.82-.71,1.45-1.82,1.42a1.56,1.56,0,0,1-1.64-1.52,1.59,1.59,0,0,1,1.79-1.45A1.55,1.55,0,0,1,270.59,593.73ZM267,610.55l.37-13.2,2.79.08-.37,13.2Z" style="fill:#0e2263;opacity:0.13"/><path d="M274.69,601.13c0-1.36,0-2.48,0-3.57l2.47.07.1,2.18h.06a5.84,5.84,0,0,1,5.14-2.34c2.13.06,5.39,1.24,5.26,5.77l-.22,7.89-2.79-.08.22-7.61c.06-2.13-.81-3.93-3.44-4a3.92,3.92,0,0,0-3.81,2.35,2.94,2.94,0,0,0-.23,1.12l-.22,7.93-2.79-.08Z" style="fill:#0e2263;opacity:0.13"/><path d="M292.29,601.64c0-1.37,0-2.49,0-3.58l2.47.07.1,2.19h.06A5.87,5.87,0,0,1,300,598c2.12.06,5.39,1.25,5.26,5.77l-.23,7.89-2.79-.08.22-7.61c.06-2.13-.81-3.93-3.44-4a3.9,3.9,0,0,0-3.81,2.34,2.94,2.94,0,0,0-.22,1.12l-.23,7.93-2.79-.07Z" style="fill:#0e2263;opacity:0.13"/><path d="M311.34,605.65c0,3.24,2.34,4.65,5.13,4.73a11.52,11.52,0,0,0,4.27-.56l.42,1.73a14.26,14.26,0,0,1-5.13.67c-4.72-.13-7.46-2.88-7.35-6.87a6.83,6.83,0,0,1,7.4-6.91c5,.14,6.23,4,6.16,6.4a8.65,8.65,0,0,1-.12,1.11Zm8.22-1.49a3.59,3.59,0,0,0-3.75-4,4.28,4.28,0,0,0-4.39,3.78Z" style="fill:#0e2263;opacity:0.13"/><path d="M325.75,603.14c0-1.56.05-2.9,0-4.13l2.44.07,0,2.6h.13a4.55,4.55,0,0,1,4.33-2.77,3.07,3.07,0,0,1,.79.11l-.06,2.26a5.07,5.07,0,0,0-.95-.11,3.71,3.71,0,0,0-3.83,3,5.11,5.11,0,0,0-.16,1.11l-.2,7-2.76-.08Z" style="fill:#0e2263;opacity:0.13"/><path d="M339.23,594.21,339,601.9l10.34.3.22-7.69,2.79.08L351.84,613l-2.79-.08.24-8.62L339,604l-.25,8.62-2.76-.08.53-18.39Z" style="fill:#0e2263;opacity:0.13"/><path d="M361.15,596.86l-6.5-.19.06-2,15.82.46-.06,2-6.53-.18-.47,16.36-2.79-.08Z" style="fill:#0e2263;opacity:0.13"/><path d="M390.62,606c-.09-2.57-.19-5.66-.09-8h-.1c-.79,2.13-1.74,4.4-2.89,6.9l-4,8.82-2.09-.06-3.21-8.86a75.3,75.3,0,0,1-2.27-7.21h-.06c-.13,2.29-.38,5.37-.65,8.12l-.79,7.87-2.63-.08,2-18.34,3.52.1,3.39,9a63.57,63.57,0,0,1,2,6.25h.1a62.72,62.72,0,0,1,2.43-6.13l4.05-8.78,3.52.1.81,18.42-2.69-.07Z" style="fill:#0e2263;opacity:0.13"/><path d="M398.39,595.9l2.76.08-.47,16.39,9.13.26-.05,2-11.89-.33Z" style="fill:#0e2263;opacity:0.13"/><path d="M927.26,540.1c.63,2.71,2.06,4,5,3.2a15.29,15.29,0,0,1,5.21-.55c4.52.4,9.53-2.72,9.15-6.14-.5-4.54-3-7.89-7.5-7.18a43.61,43.61,0,0,1-6.57.06c-.12-5.35-1.63-7.2-5.94-7a30.69,30.69,0,0,0-4.67.85,29,29,0,0,0-2.89-3c-1.53-1.18-3.15-2.92-4.85-3.08a43,43,0,0,0-10.44.56c-3.67.56-6.07-.2-6.58-4.25,1.34-.89,2.76-1.7,4-2.7,7.81-6.45,17.14-7.45,26.75-7.57a71.39,71.39,0,0,0,7.74-.39c2.87-.36,5.69-1.13,8.56-1.53,6.86-.94,13.85-1.26,20.54-2.84,3.39-.8,6-4.25,9.33-5.66a95.59,95.59,0,0,1,13.73-4c2.55-.63,5.47-.25,7.82-1.25,5.53-2.36,9.85-7,16.46-7.64,2.71-.28,4.8-.65,7.35.52,2.12,1,5.09,2.18,6.88,1.43a133,133,0,0,0,19.39-9.89c1.7-1.07,2.47-4.85,2.37-7.34-.23-5.61-5.62-7.24-9.46-8.61-4.09-1.46-9.21-1.32-13.54-.36-3.5.77-6.55,3.73-9.7,5.86-1.31.85-2.93,2-3.39,3.34-1.8,4.94-6,6.4-10.32,7.07a90.39,90.39,0,0,0-26.31,8.61c-7.3,3.62-15.16,5-23.2,5.53-3,.21-6,.57-9,.85.52-5.09-2.66-7.31-6.79-8.89-4.31-1.63-7.64-.43-10.59,2.95a5.67,5.67,0,0,1-3,1.62c-5.52,1.17-11,2.45-16.61,3.13a20.53,20.53,0,0,1-9.41-.73A100.68,100.68,0,0,1,883,477.88c-.85-.48-1.17-2.11-1.33-3.27,0-.37,1.22-1.34,1.86-1.31,2.5.11,5.84,1.7,7.29.57,3.31-2.47-.64-4.33-1.76-6.4-.16-.48-.28-1-.39-1.45,2.8-3.59,6-7.64,9.19-11.8,1.78-2.3,3.39-4.75,5.26-7,2.84-3.45,5.28-7.55,8.85-10s8.61-3.34,12.84-5.21c1.8-.8,4.05-2.07,4.69-3.68,1.24-3.17,2.7-7.06,1.88-10-1-3.48-1.4-8.86-7.4-8.69-.42,0-.8-1-1.3-1.11-1.42-.39-2.89-.59-4.35-.85-.27,1.52-.57,3-.84,4.54-.2,1.27.17,3.07-.54,3.73-3.95,3.58-8.23,6.79-12.22,10.33a44.79,44.79,0,0,0-6.41,6.65c-3.15,4.24-11.71,4.14-14.14-.51-.61-1.15-.14-2.89,0-4.35.18-2.34,1.13-4.83.62-7-2.15-9.06-5.19-10.71-14.11-8.48-.69.17-1.53-.2-2.78-.4l3.23-4.24c-3.24-1.53-2.48-3.45-1-5.7s2.76-4.77,4.12-7.17l2.65-2.66c4.6-.85,7.2.69,6.54,5.33l13.47-3.62c-.44-2.18-.93-4.58-1.41-7,7.51-.23,11.12-3.55,9.58-8.83-2.12-7.26-4.35-8.88-12.26-8.87l-4.45-24.77,3.71-2.38c5.33-3.48,7.71-2.92,11.8,2.13,1.5,1.85,2.75,4.88,6.34,3.08,3.2-1.61,3.39-4.12,2.54-7.08a1.88,1.88,0,0,0-.14-.42c-1.07-3.23.28-5,3.39-5.89a7.64,7.64,0,0,0,3.67-2c2.18-2.55,3.81-5.64,6.08-8.14,2.82-3.1,2.78-5.15-1.29-6.44-2.72-.85-2.86-2.26-2.17-4.2,1.7-4.77,3.64-9.46,5.56-14.43-.84-2.42-2.08-5.58-3.15-8.8-.5-1.52-.22-3.62-1.18-4.62-3.73-3.89-4.44-7.64-1-12.1.25-.33-.9-2.46-1.78-2.81-2.29-.94-5.24-.74-7.08-2.13s-2.42-4.08-3.92-6.86L903.57,264l-7.64-11.75c-2.92,1.63-4.7,2.65-6.51,3.63-1.58.85-3.53,1.32-4.7,2.55-1.51,1.59-1.83,4.53-5.19,3.44-.44-.14-1.48.51-1.76,1.05-2.23,4.24-4.7,3.39-7.64.71a3.54,3.54,0,0,0-3.4-.14c-1,.74-2.12,2.46-1.92,3.52.39,2,1.69,3.89,2.54,5.85.49,1.13,1.2,2.36,1.11,3.48-.23,2.86-.84,5.68-1.29,8.24-3.73.92-7.37,1.43-10.73,2.72-4.38,1.69-4.3,2.69-.66,5.46.85.64,1,2.18,1.44,3.3-1.07.34-2.12.74-3.2,1a10.23,10.23,0,0,1-2.07,0c.66,2.88.44,6.26,2,8,2.9,3.09,2.72,5.83,1.36,9.21s0,5.32,3.67,5.66c.85.08,1.7.32,2.83.55v8.25c-5,1.48-2,7-5,10-3.13-5.41-5.77-3.39-9.12-.17-4.15,4-5.54,9-7.22,14.14-.53,1.58-1.64,3.5-3,4.17-3.26,1.56-3.5,3.34-1.84,6.25.66,1.16,1.16,3.27.55,4.13-2.15,3.1-4.85,5.8-7.21,8.76-.35.43.06,1.47.12,2.21-1,1.22-1.7,3-2.9,3.54a109.78,109.78,0,0,1-10.63,3.75,33.48,33.48,0,0,1-3.44.76,18.48,18.48,0,0,1,.32-3.71c1.51-5.2,2.4-10.35-.14-15.72-3.66,4.69-4.87,10-4.41,16a5.33,5.33,0,0,1-2.26,4.24c-1,.55-3-.41-4.4-1-1.61-.67-3-1.78-4.64-2.46a25.72,25.72,0,0,0-4.56-1.36c-2.59-.57-5.34-.69-7.78-1.62-2.11-.81-4.86-2.08-5.59-3.86-1.41-3.4-1.59-7.3-2.25-11-1-5.73-2.55-11.43-3-17.21-.52-6.73-.9-13.66.09-20.28,1-6.95-5.53-12.74-2.2-19.82.32-.66-2-2.86-3.39-3.89-.6-.44-2.8,0-3,.52-.52,1.42-.33,3.09-.48,4.66-.13,1.34,0,2.91-.61,3.93a31.92,31.92,0,0,1-3.89,4.24c2,5.21,5.58,9.53,4.68,15.5-.35,2.26.27,4.65.31,7,.08,4.24.33,8.49,0,12.73-.52,6.79-3,13.58.85,20.19.52.85.27,2.29.15,3.44-.46,4.49-.53,9.11-1.7,13.43-1,3.61-3.07,7-5.09,10.19-.36.58-3.29.44-4.13-.34-3.48-3.22-7.2-4.68-11.89-3.24.16-2,1.14-4.42.34-5.94a29.37,29.37,0,0,1-3.2-12.92,10.56,10.56,0,0,0-10.45-10.35c-4.84,0-6.92,2.47-8.08,9.51,0,.13-.16.25-.47.67l-3.82-1.34c.27-3.74,1-7.54.58-11.2-.18-1.44-2.87-3.35-4.63-3.63-2.55-.4-4.94.85-4.78,4.25-2.8-2.67-5.73-5.21-8.38-8s-4.89-3.61-8.24-.79c-4,3.4-6,3.16-9.83-.5a89.46,89.46,0,0,1-5.87-6.93c-2.45,4.82-6.22,6.64-10.88,7.93-6.37,1.76-8-3.1-11-6.37-.89-1-2.64-1.13-4-1.66-.07,1.7-.85,3.81-.13,5.1,2.76,5.09,1.26,9.34-4.19,11.26a7.13,7.13,0,0,0-3.39,2.84c-2.48,4.07-4.92,7.76-10.36,8.49-1.55.2-3.89,2.75-4,4.29-.18,4.44-2.92,6.67-6.14,8.38-2.94,1.56-6.28,2.38-9.44,3.52l-11.17-7.58c3.68-12.6,7.36-25.22,11.11-38.07a3.06,3.06,0,0,0,1.6.33c3-.41,7.48.1,8.85-1.7,4.1-5.37,6.94-11.69,10.37-17.58,8.92-15.32,5.82-32.55,7.7-49,.53-4.6-3.87-7.27-8.92-6.45-1.77.29-3.57.42-5.34.61,1.21-4.61,1-9.42,1.66-14.12.85-6.25,2.71-12.36,3-18.68.32-1,.7-1.92,1-2.91,1.4-5.73,2.66-11.44,8.32-14.92,1-.61,1.62-2.85,1.43-4.2-1.75-12.49-3.19-25.07-5.8-37.35-1.92-9-5.55-17.7-12.4-24.45-5.94-5.89-12.1-11.62-18-17.56-13.85-13.92-30.11-23.29-49.93-24.52-12.14-.77-24.41-.2-36.58.48-19.72,1.1-39.28,3.51-58.2,9.57-12.88,4.12-25,9.63-33.71,20.58-5.78,7.24-11.44,14.59-17.3,21.77A32.91,32.91,0,0,0,403.45,183c-2.12,11.88-4.71,23.62-6.79,35.49-1.8,10.48,0,20.67,3.44,30.63,6.43,13.48,11.51,21.68,11.7,42.54-10-1.29-12.12.63-11.75,10.7a63,63,0,0,0,.93,8.77c2.17,12.2,5.09,24.09,12.64,34.37a89.23,89.23,0,0,1,8.32,13.3c2.21,4.53,4.32,6.38,9.41,6,1.43-.11,2.85-.34,4.78-.58,2.83,13.13,6.61,25.75,13.91,37q-8.24,9.65-16.46,19.31c-1.13.92-2.29,1.8-3.39,2.77-9.83,8.84-20.87,15.15-34,18.3-9.88,2.37-19.27,6.79-28.87,10.24l-1.38.68-4.79,1.92c-1.1.38-2.22.71-3.28,1.17C333.54,466,310,477.86,287.71,492.24,277.12,499.08,266,505,255.1,511.47c-8.49,5-14.21,12.68-19.07,21-10.35,17.73-15.83,37.18-20,57.09-1.53,7.42-2.72,14.92-4.12,22.69h33.32c1.77.07,3.53.19,5.29.19l334.05.08c10.18,0,20.31-.16,30.46-.23l1.7.15,86-.09h6.79l92.75.15,5.36.07,1.91-.25,7,.42,3.52.74H898c12.21,0,24.42.16,36.62-.14,1.91,0,3.77-2.14,5.65-3.29-.93-1.13-1.88-2.25-2.79-3.39a5.66,5.66,0,0,1-1.36-2.06c-.61-3.25-2-6.69-1.36-9.74,1.28-6.5-2.88-10.37-5.79-15,3.26-.49,4-2.88,3.4-5.45a6.22,6.22,0,0,0-3.15-3.92c-3.4-1.27-4.36,1.78-5.57,4.06l-4.42-5.31c3.73-.73,7.38-3.93,11.34-.34.2.18,2.54-1.08,2.61-1.85.41-2.8,2.28-2.63,4.33-3.25a44.28,44.28,0,0,0,9.53-4.59c.66-.39,1-3,.54-3.34-2.2-1.7-4.64-3.88-7.15-4.1-4.74-.42-9.62.76-14.43.53-2.89-.12-5.71-1.62-8.57-2.54,3.69-.94,6.49-2.64,6.18-7.06Zm38.08-319.71c0-9.62-1.7-11.21-10.65-10.08-6.12.77-10.35,10.78-6.46,15.79,1.7,2.15,4,4.71,6.36,5.22C961.15,232.7,966.32,228.45,965.34,220.39Zm26.31,307.55c-2.88-1.57-5.16-3.56-7.64-3.89-1.63-.2-4,1.7-5.15,3.3-.45.66,1.26,3.76,2.65,4.51,2.65,1.44,4.76,4.83,8.72,3.21.41-.17,1.95,1.48,2.43,2.55,2,4.31,9.62,5.7,12.88,2.24,3-3.17,3.08-8.71-.35-12.56-2.6-2.91-6.09-3-9.59-1.19C994.08,526.91,992.5,527.58,991.65,527.94Zm-6.91-151.46c-.85-4.15-2.22-5.13-5.26-3.43-2.06,1.15-3.7,3.05-5.56,4.59a29,29,0,0,1-2.76,2.05c-3.22,2.11-6.61,4-9.64,6.35-.85.62-1,2.85-.59,3.9.33.7,2.63,1.25,3.58.85a93.85,93.85,0,0,0,13.88-7c2.63-1.72,4.29-4.83,6.38-7.31ZM746.33,289.13c-5.76,3.62-13.46,18.28-11.65,21.81C741.88,307.45,749,294.4,746.33,289.13Zm240.62,79c3.3.71,5.88,2.12,7.43,1.39,1.78-.85,2.55-3.69,3.94-5.5a31.46,31.46,0,0,1,3.72-3.67c2.2-2.06,4.56-4,6.59-6.17.47-.51.23-2.37-.34-2.94a3.05,3.05,0,0,0-2.95-.32c-1.28.85-2.79,2-3.17,3.39-1.38,4.92-5.61,6.74-9.22,9.34-1.74,1.21-3.42,2.54-6,4.48ZM676.78,331.67c2.23-4.24,1.55-15.91-1.53-18.07-1.18-.85-3.74-1.44-4.44-.8-1.2,1.1-2.44,3.73-1.89,4.89C671.23,322.59,674.17,327.17,676.78,331.67Zm245.78,33.06c-1.16-5.67-2.46-11-9-12.23-1.1-.21-3-.14-3.34.47-.49.85-.17,2.48.3,3.56a43.17,43.17,0,0,0,2.79,4.8c2.49,4.21,5.13,5.25,9.27,3.4ZM1007.45,541l-.85.72c-1,.17-2.22,0-3,.56-1.7,1.18-4.17,2.54-4.34,4.1s2,3.39,3.34,4.9c2.67,2.92,3.85-1.19,5.79-1.34,2.75-.22,4.63-1.36,3.6-4-.8-1.93-3-3.31-4.56-4.93ZM1001,590.83c-2.6.2-5.23-.1-7.46.71a17.41,17.41,0,0,0-5.83,4.24c-.38.36.36,2.9.79,3a26.09,26.09,0,0,0,7,0c1.2-.18,2.18-1.47,3.4-2C1001.84,595.53,1002.21,593.51,1001,590.83Zm-41.23,0c-2.78-2.88-4.24-5.2-6.35-6.32-1.7-.89-5.28,4-4.69,6.87.27,1.35,2.54,3.46,3.52,3.28,2.23-.42,4.21-2,7.53-3.85ZM722.87,333.16c-1-.61-3.93-2.65-4.17-2.38a25.24,25.24,0,0,0-4.38,7.05c-.23.6,1.7,2.86,2.81,3.05C719.68,341.32,723,337.25,722.87,333.16Zm93.91,18.77c-2.47,1.44-4.94,2.41-6.69,4.12-.6.58.24,3.31,1.16,4.48.53.69,2.84.75,3.81.18C818,359,818.13,356.13,816.78,351.93Zm120.78-58.24c-1.46,2.55-2.94,4-2.93,5.46,0,1,2.54,3,3.21,2.72a5.77,5.77,0,0,0,3.33-3.6c.15-1-1.82-2.38-3.65-4.58ZM893.18,428.38c-1.57-1.44-2.82-3.21-3.39-3-1.2.4-2.95,2-2.8,2.87.22,1.4,1.76,2.55,2.75,3.86ZM712.47,307l-1.29-.49c-1.07,2.81-2.14,5.63-3.49,9.2,5.33-2,6.2-4,4.73-8.69Z" style="fill:#fefefe;opacity:0.13;isolation:isolate"/><path d="M615.07,612.29c-10.18.07-20.31.23-30.46.23q-167,0-334-.08c-1.76,0-3.52-.12-5.29-.19-1.69-11.34-1.23-22.49,2.8-33.35,6.9-18.57,13.76-37.15,20.74-55.69,3.22-8.56,8.59-14.84,17.36-18.82A166.27,166.27,0,0,0,310.78,490c14-9.59,27.62-19.78,41.43-29.66,2.89-2.07,5.94-3.91,8.94-5.86l4.78-1.93,1.39-.68c9.6-3.49,19-7.87,28.86-10.24,13.14-3.18,24.18-9.49,34.09-18.23,1.09-1,2.25-1.85,3.4-2.77a10.65,10.65,0,0,1-.19,2.18c-4.24,14.43-9.91,28.58-10.7,43.83a90.64,90.64,0,0,0,.85,16c.48,3.75,2.18,7.32,2.86,11,2,11.11,5,14.83,15.89,17.14s21.55,4,32.33,5.94c13.74,2.55,27.5,4.36,41.49,2.1,9.69-1.58,19.38-3.06,28-8.34,5.38-3.3,11-6.22,16.35-9.56,13.12-8.18,27.65-14.43,37.4-27.3,4.68-6.19,10.31-11.7,14.55-18.15,5.09-7.71,9.07-16.13,13.58-24.16,2.14-3.82,4.42-7.55,6.63-11.32,1.22,1,2.55,2,3.66,3.11,3.51,3.51,6.36,8.21,10.53,10.45,18.58,10,37.53,19.28,56.35,28.87,1.91,1,3.77,2.19,5.73,3.15,20.93,10.29,41.89,20.51,62.81,30.9,3.08,1.51,5.79,3.74,8.68,5.63-1.31,0-3-.43-3.85.21a10.8,10.8,0,0,0-3.11,4.32c-.24.55,1.07,2.54,1.6,2.49,1.7-.1,3.89-.35,5-1.43s.85-3.15,1.23-4.79l2.55.29,16.28,13.58c-5.35-.13-8.66,3.76-12.45,6.54-1.55,1.13-2.43,3.17-3.62,4.8l.52.15-7,14.23,3.66.85-6.74,9.69c4.56-.05,5.17,1.69,3.23,4.64-.92-.6-2.12-1-2.74-1.85-2.69-3.66-9.24-4.7-9.82-1.4-.51,2.86.64,6.62,2.34,9.11s4.67,1.31,7-.5c1.22-1,2.75-1.51,5.42-2.9-2.21,10.07,5.77,14.32,8.39,21.1,6.46.27,8.49,1.79,9,6.74-4.31-1.7-6.62-.85-8.3,3.21-1.85,4.49-.5,9.26,3.09,10.89,3.09,1.41,6.92-.71,8.65-4.77a42.94,42.94,0,0,1,.9,4.6c.33,3.51.51,7,.74,10.53l-92.75-.13c1.35-4.46-1.38-5.71-5-6.27a11.59,11.59,0,0,1,1.59-.66c2.55-.64,3.08-2.55,2.47-4.67-.22-.78-2-2-2.28-1.76-1.49.85-3.17,2-3.87,3.45-.34.72,1.32,2.39,2.08,3.63-2.44,1.56-3.92,3.4-1.85,6.28l-86,.09-.44-1.12Zm53.85-57.09c-.09-.16-.17-.32-.27-.49v.22a3.15,3.15,0,0,0,.29.22,27.66,27.66,0,0,0,1,3.78c.85,2.17,2.36,4.19,2.71,6.41.47,3-.45,6.28.25,9.2a28.52,28.52,0,0,0,4.41,10.19c2.15,2.89,4.78,2.09,6.61-1.13,2.33-4.1.34-7.55-1.42-11.18a58.79,58.79,0,0,1-4.24-10.4C676.72,556.41,675.2,555.05,668.92,555.2Zm-38.07-2.55c3.22-.69,4.52-2.25,2.35-5.32,2.7-3.12,4.8-1.38,6.25,1.11,1.31,2.26,1.7,5,3,7.32a73.94,73.94,0,0,0,5.21,7.33c4.81-6.13,4-13.5-.73-18.36-1.2-1.23-1.69-3.18-2.47-4.79a41.31,41.31,0,0,1,5.73-2.45c1-.27,2.32.71,3.4.55,2.55-.35,5.69-.29,7.34-1.79,1.89-1.7,2.42-4.91,3.54-7.48-2.31-.45-4.59-1.09-6.92-1.31s-4.89-.05-7.34-.05l-.54-1.21c4.09-.59,6.89-2.29,6.79-7.64L635.28,522a56.29,56.29,0,0,1,.85-5.78c.69-2.7,1.85-5.28,2.46-8a8.07,8.07,0,0,0-5.37-9.85,7.74,7.74,0,0,0-9.87,4.39c-1.17,2.61-1.51,5.6-2.08,8.49-.43,2.15-.31,4.45-1,6.49-.89,2.64-3,4.07-5.89,3.13-3.12-1-3.4-3.22-2.13-6a27.41,27.41,0,0,0,1.19-4.46c-2.47,0-4.34-.1-6.22,0-3.16.21-5.3-.34-5.75-4.25-.41-3.54-3.39-5.3-6.67-5.33a40.45,40.45,0,0,0-10,1.47,6.55,6.55,0,0,0-5.09,6.92c.08,16.2-2.48,17.83,16.37,22.13,3.29.77,6.74,1.08,9.87,2.23,5.28,1.94,6.17,5.78,2.93,10.37-1,1.42-2.27,3-2.46,4.59-.23,1.8,0,4.63,1.18,5.37,1.42,1,4.08.68,5.94.1,1.53-.49,2.61-2.3,4-3.4,3.76-2.82,6.18-1.94,7.42,2.55.56,2,1.22,4,1.84,6.07H628c1-2.14,1.89-4.35,2.86-6.56Zm114.06,46.94c-.53,1-1.4,2-1.34,2.84.13,1.61.47,4.24,1.32,4.55a6.6,6.6,0,0,0,5.17-1.08c1-.74,1.25-2.86,1.29-4.38.15-5.36,0-10.74,0-16-12.4-2.17-13.91-1.78-15.13,3.69-1,4.31,2.11,8.18,8.64,10.38Zm-67.15-60.51c-.27,4.51,2.45,7.25,7.52,7.59,2.2.14,5.79-4.31,6-7.5.29-3.78-2.89-8.21-6.1-8.49-3.5-.39-7.19,3.77-7.46,8.37Zm83.64,45.74c5.33-.1,8.72-3.07,8.65-7.81-.06-3.31-1.49-5.67-5.18-5.83-4.15-.18-9,4.12-8.69,8.08C756.43,582.21,757.49,585.1,761.4,584.82Zm10.27,24.75c1.75-3.07,3.67-5.26,4.24-7.75.72-3.2-.85-6-4-7.64s-6.24-.57-7.41,2.91c-.75,2.23-1.4,5.48-.32,7.11,1.49,2.25,4.64,3.43,7.45,5.33ZM665.9,504.08c-.13-4.88-2.37-7.48-5.38-7.41s-5.69,3.12-5.67,6.22c0,3.57,1.7,5.69,5.35,5.42A6.28,6.28,0,0,0,665.9,504.08Zm105.43,37.07c4,.07,5.54-2.55,6.07-5.42a4.95,4.95,0,0,0-5.31-5.56,5.8,5.8,0,0,0-5.34,6C766.7,538.82,768.11,541.35,771.33,541.15Zm-20.84,23.46c.4-3.27-2.11-4.84-5.24-5s-4.73,1.9-4.64,5.09,1.56,5.37,5,5.34C748.67,570.06,750.57,568.53,750.49,564.61Zm-52.88,2.89-6.39-5.16c-1.45,1.79-3.81,3.47-4,5.39-.17,1.51,2.62,4.84,3.6,4.66,2.06-.37,3.76-2.53,6.82-4.89Zm-60.36-89.69,4.51,4.72c1.65-1.6,3.76-3,4.71-4.9.35-.72-2.32-4.12-3.12-3.95C641.47,474.08,639.88,475.89,637.25,477.81Zm110.63,56.4,4.59,4.66c1.34-1.52,3.64-3,3.71-4.57s-2.18-3.09-3.39-4.64Zm-66.69-35.33,1.77.1c1.18-1.79,2.92-3.47,3.3-5.41.18-.91-2.26-2.33-3.5-3.52-1.35,1.5-3.28,2.82-3.84,4.58C678.58,495.68,680.36,497.43,681.19,498.88ZM662.07,601.36c.77-2.78,5.63-4.07,1.7-7.78-2-1.91-3.4-1.06-4.69.65C657.25,596.7,658.22,599.34,662.07,601.36Zm66.15-65.84-1.56.15c-.69,1.56-2.06,3.21-1.86,4.64s2,2.69,3.06,4c1.22-1.43,3.32-2.82,3.4-4.32S729.35,537,728.22,535.52Zm-63.15-60.27c-1.76-1.41-3.05-2.88-3.44-2.66a9.07,9.07,0,0,0-3.32,3.16c-.19.31,1.62,2.55,2.06,2.43,1.41-.4,2.61-1.52,4.7-2.87ZM543.82,539.83c-1.84-1.6-3.4-3.4-3.72-3.16a20,20,0,0,0-3.75,3.56c.93.85,2,2.55,2.77,2.46C540.52,542.42,541.75,541.12,543.82,539.83Zm109.56,56.76-3.64-4c-1,1.22-2.37,2.33-2.68,3.69-.18.77,1.41,2.7,2.29,2.76,1,0,2.22-1.33,4-2.53Zm-5-92.32c1.44-1.89,2.92-3,2.8-3.89s-1.62-2.21-2.73-2.49c-.61-.14-2.27,1.43-2.32,2.28s1.08,2.09,2.25,4.06ZM628.59,602c-1.9-1.31-3-2.7-4-2.55s-2.12,1.7-2.32,2.76c-.11.64,1.5,2.21,2.34,2.23C625.68,604.45,626.72,603.25,628.59,602ZM748.28,582l-.19.26h.28Z" style="fill:#015e76"/><path d="M641.42,279.92c-1.88,16.42,1.22,33.65-7.7,49-3.39,5.9-6.27,12.21-10.37,17.59-1.37,1.79-5.8,1.29-8.85,1.69a3.06,3.06,0,0,1-1.6-.33l-.21.74c-3.69,12.6-7.29,25-10.9,37.33l-.58,1.35-.29.91a.83.83,0,0,1-.1.75c-.26.29-.53.59-.77.9a19.92,19.92,0,0,0-1.78,2.57c-6.71,15-17.74,26.72-29,38.25-2.34,2.4-4.87,4.59-7.32,6.87l-1.79.92c-5.63,2.11-11.16,4.52-16.89,6.29-18.79,5.76-36.27,4.33-53.18-7.29-12.32-8.49-23.19-18.38-34.24-28.22a6.73,6.73,0,0,0-.09-.77l-.9-1,0,0-4.69-6.12c-7.3-11.25-11.09-23.87-13.91-37-1.93.24-3.36.47-4.78.58-5.1.4-7.2-1.45-9.42-6a89.17,89.17,0,0,0-8.31-13.3c-7.52-10.28-10.47-22.17-12.65-34.37a64.39,64.39,0,0,1-.92-8.77c-.37-10.07,1.78-12,11.75-10.7.55.44,1.08,1.25,1.64,1.26,7.23.31,9.34,5,10,11.19.69,6.39,1.57,12.74,2.37,19.13.85-10.64.85-21.22.9-31.78.05-4.84.39-9.68.56-14.53.15-4.06-.39-8.27.47-12.15,1.55-7,3.95-13.83,6-20.73a35.27,35.27,0,0,0,21.95-15.8c3.22-5.1,5.72-10.6,9-15.66,1.91-3,4.66-5.38,7.73-8.83.12,2.59.18,3.78.25,5.27,2.59-3,4.9-5.67,7.46-8.63,9.89,26.51,33.52,45.33,56.12,46.16a11.76,11.76,0,0,0,3.1,1.53c6.94,1,13.88,2,20.85,2.75,3.92.43,8,0,11.82.68,6.45,1.23,12.74,3.09,19.13,4.67a2.62,2.62,0,0,1,.76.3l1.39,1-.39-1.31-1.78-.94c-.3-.29-.58-.58-.87-.89h.07c-1.47-5.39,0-9.24,4.41-10.18,3.88-.85,7.89-1.21,11.83-1.78a45.38,45.38,0,0,1,6.56,20.38q1.2,18.67,2.69,37.3c.31,3.94,1,7.86,1.48,11.8a44.12,44.12,0,0,0,2.14-8.88c1.89-9.85,1.51-20.31,7.7-29l.12,0c1.73-.19,3.5-.32,5.22-.6C637.59,272.62,642,275.32,641.42,279.92Z" style="fill:#cc8f6e"/><path d="M642.57,219.19c-1.75-12.46-3.19-25-5.8-37.35-1.92-9-5.55-17.7-12.4-24.44-6-5.9-12.06-11.63-18-17.57-13.84-13.92-30.1-23.29-49.92-24.52q-3.78-.24-7.59-.32h-.47L545,115c-8.36,0-16.75.37-25.1.84-19.71,1.08-39.27,3.51-58.19,9.57-12.88,4.12-25,9.63-33.71,20.58-5.79,7.24-11.44,14.59-17.3,21.77a32.91,32.91,0,0,0-7.13,15.37c-2.14,11.85-4.74,23.61-6.79,35.49-1.81,10.48,0,20.67,3.44,30.63l1.71-1.14,9.71-6.5c1.41,4,4,2.66,7.35,2.06,4.77-.83,9.88.23,14.85.47a35.23,35.23,0,0,0,21.95-15.8c3.22-5.06,5.72-10.6,9-15.65,1.91-3,4.66-5.38,7.73-8.84.12,2.59.18,3.78.25,5.28,2.59-3,4.92-5.68,7.46-8.64C490,227,513.67,245.76,536.27,246.6c14.53.88,29.08,1.45,43.55,2.82,3.63.35,7,3.28,10.53,5-1.47-5.36,0-9.21,4.41-10.19,3.88-.86,7.89-1.2,11.83-1.77.44-.71,1.37-1.56,1.22-2.17-1.37-4.84,1.08-4.58,4.24-3.24,4,1.7,7.73,4,11.83,5.09,2.42.64,5.31-.57,8-.95.32-1,.7-1.92.94-2.91,1.41-5.73,2.67-11.44,8.32-14.91C642.14,222.78,642.76,220.54,642.57,219.19Zm-228.38,21a2.34,2.34,0,0,1-.09-.46,1.65,1.65,0,0,1,.32.07c.07,0,.07.18.07.27Z" style="fill:#232323"/><path d="M780.44,502.13c-2.89-1.9-5.61-4.12-8.68-5.64-20.89-10.38-41.85-20.6-62.82-30.9-2-1-3.82-2.1-5.73-3.15.3-1.62,1.28-3.5.78-4.82-1.54-4-4.91-7.69-5.23-11.69-.52-6.53-5.17-7.33-9.34-9.34a15.65,15.65,0,0,1-2.59-1.92c.77-.94,1.37-2.26,2.37-2.72a7,7,0,0,1,4.44-.7c4.68,1.38,9.17,3.49,13.89,4.58,1.7.38,5-.85,5.6-2.25,1.7-4.07,2.32-8.62,3.7-12.87.65-2,1.7-4.32,3.27-5.49,3.9-2.85,4.81-4.76,2.23-8.68-2.34-3.55-2.61-6.67.63-9.72l7.94,2.66c.78,2.95,2,1,2.88.16,1.35-1.4,2.55-3,3.75-4.5l.31,1.22,5.46.5c4.64-1.44,8.37,0,11.88,3.24.85.78,3.77.92,4.14.34,2-3.2,4.13-6.57,5.09-10.19,1.15-4.32,1.22-8.94,1.7-13.44.12-1.14.36-2.54-.16-3.43-3.93-6.62-1.4-13.41-.85-20.19.33-4.24.07-8.49,0-12.73,0-2.34-.66-4.73-.31-7,.91-5.94-2.71-10.29-4.68-15.5a30.62,30.62,0,0,0,3.89-4.24c.65-1,.49-2.59.61-3.93.16-1.57,0-3.24.49-4.67.18-.5,2.38-.95,3-.51,1.42,1,3.71,3.23,3.4,3.89-3.34,7.1,3.24,12.87,2.2,19.82-1,6.62-.61,13.58-.09,20.28.44,5.78,1.91,11.48,2.94,17.21.66,3.69.85,7.6,2.25,11,.73,1.79,3.48,3.06,5.59,3.87,2.44.93,5.19,1.05,7.79,1.62a26,26,0,0,1,4.56,1.36c1.6.68,3,1.79,4.63,2.46,1.43.58,3.4,1.55,4.41,1a5.36,5.36,0,0,0,2.26-4.24c-.46-5.95.74-11.29,4.4-16,2.55,5.37,1.7,10.52.15,15.72a18.49,18.49,0,0,0-.33,3.71,33.67,33.67,0,0,0,3.45-.76,109.06,109.06,0,0,0,10.63-3.76c1.24-.55,1.94-2.31,2.89-3.53a40.2,40.2,0,0,0,6.43-1c3.17-1,4.58,0,4.12,3.19-.69,4.77.85,8.2,5.35,10.14-.14,3.54-2.24,7.28,2.85,9.75,3.51,1.7,5.84,0,8.62-.9h.92c-.25,2.75.42,6.13-.94,8.13-3.29,4.85-7.81,8.86-11.24,13.62-1.23,1.7-.9,4.6-1.07,7-.31,4.72.37,9.68-.9,14.11-2.06,7.22-2.25,8.53,3.26,13.94,3.93,3.84,6.43,4.18,10.35,1.4,4.35-3.08,5.78-7.56,3.86-11.76-1.49-3.29-2.73-6.71-4.42-9.88-.45-.85-2.13-1.31-3.29-1.42-.85-.08-1.7.73-2.6,1.14l-1.19-.64c1.11-5.51,2.76-11.1,6.42-15.44A72.75,72.75,0,0,0,864,406.92c2.44-4.5,6.79-8,10.34-11.88-1.36,2.39-2.6,4.87-4.12,7.16s-2.25,4.18,1,5.71L868,412.15c1.24.2,2.09.57,2.78.39,8.91-2.25,11.95-.61,14.11,8.49.51,2.16-.44,4.65-.63,7-.11,1.46-.58,3.2,0,4.35,2.44,4.65,11,4.72,14.14.5a44.87,44.87,0,0,1,6.38-6.69c4-3.53,8.28-6.75,12.22-10.33.72-.66.34-2.47.54-3.73.23-1.52.53-3,.85-4.54,1.45.28,2.93.47,4.34.85.5.14.85,1.12,1.3,1.11,6-.17,6.45,5.21,7.4,8.68.85,3-.63,6.88-1.88,10-.64,1.61-2.89,2.88-4.69,3.68-4.24,1.87-9.13,2.65-12.84,5.21s-6,6.55-8.85,10c-1.85,2.26-3.48,4.7-5.26,7-3.17,4.12-6.39,8.21-9.18,11.79a14,14,0,0,0,.38,1.45c1.12,2.08,5.09,3.93,1.76,6.4-1.45,1.09-4.79-.45-7.29-.56-.63,0-1.91.94-1.86,1.3.16,1.17.5,2.8,1.33,3.28,4.53,2.61,9.08,5.36,14,7.22a20.21,20.21,0,0,0,9.4.73c5.59-.68,11.1-2,16.61-3.12a5.74,5.74,0,0,0,3-1.62c2.92-3.4,6.27-4.59,10.58-3s7.34,3.8,6.79,8.9c-2.85,8.44-10.82,11.5-18.28,7-2.27-1.37-3.8-1.05-5.52,1.27-1.26,1.7-3.56,2.78-5.56,3.78s-4.57.94-5.94,2.31c-2.43,2.39-4.17,3.25-7,.66-.84-.79-3.23-.78-4.37-.15-.78.43-1,2.6-.85,3.93.28,2.6,1,5.15,1.51,7.73.5,4,2.9,4.8,6.57,4.24a43,43,0,0,1,10.44-.55c1.7.16,3.33,1.89,4.85,3.08a29.9,29.9,0,0,1,2.89,3c-.59,4.36-1.19,8.7-1.57,11.52l-7.27.85c-1.15-.08-2.43-.55-3.39-.2-4.42,1.55-5.38,1-4.72-3.81.36-2.62-.85-4-3-3.73-4.3.49-8.54,1.59-12.8,2.43l-4.77-.63c0,2.88-1.13,6.93.23,8.12,3.13,2.74,3.84,5.66,3.67,9.34,0,1.11-.39,3,.06,3.23,4.15,2.18,4.83,6.22,5.1,10.05.35,4.71-.71,9.54-.22,14.22.56,5.43-2.55,6.32-6.58,7-2.67.48-5.26,1.35-7.73,2,.85,3.13,2.13,5.77,2.13,8.42,0,4.38,1.23,6.79,6,6.33,1.94-.2,3.39.18,2,2.63-3.31,1.76-6.43,4.24-10,5.09-5.84,1.43-5.94,1-5.94,7.24H820.33l2.46-1.21H836.5c-1.59-7.55-3.09-14.66-4.61-21.77l-2.07-9.94-4.25-16.56c6.89-1.09,8.94-3.78,6.73-9.53-1.95-5.09-5.18-9.34-13.73-9q-1.87-3.95-3.76-7.89c2-1.58,4-3.21,6.07-4.72,3.26-2.41,6.5-4.88,9.93-7a49.51,49.51,0,0,1,7-3.29c.91-.38,2.17-.18,2.9-.74,7.72-5.9,12.73-14,12.79-23.42,0-5.83,1.47-12.92-3.67-18.21-.52-.54.35-2.42.57-3.68.85,1,1.7,1.95,2.55,2.91,2.11,2.4,4.64,1.61,4.91-.85a13.78,13.78,0,0,0-2.23-8.35c-.72-1.11-4-.58-6.08-.85-1.64.85-3.26,1.82-4.94,2.64-6.23,3.06-10.64,2-11.88-5.3-.29-1.7-.57-3.46-1-5.15-.72-2.81-2.39-3.39-5-2.06a47.34,47.34,0,0,1-6.44,2.74c-4.81,1.58-10.32,2-14.33,4.75s-6.68,7.4-9.44,11.57c-1.54,2.34-1.76,5.53-3.1,8.05-3,5.63-6.31,11.08-9.48,16.61l-2.55-.29.06,0-1-.93Zm144.2-78.6c-.62-4.06-3-5.76-6.13-4a30.25,30.25,0,0,0-7.73,6.34c-.85,1-.85,4.13,0,5,1.3,1.24,4.61,2.39,5.5,1.69C919.42,430,921.9,426.58,924.64,423.53Zm-61.85,164.3c3.83.08,9.22-3.74,8.54-6.25a5.53,5.53,0,0,0-3.73-3.3c-3.76-.55-8.35,2.92-8.49,5.64S860.12,588.13,862.79,587.83Zm-23.7-42.91,3.87-3.2a48.83,48.83,0,0,0-4.37-4.14c-.17-.13-2.39,1.55-2.26,2C836.78,541.19,837.84,542.64,839.09,544.92Zm31.84,11.88,1.23-.85c.14-5.13-1.9-7.7-7.52-8.17,2.36,3.44,4.33,6.25,6.29,9.07Z" style="fill:#e21e22;opacity:0.13;isolation:isolate"/><path d="M723,396.86c-3.24,3-3,6.16-.63,9.72,2.55,3.92,1.7,5.82-2.23,8.67-1.6,1.17-2.62,3.5-3.27,5.49-1.37,4.25-2,8.81-3.7,12.87-.59,1.37-3.91,2.63-5.59,2.25-4.73-1.08-9.22-3.2-13.9-4.57a7,7,0,0,0-4.44.69c-1,.46-1.6,1.79-2.37,2.73a17.36,17.36,0,0,0,2.59,1.92c4.24,2,8.86,2.77,9.34,9.33.32,4,3.69,7.69,5.23,11.69.5,1.32-.48,3.2-.78,4.83-18.82-9.55-37.76-18.83-56.34-28.87-4.17-2.24-7-6.94-10.53-10.46-1.13-1.12-2.44-2.07-3.66-3.1-1-1.21-2.48-2.25-3.06-3.64-3.81-9-9.8-16.28-16.69-22.92,3.16-1.14,6.5-2,9.45-3.52,3.21-1.7,5.94-3.94,6.13-8.38.06-1.54,2.41-4.09,4-4.29,5.44-.71,7.88-4.4,10.36-8.49A7.13,7.13,0,0,1,646.2,366c5.45-1.91,6.95-6.14,4.2-11.26-.7-1.3.05-3.4.12-5.09,1.36.52,3.11.69,4,1.65,3,3.27,4.61,8.13,11,6.37,4.65-1.29,8.43-3.11,10.87-7.93a87.61,87.61,0,0,0,5.87,6.93c3.82,3.66,5.82,3.9,9.83.51,3.35-2.83,5.62-2,8.24.79s5.58,5.34,8.39,8c.36,5.32,3.16,8.68,8.82,10.59l3.82,1.34c.31-.42.45-.54.47-.67,1.16-7,3.24-9.5,8.08-9.51a10.56,10.56,0,0,1,10.45,10.35,29.37,29.37,0,0,0,3.2,12.92c.8,1.47-.18,3.9-.34,5.94l-5.37-.55-.32-1.18c-1.23,1.52-2.4,3.1-3.75,4.5-.85.89-2.09,2.8-2.88-.16l-9.56-14.7-1.82.85ZM668.1,427.35c0,4.81,4,9.41,8.14,9.25,3.19-.12,7.58-5,7.5-8.26-.13-4.65-4.46-9.28-8.79-9.34S668.11,422.05,668.1,427.35Z" style="fill:#0000df;opacity:0.13;isolation:isolate"/><path d="M632.71,420c-2.21,3.77-4.49,7.51-6.63,11.32-4.52,8.06-8.49,16.46-13.58,24.17-4.24,6.45-9.87,12-14.55,18.14-9.74,12.89-24.28,19.12-37.4,27.3-5.36,3.34-11,6.26-16.35,9.56-8.61,5.28-18.3,6.79-28,8.34-14,2.27-27.75.44-41.49-2.1-10.78-2-21.61-3.67-32.33-5.94s-13.89-6-15.89-17.14c-.67-3.73-2.38-7.3-2.86-11a89.86,89.86,0,0,1-.84-16.06c.78-15.28,6.42-29.38,10.69-43.82a10.81,10.81,0,0,0,.19-2.19l1.29-1.52,15.17-17.79,4.69,6.16c-5.09,5-9.58,10.34-10.46,17.82-1.79,15.44-3.6,30.87-5.31,46.31-.73,6.65-.16,7.41,6,10.65,9.75,5.1,19.37,10.5,29.28,15.28s20.07,8.92,30.13,13.34c6.92,3.1,13.74,2.1,20.58-.4,19.09-7,36.14-17.59,52.78-29,12.24-8.41,22.13-18.57,28.07-32.52,2.9-6.79,6-13.34,6.41-20.88.15-3-.63-4.78-3.68-5.94-5.76-2.2-8.92-6.4-8.57-12.89.35-6.74.51-13.49.76-20.24a.83.83,0,0,0,.1-.75c.09-.3.2-.61.29-.9l.58-1.35L613,393.46A75.82,75.82,0,0,1,627.54,412c.77,1.42,1.47,2.87,2.11,4.37S631.67,418.82,632.71,420Z" style="fill:#024a5b"/><path d="M861.84,327.9v-7.4A28.13,28.13,0,0,0,859,320c-3.65-.34-5.1-2.17-3.67-5.67s1.54-6.12-1.36-9.21c-1.59-1.69-1.37-5.09-2-8a10.13,10.13,0,0,0,2.06,0c1.09-.25,2.13-.65,3.2-1-.45-1.12-.6-2.66-1.43-3.3-3.64-2.77-3.72-3.78.66-5.46,3.4-1.28,7-1.8,10.73-2.72.43-2.55,1-5.38,1.29-8.24.09-1.12-.63-2.34-1.11-3.47-.85-2-2.17-3.82-2.55-5.86-.19-1.05.91-2.78,1.93-3.52a3.57,3.57,0,0,1,3.4.14c3,2.67,5.42,3.54,7.64-.71.28-.54,1.32-1.19,1.76-1.05,3.4,1.09,3.68-1.85,5.19-3.44,1.17-1.23,3.12-1.7,4.7-2.55,1.81-1,3.58-2,6.5-3.63l7.64,11.75,6.15-2.44c1.5,2.78,2.17,5.53,3.92,6.86s4.79,1.2,7.08,2.13c.85.36,2,2.48,1.77,2.81-3.39,4.44-2.7,8.22,1,12.1,1,1,.67,3.1,1.17,4.62,1.07,3.22,2.28,6.38,3.16,8.8-1.93,4.95-3.84,9.65-5.56,14.44-.7,1.93-.55,3.32,2.17,4.19,4.07,1.29,4.1,3.34,1.29,6.44-2.27,2.5-3.9,5.56-6.08,8.14a7.73,7.73,0,0,1-3.67,2c-3.11.92-4.46,2.66-3.39,5.9,0,.14.11.27.14.41.85,3,.64,5.47-2.55,7.08-3.58,1.8-4.84-1.23-6.33-3.08-4.09-5.05-6.48-5.61-11.81-2.13l-3.7,2.38c-3.14-.45-2.88-2.26-1.7-4.41-.59-4.93-1.06-9.87-1.86-14.76-.23-1.43-1.11-3.28-2.25-3.91a108,108,0,0,0-10-4.42c-2.79-1.2-4.54.14-5.58,2.55-.7,1.59-.77,3.5-1.62,5C864.48,326,863,326.86,861.84,327.9Z" style="fill:#1ab91c;opacity:0.13;isolation:isolate"/><g style="opacity:0.75;mix-blend-mode:multiply"><path d="M355.16,457.4c-3,2-6,3.8-8.93,5.87-13.82,9.88-27.42,20.07-41.43,29.66a162.74,162.74,0,0,1-24.62,14.43c-8.76,4-14.13,10.25-17.36,18.82-7,18.54-13.83,37.12-20.74,55.69-4,10.85-4.51,22-2.79,33.35H206c1.4-7.78,2.59-15.28,4.12-22.69,4.13-19.91,9.61-39.37,20-57.09,4.86-8.33,10.58-16,19.07-21,10.85-6.44,22-12.4,32.61-19.24,22.27-14.43,45.84-26.26,70.17-36.67C352.94,458.11,354.09,457.78,355.16,457.4Z"/></g><path d="M361.16,454.4c-3,2-6,3.8-8.93,5.87-13.82,9.88-27.42,20.07-41.43,29.66a162.74,162.74,0,0,1-24.62,14.43c-8.76,4-14.13,10.25-17.36,18.82-7,18.54-13.83,37.12-20.74,55.69-4,10.85-4.51,22-2.79,33.35H212c1.4-7.78,2.59-15.28,4.12-22.69,4.13-19.91,9.61-39.37,20-57.09,4.86-8.33,10.58-16,19.07-21,10.85-6.44,22-12.4,32.61-19.24,22.27-14.43,45.84-26.26,70.17-36.67C358.94,455.11,360.09,454.78,361.16,454.4Z" style="fill:#035669"/><path d="M886.59,340.28c-1.14,2.15-1.4,4,1.7,4.41q2.22,12.4,4.44,24.76l2.68,17.71c.48,2.4,1,4.8,1.42,7l-13.48,3.62c.67-4.64-1.94-6.18-6.54-5.33a27,27,0,0,0,6.13-15.85c.15-2.1,1.44-4.09,2.06-6.18a9.75,9.75,0,0,0,.53-3.82,3.32,3.32,0,0,0-1.7-2.15c-.49-.22-1.7.39-2.17.95-5.78,6.26-11.37,12.61-15.28,20.37-2.48,4.87-6,9.21-9,13.8h-.91c-1-6.64-7.14-6.56-11.47-8.85-4.52-1.94-6-5.37-5.35-10.14.46-3.17-.95-4.19-4.12-3.19a39.7,39.7,0,0,1-6.43,1c-.06-.74-.47-1.78-.12-2.21,2.36-3,5.09-5.66,7.22-8.76.6-.85.11-3-.56-4.13-1.69-2.91-1.42-4.69,1.85-6.25,1.37-.67,2.48-2.59,3-4.17,1.7-5.1,3.07-10.15,7.22-14.14,3.35-3.22,6-5.24,9.12.17,3-3,0-8.54,5-10a15.75,15.75,0,0,1,0,3.5c-.77,3.4-2,6.74-2.55,10.19s.85,4.36,3.93,2.87c4-1.88,7.75-4.15,11.81-5.79C878.83,338,882.9,337.34,886.59,340.28Z" style="fill:#a10676;opacity:0.13;isolation:isolate"/><path d="M814.69,537.52l3.76,7.89q2.92,8.22,5.86,16.47c-.48,1.7-.65,4.64-1.51,4.85-4.87,1.24-2,8.7-7.73,9.21-.52,0-.39,3.39-1.21,4.87a35.05,35.05,0,0,0-4.18,18.74c.15,4.25,0,8.49,0,12.74l-1.91.24c-2.33.29-3.46-.41-3.51-3.08-.08-5.42-.53-10.82-.85-16.23-.24-4.42-6.1-13.17-9.21-13.28a5,5,0,0,1-4.82-2.7c-2.08-3.33-4.88-6.2-7.32-9.34-.35-.44-.75-1.24-.57-1.6,2.17-4.41-.57-6.61-3.76-8.65,1.93-2.95,1.33-4.68-3.24-4.64l6.74-9.69-3.66-.85c2.28-4.6,4.65-9.41,7-14.23l-.52-.15c1.19-1.63,2.07-3.67,3.61-4.8,3.8-2.78,7.11-6.66,12.46-6.54Zm-15.86,8c-2.28-1.74-3.93-3.7-4.66-3.39-1.56.63-2.65,2.44-3.93,3.75,1.13,1,2.29,3,3.4,2.94C795,548.74,796.41,547.13,798.83,545.5Z" style="fill:#1dbd18"/><path d="M889.24,601.1c1.33-2.45-.11-2.83-2.06-2.63-4.8.49-6-2-6-6.33,0-2.65-1.29-5.29-2.13-8.42,2.47-.66,5.09-1.54,7.72-2,4-.72,7.14-1.61,6.58-7-.48-4.68.57-9.51.22-14.23-.29-3.82-1-7.86-5.09-10.05-.46-.24-.06-2.11-.06-3.22L893.7,549c.29,1.87.23,3.88.95,5.55,1.53,3.55,3.46,6.91,5.22,10.36,1.24.41,2.55,1.32,3.7,1.17,5-.68,10-2.55,14,2.37l1.78.85h0q2.21,2.65,4.42,5.3l5.31,5.32c2.92,4.58,7.07,8.44,5.79,15-.59,3,.75,6.49,1.36,9.73a5.74,5.74,0,0,0,1.36,2.07c.91,1.15,1.86,2.26,2.79,3.39-1.88,1.15-3.74,3.24-5.65,3.29-12.2.29-24.41.14-36.61.14Z" style="fill:#a10676;opacity:0.13;isolation:isolate"/><path d="M897.21,513.58c-.53-2.55-1.22-5.1-1.5-7.73-.15-1.33,0-3.49.84-3.93,1.14-.63,3.5-.63,4.38.16,2.83,2.58,4.57,1.69,7-.67,1.38-1.36,4-1.35,5.94-2.31s4.31-2.06,5.56-3.77c1.7-2.33,3.25-2.64,5.52-1.28,7.46,4.49,15.43,1.42,18.28-7,3-.29,5.95-.65,8.95-.85,8.05-.54,15.9-1.91,23.2-5.53A90.55,90.55,0,0,1,1001.7,472c4.32-.67,8.49-2.13,10.31-7.07.49-1.36,2.11-2.44,3.4-3.34,3.15-2.13,6.19-5.09,9.69-5.86,4.34-1,9.46-1.1,13.54.36,3.85,1.37,9.24,3,9.47,8.61.1,2.49-.67,6.27-2.37,7.34a133.59,133.59,0,0,1-19.4,9.89c-1.8.75-4.75-.45-6.88-1.43-2.54-1.17-4.64-.8-7.35-.52-6.61.7-10.92,5.31-16.46,7.64-2.35,1-5.25.62-7.82,1.25a96.21,96.21,0,0,0-13.72,4c-3.33,1.37-5.94,4.86-9.34,5.66-6.69,1.58-13.67,1.9-20.53,2.84-2.87.4-5.69,1.17-8.57,1.53a71.33,71.33,0,0,1-7.73.39c-9.61.12-18.94,1.12-26.76,7.57A47,47,0,0,1,897.21,513.58Z" style="fill:#1ab91c;opacity:0.13;isolation:isolate"/><path d="M400.17,249.2l11.42-7.64c1.4,4,3.94,2.66,7.35,2.06,4.77-.84,9.88.23,14.85.47-2,6.9-4.44,13.72-6,20.73-.85,3.89-.32,8.1-.47,12.16-.17,4.84-.51,9.68-.56,14.52-.08,10.58,0,21.15-.9,31.78-.84-6.37-1.69-12.73-2.37-19.12-.67-6.16-2.76-10.88-10-11.19-.56,0-1.09-.85-1.64-1.26C409.88,267.3,406.6,262.68,400.17,249.2Z" style="fill:#2d2525"/><path d="M857.4,399.51c3-4.58,6.49-8.93,9-13.79,3.92-7.73,9.51-14.08,15.28-20.37.52-.56,1.7-1.18,2.17-1a3.3,3.3,0,0,1,1.7,2.14,9.7,9.7,0,0,1-.53,3.82c-.62,2.09-1.91,4.09-2.06,6.18a26.92,26.92,0,0,1-6.13,15.85l-2.65,2.67c-3.52,3.92-7.89,7.38-10.34,11.88a72.25,72.25,0,0,1-8.22,12.73c-3.66,4.34-5.31,9.94-6.42,15.45l1.19.64c.85-.42,1.77-1.22,2.6-1.15,1.16.12,2.84.57,3.29,1.42,1.7,3.18,2.93,6.6,4.42,9.88,1.92,4.25.49,8.69-3.86,11.77-3.92,2.77-6.43,2.44-10.35-1.4-5.52-5.41-5.32-6.72-3.26-13.94,1.27-4.43.59-9.4.9-14.12.16-2.36-.16-5.25,1.06-7,3.4-4.76,8-8.78,11.25-13.62C857.82,405.64,857.15,402.31,857.4,399.51Z" style="fill:#1ab91c;opacity:0.13;isolation:isolate"/><path d="M606.59,242.49c.44-.71,1.38-1.56,1.23-2.1-1.41-4.85,1-4.58,4.24-3.24,4,1.7,7.72,4,11.83,5.09,2.41.64,5.31-.58,8-1-.35,6.32-1.62,8.09-2.45,14.3-.61,4.7-1,13.89-2.23,18.51-6.19,8.71-5.82,19.17-7.7,29a44.31,44.31,0,0,1-2.14,8.88c-.5-3.93-1.17-7.85-1.49-11.8q-1.46-18.68-2.69-37.3A45.25,45.25,0,0,0,606.59,242.49Z" style="fill:#2d2525"/><path d="M809.68,612.31c0-4.24.15-8.49,0-12.73a35.07,35.07,0,0,1,4.18-18.75c.85-1.46.69-4.83,1.21-4.87,5.69-.51,2.86-8,7.73-9.2.85-.21,1-3.17,1.51-4.86l1.14,2.12,4.25,16.56c-2.94,0-4.9,1.51-5,4.32a10.32,10.32,0,0,0,1.78,6.21c.58.73,3.4-.34,5.25-.6,1.51,7.12,3,14.23,4.61,21.78H822.73c.12-.28.34-.55.33-.8a23.7,23.7,0,0,0-.4-5.25c-.11-.42-2.83-.78-3-.45a33.94,33.94,0,0,0-1.63,4.87,11.74,11.74,0,0,1-1.27,2.1Z" style="fill:#385f7b"/><path d="M917.55,568.4c-4-4.95-9-3-14-2.37-1.16.15-2.46-.76-3.7-1.17,5.58-2.92,8.3-7.39,8.1-13.82-.05-1.47,1.53-3,3-5.58,1.17,5,3.19,6.33,6.61,4.36,2.86.85,5.69,2.38,8.57,2.54,4.79.22,9.66-1,14.43-.53,2.55.22,5,2.43,7.15,4.1.45.35.12,2.94-.54,3.33a43.85,43.85,0,0,1-9.53,4.6c-2,.62-3.92.45-4.33,3.25-.1.77-2.41,2-2.61,1.85-4-3.59-7.64-.39-11.34.34h0Z" style="fill:#1ab91c;opacity:0.13;isolation:isolate"/><path d="M886.59,340.28c-3.69-2.94-7.76-2.29-11.6-.75-4.06,1.64-7.84,3.91-11.81,5.79-3.11,1.49-4.46.62-3.93-2.87s1.76-6.79,2.55-10.19a15.75,15.75,0,0,0,0-3.5v-.85c1.16-1,2.63-1.9,3.4-3.18.85-1.47.92-3.4,1.62-5,1-2.42,2.79-3.75,5.58-2.54a108,108,0,0,1,10,4.42c1.14.63,2,2.48,2.25,3.9C885.54,330.41,886,335.35,886.59,340.28Z" style="fill:#00acff;opacity:0.13;isolation:isolate"/><path d="M917.54,549.82c-3.4,2-5.44.68-6.61-4.36-1.45,2.59-3,4.11-3,5.58.2,6.43-2.54,10.9-8.1,13.82-1.77-3.45-3.69-6.79-5.22-10.36-.72-1.7-.66-3.68-1-5.55l12.38-7.07,7.09-3.55,10.57,4.42C924,547.18,921.2,548.88,917.54,549.82Z" style="fill:#00acff;opacity:0.13;isolation:isolate"/><path d="M965.34,220.39c1,8.06-4.16,12.31-10.75,10.93-2.4-.51-4.69-3.07-6.36-5.22-3.89-5,.34-15,6.46-15.79C963.64,209.18,965.34,210.77,965.34,220.39Z" style="fill:#a10676;opacity:0.13;isolation:isolate"/><path d="M980.62,527.94c.8-.37,2.39-1.05,3.93-1.86,3.5-1.84,7-1.7,9.58,1.2,3.4,3.84,3.34,9.39.36,12.55-3.26,3.47-10.89,2.07-12.88-2.24-.48-1-2-2.69-2.43-2.54-4,1.62-6.07-1.78-8.72-3.21-1.39-.76-3.1-3.86-2.65-4.52,1.1-1.61,3.52-3.5,5.15-3.29C975.53,524.39,977.77,526.39,980.62,527.94Z" style="fill:#a10676;opacity:0.13;isolation:isolate"/><path d="M777.74,557.72c3.19,2,5.94,4.24,3.76,8.65-.18.36.22,1.16.57,1.6,2.44,3.09,5.24,5.94,7.32,9.33a5,5,0,0,0,4.82,2.71c3.11.1,9,8.86,9.21,13.28.29,5.41.74,10.81.85,16.23,0,2.66,1.17,3.39,3.51,3.08l-5.37-.08c-.23-3.5-.41-7-.74-10.52a42,42,0,0,0-.9-4.6l-3.4-9.34c-.48-4.95-2.55-6.47-9-6.73-2.61-6.79-10.59-11-8.39-21.11-2.66,1.4-4.24,1.94-5.42,2.9-2.33,1.82-5.31,3-7,.5s-2.85-6.25-2.34-9.11c.58-3.3,7.13-2.26,9.82,1.4C775.63,556.7,776.83,557.12,777.74,557.72Z" style="fill:#1ba71c"/><path d="M932.59,529.49a43.61,43.61,0,0,0,6.57-.06c4.49-.71,7,2.64,7.5,7.18.38,3.39-4.63,6.54-9.15,6.14a15.29,15.29,0,0,0-5.21.55c-3,.79-4.41-.49-5-3.2C926.29,535.16,930.24,532.73,932.59,529.49Z" style="fill:#fff355;opacity:0.13;isolation:isolate"/><path d="M889.24,601.1l8.84,12.37H873.3c0-6.27.13-5.82,6-7.25C882.8,605.36,885.93,602.86,889.24,601.1Z" style="fill:#e8faef"/><path d="M932.59,529.49c-2.35,3.24-6.33,5.67-5.33,10.61l-3.54,2.65-10.57-4.42v-2.65l7.27-.85c.38-2.81,1-7.16,1.57-11.52a32,32,0,0,1,4.67-.84C931,522.29,932.47,524.14,932.59,529.49Z" style="fill:#fff355;opacity:0.13;isolation:isolate"/><path d="M984.77,376.5c-2.09,2.48-3.75,5.59-6.35,7.3-4.29,2.84-9.13,4.89-13.88,7-.95.42-3.25-.12-3.57-.85-.47-1-.22-3.28.58-3.9,3-2.35,6.42-4.24,9.65-6.35a29,29,0,0,0,2.76-2.05c1.85-1.54,3.49-3.4,5.56-4.59C982.55,371.36,983.9,372.35,984.77,376.5Z" style="fill:#fff355;opacity:0.13;isolation:isolate"/><path d="M895.45,387.16l-2.67-17.71c7.9,0,10.13,1.62,12.25,8.88C906.57,383.63,903,386.93,895.45,387.16Z" style="fill:#00acff;opacity:0.13;isolation:isolate"/><path d="M746.33,289.13c2.67,5.27-4.47,18.32-11.65,21.81C732.89,307.41,740.59,292.75,746.33,289.13Z" style="fill:#fefbe5"/><path d="M724.93,406.86c1.22-.92,2-1.54,2.84-2.14,1.71-1.21,3.71-2.07,4.37-4.4a3.41,3.41,0,0,1,1.5-1.61,1.44,1.44,0,0,1,1.39.15,1.39,1.39,0,0,1,.16,1.39c-1,1.05-2.07,1.95-3.12,2.92a17,17,0,0,0-1.76,1.74c-.66.86-1,2.21-1.86,2.6S726.5,407.2,724.93,406.86Z" style="fill:#fff355;opacity:0.13;isolation:isolate"/><path d="M717.62,376.53c-5.66-1.91-8.49-5.28-8.83-10.6-.16-3.39,2.24-4.64,4.77-4.24,1.77.28,4.46,2.19,4.64,3.62C718.63,369,717.89,372.78,717.62,376.53Z" style="fill:#a10676;opacity:0.13;isolation:isolate"/><path d="M676.78,331.67c-2.6-4.5-5.55-9.08-7.86-14-.55-1.16.69-3.79,1.89-4.89.7-.64,3.26,0,4.44.8C678.33,315.76,679,327.39,676.78,331.67Z" style="fill:#a10676;opacity:0.13;isolation:isolate"/><path d="M922.56,364.73c-4.14,1.85-6.79.81-9.27-3.39a44.1,44.1,0,0,1-2.79-4.8c-.47-1.08-.79-2.69-.3-3.56.34-.61,2.24-.68,3.34-.47C920.1,353.75,921.4,359.06,922.56,364.73Z" style="fill:#00acff;opacity:0.13;isolation:isolate"/><path d="M922.53,548.38c1.3,1.35,3.14,2.5,3.77,4.11.87,2.21-.68,3.16-3,3.34-1.62.14-2.61,3.56-4.83,1.12-1.14-1.25-2.94-2.85-2.79-4.09s2.23-2.44,3.62-3.42a6.41,6.41,0,0,1,2.48-.47Z" style="fill:#fce8e7"/><path d="M731.57,512.28c.57,1.27.41,2.22-1,2.81-.57.24-1,.85-1.6.93a12.16,12.16,0,0,1-3.3,0c-.19,0-.55-1.22-.38-1.39a8.74,8.74,0,0,1,2.76-2A14.23,14.23,0,0,1,731.57,512.28Z" style="fill:#fff355;opacity:0.13;isolation:isolate"/><path d="M959.77,590.81c-3.32,1.8-5.3,3.39-7.52,3.83-1,.18-3.25-1.94-3.52-3.29-.59-2.91,3-7.76,4.69-6.87C955.52,585.61,957,587.92,959.77,590.81Z" style="fill:#fce8e7"/><path d="M722.87,333.16c.17,4.09-3.19,8.16-5.74,7.72-1.14-.19-3-2.45-2.81-3.05a25.24,25.24,0,0,1,4.38-7.05C718.94,330.51,721.82,332.55,722.87,333.16Z" style="fill:#a10676;opacity:0.13;isolation:isolate"/><path d="M929.05,579.88l-5.31-5.31c1.21-2.27,2.17-5.32,5.56-4.06a6.22,6.22,0,0,1,3.15,3.92C933.08,577,932.31,579.39,929.05,579.88Z" style="fill:#e5f6fb"/><path d="M816.78,351.93c1.4,4.2,1.26,7-1.69,8.78-1,.57-3.28.51-3.81-.18-.92-1.17-1.76-3.9-1.17-4.48C811.79,354.34,814.24,353.37,816.78,351.93Z" style="fill:#fefbe5"/><path d="M702.83,612.35c-2.07-2.88-.58-4.72,1.84-6.28h0c3.59.56,6.31,1.81,5,6.27Z" style="fill:#a10676"/><path d="M816.71,612.74a11.81,11.81,0,0,0,1.26-2.1,35.69,35.69,0,0,1,1.64-4.87c.18-.33,2.9,0,3,.45a23.56,23.56,0,0,1,.4,5.24,2.38,2.38,0,0,1-.34.8l-2.45,1.21Z" style="fill:#1ab91c"/><path d="M937.52,293.69c1.83,2.2,3.8,3.59,3.61,4.58a5.77,5.77,0,0,1-3.33,3.6c-.7.27-3.21-1.69-3.22-2.72C934.58,297.69,936.06,296.2,937.52,293.69Z" style="fill:#fce8e7;opacity:0.13;isolation:isolate"/><path d="M893.18,428.38l-3.47,3.72c-1-1.28-2.54-2.46-2.75-3.86-.14-.85,1.61-2.47,2.8-2.87C890.32,425.17,891.57,426.92,893.18,428.38Z" style="fill:#f5e4e9;opacity:0.13;isolation:isolate"/><path d="M712.42,307c1.47,4.7.6,6.69-4.78,8.71,1.36-3.57,2.42-6.39,3.49-9.2Z" style="fill:#f5e4e9"/><path d="M615.07,612.29l1.29-1,.45,1.12Z" style="fill:#035669"/><path d="M367.34,451.8l-1.39.68Z" style="fill:#035669"/><path d="M814.69,537.52,800.17,516.8l-16.28-13.58c3.18-5.52,6.49-11,9.48-16.6,1.34-2.55,1.56-5.72,3.1-8.06,2.76-4.17,5.48-8.89,9.44-11.57s9.53-3.17,14.33-4.74a46.86,46.86,0,0,0,6.44-2.75c2.55-1.3,4.25-.74,5,2.07.43,1.69.71,3.39,1,5.14,1.21,7.3,5.63,8.36,11.88,5.31,1.7-.85,3.3-1.76,5-2.64q.43,3.53.84,7.05c-.22,1.26-1.09,3.14-.57,3.68,5.14,5.29,3.7,12.38,3.67,18.21,0,9.39-5.09,17.52-12.79,23.42-.73.56-2,.36-2.89.74a49.12,49.12,0,0,0-7,3.29c-3.4,2.16-6.66,4.63-9.93,7C818.69,534.31,816.71,535.94,814.69,537.52ZM822.16,502c-2.61-1.19-5.09-2.37-7.57-3.39-1.49-.62-4.32-1.58-4.43-1.38a78.1,78.1,0,0,0-4.73,11.89c-.22.74,2,2.32,3.29,3.32.48.37,1.42.19,2.15.2,5.07.08,10.6-5.32,11.29-10.64Zm15.56-6.48c-.21-6.11-3.4-9.2-8-9.26-3,0-5.24,2.83-5.09,6.44.22,4.74,4,8.35,8.87,7.28C835.51,499.58,836.88,496.53,837.72,495.55Zm-6.64-23.15c-3.49,2.49-7.85,3.06-6.86,7.72.23,1.07,3.8,2.63,5,2.1,4.14-1.87,2.48-5.49,1.87-9.82Z" style="fill:#0000df;opacity:0.13;isolation:isolate"/><path d="M664.51,528.85c-1.12,2.55-1.7,5.77-3.54,7.48-1.65,1.49-4.81,1.44-7.34,1.79-1.1.15-2.4-.85-3.4-.55a40.53,40.53,0,0,0-5.77,2.34c.85,1.61,1.27,3.57,2.47,4.8a13.28,13.28,0,0,1,2.36,15.84,16.07,16.07,0,0,1-1.63,2.52l-.18-.25a74.74,74.74,0,0,1-5-7.09c-1.27-2.29-1.7-5.09-3-7.31-.79-1.36-1.78-2.5-3-2.75l-.33,0a3.54,3.54,0,0,0-2.76,1.44l-.21.23-.45.14L631,548l-2.24.68c.71,1.35,1.42,2.64,2.16,4-.93,2.21-1.88,4.42-2.81,6.63h-1.16c-.62-2-1.28-4-1.84-6.06-1.24-4.5-3.66-5.38-7.42-2.55-1.4,1.05-2.47,2.87-4,3.39-1.86.59-4.52.85-5.94-.09-1.14-.75-1.4-3.57-1.18-5.37.19-1.62,1.46-3.17,2.46-4.6,3.24-4.59,2.35-8.42-2.93-10.36-3.13-1.15-6.58-1.47-9.86-2.23-18.86-4.33-16.29-5.94-16.38-22.13a7.48,7.48,0,0,1,1.33-4.46,6.47,6.47,0,0,1,3.76-2.46,40,40,0,0,1,10-1.47c3.27,0,6.26,1.79,6.67,5.33.45,3.89,2.59,4.44,5.75,4.25,1.88-.13,3.75,0,6.22,0a27.68,27.68,0,0,1-1.19,4.46c-1.25,2.78-1,5,2.13,6,2.87,1,5-.48,5.89-3.12.69-2,.56-4.35,1-6.49.57-2.86.91-5.85,2.08-8.49a7.74,7.74,0,0,1,9.87-4.39,8.07,8.07,0,0,1,5.37,9.85c-.6,2.71-1.77,5.3-2.46,8a53.86,53.86,0,0,0-.85,5.77l21.17-3.39c.11,5.33-2.69,7-6.79,7.64.18.4.36.85.54,1.2,2.45,0,4.92-.18,7.34,0A64.11,64.11,0,0,1,664.51,528.85Z" style="fill:#e21e22"/><path d="M751.4,585.46c-7.26-1.26-10.79-1.65-12.71-.66a3.37,3.37,0,0,0-.81.57h0c-.12.16-.25.32-.38.47l0,0a9.18,9.18,0,0,0-1.19,3.26c-1,4.34,2.11,8.21,8.64,10.41-.53,1-1.4,2-1.34,2.84.13,1.62.47,4.29,1.32,4.55.22,0,.44.08.67.11a6.58,6.58,0,0,0,4.5-1.18c1-.74,1.29-2.86,1.29-4.38C751.5,596.13,751.4,590.76,751.4,585.46ZM750,598.39c-.09-.09-.24-.21-.24-.28a2.14,2.14,0,0,1,.26-.55l.28.3Z" style="fill:#eed908"/><path d="M669,555.11s0,.06,0,.09h-.12Z" style="fill:#d82022"/><path d="M683.92,583.57a7.82,7.82,0,0,1-.71,1.06c-1.75,2.29-4,2.61-5.91.07a28.65,28.65,0,0,1-4.4-10.19c-.7-2.92.22-6.2-.26-9.2-.34-2.23-1.86-4.25-2.7-6.42a27.57,27.57,0,0,1-.9-3.69c.55,0,1.06,0,1.53,0,4.91.14,6.28,1.73,7.69,6.78a59.41,59.41,0,0,0,4.24,10.4C684.26,576,686.24,579.47,683.92,583.57Z" style="fill:#d82022"/><path d="M691.32,539.12A10.81,10.81,0,0,1,687,546a3,3,0,0,1-1.71.58c-5.07-.32-7.79-3.06-7.52-7.57s3.65-8.39,7-8.44a3.62,3.62,0,0,1,.46,0C688.43,530.94,691.61,535.37,691.32,539.12Z" style="fill:#ca3a1e"/><path d="M770.05,577a7.35,7.35,0,0,1-1.51,4.74c-1.47,1.89-4,3-7.14,3.07-3.91.32-5-2.55-5.22-5.56a7,7,0,0,1,2.38-5.32,8.91,8.91,0,0,1,6.31-2.76C768.56,571.34,770,573.73,770.05,577Z" style="fill:#eed908"/><path d="M797.32,588l3.4,9.33c-1.7,4.06-5.56,6.18-8.65,4.77-3.6-1.63-5-6.4-3.09-10.89C790.7,587.18,793,586.28,797.32,588Z" style="fill:#1ab91c"/><path d="M775.91,601.81c-.57,2.46-2.49,4.64-4.24,7.72l-.2-.13c-2.76-1.83-5.78-3-7.25-5.2-1.08-1.63-.43-4.89.32-7.12a5.49,5.49,0,0,1,1.91-2.76,5.1,5.1,0,0,1,5.5-.15C775,595.75,776.63,598.58,775.91,601.81Z" style="fill:#1ab91c"/><path d="M665.9,504.08a5.48,5.48,0,0,1-.42,1,6.25,6.25,0,0,1-5.28,3.28c-3.62.27-5.34-1.85-5.35-5.41a6.72,6.72,0,0,1,3-5.31,5.14,5.14,0,0,1,2.7-.91C663.42,496.63,665.77,499.2,665.9,504.08Z" style="fill:#ca3a1e"/><path d="M777.4,535.73c-.51,2.91-2.08,5.49-6.07,5.42a3.83,3.83,0,0,1-.76,0c-2.68-.2-3.85-2.54-3.82-4.95a5.8,5.8,0,0,1,5.34-6,4.48,4.48,0,0,1,.82,0,4.91,4.91,0,0,1,4.51,4.48A4.26,4.26,0,0,1,777.4,535.73Z" style="fill:#eed908"/><path d="M750.49,564.61c0,3.92-1.82,5.45-4.88,5.47a5.74,5.74,0,0,1-2.31-.42c-1.81-.73-2.63-2.48-2.69-4.91-.09-3.3,1.58-5.26,4.64-5.09a7.46,7.46,0,0,1,1,.1C748.82,560.16,750.85,561.68,750.49,564.61Z" style="fill:#1ab91c"/><path d="M697.61,567.5c-3.06,2.36-4.77,4.52-6.79,4.89-1,.18-3.77-3.15-3.6-4.66.21-1.92,2.55-3.6,4-5.39Z" style="fill:#ca3a1e"/><path d="M637.25,477.81c2.63-1.92,4.24-3.73,6.1-4.13.8-.17,3.47,3.23,3.12,3.95-1,1.93-3.06,3.3-4.71,4.9Z" style="fill:#ca3a1e"/><path d="M781.31,502.92c-.36,1.64-.22,3.81-1.23,4.79s-3.27,1.33-5,1.44c-.54,0-1.84-1.95-1.61-2.5a11,11,0,0,1,3.12-4.31c.85-.65,2.55-.18,3.85-.21V502l1,.94Z" style="fill:#eed908"/><path d="M747.88,534.21l4.88-4.55c1.24,1.55,3.5,3.15,3.4,4.64s-2.38,3.05-3.71,4.57C751.23,537.59,750,536.33,747.88,534.21Z" style="fill:#1ab91c"/><path d="M681.19,498.88c-.85-1.45-2.61-3.18-2.27-4.25.56-1.76,2.49-3.08,3.84-4.58,1.24,1.19,3.68,2.61,3.5,3.52-.38,1.94-2.12,3.62-3.3,5.41Z" style="fill:#ca3a1e"/><path d="M662.07,601.36c-3.85-2-4.82-4.69-3-7.13,1.28-1.7,2.66-2.55,4.69-.65C667.7,597.29,662.84,598.58,662.07,601.36Z" style="fill:#ca3a1e"/><path d="M728.22,535.52c1.1,1.5,3.12,3.06,3,4.49s-2.19,2.89-3.4,4.32c-1.08-1.33-2.85-2.54-3.06-4s1.17-3.08,1.86-4.64Z" style="fill:#1ab91c"/><path d="M704.73,606.08h0c-.74-1.24-2.41-2.91-2.07-3.63.7-1.46,2.38-2.55,3.87-3.45.33-.19,2.06,1,2.29,1.76.6,2.13.11,4-2.47,4.67A10.34,10.34,0,0,0,704.73,606.08Z" style="fill:#eed908"/><path d="M665.07,475.31c-2.09,1.38-3.29,2.5-4.7,2.93-.44.13-2.25-2.12-2.06-2.43a9.17,9.17,0,0,1,3.32-3.17C662,472.4,663.31,473.87,665.07,475.31Z" style="fill:#eed908"/><path d="M543.82,539.83c-2.06,1.34-3.3,2.64-4.7,2.86-.78.11-1.84-1.57-2.77-2.46a20.94,20.94,0,0,1,3.75-3.56C540.45,536.43,542,538.19,543.82,539.83Z" style="fill:#ca3a1e"/><path d="M653.38,596.55c-1.81,1.2-3,2.54-4,2.48-.85,0-2.47-2-2.29-2.75.31-1.36,1.7-2.47,2.68-3.69Z" style="fill:#1ab91c"/><path d="M630.88,552.63l-2.13-4,4.48-1.36C635.37,550.38,634.07,551.93,630.88,552.63Z" style="fill:#eed908"/><path d="M648.42,504.23c-1.17-2-2.31-3.07-2.25-4.1.05-.85,1.7-2.43,2.32-2.28,1.11.28,2.6,1.5,2.73,2.49S649.86,502.34,648.42,504.23Z" style="fill:#a10676"/><path d="M628.59,602c-1.87,1.22-2.91,2.42-3.94,2.41-.85,0-2.45-1.59-2.34-2.22.2-1.09,1.39-2.62,2.32-2.76S626.69,600.72,628.59,602Z" style="fill:#1ab91c"/><path d="M669,555.15a2.21,2.21,0,0,1-.29-.22v-.22l.26.49Z" style="fill:#d82022"/><polygon points="748.25 581.96 748.34 582.26 748.06 582.22 748.25 581.96" style="fill:#eed908"/><path d="M504.47,510.81c-10.06-4.42-20.24-8.57-30.12-13.34s-19.53-10.18-29.29-15.28c-6.19-3.24-6.79-4-6-10.65,1.7-15.44,3.52-30.87,5.32-46.31.84-7.46,5.4-12.79,10.45-17.82l1,1a54.88,54.88,0,0,0-.78,7.24c.18,10.28.6,20.55.77,30.82a75.48,75.48,0,0,1-.8,8.49,99.27,99.27,0,0,0,2.54-17.32,43,43,0,0,0,0-6.62c-.49-7.29-1.07-14.58-1.61-21.88,11,9.85,21.92,19.76,34.24,28.23,16.91,11.62,34.38,13.05,53.18,7.28,5.73-1.76,11.26-4.17,16.89-6.28-2.34,2.92-4.8,5.77-7,8.8-11.09,15.28-21.55,31-34.94,44.52C512.78,497.24,509,504.39,504.47,510.81Z" style="fill:#a7725b"/><path d="M504.47,510.81c4.54-6.42,8.31-13.58,13.75-19.09,13.39-13.58,23.86-29.24,34.94-44.52,2.21-3,4.67-5.88,7-8.8h0l1.79-.92c2.44-2.29,5-4.48,7.31-6.87,11.29-11.53,22.31-23.25,29-38.25a19.69,19.69,0,0,1,2.54-3.47c-.24,6.74-.4,13.49-.76,20.23-.35,6.5,2.82,10.7,8.57,12.9,3.05,1.16,3.83,2.92,3.69,5.94-.38,7.54-3.52,14.07-6.41,20.87-5.94,14-15.83,24.11-28.07,32.52-16.64,11.46-33.7,22.08-52.79,29C518.22,512.91,511.39,513.91,504.47,510.81Z" style="fill:#ba8163"/><path d="M536.27,246.64c14.53.85,29.08,1.44,43.55,2.82,3.63.34,7,3.27,10.53,5h-.07c.3.32.62.64.92,1l-.05-.06v.94c-6.36-1.59-12.68-3.45-19.12-4.67-3.85-.73-7.91-.26-11.83-.69-7-.76-13.91-1.74-20.85-2.75A13.14,13.14,0,0,1,536.27,246.64Z" style="fill:#975c44"/><path d="M455.87,409.17c.54,7.3,1.12,14.59,1.61,21.88a45.71,45.71,0,0,1,0,6.62A99.29,99.29,0,0,1,454.93,455a73.22,73.22,0,0,0,.8-8.49c-.16-10.27-.59-20.54-.76-30.82a54.88,54.88,0,0,1,.78-7.24A5.3,5.3,0,0,1,455.87,409.17Z" style="fill:#975c44"/><path d="M592.93,256.3l.39,1.34-1.39-1Z" style="fill:#975c44"/><path d="M562,437.48l-1.79.93Z" style="fill:#a7725b"/><path d="M592.93,256.3l-1,.3a2.62,2.62,0,0,0-.76-.3v-.94Z" style="fill:#0b0907"/><path d="M591.2,255.4c-.3-.32-.62-.63-.92-1C590.58,254.77,590.9,255.08,591.2,255.4Z" style="fill:#0b0907"/><path d="M601.21,387.24c-.09.3-.19.6-.29.91C601,387.88,601.12,387.54,601.21,387.24Z" style="fill:#ba8163"/><path d="M414.49,240l-.3.12a2.66,2.66,0,0,0-.09-.46,1.14,1.14,0,0,1,.32.07C414.48,239.8,414.47,239.94,414.49,240Z" style="fill:#221b1a"/><path d="M906.06,541.88,893.68,549l-5.32-1.78c.17-3.65-.54-6.56-3.67-9.34-1.36-1.19-.23-5.24-.23-8.12l4.77.63c3.93,2.75,12.2,1.08,9.55,9.92,1.93.59,3.28,1.08,4.67,1.41A16.31,16.31,0,0,0,906.06,541.88Z" style="fill:#fff355;opacity:0.13;isolation:isolate"/><path d="M825.45,564l-1.14-2.12-5.83-16.46c8.55-.32,11.79,4,13.74,9.05C834.39,560.2,832.34,562.9,825.45,564Z" style="fill:#00acff;opacity:0.13;isolation:isolate"/><path d="M906.06,541.88a16.28,16.28,0,0,1-2.61-.18c-1.39-.32-2.74-.85-4.67-1.41,2.65-8.83-5.62-7.16-9.55-9.91,4.24-.85,8.49-2,12.8-2.44,2.09-.24,3.31,1.11,3,3.74-.66,4.78.3,5.35,4.72,3.8,1-.35,2.27.12,3.39.2v2.65Z" style="fill:#fefefe"/><path d="M924.64,423.53c-2.74,3.05-5.22,6.42-8.37,9-.84.72-4.24-.43-5.5-1.7-.85-.85-.85-3.95,0-5a30.46,30.46,0,0,1,7.73-6.34C921.66,417.76,924,419.46,924.64,423.53Z" style="fill:#fefbe5;opacity:0.13;isolation:isolate"/><path d="M862.79,587.83c-2.67.3-3.77-1.11-3.65-3.91s4.7-6.19,8.48-5.64a5.55,5.55,0,0,1,3.74,3.3C872,584.09,866.62,587.91,862.79,587.83Z" style="fill:#00acff;opacity:0.13;isolation:isolate"/><path d="M845,390.66c4.33,2.29,10.49,2.21,11.47,8.84-2.79.9-5.09,2.62-8.62.91C842.77,397.93,844.87,394.2,845,390.66Z" style="fill:#00acff;opacity:0.13;isolation:isolate"/><path d="M850.32,476.42c-.28-2.35-.57-4.7-.84-7.05,2.1.22,5.35-.31,6.07.85a13.78,13.78,0,0,1,2.23,8.35c-.27,2.41-2.8,3.2-4.91.85C852,478.37,851.16,477.39,850.32,476.42Z" style="fill:#00acff;opacity:0.13;isolation:isolate"/><path d="M831.79,590.49c-1.81.25-4.67,1.32-5.24.59a10.29,10.29,0,0,1-1.79-6.2c.06-2.81,2-4.36,5-4.33Q830.76,585.53,831.79,590.49Z" style="fill:#1ab91c"/><path d="M723,396.86l-3.44-11.23,1.82-.85,9.56,14.7Z" style="fill:#fefefe"/><path d="M839.09,544.92c-1.25-2.28-2.31-3.73-2.76-5.34-.13-.45,2.09-2.13,2.26-2a48.83,48.83,0,0,1,4.37,4.14Z" style="fill:#e8faef"/><path d="M870.93,556.85c-2-2.82-3.93-5.63-6.29-9,5.62.47,7.64,3,7.52,8.17Z" style="fill:#00acff;opacity:0.13;isolation:isolate"/><path d="M781.37,503l-1-.94Z" style="fill:#015e76"/><path d="M668.1,427.35c0-5.3,2.6-8.49,6.85-8.38s8.66,4.72,8.79,9.34c.08,3.3-4.31,8.14-7.5,8.26C672.14,436.76,668.09,432.16,668.1,427.35Z" style="fill:#a10676;opacity:0.13;isolation:isolate"/><path d="M798.83,545.5c-2.42,1.63-3.79,3.24-5.19,3.28-1.11,0-2.27-1.88-3.4-2.94,1.28-1.31,2.37-3.12,3.93-3.75C794.9,541.8,796.55,543.76,798.83,545.5Z" style="fill:#eed908"/><path d="M917.55,568.4l1.77.85Z" style="fill:#fefefe"/><path d="M822.16,502c-.69,5.32-6.19,10.72-11.29,10.66-.73,0-1.7.17-2.15-.21-1.26-1-3.51-2.54-3.29-3.32a78,78,0,0,1,4.73-11.88c.11-.2,2.94.75,4.43,1.37C817.1,499.66,819.55,500.84,822.16,502Z" style="fill:#a10676;opacity:0.13;isolation:isolate"/><path d="M837.72,495.55c-.85,1-2.21,4-4.17,4.46-4.83,1.07-8.66-2.54-8.88-7.28-.17-3.61,2.1-6.49,5.09-6.44C834.29,486.35,837.51,489.44,837.72,495.55Z" style="fill:#00acff;opacity:0.13;isolation:isolate"/><path d="M831.08,472.4c.61,4.33,2.27,8-1.87,9.82-1.19.53-4.76-1-5-2.1C823.23,475.46,827.59,474.89,831.08,472.4Z" style="fill:#00acff;opacity:0.13;isolation:isolate"/><path d="M750.27,597.9l-.3.52c-.09-.09-.26-.21-.24-.28a2.31,2.31,0,0,1,.26-.55Z" style="fill:#015e76"/><path d="M631,548l-2.24.68c.71,1.35,1.42,2.64,2.16,4-.93,2.21-1.88,4.42-2.81,6.63h-1.16c-.62-2-1.28-4-1.84-6.06-1.24-4.5-3.66-5.38-7.42-2.55-1.4,1.05-2.47,2.87-4,3.39-1.86.59-4.52.85-5.94-.09-1.14-.75-1.4-3.57-1.18-5.37.19-1.62,1.46-3.17,2.46-4.6,3.24-4.59,2.35-8.42-2.93-10.36-3.13-1.15-6.58-1.47-9.86-2.23-18.86-4.33-16.29-5.94-16.38-22.13a7.48,7.48,0,0,1,1.33-4.46c.3.79-.14,2.28-.21,2.87a35.68,35.68,0,0,0-.08,9c.57,4,2.37,8,5.68,10.4,2.74,1.95,6.17,2.57,9.47,3.15,2.45.43,4.91.85,7.36,1.29,3.2.55,6.75,1.32,8.59,4,1.45,2.12,1.44,4.94.78,7.42s-1.9,4.76-2.75,7.18c-.4,1.12-.52,2.71.58,3.17a2.41,2.41,0,0,0,1.7-.17,26.15,26.15,0,0,0,4.58-2.22c2-1.2,4.32-2.74,6.47-1.81,2.82,1.21,2.54,5.34,4.22,7.91a3.08,3.08,0,0,0,1.13-3.24c-.21-1.21-.78-2.33-1-3.53a2.14,2.14,0,0,1,.13-1.37C628.36,547.85,629.79,548.08,631,548Z" style="fill:#b52331"/><path d="M632.76,547.44c.22-.12.45-.24.66-.37l-.21.23Z" style="fill:none"/><path d="M647.49,562.69s0,.09,0,.13a74.74,74.74,0,0,1-5-7.09c-1.27-2.29-1.7-5.09-3-7.31-.86-1.49-2-2.71-3.28-2.79a3.5,3.5,0,0,1,1.2-.18,4.4,4.4,0,0,1,3.29,2.09,16.58,16.58,0,0,1,1.59,3.69,42.16,42.16,0,0,0,4,8.34A5.84,5.84,0,0,1,647.49,562.69Z" style="fill:#b52331"/><path d="M635.38,526.51a6.22,6.22,0,0,1,.77,1.7l.65,1.92a4.8,4.8,0,0,0,.9,1.79,1.63,1.63,0,0,0,1.82.49,2.42,2.42,0,0,0,1-1.82l.42-1.87a1.15,1.15,0,0,1,.23-.57,1.81,1.81,0,0,1,.67-.36A2.39,2.39,0,0,0,643.1,526a6.78,6.78,0,0,0-.05-2.2c0-.33-.12-.72-.43-.84a.66.66,0,0,0-.44,0,2,2,0,0,0-1.2,1.6,17.74,17.74,0,0,1-.36,2.06,1.66,1.66,0,0,1-1.51,1.24,4.43,4.43,0,0,0-1-.16c-.2,0-.38.12-.58.12-.42,0-.68-.47-.72-.88a6.29,6.29,0,0,0-.1-1.24c-.25-.72-1.08-1-1.82-1.2-.55-.13-1.78,0-1.16.87C634.08,525.89,635,525.92,635.38,526.51Z" style="fill:#b52331"/><path d="M591.94,516.47a9.22,9.22,0,0,1,1.14,3.42,8.83,8.83,0,0,0,1.12,2.58,3.81,3.81,0,0,0,1.18,1.25,4.77,4.77,0,0,0,2.88.33,1.75,1.75,0,0,0,.56-.12,1.22,1.22,0,0,0,.49-.49c.89-1.52-.44-3.46-.07-5.18a5,5,0,0,1,2.6-2.88,7.34,7.34,0,0,0,3-2.55l-4.53,2.29a3.39,3.39,0,0,0-1.62,1.28,3.51,3.51,0,0,0-.29,1.4l-.13,2.06c0,.17,0,.38-.21.47a.63.63,0,0,1-.46-.05,1.33,1.33,0,0,0-1.2.22,1,1,0,0,0-.33,1.13c-1,.18-1.87-.89-2.11-1.92a12.54,12.54,0,0,0-.67-3.07,3.72,3.72,0,0,0-2.44-1.74,6.88,6.88,0,0,0-2.89-.17C589.37,515.19,590.92,515.15,591.94,516.47Z" style="fill:#b52331"/><path d="M808.86,545.38l2.16,8.33c.44,1.72,1,3.59,2.46,4.59a2.37,2.37,0,0,0,1.75.45,2.14,2.14,0,0,0,1.52-1.66,4.37,4.37,0,0,0-.22-2.34c-.56-1.67-1.59-3.4-1-5.06.21-.62.62-1.15.88-1.75a7.16,7.16,0,0,0,.38-2.57,4.79,4.79,0,0,0-.3-2.23,1.65,1.65,0,0,0-1.86-1l-.58,5.61a1.14,1.14,0,0,1-.19.63,1.17,1.17,0,0,1-1,.28c-.84,0-1.86-.16-2.16-.94a2.52,2.52,0,0,1-.09-.91c0-1.31-1.25-6.08-3.19-4.58A8.16,8.16,0,0,1,808.86,545.38Z" style="fill:#1ba71c"/><path d="M744.69,602.76c-.2,1.41.55,2.75.84,4.14l0,.16c-.23,0-.45-.06-.67-.11-.85-.26-1.19-2.93-1.32-4.55-.06-.86.81-1.8,1.34-2.84-6.53-2.2-9.62-6.07-8.64-10.41a9.18,9.18,0,0,1,1.19-3.26l0,0c.13-.15.26-.31.38-.47h0a1.68,1.68,0,0,1,.8-.62.09.09,0,0,1,0,0c.09.47-.69,1.14-.94,1.52a5.64,5.64,0,0,0-.85,2,8.42,8.42,0,0,0,.93,4.7,5.06,5.06,0,0,0,2.93,3.14l4.07,2.32a1.51,1.51,0,0,1,.79.74,1.26,1.26,0,0,1,0,.58C745.49,600.82,744.83,601.73,744.69,602.76Z" style="fill:#ddc40e"/><path d="M768.66,581.24c0,.17-.07.34-.12.51-1.47,1.89-4,3-7.14,3.07-3.91.32-5-2.55-5.22-5.56a7,7,0,0,1,2.38-5.32,11.6,11.6,0,0,1-.51,2.65,22.9,22.9,0,0,0-.26,3,7.25,7.25,0,0,0,.24,2.32,3.09,3.09,0,0,0,1.4,1.8,3.85,3.85,0,0,0,1.46.38A9.89,9.89,0,0,0,768.66,581.24Z" style="fill:#ddc40e"/><path d="M771.47,609.4c-2.76-1.83-5.78-3-7.25-5.2-1.08-1.63-.43-4.89.32-7.12a5.49,5.49,0,0,1,1.91-2.76c.13.67-.76,2.17-1,2.68a16,16,0,0,0-1,3.07,5.47,5.47,0,0,0,.26,3.18,5.68,5.68,0,0,0,2,2.31,27.91,27.91,0,0,0,2.7,1.57C770.4,607.64,771.38,608.38,771.47,609.4Z" style="fill:#1ba71c"/><path d="M772.91,530.18a.2.2,0,0,1,0,.11c-.17.41-1.57.68-2,1a5.32,5.32,0,0,0-1.95,2.61,10.77,10.77,0,0,0-.58,3.24,3.18,3.18,0,0,0,.78,2.66,9.38,9.38,0,0,1,1.11.75,1.27,1.27,0,0,1,.3.64c-2.68-.2-3.85-2.54-3.82-4.95a5.8,5.8,0,0,1,5.34-6A4.48,4.48,0,0,1,772.91,530.18Z" style="fill:#ddc40e"/><path d="M746.2,559.76c-.35.57-1.69.79-2.22,1.13a5.17,5.17,0,0,0-2.11,4.61,9,9,0,0,0,1.43,4.16c-1.81-.73-2.63-2.48-2.69-4.91-.09-3.3,1.58-5.26,4.64-5.09A7.46,7.46,0,0,1,746.2,559.76Z" style="fill:#1ba71c"/><path d="M687,546a3,3,0,0,1-1.71.58c-5.07-.32-7.79-3.06-7.52-7.57s3.65-8.39,7-8.44a.38.38,0,0,1-.08.11c-.26.24-1.21.27-1.57.4a4.65,4.65,0,0,0-1.44.81,5.89,5.89,0,0,0-1.7,3.21,13.29,13.29,0,0,0,1,8.9,1.2,1.2,0,0,1-.7.23l2.18,1a7.16,7.16,0,0,0,2.18.76,7.45,7.45,0,0,0,2.3-.24A1.62,1.62,0,0,1,687,546Z" style="fill:#b52331"/><path d="M601,388.67a45,45,0,0,0-2.68,3.72c-6.71,15-17.74,26.72-29,38.25-2.34,2.4-4.87,4.59-7.32,6.87l-1.79.92c-5.63,2.11-11.16,4.52-16.89,6.29-18.79,5.76-36.27,4.33-53.18-7.29-12.32-8.49-23.19-18.38-34.24-28.22a6.73,6.73,0,0,0-.09-.77l-.9-1-.13-.59c3.83,2.82,11.78,8.41,16.75,13.5,4.18,4.27,9.41,6.93,13.85,10.94a64.23,64.23,0,0,0,8.33,6.58c3.16,2,7.19,3.42,10.59,5,2.18,1,4.56,1.76,6.79,2.6,3.09,1.18,6.61,1.11,9.9,1.09,11.78-.09,22.61-2.94,33.5-7.43a36,36,0,0,0,10-5.58c4.41-3.65,8.18-8.78,12.21-12.86,2.63-2.64,5.64-5.73,8-8.59a51.48,51.48,0,0,0,5.67-9,93,93,0,0,1,5.2-8.48C596.3,393.46,599.25,388.19,601,388.67Z" style="fill:#db987b"/><path d="M545,115c0,.21.09.43.13.65l-40.66,7.51c-23.95,4.42-49.29,9.52-67.17,26.07C431,154.94,426,161.86,421,168.73c-3.75,5.17-7.54,10.4-9.86,16.35a69,69,0,0,0-3.23,12.63q-3,16.54-4.76,33.28l1.46-2.59c2.09,5.9,1.93,12.83-1.51,18.06a14.76,14.76,0,0,1-1.23,1.6l-1.71,1.14c-3.44-10-5.25-20.15-3.44-30.63,2-11.88,4.65-23.64,6.79-35.49a32.91,32.91,0,0,1,7.13-15.37c5.86-7.18,11.51-14.53,17.3-21.77,8.73-10.95,20.83-16.46,33.71-20.58,18.92-6.06,38.48-8.49,58.19-9.57C528.2,115.32,536.59,114.91,545,115Z" style="fill:#1e1e1e"/><path d="M503.87,212.65l-.06.09-2.65,3.41a18,18,0,0,0-.36-2.93l2.63-.49Z"/><path d="M641.42,279.92c-1.88,16.42,1.22,33.65-7.7,49-3.39,5.9-6.27,12.21-10.37,17.59-1.37,1.79-5.8,1.29-8.85,1.69a3.06,3.06,0,0,1-1.6-.33l-.21.74a4.09,4.09,0,0,1-.26-1.11c3.91-.88,8-1.84,11-4.53a21.91,21.91,0,0,0,3.67-4.72c3.52-5.63,6.85-11.63,7.63-18.22,1.89-2.31,1.37-5.71,2.3-8.55.38-1.17,1-2.24,1.42-3.4a19.38,19.38,0,0,0,.73-5.79l.21-9.6c0-1.59.07-3.19.24-4.77a42.34,42.34,0,0,0,.48-4.77,24,24,0,0,0-.41-3.6,6.85,6.85,0,0,0-.74-2.49c-.91-1.54-2.84-2.16-4.62-2.25s-3.59.22-5.36,0a3.45,3.45,0,0,1-1.68-.67c1.73-.19,3.5-.32,5.22-.6C637.59,272.62,642,275.32,641.42,279.92Z" style="fill:#c6896f"/><path d="M669,555.11s0,.06,0,.09h-.12Z" style="fill:#b52331"/><path d="M683.21,584.63c-1.75,2.29-4,2.61-5.91.07a28.65,28.65,0,0,1-4.4-10.19c-.7-2.92.22-6.2-.26-9.2-.34-2.23-1.86-4.25-2.7-6.42a27.57,27.57,0,0,1-.9-3.69c.55,0,1.06,0,1.53,0a.69.69,0,0,1,.11.17c.16.34,0,1,0,1.42a12.44,12.44,0,0,0,.21,1.61,41.65,41.65,0,0,0,2.06,6.13,12.42,12.42,0,0,1,.7,2.52,30.74,30.74,0,0,1,.05,4c0,4.51,1.87,8.8,3.94,12.81.49.95,1.2,2,2.27,2a2.86,2.86,0,0,0,1-.23A22.61,22.61,0,0,0,683.21,584.63Z" style="fill:#b52331"/><path d="M632.71,420c-2.21,3.77-4.49,7.51-6.63,11.32-4.52,8.06-8.49,16.46-13.58,24.17-4.24,6.45-9.87,12-14.55,18.14-9.74,12.89-24.28,19.12-37.4,27.3-5.36,3.34-11,6.26-16.35,9.56-8.61,5.28-18.3,6.79-28,8.34-14,2.27-27.75.44-41.49-2.1-10.78-2-21.61-3.67-32.33-5.94s-13.89-6-15.89-17.14c-.67-3.73-2.38-7.3-2.86-11a89.86,89.86,0,0,1-.84-16.06c.78-15.28,6.42-29.38,10.69-43.82a10.81,10.81,0,0,0,.19-2.19l1.29-1.52.1,0c-1.12,7.89-3.94,15.43-5.86,23.16-.45,1.83-.85,3.67-1.25,5.51s-.79,3.61-1.19,5.42c-1.09,5-2.18,9.93-2.91,15-1.56,10.68,2,21.46,5.16,31.75a15,15,0,0,0,1.19,3.07c1.71,3.05,5.23,4.6,8.58,5.63a119.48,119.48,0,0,0,14.5,3.22c11.66,2.09,23.33,4.19,35.07,5.81,3.88.53,7.78,1,11.68,1.43s7.7-.08,11.52-.29a76.4,76.4,0,0,0,10.14-1,66.43,66.43,0,0,0,9.83-2.93,84,84,0,0,0,15.32-6.88c2.88-1.76,5.58-3.81,8.56-5.39,1.79-.95,3.67-1.73,5.46-2.68a63.06,63.06,0,0,0,8.59-5.88c1.69-1.31,3.26-2.7,5-4,1-.76,2-1.51,3.11-2.17s2.38-1.3,3.58-1.93a52.91,52.91,0,0,0,10-6.64c5.14-4.4,9.21-9.89,13.24-15.33l4-5.36a22.11,22.11,0,0,0,3.23-5.36,20.62,20.62,0,0,1,2.53-4.22c1.23-1.81,2.46-3.63,3.7-5.44.53-.79,1.08-1.58,1.58-2.4.84-1.35,1.58-2.76,2.31-4.17l4.75-9.06c.7-1.34,1-2.75,1.77-4.07.94-1.66,2.14-3.45,1.73-5.3a9,9,0,0,0-1.11-2.39,11.15,11.15,0,0,1-1.24-4.15c.77,1.42,1.47,2.87,2.11,4.37S631.67,418.82,632.71,420Z" style="fill:#034651"/><path d="M649.29,560.5v0a16.07,16.07,0,0,1-1.63,2.52l-.18-.25a74.74,74.74,0,0,1-5-7.09c-1.27-2.29-1.7-5.09-3-7.31-.79-1.36-1.78-2.5-3-2.75a4.78,4.78,0,0,1,3.44.94c1,.91,1.35,2.37,1.69,3.7.62,2.36,1.67,4.77,3.7,6.11.77.49,1.63.82,2.36,1.37A3.92,3.92,0,0,1,649.29,560.5Z" style="fill:none"/><path d="M665.48,505a6.25,6.25,0,0,1-5.28,3.28c-3.62.27-5.34-1.85-5.35-5.41a6.72,6.72,0,0,1,3-5.31,1.29,1.29,0,0,1-.15.27c-1.09,1.67-2.24,3.55-1.9,5.51a4.06,4.06,0,0,0,3.05,3.2,7,7,0,0,0,3.65-.41C663.49,505.84,664.5,505.46,665.48,505Z" style="fill:#b52331"/></g></g></svg>